<svg xmlns="http://www.w3.org/2000/svg" viewBox="0 0 512 512" width="512" height="512">
  <g transform="translate(8.78 26.383) scale(4.57815)">
    <title>
      Layer 1
    </title>
    <path d="M36 0L18 31.2l22 12.67 14-24.25 4.88 8.63-5.82 3.37 22.38-.25 7.44-12.56 3.93-6.65-5.83 3.38L72 0zm54 31.2L67.8 44l13.5 23.75-9.17.06v-6.5l-3.63 6.5-7.37 13v.1l7.18 12.7 3.86 6.74V93.6H90l18-31.2zM3.06 43.43L9 46.87l-9 15.5 18 31.2h36V67.93l-28 .18 4.94-8.53 5.87 3.38L25.48 43.7z" fill="#00bf00"/>
  </g>
</svg>
