<?xml version="1.0" encoding="UTF-8" standalone="no"?>
<!-- Created with Inkscape (http://www.inkscape.org/) -->

<svg
   xmlns:dc="http://purl.org/dc/elements/1.1/"
   xmlns:cc="http://creativecommons.org/ns#"
   xmlns:rdf="http://www.w3.org/1999/02/22-rdf-syntax-ns#"
   xmlns:svg="http://www.w3.org/2000/svg"
   xmlns="http://www.w3.org/2000/svg"
   xmlns:sodipodi="http://sodipodi.sourceforge.net/DTD/sodipodi-0.dtd"
   xmlns:inkscape="http://www.inkscape.org/namespaces/inkscape"
   width="512"
   height="512"
   viewBox="0 0 512 512"
   version="1.1"
   id="svg8"
   inkscape:version="0.92.1 r"
   sodipodi:docname="distribution_type__voluntary_donation.svg">
  <defs
     id="defs2" />
  <sodipodi:namedview
     id="base"
     pagecolor="#ffffff"
     bordercolor="#666666"
     borderopacity="1.0"
     inkscape:pageopacity="0.0"
     inkscape:pageshadow="2"
     inkscape:zoom="0.98994949"
     inkscape:cx="81.470626"
     inkscape:cy="225.50912"
     inkscape:document-units="px"
     inkscape:current-layer="layer1"
     showgrid="false"
     units="px"
     scale-x="1"
     inkscape:window-width="1841"
     inkscape:window-height="1027"
     inkscape:window-x="79"
     inkscape:window-y="29"
     inkscape:window-maximized="1" />
  <metadata
     id="metadata5">
    <rdf:RDF>
      <cc:Work
         rdf:about="">
        <dc:format>image/svg+xml</dc:format>
        <dc:type
           rdf:resource="http://purl.org/dc/dcmitype/StillImage" />
        <dc:title></dc:title>
        <dc:creator>
          <cc:Agent>
            <dc:title>Gregor Santner</dc:title>
          </cc:Agent>
        </dc:creator>
      </cc:Work>
    </rdf:RDF>
  </metadata>
  <g
     inkscape:label="Ebene 1"
     inkscape:groupmode="layer"
     id="layer1"
     transform="translate(0,-161.53335)">
    <text
       xml:space="preserve"
       style="font-style:normal;font-weight:normal;font-size:40px;line-height:1.25;font-family:sans-serif;letter-spacing:0px;word-spacing:0px;fill:#000000;fill-opacity:1;stroke:none"
       x="118.18785"
       y="334.1221"
       id="text3684"><tspan
         sodipodi:role="line"
         id="tspan3682"
         x="118.18785"
         y="369.51273" /></text>
    <g
       id="g5104"
       transform="matrix(0.75184171,0,0,0.75184171,4.613833,83.543669)">
      <path
         id="path2"
         d="m 66.329482,334.15146 c 35.729998,-3.64 71.469998,-7.3 107.199998,-10.93 l 16.4,-10.3 c 12.5,-5 25.03,-11.4 37.55,-16.4 11.16,-6.9 20.1,-14.9 31.42,-17.1 12.98,-2.6 31.86,-1.6 45.75,4.7 l 88.1,127 73.05,72.4 c 10.48,14.1 9.23,36.5 2.73,46.4 -5.57,8.5 -25.94,14.1 -38.92,8.84 0.9,11.64 -1.6,25.3 -7.5,32.8 -7.98,5.25 -22.1,9.8 -32.1,7.53 2.73,9.8 -1.82,23.45 -8.2,29.4 -6.6,6.1 -15.7,10 -30.73,6.8 -0.9,5 -0.84,11.44 -4.18,14.55 -6.22,5.8 -15.85,8.22 -24.5,12.1 -122.9,-64.4 -167.3,-65.34 -228.759998,-77.17 -8.8,-67.6 -18.4,-163.2 -27.3,-230.8 z"
         style="fill:#ffcaa1;fill-rule:evenodd;stroke:#000000;stroke-width:2.00999999"
         inkscape:connector-curvature="0" />
      <path
         id="path4"
         d="m 66.329482,334.15146 c 35.729998,-3.64 71.469998,-7.3 107.199998,-10.93 l 16.4,-10.3 c 12.5,-5 25.03,-11.4 37.55,-16.4 11.16,-6.9 20.1,-14.9 31.42,-17.1 12.98,-2.6 31.86,-1.6 45.75,4.7 l 88.1,127 73.05,72.4 c 10.48,14.1 9.23,36.5 2.73,46.4 -5.57,8.5 -25.94,14.1 -38.92,8.84 0.9,11.64 -1.6,25.3 -7.5,32.8 -7.98,5.25 -22.1,9.8 -32.1,7.53 2.73,9.8 -1.82,23.45 -8.2,29.4 -6.6,6.1 -15.7,10 -30.73,6.8 -0.9,5 -0.84,11.44 -4.18,14.55 -6.22,5.8 -15.85,8.22 -24.5,12.1 -122.9,-64.4 -167.3,-65.34 -228.759998,-77.17 -8.8,-67.6 -18.4,-163.2 -27.3,-230.8 z"
         style="fill:#fcdcc4;fill-rule:evenodd"
         inkscape:connector-curvature="0" />
      <path
         id="path6"
         d="m 174.12948,549.73146 c -5.02,5.5 -10.45,20.45 -12.54,28.97 -0.32,1.3 3.64,-0.95 4.82,0 4.14,5.65 6.08,8.78 12.56,14 3.22,2.6 6.68,4.94 10.14,7.25 4.75,3.17 9.45,6.5 14.5,9.17 7.03,3.7 13.28,9.7 21.72,10.1 12.62,11 19.97,15.4 34.76,19.3 3.08,7.8 7.63,16.1 15.45,18.3 7.2,2 19.1,-0.7 27.1,-2.9 7.3,-2.1 16.5,-10.2 20.3,-14 4.4,-4.4 2.8,-12 0,-18.4 -1.9,-4.3 -9.5,-7.3 -14.9,-9.7 3,-3.78 7.2,-6.47 7.3,-10.18 0.3,-8.36 -1.92,-14.96 -8.2,-21.73 -6.74,-7.3 -19.75,-10.5 -28,-4.85 0.5,-5.85 1.6,-14.2 -3.85,-20.3 -8.3,-9.3 -17.72,-13 -29.93,-12.57 -19.87,0.74 -24.1,10.4 -34.3,17.84 -7.15,5.24 -19.36,10.97 -24.6,10.13 -1.5,-3.87 -1,-9.5 -4.37,-14 -2.1,-2.86 -4.08,-4.8 -7.75,-6.8 z"
         style="fill:#ffd8b4;fill-rule:evenodd;stroke:#000000;stroke-width:2.00999999"
         inkscape:connector-curvature="0" />
      <path
         id="path8"
         d="m 21.929482,309.56146 c 50.3,4.56 100.799998,7.6 150.919998,13.66 23.35,2.8 20.42,116.3 14.34,172.7 -4.85,44.9 -27.54,89.9 -47.12,131.1 -6.83,14.3 -22.08,36.2 -32.1,36.2 -10.239998,0 -57.349998,-13.2 -86.039998,-19.8 v -333.89 z"
         style="fill:#83bf4f;fill-rule:evenodd;stroke:#000000;stroke-width:2.00999999"
         inkscape:connector-curvature="0" />
      <path
         id="path10"
         d="m 434.38948,291.13146 -8.2,2.73 -3.4,9.56 52.57,188.4 8.2,5.4 4.78,1.3 5.5,-2.77 4.8,-26.63 -6.8,-63.5 -18.4,-72.4 -25.2,-39.6 z"
         style="fill:#404f60;fill-rule:evenodd"
         inkscape:connector-curvature="0" />
      <path
         id="path12"
         d="m 443.74948,296.70146 c -8.2,2.06 -23.6,9.17 -31.83,8.1 -9,-1.2 -26,-6.26 -46.5,-9.7 -20.9,-3.5 -31.7,-10.8 -50.6,-11.57 -21.9,-0.9 -28,13.06 -39,24 -20.3,13.87 -50.6,27.47 -56.7,37.54 -6.6,10.93 -16.9,36.42 -17.1,46.44 -5.7,10.92 -14.4,21.1 -15.17,33.26 -1.1,17.77 21.54,19.94 31.52,15.9 7.3,-2.96 11.82,-8.64 17.74,-12.97 16.8,-6.36 28.3,-26.24 40.3,-43.7 12.43,-4.02 19.6,-8.5 28.66,-16.4 4.93,5.06 12.26,3.84 19.1,0.7 -0.92,11.66 56.1,36.37 69.66,43.7 23.82,25.06 47.15,46.75 72.42,71.33 0.9,2.73 3.73,7.88 4.64,10.6 3.63,-2.04 9.6,-3.2 12.35,-6.14 3.6,-3.88 5.43,-9.56 8.2,-14.34 l 40.93,-10.92 -54.65,-183 c -11.6,6.36 -22.7,10.8 -34.32,17.17 z"
         style="fill:#ffd8b4;stroke:#000000;stroke-width:2.00999999"
         inkscape:connector-curvature="0" />
      <path
         id="path14"
         d="m 420.04948,303.43146 c -0.7,-4.06 3.42,-11.96 10.92,-15.04 71.87,-28.66 137.94,-41.88 206.92,-62.82 l 8.87,239 c -75.77,12.77 -107.84,22.17 -157.06,36.88 -2.85,-0.06 -10.53,-4.7 -14.34,-8.88 4.33,1.36 11.1,4.75 12.98,4.1 4.1,-1.4 4.7,-14.98 4.1,-22.54 -2.5,-32.05 -4.9,-65.4 -13.6,-96.28 -7.9,-28.07 -15.3,-66.3 -36.2,-80.58 -3,-2.07 -8.1,-3.63 -11.6,-2.62 -2.7,0.8 -5.5,4.1 -6.8,8.08 l -4.1,0.7 z"
         style="fill:#3b946f;fill-rule:evenodd;stroke:#000000;stroke-width:2.00999999"
         inkscape:connector-curvature="0" />
    </g>
  </g>
</svg>
