<svg xmlns="http://www.w3.org/2000/svg" viewBox="0 0 480 480" width="512" height="512">
  <path d="M308.68 207.07l-55.37 55.56 76.15-.1c-.04 46.53-37.8 84.24-84.33 84.2-27.87 0-52.6-13.55-67.92-34.4l-2.55-3.2-51 49.03c28.3 35.9 72.18 58.97 121.45 59 85.43.03 154.72-69.2 154.77-154.64v-.1l62.86-.12-96.5-96.17-7.63-6.82zm-137.36 65.86l55.37-55.56-76.15.1c.04-46.53 37.8-84.24 84.33-84.2 27.87 0 52.6 13.55 67.92 34.4l2.4 3.42 51.32-49.17c-28.3-35.9-72.35-59.08-121.62-59.1-85.43-.04-154.72 69.2-154.77 154.63v.1l-62.86.12 96.5 96.16 7.63 6.82z" stroke-width="2.67" fill="#2bd712" stroke="#098400" stroke-linecap="round"/>
</svg>
