<svg xmlns="http://www.w3.org/2000/svg" viewBox="0 0 512 512" width="512" height="512">
  <title>
    Coin thumbs up
  </title>
  <path d="M245.52 19.7C115.02 19.7 9.25 125.5 9.25 256s105.77 236.3 236.27 236.3c6.32 0 12.57-.23 18.77-.72C142.5 482 46.7 380.16 46.7 255.98c0-124.2 95.82-226 217.55-235.55-6.2-.5-12.47-.73-18.78-.73z" color="#000" fill="#d5b04f"/>
  <path d="M211.46 22.16c-15.1 2.18-29.73 5.78-43.76 10.68 10 .6 21.94.94 34.8 1 12.92-4.7 26.37-8.3 40.23-10.7-9.07-.54-19.74-.9-31.27-.98zm-43.54 27.07c-14.47 0-27.83.4-38.77 1.1-4.67 2.64-9.22 5.42-13.68 8.37 8.66.96 20.7 1.67 34.53 2 6-4.1 12.2-7.93 18.58-11.47h-.66zM126.6 76.37c-13.7.12-26.14.62-36.12 1.35-3.04 2.65-6.03 5.37-8.93 8.16 8.94.96 21.33 1.66 35.5 1.98 4.02-3.98 8.2-7.8 12.5-11.5h-2.96zm-28.47 27.07c-12.76.1-24.45.55-34.06 1.2-2.38 2.86-4.67 5.78-6.9 8.75 9.57.8 22.15 1.4 36.24 1.6 3-4 6-7.9 9.2-11.7h-4.4zM82.8 130.5c-14.3.04-27.45.45-38.2 1.14-1.83 2.98-3.62 5.98-5.33 9.04 9.95.8 22.6 1.35 36.65 1.5 2.18-3.97 4.48-7.85 6.88-11.67zm-21.84 27.12c-11.04 0-21.44.24-30.62.65-1.52 3.36-2.94 6.77-4.3 10.2 10.16.56 22.1.85 34.92.85h2.2c1.55-3.94 3.2-7.83 4.97-11.67-2.35-.02-4.75-.03-7.17-.03zm-17.23 27.1c-8.35 0-16.3.16-23.67.4-1.1 3.56-2.12 7.17-3.07 10.8 8.2.3 17.2.5 26.7.5 3.6 0 7.1-.02 10.6-.06 1-3.9 2.1-7.72 3.3-11.53-4.5-.08-9.2-.1-14-.1zm-20.63 27.1c-3.35.04-6.55.12-9.73.2-.7 3.74-1.3 7.5-1.83 11.3 5.84.14 11.98.2 18.36.2 6.65 0 13.04-.08 19.1-.24.52-3.75 1.13-7.47 1.83-11.16-6.6-.2-13.6-.3-20.93-.3h-6.8zm6.8 27.08c-7 0-13.7.08-20.04.26-.26 3.7-.43 7.4-.52 11.15 6.5.2 13.38.3 20.56.3 5.87 0 11.52 0 16.94-.1.1-3.8.25-7.6.5-11.3-5.56-.1-11.4-.2-17.44-.2zm0 27.1c-7.12 0-13.97.12-20.4.3.15 3.74.4 7.46.72 11.16 6.23.16 12.83.25 19.68.25 6.2 0 12.16 0 17.85-.2-.33-3.7-.6-7.5-.76-11.3-5.5-.1-11.2-.2-17.1-.2zm0 27.1c-6.14 0-12.05.1-17.7.23.6 3.8 1.3 7.6 2.08 11.34 5.02.1 10.23.15 15.62.15 7.68 0 15-.12 21.88-.33-.77-3.7-1.5-7.4-2.1-11.2-6.24-.2-12.88-.3-19.78-.3zm-6.8 27.12c-1.7 0-3.3.04-4.98.07 1.1 3.9 2.3 7.7 3.6 11.6h8.18c10.47 0 20.33-.2 29.16-.6-1.2-3.5-2.3-7.1-3.33-10.7-7.95-.3-16.67-.5-25.83-.5-2.3 0-4.55-.1-6.8 0zm25.8 27.07c-7.44 0-14.55 0-21.23.2 1.6 3.8 3.27 7.5 5.05 11.2 5.2.1 10.58.2 16.17.2 7.4 0 14.5-.1 21.2-.3-1.8-3.7-3.5-7.5-5.1-11.3-5.2-.1-10.7-.2-16.3-.2zm6.9 27.1c-5.06 0-9.96 0-14.7.1 2.27 3.9 4.68 7.7 7.17 11.5h7.53c10.64 0 20.67-.3 29.6-.7-2.3-3.5-4.54-7.1-6.66-10.7-7.17-.3-14.87-.4-22.94-.4zm31.06 27.1c-9.66 0-18.8.2-27.1.5 2.95 3.7 6.04 7.4 9.2 11 5.72.1 11.7.2 17.9.2 6.8 0 13.38-.1 19.57-.3-3.3-3.7-6.46-7.5-9.5-11.4-3.3-.1-6.64-.1-10.07-.1zm17.23 27c-6.9 0-13.5.1-19.7.2 4.2 3.9 8.6 7.7 13.1 11.4h6.5c10.9 0 21.1-.2 30.2-.6-4.3-3.5-8.5-7.1-12.5-10.9-5.7-.2-11.6-.3-17.8-.3zm43.1 27.1c-9.7 0-18.9.2-27.3.5 6.4 4 13 7.7 19.8 11.1h7.4c10.4 0 20.2-.2 28.9-.6-6.7-3.4-13.2-7.1-19.5-11.1-3.14 0-6.3-.1-9.57-.1zm57.7 27.1c-8.7 0-17 .2-24.6.4 20.7 5.9 42.5 9 65.1 9 5.3 0 10.5-.2 15.7-.5l2.1-.3c-16-1.3-31.6-4.3-46.5-8.6-3.9-.1-7.9-.1-11.9-.1z" fill="#c89c31" />
  <path d="M502.75 256c0 130.5-105.8 236.3-236.3 236.3S30.15 386.5 30.15 256s105.8-236.3 236.3-236.3 236.3 105.8 236.3 236.3z" color="#000" fill="#eed175"/>
  <path d="M496.8 257.74C496.8 384.9 393.7 488 266.5 488 139.35 488 36.26 384.9 36.26 257.74c0-127.17 103.1-230.26 230.26-230.26 127.17 0 230.27 103.1 230.27 230.26z" color="#000" fill="#c89c31"/>
  <path d="M489.36 258.27c0 123.1-99.8 222.9-222.9 222.9-123.1 0-222.9-99.8-222.9-222.9 0-123.1 99.8-222.9 222.9-222.9 123.1 0 222.9 99.8 222.9 222.9z" color="#000" fill="#ebc859"/>
  <path d="M104.46 103.2c-84.55 89.5-82.96 230.1 6.52 314.64 24.17 22.84 50.22 42.04 82.17 50.6-19.63-10.18-36.3-24.14-53.18-40.08-97.07-91.73-101.58-244.58-10.1-341.4 8.84-9.34 18.72-16.14 28.6-23.76-19.4 10.8-37.96 23.02-54 40z" color="#000" fill="#d2aa48"/>
  <path d="M401.68 436.14c98-74.5 117.12-214.33 42.63-312.34-20.1-26.47-45-47.16-72.5-61.83 17.7 13.24 34 29.1 48 47.6C500.5 215.87 480 367.42 374 448c-10.26 7.78-20.9 14.6-31.9 20.5 20.9-7.5 41-18.24 59.6-32.38z" color="#000" fill="#f7e587"/>
  <path d="M274.43 36.25c-42.1 0-80.38 4.13-118.08 28.6-58.8 38.2-92.52 112.84-92.52 189.57 0 18.53 2.27 36.52 6.52 53.7 40.8 51.16 90.97 57.7 146.74 57.7 116.8 0 209-96.6 209-216.57 0-18.5-3-35.45-7.2-52.6-37.8-36.24-88.8-60.4-144.6-60.4z" color="#000" opacity=".5" fill="#f7e587"/>
</svg>
