<svg xmlns="http://www.w3.org/2000/svg" width="512" height="512" viewBox="0 0 480 480.00001"><path d="M426.35 204.1c2.434 2.122.754 6.293 3.97 7.267 21.83 6.606 38.172 14.126 32.74 25.312-4.193 30.453-69.022 93.337-130.06 109.866-5.673 1.536-38.086 21.336-43.733 22.125-6.41.898-.592-12.512-5.314-9.823-33.207 18.913-64.067 21.107-58.443 8.44-.862-24.587 16.89-32.467 40.778-59.93 22.624-26.008-61.297-9.1-56.708 13.964 6.028 30.293.793 38.148-20.39 48.293-13.046-14.468-6.917-31.963-8.92-50.037-43.207 3.87-101.53 3.654-142.378-19.968-3.186-2.327-25.833-8.516-21.373-10.844 87.663-17.9 198.31 6.734 176.876-60.19-6.696-33.454-30.57-5.61 71.272-123.38 2.078-2.404 38.505 26.17 48.007 72.08 47.413 4.606 43.937 14.01 106.612 30.023 2.68.685 4.14-3.927 7.063-3.196z" fill="#ff001f"/><path d="M400.88 232.724a17.45 21.596 0 0 1-17.355 21.595 17.45 21.596 0 0 1-17.547-21.356 17.45 21.596 0 0 1 17.158-21.833 17.45 21.596 0 0 1 17.738 21.113" fill="#fff"/><path d="M397.182 223.24a8.398 10.64 0 0 1-8.35 10.638 8.398 10.64 0 0 1-8.445-10.52 8.398 10.64 0 0 1 8.257-10.756 8.398 10.64 0 0 1 8.536 10.4"/><path d="M335.854 257.956c-4.977 10.798-3.102 14.766-.205 26.51-107.356 47.354-84.686-93.333.204-26.51z" fill="#ff4b4b"/><path d="M208.563 246.7c-2.785-50.808 77.344-86.473 64.666-120.554-66.888 23.794-63.493 88.685-64.667 120.554zM244.784 348.545l-14.39 19.935c89.52-21.17 54.732-93.613 14.39-19.935zM39.723 289.004c76.206 56.248 189.1-35.79 113.84-5.657-46.428 8.58-66.966 2.726-113.84 5.657zM189.697 314.92s12.495-7.9 18.262-12.29c20.025-37.285-7.827-27.946-18.263 12.29z" fill="#e4ff6f"/><path d="M281.473 309.773c51.598 89 156.06-38.082 175.16-68.984-36.844 33.286-99.384 63.69-175.16 68.983zM184.735 322.374c6.527 14.98-9.66 42.62 8.797 39.16 10.172-9.372 20.946-41.51-8.797-39.16z" fill="#e4ff6f"/><g><path d="M450.467 220.38c5.687 1.086 12.97 7.83 11.598 14.123-.998 7.9-29.526 12.014-24.692 5.937 3.865-7.052 8.247-13.595 13.094-20.06z" fill="#fff"/><path d="M446.015 235.42c.374-.82 4.98-8.42 4.98-8.42 3.067-7.21 17.164 11.773-4.98 8.42z" fill="#fd4c4c"/></g><path d="M483.156 287.55a9.12 8.418 0 0 1-9.068 8.418 9.12 8.418 0 0 1-9.17-8.324 9.12 8.418 0 0 1 8.967-8.51 9.12 8.418 0 0 1 9.27 8.23M533.436 223.01a15.46 11.656 0 0 1-15.373 11.656 15.46 11.656 0 0 1-15.544-11.525 15.46 11.656 0 0 1 15.2-11.783 15.46 11.656 0 0 1 15.712 11.395M567.827 136.43a23.41 18.634 0 0 1-23.28 18.635 23.41 18.634 0 0 1-23.538-18.427 23.41 18.634 0 0 1 23.016-18.84 23.41 18.634 0 0 1 23.795 18.218" fill="#fff"/></svg>