<svg xmlns="http://www.w3.org/2000/svg" viewBox="0 0 483.75 446.68" width="516" height="476.46"><path d="M414.58 61.87c18.15 35.37-14.72 88.42-73.4 118.5-58.66 30.07-122.4 26.54-139.04-9.54C180.7 124.5 227.4-6.15 315.9 25.2c62.2 22 80.53 1.36 98.66 36.73z" fill="#eae6db"/><path d="M398.88 121.2a26.1 78.96 62.85 0 1-58.4 59.28 26.1 78.96 62.85 0 1-82.17 12.8 26.1 78.96 62.85 0 1 58.4-59.22 26.1 78.96 62.85 0 1 82.2-12.88z" fill="#ccc"/><path d="M340.73 180.15a26.1 78.96 62.85 0 0 58.4-59.22 26.1 78.96 62.85 0 0-2.67-3.07 26.1 78.96 62.85 0 1-59.27 55.38 26.1 78.96 62.85 0 1-79.6 15.9 26.1 78.96 62.85 0 0 .9 3.84 26.1 78.96 62.85 0 0 82.16-12.83z" fill="#b0a398"/><path d="M349.72 117.8l62.67 76.5c-28.7 17.43-51.5 39.83-97.3 42.96l-27.37-87.68z" fill="#e5e0d6"/><path d="M315.1 234.54c28.86-15.74 58.88-22.53 90.2-49.8l6.57 11.8c-39.42 29.75-72.32 43.98-96.78 38z" fill="#aaa097"/><path d="M260.75 310.43C234.65 341.85 172.2 333 121.3 290.7c-50.98-42.3-71.13-102.14-45-133.47 26.15-31.37 93.1-18.76 139.43 19.74 50.94 42.33 71.07 102.07 44.97 133.46z" fill="#9a6038"/><path d="M258.7 311.3c-25.4 30.58-87.08 21.2-137.8-20.94-50.72-42.14-71.23-101.06-45.84-131.6 25.4-30.57 104.57 6.58 155.26 48.67 50.72 42.1 53.74 73.3 28.38 103.85z" fill="#b0794a"/><path d="M204.96 314.93a78.96 26.1 39.72 0 1-77.45-30.44 78.96 26.1 39.72 0 1-44-70.5 78.96 26.1 39.72 0 1 77.44 30.37A78.96 26.1 39.72 0 1 205 314.9z" fill="#ccc"/><path d="M188.15 264.84l-45.7 87.73c-27.3-19.6-56.83-31.72-77.67-72.57l69.9-59.63z" fill="#f6e5c6"/><path d="M162.85 239.26a78.96 26.1 39.72 0 0-77.43-30.38 78.96 26.1 39.72 0 0-1.78 3.62 78.96 26.1 39.72 0 1 74.25 32.76 78.96 26.1 39.72 0 1 45.8 66.9 78.96 26.1 39.72 0 0 3.2-2.4 78.96 26.1 39.72 0 0-44.1-70.5z" fill="#7e5733"/><path d="M67.6 280.46c24.87 20.65 42.34 45.8 78.25 64.24l-7.8 10.56c-41.27-24.9-66.36-49.82-70.47-74.77z" fill="#ebceaf"/><path d="M368.1 354.68c-6-28.32-48.13-43.43-94.1-33.72-45.98 9.76-78.42 40.66-72.38 69 6.03 28.33 52.28 42.55 94.12 33.73 46-9.8 78.4-40.7 72.37-69z" fill="#9a6038"/><path d="M367.13 353.47c-5.84-27.58-47.7-42.08-93.5-32.4-45.78 9.7-78.13 39.92-72.32 67.5 5.9 27.6 67.9 30.43 113.7 20.78 45.8-9.7 58-28.3 52.2-55.88z" fill="#b0794a"/><path d="M334.56 333.4a18.5 56.07 78.05 0 0-58.67-6.5 18.5 56.07 78.05 0 0-51.1 29.73 18.5 56.07 78.05 0 0 58.63 6.58 18.5 56.07 78.05 0 0 51.05-29.7z" fill="#dec3b0"/><path d="M283.1 367.02a18.5 56.07 78.05 0 1-58.67-6.5 18.5 56.07 78.05 0 1 .08-2.88 18.5 56.07 78.05 0 0 57.5 3.98 18.5 56.07 78.05 0 0 50.9-26.87 18.5 56.07 78.05 0 1 1.26 2.55 18.5 56.07 78.05 0 1-51 29.72z" fill="#7e5733"/><path d="M285.23 343.7L301 276.66c-6.66-2.68-11.84-10.3-22.7 1.1l-7.5 63.82z" fill="#f6e5c6"/><path d="M278.63 278.82c6.7 1 13.76-3.84 20.9 3.5l1.7-9.12c-9.06-6.47-16.74-5.35-22.63 5.65z" fill="#ebceaf"/><path d="M281 344.92a7.95 10.42 76.47 0 1-11.8-5.54 7.95 10.42 76.47 0 1-.1-1.18 7.95 10.42 76.47 0 0 11.4 4.4 7.95 10.42 76.47 0 0 8.66-8.84 7.95 10.42 76.47 0 1 .38 1.1 7.95 10.42 76.47 0 1-8.5 10.03z" fill="#7e5733"/><path d="M313.86 130.96a26.1 78.96 62.85 0 0-58.4 59.22 26.1 78.96 62.85 0 0 2.7 3.07 26.1 78.96 62.85 0 1 59.26-55.38 26.1 78.96 62.85 0 1 79.5-15.9 26.1 78.96 62.85 0 0-.87-3.84 26.1 78.96 62.85 0 0-82.2 12.83z" fill="#b0a398"/></svg>