<svg xmlns="http://www.w3.org/2000/svg" width="512" height="512" viewBox="0 0 512 512"><text style="line-height:1.25" x="118.188" y="334.122" font-size="40" font-family="sans-serif" letter-spacing="0" word-spacing="0" transform="translate(0 -161.533)"/><g transform="scale(67.33274) rotate(-13.944 -1122.31 194.264)"><path d="M18.89 279.625c-1.814 2.382-4.982 2.578-6.196 2.084.034.093.34.278.382.36 1.253.456 4.075.13 5.856-2.207l.352.97.03-.04z" fill="#6d8339"/><path d="M13 281.92c1.214.495 4.178.207 5.992-2.176l.382 1.27c-1.335 1.96-5.432 3.5-6.374.906z" fill="#a3bd39"/><circle transform="rotate(.652)" r=".33" cy="282.302" cx="17.076" fill="#dde69e" stroke="#dee69f" stroke-width=".133"/><circle transform="rotate(.652)" cx="17.95" cy="282.405" r=".428" fill="#d2df9f" stroke="#d2df9f" stroke-width=".173"/><circle transform="rotate(.652)" r=".465" cy="282.272" cx="18.986" fill="#e8ecbe" stroke="#e8ecbe" stroke-width=".188"/><circle transform="rotate(.652)" cx="20.022" cy="281.947" r=".477" fill="#d1e09b" stroke="#d1de9c" stroke-width=".193"/><circle transform="rotate(.652)" r=".477" cy="281.428" cx="20.984" fill="#e8ecbe" stroke="#e8ecbe" stroke-width=".193"/><circle transform="rotate(.652)" cx="21.754" cy="280.777" r=".391" fill="#dde69e" stroke="#dde69e" stroke-width=".158"/><path d="M19.047 279.45c-.01.017-.022.03-.033.047l.338 1.062c-.71 2.69-5.098 3.7-6.442 1.277 1.245 2.725 5.34 1.25 6.56-1.06z" fill="#6d8339" stroke="#6d8339" stroke-width=".139"/><path d="M20.372 278.807c-.013-.008-.028-.014-.046-.02-.17.25-.406.465-.64.68-.252-.203-.522-.27-.733-.02-.216.257-.184.64.073.857.257.217.64.185.858-.072.217-.257.08-.532-.177-.75l-.02-.014.146.044c.293-.253.724-.593.54-.705zm-1.614.873c-.402.102-.804.203-1.25.136.07.635.776.347 1.285.192zm.833.827l-.33-.012c-.117.52-.354 1.243.285 1.267-.098-.44-.026-.847.047-1.255zm-.437-.104l-.29-.157c-.337.412-.87.955-.31 1.26.108-.437.354-.77.6-1.103z" fill="#6d8339" stroke="#6e8439" stroke-width=".128"/></g></svg>