<?xml version="1.0" encoding="UTF-8" standalone="no"?>
<svg
   xmlns:dc="http://purl.org/dc/elements/1.1/"
   xmlns:cc="http://creativecommons.org/ns#"
   xmlns:rdf="http://www.w3.org/1999/02/22-rdf-syntax-ns#"
   xmlns:svg="http://www.w3.org/2000/svg"
   xmlns="http://www.w3.org/2000/svg"
   xmlns:xlink="http://www.w3.org/1999/xlink"
   xmlns:sodipodi="http://sodipodi.sourceforge.net/DTD/sodipodi-0.dtd"
   xmlns:inkscape="http://www.inkscape.org/namespaces/inkscape"
   viewBox="0 0 480.00003 480.00002"
   width="512"
   height="512"
   version="1.1"
   id="svg132"
   sodipodi:docname="entry_type__blueberry.svg"
   inkscape:version="0.92.1 r">
  <metadata
     id="metadata136">
    <rdf:RDF>
      <cc:Work
         rdf:about="">
        <dc:format>image/svg+xml</dc:format>
        <dc:type
           rdf:resource="http://purl.org/dc/dcmitype/StillImage" />
      </cc:Work>
    </rdf:RDF>
  </metadata>
  <sodipodi:namedview
     pagecolor="#ffffff"
     bordercolor="#666666"
     borderopacity="1"
     objecttolerance="10"
     gridtolerance="10"
     guidetolerance="10"
     inkscape:pageopacity="0"
     inkscape:pageshadow="2"
     inkscape:window-width="1841"
     inkscape:window-height="1027"
     id="namedview134"
     showgrid="false"
     inkscape:zoom="0.65186405"
     inkscape:cx="-214.81078"
     inkscape:cy="238.18998"
     inkscape:window-x="79"
     inkscape:window-y="29"
     inkscape:window-maximized="1"
     inkscape:current-layer="svg132" />
  <defs
     id="defs88">
    <radialGradient
       id="e"
       gradientUnits="userSpaceOnUse"
       cy="4.029"
       cx="35.433"
       gradientTransform="matrix(.57392 -.55736 .48672 .65696 -10.482 26.74)"
       r="9.635">
      <stop
         offset="0"
         stop-color="#8589ff"
         id="stop2" />
      <stop
         offset="1"
         stop-color="#404082"
         id="stop4" />
    </radialGradient>
    <clipPath
       id="a">
      <path
         d="M9 7.96h7v5H9z"
         id="path7" />
    </clipPath>
    <mask
       id="f">
      <g
         clip-path="url(#a)"
         id="g12">
        <path
           d="M9 7.96h7v5H9z"
           fill-opacity=".07"
           id="path10" />
      </g>
    </mask>
    <clipPath
       id="g">
      <path
         d="M9 7.96h7v5H9z"
         id="path15" />
    </clipPath>
    <clipPath
       id="h">
      <path
         d="M9 8h7v5H9z"
         id="path18" />
    </clipPath>
    <clipPath
       id="b">
      <path
         d="M10 9.96h4v3h-4z"
         id="path21" />
    </clipPath>
    <mask
       id="i">
      <g
         clip-path="url(#b)"
         id="g26">
        <path
           d="M10 9.96h4v3h-4z"
           fill-opacity=".148"
           id="path24" />
      </g>
    </mask>
    <clipPath
       id="j">
      <path
         d="M10 9.96h4v3h-4z"
         id="path29" />
    </clipPath>
    <clipPath
       id="k">
      <path
         d="M10 10h4v3h-4z"
         id="path32" />
    </clipPath>
    <linearGradient
       id="l"
       y2="-22.762"
       gradientUnits="userSpaceOnUse"
       x2="-19.873"
       gradientTransform="scale(.8) rotate(174.612 -5.056 19.806)"
       y1="-22.762"
       x1="-30.52">
      <stop
         offset="0"
         stop-color="#4f52a8"
         id="stop35" />
      <stop
         offset="1"
         stop-color="#363670"
         id="stop37" />
    </linearGradient>
    <linearGradient
       id="m"
       y2="-25.932"
       gradientUnits="userSpaceOnUse"
       x2="-22.615"
       gradientTransform="matrix(-.79992 -.0096 -.0096 .79992 -6.585 32)"
       y1="-25.932"
       x1="-26.765">
      <stop
         offset="0"
         stop-color="#5c4820"
         id="stop40" />
      <stop
         offset="1"
         stop-color="#473819"
         id="stop42" />
    </linearGradient>
    <radialGradient
       id="n"
       gradientUnits="userSpaceOnUse"
       cy="14.255"
       cx="29.427"
       gradientTransform="matrix(0.5728,-0.55848,0.48728,0.6572,-20.386,13.386)"
       r="9.8299999"
       xlink:href="#l">
      <stop
         offset="0"
         stop-color="#8589ff"
         id="stop45" />
      <stop
         offset="1"
         stop-color="#404082"
         id="stop47" />
    </radialGradient>
    <clipPath
       id="c">
      <path
         d="M0 4.96h8v5H0z"
         id="path50" />
    </clipPath>
    <mask
       id="o">
      <g
         clip-path="url(#c)"
         id="g55">
        <path
           d="M0 4.96h8v5H0z"
           fill-opacity=".07"
           id="path53" />
      </g>
    </mask>
    <clipPath
       id="p">
      <path
         d="M0 4.96h8v5H0z"
         id="path58" />
    </clipPath>
    <clipPath
       id="q">
      <path
         d="M0 5h8v5H0z"
         id="path61" />
    </clipPath>
    <linearGradient
       id="r"
       y2="9.111"
       gradientUnits="userSpaceOnUse"
       x2="40.39"
       gradientTransform="matrix(.42432 -.67824 -.67824 -.42432 -6.585 32)"
       y1="9.111"
       x1="34.64">
      <stop
         offset="0"
         stop-color="#4f52a8"
         id="stop64" />
      <stop
         offset="1"
         stop-color="#363670"
         id="stop66" />
    </linearGradient>
    <linearGradient
       id="s"
       y2="8.835"
       gradientUnits="userSpaceOnUse"
       x2="-35.853"
       gradientTransform="scale(.8) rotate(94.922 -22.467 16.223)"
       y1="8.835"
       x1="-39.642">
      <stop
         offset="0"
         stop-color="#4f52a8"
         id="stop69" />
      <stop
         offset="1"
         stop-color="#363670"
         id="stop71" />
    </linearGradient>
    <clipPath
       id="d">
      <path
         d="M1 5.96h5v3H1z"
         id="path74" />
    </clipPath>
    <mask
       id="t">
      <g
         clip-path="url(#d)"
         id="g79">
        <path
           d="M1 5.96h5v3H1z"
           fill-opacity=".148"
           id="path77" />
      </g>
    </mask>
    <clipPath
       id="u">
      <path
         d="M1 5.96h5v3H1z"
         id="path82" />
    </clipPath>
    <clipPath
       id="v">
      <path
         d="M1 6h5v3H1z"
         id="path85" />
    </clipPath>
  </defs>
  <path
     d="M18.375 9.998c.746-1.812.613-3.347-.398-4.597-1.2-1.495-2.856-2.12-4.96-1.882-2.083.215-3.443 1.066-4.083 2.562-.72 1.785-.598 3.37.363 4.758.957 1.36 2.387 2.067 4.277 2.12 2.375.03 3.977-.96 4.8-2.96z"
     fill="url(#e)"
     fill-rule="evenodd"
     transform="matrix(23.2415 0 0 -23.2415 18.694 389.908)"
     id="path90"
     style="fill-opacity:1;fill:#8589ff" />
  <path
     d="M436.506 264.38c-26.704 32.864-63.914 47.762-111.582 44.67-45.855-3.718-77.44-21.683-94.872-53.92 32.864 30.958 69.446 44.02 109.747 39.046 34.047-4.37 58.288-18.268 72.466-41.858 28.494-48.946 32.212-92.338 11.155-130.106 18.618 19.802 28.867 44.578 30.68 74.35 1.906 27.89-3.997 50.48-17.594 67.82z"
     fill="#48498f"
     fill-rule="evenodd"
     id="path92" />
  <path
     d="M13.414 12.6c.934.027 1.586-.12 1.96-.442.32-.265.333-.507.04-.718-.293-.188-.84-.31-1.637-.36-.882-.082-1.523-.015-1.922.2-.375.242-.347.52.083.84.425.32.917.48 1.476.48z"
     fill="url(#l)"
     fill-rule="evenodd"
     transform="matrix(23.2415 0 0 -23.2415 18.694 389.908)"
     id="path106"
     style="fill:#4f52a8;fill-opacity:1" />
  <path
     d="M312.838 112.87c18.617-5.532 33.77-6.183 45.577-1.814 6.81 2.44 10.18 5.81 10.18 10.157-.65 3.72-4.37 6.903-11.18 9.366-6.81 2.44-15.432 3.346-25.96 2.812-9.994 0-18.617-1.28-26.054-3.72-6.81-2.556-9.25-5.275-7.436-8.46 1.813-3.09 6.81-5.902 14.874-8.343z"
     fill="#664f35"
     fill-rule="evenodd"
     id="path108" />
  <path
     d="M13.535 11.88c.508.025.828-.042.96-.202.107-.133.052-.266-.16-.398-.425-.243-.933-.227-1.52.04-.292.13-.335.252-.12.358.215.11.493.176.84.203z"
     fill="url(#m)"
     fill-rule="evenodd"
     transform="matrix(23.2415 0 0 -23.2415 18.694 389.908)"
     id="path110"
     style="fill:#5c4820;fill-opacity:1" />
  <path
     d="M5.176 9.678c2.426.027 4.05-.973 4.88-3 .772-1.84.64-3.398-.4-4.68C8.456.478 6.762-.174 4.574.038 2.47.25 1.094 1.13.457 2.677c-.723 1.816-.59 3.44.398 4.883.96 1.387 2.4 2.09 4.32 2.118z"
     fill="url(#n)"
     fill-rule="evenodd"
     transform="matrix(23.2415 0 0 -23.2415 18.694 389.908)"
     id="path112"
     style="fill-opacity:1;fill:#8589ff" />
  <path
     d="M243.114 343.47c-27.24 34.05-65.1 49.204-113.395 45.578-46.484-3.72-78.697-22.08-96.686-54.943 34.05 31.702 71.282 44.95 111.49 40.045 34.77-4.346 59.567-18.616 74.442-42.857 29.052-50.11 32.77-94.128 11.086-131.99 19.244 19.873 29.773 44.927 31.678 75.35 1.813 28.494-4.346 51.387-18.616 68.818z"
     fill="#48498f"
     fill-rule="evenodd"
     id="path114" />
  <path
     d="M1.594 3.58c-.426.192-.528.477-.297.86.16.265.36.36.598.28.187-.054.347-.16.48-.32l.12-.242c.028.11.08.227.16.364.134.21.306.332.52.36.536.05.825-.15.88-.602.027-.266-.012-.465-.12-.602l.362.16c.265.082.492.055.68-.078.238-.188.343-.402.32-.64-.027-.188-.11-.32-.242-.4-.106-.08-.254-.108-.438-.08l.438-.16c.265-.16.375-.35.32-.56-.105-.375-.348-.492-.72-.36.212-.507.08-.812-.4-.92-.478-.08-.72.015-.72.28-.027-.32-.172-.465-.44-.44-.185.026-.318.12-.4.28l-.078.28c-.082-.24-.297-.253-.64-.038-.215.133-.293.278-.243.438l.12.2c-.32-.107-.573-.025-.76.24-.106.19-.067.333.12.442l.32.08c-.507-.052-.718.174-.64.678.028.32.16.496.403.52.105.02.203.015.297-.02z"
     fill="url(#r)"
     fill-rule="evenodd"
     transform="matrix(23.2415 0 0 -23.2415 18.694 389.908)"
     id="path122"
     style="fill:#4f5394;fill-opacity:1" />
  <path
     d="M3.414 3.64c.934-.747 1.188-1.4.762-1.962-.426-.56-1.016-.57-1.762-.04-.69.51-.863 1.095-.52 1.763.348.665.856.747 1.52.24z"
     fill="url(#s)"
     fill-rule="evenodd"
     transform="matrix(23.2415 0 0 -23.2415 18.694 389.908)"
     id="path124"
     style="fill:#72755c;fill-opacity:1" />
  <g
     clip-path="url(#u)"
     mask="url(#t)"
     transform="matrix(23.2415,0,0,-23.2415,18.694,389.908)"
     id="g130"
     style="fill:none">
    <g
       clip-path="url(#v)"
       transform="translate(0,-0.04)"
       id="g128"
       style="fill:none">
      <path
         d="M 3.215,8.8 C 4.363,9.066 5.055,9.04 5.297,8.72 5.507,8.426 5.375,8.04 4.895,7.56 4.469,7.16 3.855,6.906 3.055,6.8 2.255,6.72 1.801,6.88 1.695,7.28 1.641,7.492 1.762,7.773 2.055,8.12 2.402,8.47 2.789,8.695 3.215,8.8 Z"
         id="path126"
         style="fill:none;fill-rule:evenodd"
         inkscape:connector-curvature="0" />
    </g>
  </g>
</svg>
