<svg xmlns="http://www.w3.org/2000/svg" viewBox="0 0 480.00001 480.00003" width="512" height="512"><g fill-rule="evenodd"><path d="M465.057 286.433l-3.39 2.835h-.556l-2.834 2.293-8.576 5.173c-.783.726-1.723 1.282-2.834 1.666-.285.056-.556.056-.898 0-18.134 2.563-30.927-.5-38.448-9.132-.385-.328-.556-.712-.556-1.11-.783-.77-1.34-1.497-1.724-2.28-1.11-1.895-1.894-3.776-2.28-5.67-.34-1.168-.725-2.28-1.11-3.448v-.57c.385-.384.555-.77.555-1.168l2.28-1.11c.783-.385 1.723-.77 2.835-1.17-1.112 2.68-.385 5.742 2.28 9.133 2.292 2.663 6.067 4.786 11.41 6.282 5.342 1.51 11.182 2.122 17.635 1.724 6.852-.384 13.135-1.723 18.82-4.002 6.452-2.28 11.794-5.67 15.968-10.243h.555l-2.834 3.96c-1.17 1.168-2.45 2.507-4.018 4.003-.712.784-1.495 1.724-2.28 2.835zm-123.024-273.5l1.11 4.004c0 1.11.215 2.28.614 3.405v1.168l.555 3.946v3.448c.328 3.79.556 7.564.556 11.41 0 1.11-.228 2.222-.556 3.39l-1.723 17.08c-.23.784-.4 1.51-.557 2.294-11.81 19.36-23.932 27.765-36.51 25.087-.386-.385-.94-.613-1.668-.613-.783-.328-1.723-.712-2.892-1.11-2.28-.785-4.344-2.11-6.24-4.004-1.053-.67-2.107-1.553-3.162-2.564l-.283-.27v-.556c-.385-.4-.556-.955-.556-1.724v-1.126l.557-2.89c.384-1.112.783-2.053 1.168-2.836 1.11 4.174 4.174 6.852 9.13 8.02 3.776.712 8.35-.4 13.634-3.462 4.942-3.39 9.515-7.95 13.69-13.69 4.942-6.453 8.503-13.632 10.797-21.638 2.664-8.733 3.447-17.48 2.28-26.212v-.556zm-48.477 89.477c-.385.727-.77 1.51-1.11 2.28l-1.725 3.96c-1.11.384-2.45.612-4.002.612h-5.684c-3.063 0-5.898-.783-8.56-2.28-.343 0-.728-.227-1.113-.612-10.626-5.684-15.028-19.203-13.133-40.457.27-.954.67-1.894 1.168-2.835l9.673-16.54c.4-.383.726-.94 1.125-1.722l6.283-8.505h.555v-.554l4.004-4.573c1.11-.77 2.123-1.553 2.85-2.28l3.447-3.447h.27l-.27.613c-5.74 6.452-10.07 13.86-13.134 22.193-3.063 7.58-4.558 15.37-4.558 23.377 0 7.564 1.168 14.017 3.447 19.36 2.28 5.683 5.114 9.302 8.505 10.798.783.398 1.34.612 1.723.612 1.126.342 2.294.556 3.405.556 2.28.4 4.174 0 5.727-1.168.342-.328.726-.713 1.11-1.112zm-21.64 17.65l-2.278 2.835c-.727-1.11-1.34-2.28-1.738-3.405 1.567.4 2.906.57 4.017.57zm44.46 9.673c-20.926 8.348-35.556 7.792-43.903-1.724v-.556c.384-.727.77-1.34 1.168-1.667 1.496-1.952 3.006-3.846 4.56-5.727 2.28 1.496 5.512 2.493 9.686 2.835 6.07.77 12.522 0 19.36-2.28 7.963-2.293 15.2-5.683 21.653-10.242 7.236-5.285 13.076-11.795 17.692-19.373l.555-.556-1.723 3.405c-.727 1.494-1.667 3.218-2.835 5.113l-2.85 4.558v.557l-.613.612-5.67 7.963-1.11 1.11-4.56 5.727-10.3 9.132c-.383.342-.725.726-1.11 1.11zm-21.652 41.625c-.27.057-.442.17-.613.285-.326.1-.71.157-1.11.27-20.698 5.015-34.616 2.337-41.625-7.948-1.11-1.567-2.05-3.462-2.835-5.74l5.114-6.84c.4 1.17.955 2.11 1.738 2.893 2.28 3.39 6.282 5.67 11.952 6.78 6.07 1.17 12.75 1.17 19.987 0 7.565-1.495 14.958-4.33 22.195-8.504 7.963-4.174 14.644-9.915 19.93-17.08h.612l-4.017 5.67c-1.667 2.165-3.334 4.458-5.114 6.837-.784.9-1.553 1.84-2.28 2.85l-4.558 4.003c-.4.727-.784 1.34-1.168 1.667l-16.54 13.69c-.555.385-1.167.784-1.666 1.168zM267.9 228.34l-4.56 3.946c-1.495 1.567-3.005 2.906-4.5 4.017l-12.58 8.562c-.34.228-.726.4-1.11.555l-.556.556h-.612c-21.71 4.46-35.728 1.225-42.124-9.673-1.952-3.404-3.063-7.236-3.448-11.41l6.283-7.964c-1.17 3.062-.556 6.296 1.666 9.686 1.95 3.39 5.726 5.898 11.41 7.408 5.727 1.496 12.35 1.88 19.972 1.168 7.564-.783 15.2-3.063 22.764-6.852 8.006-3.79 14.858-9.13 20.528-15.97h.556l-4.003 5.67c-1.895 1.952-3.79 4.018-5.67 6.297zm5.74-19.972c-1.167.77-2.122 1.34-2.834 1.724-22.038 4.558-36.283 1.34-42.737-9.687-1.952-2.664-3.063-5.898-3.462-9.687l5.74-7.95c-.398 2.608.157 5.286 1.667 7.95 1.895 3.404 5.898 6.068 11.967 7.963 5.726 1.51 12.18 1.896 19.36 1.17 8.02-1.17 15.584-3.448 22.82-6.84 8.348-4.173 15.414-9.515 21.084-15.968l.555-.57-3.945 5.684c-1.95 1.895-3.846 4.003-5.726 6.283-1.127 1.11-2.067 2.278-2.85 3.403l-4.56 4.003c-.782.385-1.495.94-2.278 1.724zm9.118 91.2c4.957-1.17 9.858-2.11 14.8-2.835 1.51.327 3.235.726 5.13 1.11 4.173.385 7.948-.555 11.41-2.834-1.168 0-2.294-.23-3.462-.557 0-.4-.157-.612-.555-.612h-.555v-.555c-3.775-1.51-6.838-3.618-9.117-6.296-7.123-8.178-5.798-19.475 4.003-33.89.172-.272.386-.614.556-.828 1.112-.783 2.45-1.51 4.003-2.28l3.404-2.292 8.562-4.003c.726-.385 1.51-.77 2.28-1.11l4.572-1.17c1.11-.384 2.28-.726 3.39-1.11 2.28-.67 4.56-1.226 6.838-1.724l5.74-.556c-7.236 1.496-13.69 4.56-19.43 9.117-5.285 3.79-9.46 8.348-12.522 13.633-3.048 5.342-4.73 10.47-5.114 15.414-.384 4.573.556 8.192 2.835 10.8 3.063 3.06 6.297 4.4 9.687 4.016-.385.385-.727.77-1.11 1.168l-1.17 1.11c2.665-.398 5.343-.782 7.95-1.11 1.168-.4 2.507-.613 4.017-.613 1.552-.397 3.062-.554 4.557-.554 1.496.77 3.39 1.325 5.67 1.724-1.88.384-4.33.77-7.393 1.11-3.39.77-7.18 1.554-11.41 2.28-3.79.784-7.95 1.724-12.523 2.835-1.494.385-3.004.783-4.557 1.168-1.11.4-2.28.556-3.39.556-4.175 1.167-8.192 2.278-11.967 3.446-14.8 3.79-29.274 8.134-43.292 13.077-21.31 7.636-43.69 17.095-67.28 28.49-1.112.4-2.28.956-3.392 1.725.77-.77 1.34-1.325 1.724-1.724h-4.558l-2.294-.555c-.385 0-.613-.215-.613-.614l-2.278-.555-.555-.555c-.385 0-.77-.157-1.112-.556l-.612-.556-9.687 4.558-1.667.556c-.27.228-.613.4-.884.57h-.285c-16.296.77-27.15-2.45-32.436-9.687 1.895-2.677 3.79-5.512 5.67-8.575v.613c1.11 1.51 3.234 3.005 6.296 4.572 4.502 1.88 9.844 3.006 15.913 3.39h5.114c2.678 0 5.342-.384 8.02-1.11 2.28-.4 4.73-1.012 7.393-1.724h1.11c4.574-1.51 8.962-3.79 13.136-6.852.783-.385 1.51-.784 2.28-1.168 1.124-.727 2.065-1.496 2.848-2.222l.556-.613-2.28 2.836c-.398.384-.726.612-1.125.612-.712.67-1.325 1.34-1.994 2.01l-.284.27c-1.168 1.11-2.493 2.28-4.003 3.404-1.11.77-2.28 1.553-3.39 2.28l-4.004 2.834c.384.385.77.613 1.168.613 1.11 1.11 2.436 1.666 3.946 1.666 1.552.384 2.834.228 4.003-.556 0-.384.17-.94.555-1.724 3.448-1.51 6.852-3.005 10.3-4.5 3.005 1.11 6.225 1.267 9.686.554 3.776-1.168 7.01-3.062 9.673-5.74-1.167 0-2.663-.157-4.557-.556-.784 0-1.51-.17-2.28-.556-1.51-.384-2.835-.783-4.003-1.168-.726-.384-1.51-.94-2.293-1.666-3.39-2.28-5.5-5.727-6.225-10.3l-5.727 2.28c-.784.398-1.34.612-1.738.612h-1.667c-4.558.342-8.732.17-12.58-.613-2.99-.384-5.668-.94-7.947-1.666h-1.112c-7.235-2.664-11.965-7.066-14.244-13.135 0-.327-.114-.77-.342-1.382 1.78-2.948 3.618-5.683 5.456-8.29 0 .384.17.77.556 1.168 1.11 3.775 4.174 6.78 9.13 9.06 1.896.783 3.947 1.567 6.226 2.293 1.952.386 3.846.77 5.74 1.17 1.882.384 4.004.555 6.226.555h12.024c3.005-.726 6.225-1.51 9.686-2.293h.556c5.285-1.496 10.228-3.605 14.8-6.283 2.28-1.496 4.39-3.006 6.283-4.502.342-.4.727-.613 1.112-.613h-1.113c.342-4.174 1.895-9.13 4.56-14.8l-4.004 2.278-3.39 2.28c-.67.384-1.34.783-2.01 1.11-.213.172-.555.385-.882.613h-.555c-3.405.328-6.852.727-10.242 1.112-2.68.398-5.342.398-8.02 0-2.608 0-5.115-.385-7.394-1.112-7.565-1.552-12.907-5.114-15.913-10.855-1.567-3.06-2.507-6.28-2.892-9.67-.954 1.167-1.895 2.392-2.85 3.717 2.85-4.174 5.742-8.234 8.577-12.294-.385 2.678.17 5.513 1.666 8.576 1.952 3.39 5.727 6.053 11.41 7.948 5.728 1.567 12.352 2.122 19.973 1.723v-.554h4.574c1.88-.385 3.775-.77 5.67-1.168 4.174-1.11 8.348-2.607 12.52-4.56 8.35-3.788 15.415-8.902 21.085-15.356l.554-.555c0 .385-.156.726-.555 1.11l-4.004 5.115c-.328 0-.556.228-.556.613l2.835-1.724c.784-.384 1.567-.782 2.28-1.167 2.236-.94 4.287-1.667 6.296-2.28l5.67-1.666h.613c-7.237 2.607-13.52 6.624-18.804 11.966-4.958 4.886-8.733 10.456-11.412 16.525-2.664 5.67-4.174 11.012-4.558 15.912 0 4.957 1.168 8.79 3.39 11.41 1.952 1.895 4.003 3.063 6.297 3.448 1.168 0 2.28-.228 3.447-.612l-.612.612c5.342-1.895 10.684-3.618 15.97-5.114 1.893.712 4.002 1.11 6.28 1.11 4.175 0 7.964-1.11 11.355-3.404-1.496 0-3.006-.384-4.502-1.168-.4 0-.612-.156-.612-.555-3.405-1.496-6.24-3.448-8.52-5.727-6.737-8.234-5.398-19.972 3.947-35.286-1.496 1.34-2.992 2.678-4.56 3.96 1.568-1.51 3.235-3.006 5.172-4.573 1.126-.71 2.294-1.494 3.405-2.278l2.835-2.28 7.393-3.945c1.567-.784 3.063-1.51 4.573-2.28l4.56-1.737h.283c1-.385 1.84-.77 2.55-1.11 2.68-.77 4.96-1.326 6.853-1.725l5.115-1.168c-6.895 2.008-13.192 5.456-18.747 10.3-4.957 4.173-8.96 9.13-11.966 14.8-3.062 5.285-4.786 10.456-5.128 15.357-.385 4.957.57 8.79 2.85 11.41 3.005 3.063 6.224 4.345 9.672 4.003zm86.598-59.262h2.835c2.28-.384 4.56-.783 6.84-1.168h5.74c-7.408.883-14.246 3.177-20.542 6.838-5.342 3.063-9.687 7.066-13.135 11.966-3.39 4.573-5.456 9.345-6.225 14.246-.783 4.572 0 8.177 2.28 10.855 1.495 2.28 3.39 3.79 5.67 4.558 1.167.343 2.293.557 3.46.557-.398.4-.954.783-1.737 1.11l-2.28 1.74c-.383 0-.94.213-1.722.554-.727-.397-1.724-.725-2.835-1.124-.385-.385-.94-.77-1.724-1.168h-.556v-.556l-7.408-5.67c0-.384-.157-.783-.556-1.167-.384-.342-.77-.94-1.168-1.667l8.576-31.112v-.27c1.11-.727 2.45-1.34 3.946-1.682l4.003-2.28 7.408-2.278c1.552-.385 3.062-.784 4.558-1.17zm22.807 48.962c-.385.4-.784.57-1.168.613-.385.4-.727.556-1.11.556l-2.28 1.125h-1.724c-.398 0-.783-.17-1.167-.554-1.112-.4-2.28-1.125-3.405-2.294-.77-.384-1.496-.94-2.28-1.723-2.28-1.896-4.002-3.947-5.113-6.227-.4-.398-.556-.783-.556-1.168-4.574-9.13-.614-18.818 11.965-29.046 1.268-.457 2.607-.842 4.003-1.112l3.946-1.168 8.576-1.126c1.496-.385 3.22-.612 5.114-.612l5.128-.556h2.28c2.607.114 5.057.285 7.393.556l6.297.612h.555l-.555.556c-8.02-.77-15.414.17-22.266 2.85-5.67 2.278-10.798 5.498-15.357 9.67-3.79 3.79-6.454 7.794-8.007 11.968-1.125 4.174-.954 7.792.6 10.855.398.384.725.726 1.124 1.11.385.784.94 1.51 1.724 2.28 1.88 1.51 4.004 2.507 6.283 2.835zM249.096 55.67l.612-1.11v.555c-.17.17-.384.385-.612.556zm-8.52 10.243c-.384.385-.555.77-.555 1.168v-.554c0-.4.172-.613.557-.613zm-24.815 21.98c-4.728 7.124-7.834 15.187-9.4 24.204-1.496 7.963-1.496 15.912 0 23.932 1.167 7.18 3.233 13.29 6.296 18.248 3.048 5.285 6.453 8.348 10.228 9.074 4.958 1.168 8.96.214 11.966-2.85 0 1.17-.17 2.295-.555 3.463 1.894-2.294 3.79-4.573 5.726-6.852 1.127-1.168 2.067-2.28 2.85-3.448 1.112-1.51 2.28-2.835 3.39-3.946 2.28-.4 4.403-1.34 6.283-2.907h.556c-1.497 1.952-3.392 4.23-5.67 6.852-2.28 3.063-5.115 6.838-8.577 11.41-3.39 4.56-7.393 9.902-11.952 15.97-.725 1.11-1.51 2.45-2.292 3.946-2.664 3.45-5.5 7.238-8.505 11.412-4.957 6.068-10.07 12.906-15.413 20.527-.784 1.11-1.51 2.28-2.28 3.404-2.678 3.832-5.513 7.778-8.518 11.952-1.952 2.294-3.62 4.573-5.172 6.852-20.485 28.15-38.177 52.423-52.978 72.95l.555-1.722v-.556c-1.11 1.168-2.62 2.108-4.558 2.835-1.51.384-2.85.783-3.962 1.168h-1.723c-.385.342-.784.555-1.168.555h-3.39c-10.628-1.168-18.25-10.855-22.822-29.046v-1.724l2.892-17.08c.4-.784.726-1.51 1.125-2.28l2.28-6.85c0-.386.213-.785.555-1.17 0-.726.214-1.282.612-1.666v-1.168h.555l1.11-2.835c.386-1.112.785-2.28 1.17-3.406l1.666-3.447v.555c-2.606 6.852-4.173 14.246-4.5 22.266 0 6.838 1.11 13.462 3.39 19.915 1.895 6.07 4.558 11.026 7.963 14.8 3.05 3.847 6.282 5.9 9.673 6.298 2.28 0 4.23-.398 5.74-1.11 1.496-.784 2.665-1.952 3.39-3.462v-1.724c2.665-3.775 5.115-7.18 7.395-10.228l.613-.57c3.79-.385 7.18-2.108 10.243-5.114 3.062-3.447 5.128-7.393 6.296-11.966-1.567 1.11-3.234 2.065-5.185 2.835-.713.4-1.667.727-2.835 1.126-1.496.385-3.234.77-5.114 1.168h-3.405c-11.738-1.168-20.3-11.695-25.642-31.61v-.342c.1-1.055.33-2.223.557-3.39l2.835-17.637c.384-.384.612-.783.612-1.168l2.835-9.13v-.557c.227-.555.498-1.168.84-1.724.327-1.225.712-2.336 1.168-3.39l.826-1.724v-.555c.4-.784.954-1.724 1.724-2.85l1.68-3.447v.556c-3.404 7.62-4.957 15.812-4.572 24.545 0 7.565 1.168 14.973 3.447 22.21 2.294 6.453 5.342 11.795 9.132 15.97 3.79 4.173 7.407 6.224 10.798 6.224h3.447c2.62-.328 4.73-1.667 6.24-3.946.384 0 .612-.228.612-.556 2.607-3.846 5.285-7.62 7.95-11.41 1.51-.385 3.233-1.168 5.127-2.28 3.774-3.062 6.453-6.852 7.948-11.41-1.11.783-2.834 1.34-5.114 1.724h-.555c-.4.34-.785.555-1.112.555-4.23.728-8.02.728-11.41 0-12.195-3.062-19.375-15.583-21.654-37.607v-1.738l6.852-19.915c0-.385.157-.784.555-1.11l4.56-9.745.556-.556v-.556l2.28-3.39c1.51-2.28 2.848-4.402 4.016-6.297l1.667-2.28v.556c-4.574 7.237-7.41 15.414-8.52 24.488-1.553 8.02-1.553 15.97 0 23.99 1.51 7.18 3.946 13.292 7.408 18.192 3.048 4.957 6.453 8.02 10.228 9.13 3.79.77 7.066.215 9.687-1.722.783-.4 1.51-.955 2.28-1.68v.554c4.173-5.726 8.02-11.012 11.41-15.97 2.28-.384 4.558-1.324 6.838-2.834 3.79-3.063 6.625-6.838 8.52-11.41-1.496.783-3.39 1.51-5.67 2.293h-.556c-4.174.77-8.19.77-11.966 0-12.522-3.405-19.588-16.31-21.098-38.733.17-.556.4-1.168.556-1.724L171.643 152l2.835-6.298c0-.384.214-.77.556-1.168l4.558-9.06.556-.613v-.284c.228-.17.4-.44.612-.84l2.835-4.56c.727-1.167 1.51-2.107 2.294-2.833l2.833-4.56h.556l-.557.557c-4.558 7.62-7.62 15.74-9.13 24.473-1.497 8.02-1.725 15.984-.556 23.933 1.51 7.236 3.79 13.52 6.852 18.804 3.047 4.957 6.452 8.02 10.227 9.13 4.957 1.17 8.96 0 11.966-3.39v.556c3.447-4.558 7.066-9.13 10.855-13.69 1.895-.342 3.79-1.34 5.67-2.835 3.79-2.677 6.68-6.295 8.576-10.797-.385 0-.556.17-.556.556h-.613l-2.28 1.11h-2.278c-4.573 1.168-8.747 1.168-12.522 0-12.137-3.006-19.203-15.74-21.097-38.178.17-.94.398-1.88.555-2.835l6.297-17.636c.77-1.167 1.324-2.278 1.723-3.446l3.946-7.408c.284-.44.44-.826.612-1.168l.555-.555 2.835-4.56c.784-1.11 1.51-2.064 2.294-2.834l3.447-4.573v.555zM76.484 401.566c2.28-1.553 4.9-3.447 7.964-5.727 20.143-13.633 37.223-24.488 51.298-32.437 7.18-4.57 14.416-8.745 21.653-12.577h1.11c1.938 1.168 4.004 1.552 6.283 1.168-14.458 7.237-26.595 14.018-36.44 20.472-8.746 5.342-18.646 11.966-29.658 19.986-5.684 4.558-13.69 10.627-23.932 18.248-3.063 2.223-5.684 4.345-7.964 6.226 3.006-5.285 6.24-10.457 9.687-15.357zm91.143-81.513c-.77 2.664-.94 5.342-.556 8.006-3.062-.384-5.897-.94-8.56-1.723 0-1.496.212-3.234.61-5.114zm36.51-31.895c-1.167 2.678-2.122 5.342-2.89 7.963-3.405-.342-6.454-.726-9.132-1.11.384-1.51.783-2.836 1.168-4.004zm159.536 0c0-1.168.17-2.28.556-3.448.726 1.168 1.666 2.122 2.834 2.89zm71.783 26.767h.556l-2.28.556c-1.893.4-3.945.783-6.224 1.168l-4.017.555c-.386 0-.614.228-.614.556l-7.95.61h-1.11c-2.336.115-4.63.23-6.852.286l-6.838-.285c-2.336-.155-4.63-.326-6.852-.61-17.864-6.454-27.707-14.247-29.602-23.307l8.52-1.723c1.167 1.88 2.663 3.618 4.557 5.114 3.79 3.79 8.732 7.236 14.8 10.242 6.853 3.063 13.918 5.114 21.098 6.282 8.006 1.51 15.57 1.724 22.807.556zM24.615 442.578c1.112-1.895 2.45-4.388 4.018-7.394 1.11-1.51 2.28-3.233 3.39-5.128 1.895-4.56 3.775-9.9 5.67-15.97.783-3.39 1.724-6.68 2.892-9.686 3.404-11.795 5.684-22.195 6.852-31.383 2.222-14.017 3.177-28.82 2.835-44.403-.385-16.696-2.11-26.767-5.114-30.215-2.68-2.622-6.297-4.9-10.855-6.84-1.496-.725-3.063-1.338-4.56-1.68 1.88-.384 3.62-.384 5.115 0 5.727.4 9.9 1.51 12.58 3.405 1.894 1.895 3.945 5.342 6.224 10.228 2.678 6.853 4.402 15.2 5.13 25.1 1.55 20.87-1.113 46.128-7.965 75.787l.556-.556c-3.775 4.573-7.394 9.075-10.798 13.633-2.664 3.462-5.342 7.237-8.006 11.41.383 1.895 1.894 2.68 4.557 2.28 1.895 0 8.733-7.95 20.542-23.918 9.458-12.523 23.148-31.726 41.012-57.54 6.054-8.745 11.795-16.922 17.08-24.486h1.17c2.662-.385 5.113-1.34 7.392-2.892-11.012 15.584-20.528 28.875-28.49 39.9-5.67 8.335-13.135 19.59-22.195 33.606 0 .385-.23.613-.614.613-2.62 4.502-5.128 8.52-7.408 11.967-4.174 6.396-7.393 11.354-9.672 14.8-.727 1.112-1.51 2.052-2.294 2.836-1.11 1.496-2.28 3.234-3.39 5.114-2.664 3.462-5.114 6.468-7.394 9.13-1.95 1.896-3.618 3.62-5.185 5.116-.712.783-1.667 1.51-2.835 2.293-3.276 2.165-6.182 2.72-8.79 1.724-.284-.556-.555-1.11-.897-1.724-.383-1.125-.554-2.45-.554-4.017zm190.32-142.455c-1.11.727-2.28 1.51-3.405 2.28-1.168.783-2.108 1.51-2.89 2.28l-5.67 3.403c-.4.385-.956.77-1.725 1.168l-2.28 1.112c0 .783.215 1.552.613 2.28.328 4.557 1.667 7.79 3.946 9.743.784.326 1.553.71 2.28 1.11 2.28 1.11 4.402 1.34 6.282.555.4-.384.727-.555 1.125-.555 3.45-1.51 6.84-3.063 10.287-4.573 1.51.4 3.233.57 5.128.57 3.775-.342 7.393-1.68 10.784-3.96-1.112-.385-2.608-.77-4.56-1.17-.726-.383-1.496-.782-2.222-1.11-2.678-1.168-4.957-2.664-6.852-4.558-3.447-3.79-4.943-8.577-4.56-14.247l-3.446 3.39c-1.11.784-2.066 1.497-2.835 2.28zm15.97 25.1c-1.51 1.496-2.508 3.79-2.836 6.78-.4 3.463.94 7.08 3.945 10.856 3.448 3.79 7.793 7.236 13.135 10.242 5.67 3.063 11.966 5.114 18.804 6.282 7.564 1.51 14.972 1.51 22.208 0h.556c-2.62.727-5.898 1.51-9.687 2.28l-11.965 1.68c-7.18.77-14.018.94-20.47.613-17.138-7.237-25.1-16.368-23.99-27.38 0-2.62.783-5.285 2.28-7.963 2.677-1.168 5.34-2.28 8.02-3.39zm39.288-13.69c-2.293 1.496-3.618 3.947-3.96 7.394-.385 3.405.954 7.023 3.96 10.798 3.448 3.846 8.006 7.237 13.69 10.3 5.727 3.39 11.952 5.67 18.804 6.837 7.95 1.51 15.585 1.68 22.807.556h.556c-3.448 1.182-7.778 2.123-13.078 2.85l-8.56 1.167h-10.016c-3.732 0-7.407-.228-11.083-.612-.384-.17-.712-.342-1.168-.556-16.68-7.408-24.644-16.368-23.918-26.767.385-3.063 1.496-6.126 3.447-9.132 1.496-.384 3.006-.783 4.502-1.168 1.168-.726 2.507-1.282 4.017-1.666zm34.773-8.575c-1.495 1.51-2.45 3.462-2.834 5.74-.4 3.39 1.11 7.01 4.558 10.8 3.006 3.774 7.408 7.392 13.078 10.84 6.068 3.404 12.578 6.068 19.36 7.963 8.02 1.497 15.584 1.896 22.82 1.17h1.11c-3.004.726-6.452 1.28-10.24 1.666l-3.39.555-8.563.614h-2.85l-18.803-1.724c-17.48-7.963-25.813-17.308-25.044-27.935.4-3.006 1.51-5.898 3.39-8.52h.57zm82.083 27.38c-10.685.726-20.928.4-30.77-1.168-18.264-7.95-27.224-16.91-26.826-26.768 0-1.168.214-2.28.613-3.447l7.393-1.11v.554c-.384 3.062 1.112 6.453 4.573 10.3 3.775 3.774 8.505 7.392 14.246 10.797 6.452 3.447 13.076 5.897 19.914 7.393 7.963 1.895 15.74 2.28 23.377 1.168l.556.556c-2.678.4-5.684.783-9.13 1.168l-3.392.556zm-142.456 42.736h.556c-3.448.727-7.408 1.34-11.966 1.667h-1.17l-7.962.613-17.693-1.723h-.556c-14.417-8.733-20.47-18.25-18.192-28.49.328-.386.556-.77.556-1.17h-.556c2.607-1.11 5.285-2.45 7.95-3.945v1.666c-.77 3.064 0 6.454 2.28 10.3 2.292 4.175 5.682 7.95 10.24 11.354 4.574 3.448 9.916 6.112 15.97 8.006 6.852 1.895 13.69 2.45 20.542 1.724zm-39.346 7.408h.556c-2.28.726-4.9 1.495-7.963 2.28h-2.834c-4.33.725-8.405 1.11-12.237 1.11-4.175.228-8.078 0-11.682-.555-.342-.17-.613-.328-.898-.556-10.798-6.28-16.254-13.36-16.254-21.097 2.294-1.168 4.573-2.436 6.852-4.003.385 2.28 1.168 4.402 2.28 6.297 2.28 3.775 5.512 7.01 9.686 9.673 4.174 3.062 8.96 5.128 14.246 6.296 6.068 1.496 12.18 1.667 18.248.556zm-10.855 86.584c1.952-3.006 3.618-6.852 5.185-11.41 3.776-9.075 5.286-17.08 4.56-23.933-.784-9.46-4.787-17.237-12.024-23.306-8.348-7.237-20.47-10.684-36.44-10.3-9.858 0-23.15 2.508-39.902 7.408-10.185 2.95-22.536 7.123-37.01 12.565 23.093-12.508 43.635-19.915 61.54-22.252 11.355-1.51 21.825-1.282 31.34.613 8.734 1.896 16.127 5.115 22.196 9.688 5.342 4.174 9.516 9.117 12.52 14.8 2.68 5.343 4.004 10.457 4.004 15.414-.384 7.95-3.22 15.528-8.504 22.75-2.28 3.405-4.787 6.07-7.465 7.964z" fill="#e7d06b"/><path d="M471.354 279.595c-1.895 2.28-4.018 4.56-6.297 6.838.784-1.11 1.567-2.05 2.28-2.835 1.566-1.496 2.905-2.835 4.017-4.003zm-63.834-6.852c3.79-1.11 8.575-1.325 14.245-.555 2.678.783 6.453 1.723 11.41 2.834 4.958 1.567 8.576 2.508 10.856 2.907 7.18 1.11 14.403 1.11 21.583 0 3.46-.785 6.125-1.568 8.02-2.295-4.174 4.573-9.516 7.963-15.97 10.243-5.683 2.28-11.966 3.618-18.818 4.003-6.453.4-12.293-.213-17.636-1.723-5.343-1.496-9.118-3.62-11.41-6.282-2.665-3.39-3.392-6.454-2.28-9.132zm-5.67 3.448c-.4 1.51-.784 2.85-1.168 4.018-1.11 2.28-2.45 4.174-4.003 5.67h-.57c-1.112 1.51-2.437 2.678-3.947 3.39-2.28-.328-4.402-1.325-6.282-2.835-.783-.77-1.338-1.496-1.723-2.28-.4-.384-.726-.726-1.168-1.11-1.51-3.063-1.682-6.68-.557-10.855 1.553-4.174 4.16-8.177 8.006-11.967 4.558-4.172 9.686-7.392 15.356-9.67 6.852-2.68 14.245-3.62 22.21-2.85-2.623.4-5.286 1.34-7.965 2.85-6.067 3.446-10.455 7.62-13.076 12.52-.783 1.938-1.895 4.787-3.447 8.562-.385 1.11-.727 2.28-1.112 3.39 0 .4-.17.784-.555 1.17zM292.445 70.473c2.28-4.56 5.897-8.904 10.798-13.078 1.894-1.552 5.342-3.79 10.3-6.837 4.558-3.063 7.777-5.342 9.672-6.852 6.068-4.944 11.026-11.568 14.8-19.916 1.51-2.68 2.68-5.186 3.448-7.465l.57-3.39v.555c1.11 8.732.328 17.48-2.293 26.212-2.28 8.006-5.898 15.185-10.84 21.638-4.175 5.74-8.748 10.3-13.634 13.69-5.342 3.063-9.915 4.174-13.69 3.462-4.957-1.168-8.02-3.846-9.13-8.02zm1.666 23.377v6.28l-.554.556c-.385.4-.77.727-1.11 1.112-1.554 1.168-3.45 1.567-5.728 1.168-1.11 0-2.28-.214-3.405-.556-.384 0-.94-.214-1.723-.612-3.39-1.496-6.226-5.115-8.505-10.798-2.28-5.343-3.447-11.796-3.447-19.36 0-8.006 1.495-15.798 4.558-23.377 3.063-8.333 7.394-15.74 13.135-22.194l.27-.614.286-.555v.556l-1.168 2.835c-1.11 2.68-1.895 5.343-2.28 8.02-1.894 8.734-1.68 17.08.613 25.03.33 2.294 1.497 6.126 3.392 11.41.783 1.51 1.496 3.064 2.28 4.574 0 .77.17 1.325.555 1.724v.555l.284.27c.614 1.895 1.113 3.292 1.44 4.29.784 3.39 1.11 6.623 1.11 9.686zM346.593 91c-4.56 7.578-10.456 14.03-17.693 19.373-6.454 4.56-13.69 7.95-21.654 10.243-6.838 2.28-13.29 3.048-19.36 2.28-4.174-.343-7.407-1.34-9.687-2.836.34-.726.726-1.34 1.11-1.738.4 0 .784-.156 1.17-.555 4.172-1.88 7.563-4.943 10.24-9.117l1.725-3.96c.342-.77.726-1.553 1.11-2.28 2.28 0 4.958.17 8.02.556 5.286.4 9.29.555 11.967.555 7.95-.383 15.912-2.663 23.918-6.837 3.79-1.894 6.852-3.79 9.132-5.683zm-81.527 49.032c1.895 0 3.79.17 5.74.556 2.608 0 6.782.556 12.508 1.667 2.68.783 5.13 1.34 7.408 1.723 1.497 0 3.064.228 4.56.556 7.62.4 15.755-.94 24.488-3.946 3.846-1.51 7.065-3.234 9.743-5.114-5.34 7.165-12.022 12.906-19.985 17.08-7.237 4.174-14.63 7.01-22.194 8.505-7.236 1.167-13.86 1.167-19.986 0-5.67-1.112-9.672-3.392-11.952-6.782-.726-.784-1.34-1.724-1.68-2.892l8.518-11.354zM233.74 178.21c3.39-.783 7.236-.954 11.41-.612 1.11 0 2.28.213 3.39.612 2.678.328 6.68 1.325 11.966 2.835 1.895.385 3.79.77 5.727 1.11 2.62.785 4.73 1.17 6.24 1.17 7.62 1.495 15.798.726 24.53-2.28 4.174-1.168 7.58-2.507 10.243-4.003-5.67 6.453-12.736 11.795-21.084 15.97-7.236 3.39-14.8 5.67-22.82 6.837-7.18.726-13.634.34-19.36-1.17-6.07-1.894-10.072-4.558-11.967-7.962-1.51-2.664-2.065-5.342-1.666-7.95zm61.54 13.633c.783-1.125 1.723-2.293 2.85-3.404 1.88-2.28 3.774-4.39 5.725-6.284-2.678 3.063-5.513 6.283-8.575 9.687zm-21.64 16.525c-1.51 1.168-3.233 2.108-5.128 2.892.727-.385 1.51-.784 2.294-1.168.712-.385 1.667-.955 2.835-1.724zm-5.74 19.972l4.017-4.003c1.88-2.28 3.775-4.345 5.67-6.296-2.607 3.462-5.84 6.853-9.687 10.3zm-61.54-14.245c4.23-1.17 8.79-1.34 13.69-.613h2.28c2.677.385 6.85 1.34 12.52 2.892 3.847 1.11 6.852 1.895 9.132 2.28.77 0 1.552.17 2.28.555 8.005 1.124 16.353.17 25.1-2.836 3.774-1.168 7.008-2.507 9.672-4.003-5.67 6.84-12.522 12.18-20.528 15.97-7.564 3.79-15.2 6.07-22.764 6.852-7.62.712-14.245.328-19.972-1.168-5.684-1.51-9.46-4.017-11.41-7.408-2.223-3.39-2.836-6.624-1.667-9.687zm-19.916 78.635c.77.384 1.496.77 2.28 1.11.783.385 1.495.613 2.28.613.383 0 .782.157 1.11.556 2.678.384 5.727.768 9.13 1.11.77-2.62 1.725-5.285 2.893-7.963l9.687-2.835c.328 0 .712-.228 1.11-.613-.398 2.28-.554 4.4-.554 6.296v4.003c2.663-.4 4.943-.956 6.837-1.725h1.112c-.386 0-.77.214-1.113.556-1.894 1.554-4.003 3.064-6.282 4.56-4.573 2.677-9.516 4.786-14.8 6.282h-.557c-3.46.726-6.68 1.51-9.686 2.293h-12.024c-2.222 0-4.344-.228-6.225-.555-1.895-.4-3.79-.784-5.74-1.17-2.28-.725-4.33-1.51-6.226-2.292-4.957-2.28-8.02-5.285-9.13-9.117-.386-.34-.557-.726-.557-1.11l6.852-9.687c2.28 0 4.33.17 6.225.555 1.51.385 3.063.784 4.56 1.11 2.677.785 6.295 2.28 10.854 4.56.727.4 1.51.783 2.28 1.168.342.4.955.57 1.667.57.783.385 1.567.77 2.293 1.168.77.328 1.325.556 1.724.556zm-7.407-41.013c4.558-1.168 9.686-1.168 15.356 0 1.567.328 3.29.726 5.185 1.11 2.28.785 4.56 1.497 6.78 2.28h1.17c4.957 1.496 8.575 2.45 10.855 2.835 7.564 1.168 15.74.556 24.487-1.724 4.174-1.495 7.565-2.834 10.23-3.946-5.67 6.454-12.737 11.568-21.085 15.357-4.173 1.894-8.347 3.447-12.52 4.558-1.896.4-3.79.783-5.67 1.168h-4.574v.555c-7.62.4-14.244-.212-19.97-1.722-5.685-1.895-9.46-4.56-11.412-7.95-1.495-3.062-2.05-5.897-1.666-8.575 1.11-1.11 2.05-2.45 2.835-3.946zm87.196 0c-2.28 1.895-4.388 4.174-6.282 6.78-4.558 6.126-7.407 12.352-8.575 18.82-.328 1.936-.712 4.942-1.11 9.116v.556c0 2.278-.215 4.23-.557 5.74v4.558c-.783 4.9-2.28 8.904-4.558 11.966l11.41-2.834c.713-.4 1.667-.784 2.835-1.17l.556.557c-5.284 1.553-10.626 3.22-15.968 5.17l.612-.61c-1.168.383-2.28.61-3.447.61-2.294-.384-4.345-1.552-6.297-3.446-2.222-2.677-3.39-6.453-3.39-11.41.384-4.957 1.894-10.242 4.558-15.912 2.68-6.126 6.454-11.64 11.41-16.525 5.286-5.342 11.568-9.36 18.805-11.966zM253.1 339.47c2.677 3.005 4.785 5.284 6.295 6.78 4.56 4.573 10.456 8.19 17.636 10.855 3.45 1.11 6.454 1.895 9.132 2.28-7.236 1.51-14.644 1.51-22.208 0-6.838-1.17-13.135-3.22-18.804-6.283-5.342-3.006-9.687-6.453-13.135-10.243-3.005-3.776-4.344-7.394-3.946-10.8.327-3.047 1.324-5.34 2.834-6.836 1.496-.385 2.835-.955 3.946-1.724 3.847 1.496 7.465 4.003 10.855 7.393.784.784 1.724 1.895 2.835 3.462 1.168 1.11 2.507 2.607 4.003 4.5zm29.658-39.903c-3.448.342-6.667-.94-9.673-4.003-2.28-2.678-3.29-6.453-2.892-11.41.385-4.9 2.11-10.072 5.17-15.357 3.007-5.726 7.01-10.684 11.968-14.8 5.556-4.844 11.853-8.292 18.748-10.3-1.995 1.666-4.06 3.79-6.226 6.296-4.572 5.285-7.635 11.012-9.13 17.08v.556c-.386 2.278-.784 5.34-1.17 9.13-.327 4.56-.726 7.95-1.11 10.23-.4.782-.556 1.338-.556 1.722-1.168 4.174-2.835 7.793-5.128 10.855zm43.862-34.217v4.558c-.784 4.174-1.34 7.408-1.738 9.687 0 .77-.157 1.553-.556 2.28-1.168 3.79-2.835 6.837-5.114 9.13-3.39.386-6.624-.954-9.687-4.016-2.28-2.608-3.22-6.227-2.835-10.8.342-4.943 2.066-10.07 5.114-15.413 3.006-5.285 7.237-9.844 12.522-13.633 5.74-4.558 12.137-7.62 19.374-9.117-1.895 1.496-4.003 3.39-6.297 5.67-4.886 4.957-8.12 10.47-9.672 16.524-.34 1.17-.726 2.85-1.11 5.13zm52.41-26.212c-2.28.385-4.56.784-6.84 1.168h-2.834c3.447-.384 6.667-.783 9.673-1.168zm-13.08 23.377c-.383 1.496-.768 3.447-1.167 5.727-.726 4.174-1.34 7.18-1.724 9.074-.328 1.168-.727 2.108-1.112 2.892 0 .327-.17.726-.555 1.11-1.168 2.665-2.835 4.958-5.114 6.84-1.17 0-2.295-.215-3.463-.557-2.28-.768-4.174-2.278-5.67-4.557-2.28-2.678-3.062-6.283-2.28-10.855.728-4.9 2.836-9.673 6.226-14.246 3.448-4.9 7.85-8.903 13.135-11.966 6.296-3.66 13.134-5.955 20.542-6.838h.555c-2.293 1.168-4.73 2.835-7.407 5.114-5.343 4.23-8.96 9.132-10.856 14.858-.384.727-.712 1.895-1.11 3.405zm-88.92-226.76v.556h-.554c.384 0 .555-.227.555-.554zm-24.487 59.262c.784 1.894 1.895 3.946 3.405 6.225 2.28 4.957 4.003 8.747 5.17 11.41.33 1.112.727 2.28 1.112 3.39.385.785.556 1.34.556 1.725 1.168 3.79 1.51 7.407 1.168 10.855-1.168 1.11-2.28 1.894-3.448 2.28-2.28 1.11-5.114 1.11-8.518 0-3.832-1.17-7.066-4.39-9.673-9.674-3.063-4.957-4.958-11.24-5.74-18.818-.77-8.006-.158-15.97 1.723-23.918 2.236-8.52 5.84-16.083 10.798-22.82l-.556 1.722c-.384 2.622-.726 5.286-1.11 7.964-.784 9.117.384 17.465 3.39 25.086.398 1.125.954 2.62 1.723 4.573zm-17.693 65.486c-3.006 3.063-7.008 4.017-11.966 2.85-3.775-.727-7.18-3.79-10.228-9.075-3.063-4.958-5.13-11.07-6.297-18.25-1.496-8.02-1.496-15.968 0-23.93 1.566-9.018 4.672-17.08 9.4-24.204l-.27 1.937c-.34 3.064-.726 5.913-1.11 8.577 0 9.132 1.495 17.308 4.558 24.488.727 1.553 1.895 3.448 3.39 5.727.784 1.51 1.724 3.006 2.835 4.558 2.68 4.958 4.573 8.747 5.74 11.354.77.784 1.34 1.724 1.725 2.892 1.496 4.573 2.222 8.903 2.222 13.077zm-77.452 190.32c-7.237 3.832-14.474 7.95-21.653 12.578-14.075 7.95-31.155 18.805-51.298 32.438-3.063 2.28-5.684 4.174-7.964 5.727 3.006-4.56 5.898-8.96 8.52-13.134 8.347-5.67 17.136-11.182 26.197-16.524 1.168-.727 2.293-1.282 3.46-1.667l35.33-19.973h.556v-.556l1.11-.283 2.893-1.396c.725 1.126 1.68 2.066 2.848 2.793zm-6.297-2.835h.286c-.954.498-2.01.826-3.12 1.168 1.11-.4 2.066-.784 2.835-1.168zm-18.19-30.785c1.495.4 3.005.784 4.5 1.168 2.28.728 5.514 2.067 9.745 4.02 3.39 1.494 6.07 2.45 7.95 2.834.398.327.954.555 1.737.555.328.384.94.555 1.667.555 2.663.783 5.498 1.34 8.56 1.723-.384-2.664-.213-5.342.556-7.95l13.134-1.737c.4 0 .955-.212 1.667-.554.4 0 .954-.214 1.738-.613-.784.456-1.34.784-1.738 1.168h-1.667v.557c.342 3.063.556 5.513.556 7.408h1.724c1.125-.385 2.293-.727 3.404-1.11-.783.725-1.724 1.494-2.85 2.22-.768.385-1.495.784-2.278 1.17-4.174 3.062-8.562 5.34-13.135 6.85h-1.11c-2.664.77-5.114 1.326-7.393 1.725-2.678.726-5.342 1.11-8.02 1.11h-5.114c-6.07-.384-11.41-1.51-15.913-3.39-3.062-1.567-5.185-3.062-6.296-4.572v-.613zm58.648-23.918c.442-.783.784-1.567 1.168-2.28h.556c-.727.713-1.282 1.497-1.724 2.28zm194.323-1.724h1.724l2.28-1.124c.384 0 .726-.214 1.11-.555h.556c1.567 1.51 3.29 3.234 5.172 5.13 3.79 3.005 6.624 5.284 8.518 6.837 5.727 4.573 12.58 8.177 20.528 10.798 3.79 1.168 7.023 1.894 9.687 2.28-7.237 1.167-14.8.954-22.764-.557-7.222-1.168-14.245-3.22-21.14-6.282-6.068-3.006-10.954-6.453-14.8-10.242-1.895-1.496-3.39-3.234-4.502-5.114l5.67-.556c2.678.328 5.285.157 7.963-.613zm-30.214 37.61h.613c9.842 1.567 20.085 1.894 30.77 1.168-3.292.4-6.682.555-10.3.555-7.18 0-14.246-.555-21.084-1.723zm11.952-17.636c1.168 1.11 2.123 1.894 2.906 2.28 5.285 4.956 11.738 8.73 19.36 11.41 3.79 1.495 7.008 2.45 9.687 2.834-7.635 1.112-15.413.727-23.376-1.168-6.838-1.496-13.462-4.003-19.915-7.393-5.742-3.462-10.472-7.023-14.247-10.855-3.46-3.79-4.957-7.18-4.573-10.243v-.556l14.8-1.724c1.17.784 2.124 1.553 2.85 2.28 1.88 1.51 4.56 4.173 7.95 8.02 1.95 1.88 3.447 3.604 4.558 5.114zm32.508 6.837c-2.735-.098-5.4-.27-7.963-.61h1.11c2.223.284 4.517.455 6.853.61zm-209.68-100.885h.557c-3.39 4.957-7.237 10.243-11.41 15.97v-.556c-.77.725-1.497 1.338-2.28 1.68-2.62 1.937-5.898 2.493-9.687 1.723-3.775-1.11-7.18-4.174-10.228-9.13-3.462-4.9-5.898-11.013-7.408-18.192-1.553-8.02-1.553-15.97 0-23.99 1.11-9.073 3.946-17.25 8.52-24.487v2.294c-.343 2.664-.557 5.498-.557 8.56-.4 9.133 1.168 17.082 4.56 23.934 1.11 2.28 3.062 5.514 5.668 9.673.4.4.614.727.614 1.126 1.51 2.278 2.85 4.215 3.96 5.725 1.168 1.895 1.938 3.562 2.28 5.114 2.663 5.342 4.173 10.47 4.558 15.356zm-40.456-44.46c.342-.385.556-.712.556-1.11v.554zm-11.966 30.77v1.738l-.613.556c.4-.728.557-1.454.614-2.295zm-10.285-2.28v2.893c0 2.293.212 4.73.61 7.407 1.112 8.733 3.776 16.14 7.95 22.21.4.384.727.94 1.11 1.723 1.568 1.496 3.62 3.775 6.298 6.838 3.063 3.79 5.342 6.852 6.838 9.13 1.11 1.112 2.065 2.45 2.834 3.947 1.17 2.28 2.123 4.558 2.85 6.852l5.17-6.852c1.112-.385 2.223-.727 3.39-1.11-2.663 3.788-5.34 7.563-7.948 11.41 0 .327-.228.555-.612.555-1.51 2.28-3.62 3.618-6.24 3.946h-3.447c-3.39 0-7.01-2.05-10.798-6.225-3.79-4.175-6.838-9.517-9.132-15.97-2.28-7.237-3.447-14.645-3.447-22.21-.328-8.732 1.168-16.923 4.573-24.544zm11.95 89.49c-2.28 3.05-4.73 6.454-7.393 10.23v1.723c-.726 1.51-1.895 2.678-3.39 3.462-1.51.712-3.462 1.11-5.74 1.11-3.392-.398-6.625-2.45-9.674-6.296-3.405-3.775-6.068-8.732-7.963-14.8-2.28-6.454-3.39-13.078-3.39-19.916.327-8.02 1.894-15.414 4.5-22.266v2.28c0 2.293.23 4.786.614 7.464 1.11 7.565 3.618 14.246 7.407 19.915 1.112 1.51 3.22 4.175 6.227 7.965 3.062 3.447 5.17 6.068 6.296 8.006 1.496 2.294 2.664 4.573 3.447 6.853 1.496-1.952 3.006-3.847 4.502-5.727zm52.424-133.337v.556c1.168 2.28 3.063 5.74 5.727 10.3 3.063 4.5 5.13 8.12 6.297 10.797.328.77.727 1.497 1.11 2.28 1.896 4.958 2.836 9.517 2.836 13.69-3.006 3.39-7.01 4.56-11.966 3.39-3.775-1.11-7.18-4.173-10.228-9.13-3.064-5.285-5.343-11.568-6.853-18.804-1.17-7.95-.94-15.913.555-23.933 1.51-8.732 4.573-16.852 9.13-24.473l-.554 2.834c-.4 2.664-.556 5.342-.556 8.006-.4 9.075 1.11 17.252 4.502 24.488zm-12.522-22.194c.228-.228.4-.513.556-.898v.285zm-63.82 189.75c-5.285 7.564-11.026 15.74-17.08 24.487-17.864 25.814-31.554 45.017-41.013 57.54-11.81 15.968-18.648 23.917-20.543 23.917-2.663.4-4.174-.385-4.558-2.28 2.663-4.173 5.34-7.948 8.005-11.41 3.404-4.558 7.023-9.06 10.798-13.633l24.545-32.494c10.627-14.074 21.026-28.092 31.326-42.18 1.054-1.382 2.122-2.835 3.12-4.288 1.666.57 3.504.612 5.398.342zm99.72-10.856c-.343 1.895-.728 3.79-1.112 5.684l5.67-2.293c1.167.398 2.28.782 3.447 1.167-3.448 1.51-6.838 3.006-10.286 4.573-.397 0-.725.17-1.124.555-1.88.784-4.003.556-6.282-.555-.727-.4-1.496-.784-2.28-1.168-2.28-1.895-3.618-5.13-3.946-9.687-.398-.727-.612-1.496-.612-2.28l2.28-1.11c.768-.4 1.324-.784 1.723-1.17l5.67-3.403c.782-.77 1.722-1.553 2.89-2.28 1.126-.77 2.294-1.552 3.405-2.28v.557c.385 4.173.556 7.406.556 9.686zm49.573 49.033c-.385.33-.77.557-1.11.557-7.623.712-14.63.712-21.085 0h1.724c6.453.385 13.29.157 20.47-.556zm7.408-52.422c3.447 1.11 6.68 3.177 9.672 6.225.784.4 1.34.784 1.738 1.168 1.496 1.51 4.003 4.175 7.394 7.965 2.678 3.39 4.786 5.897 6.282 7.407h.57c.155.157.326.385.554.556 4.445 4.672 10.342 8.29 17.693 10.84 3.39 1.112 6.453 1.895 9.117 2.28-7.222 1.125-14.858.954-22.807-.598-6.852-1.126-13.077-3.405-18.804-6.795-5.684-3.063-10.242-6.454-13.69-10.3-3.006-3.775-4.345-7.393-3.96-10.798.342-3.447 1.667-5.898 3.96-7.393.77 0 1.553-.228 2.28-.556zm89.475 28.49c-7.236.728-14.8.33-22.82-1.167-6.782-1.894-13.292-4.558-19.36-8.02-5.67-3.39-10.072-7.008-13.078-10.783-3.447-3.79-4.957-7.408-4.558-10.855.384-2.28 1.34-4.174 2.834-5.684l5.727-1.168c2.28 1.567 4.73 3.233 7.408 5.185.727.712 1.497 1.496 2.223 2.28 1.567 1.495 3.846 4.173 6.895 7.948 1.125 1.126 2.065 2.294 2.85 3.405 1.894 1.937 3.218 3.447 3.945 4.56 4.957 4.557 11.24 8.346 18.804 11.41 3.462 1.552 6.453 2.506 9.13 2.89zm-180.347-9.4c.67-.67 1.34-1.34 1.995-2.01.4 0 .727-.228 1.125-.612l2.28-2.835c-.727 1.554-1.895 2.836-3.405 4.004-.655.342-1.325.84-1.994 1.453zm23.648 5.954c1.11.77 2.45 1.894 4.003 3.447.728.726 1.51 1.666 2.28 2.834 1.126 1.51 2.85 4.174 5.13 7.963 1.495 2.664 2.834 4.943 3.945 6.838l1.168 1.168c3.39 4.957 8.348 8.903 14.8 11.966 3.064 1.11 5.742 2.065 8.02 2.834-6.85.784-13.69.17-20.54-1.724-6.055-1.894-11.397-4.558-15.97-7.95-4.56-3.403-7.95-7.235-10.242-11.41-2.28-3.79-3.048-7.236-2.28-10.242v-1.723c3.406-1.17 6.625-2.508 9.688-4.003zm-18.804-4.018c.77.784 1.88 1.567 3.448 2.294-3.448 1.553-6.852 3.048-10.3 4.558-.385.784-.555 1.34-.555 1.724-1.17.727-2.45.94-4.003.556-1.51 0-2.835-.556-3.946-1.667-.4 0-.784-.23-1.17-.614l4.004-2.834c1.112-.784 2.28-1.51 3.39-2.28 1.51-1.168 2.836-2.293 4.004-3.46 0 1.566-.214 3.06-.556 4.57 1.895-.725 3.79-1.68 5.684-2.848zm-25.656 25.656c4.174-1.894 8.177-3.946 11.966-6.225 1.168.727 2.11 1.667 2.892 2.835 1.11 1.496 2.607 3.79 4.502 6.838 1.95 3.405 3.447 5.897 4.572 7.408 3.448 4.173 8.006 7.393 13.69 9.686 2.664 1.17 4.944 1.88 6.838 2.28-6.068 1.11-12.18.94-18.248-.556-5.285-1.168-10.072-3.234-14.246-6.296-4.174-2.664-7.407-5.898-9.687-9.673-1.11-1.895-1.894-4.017-2.28-6.297zm34.773 25.1c-2.663.727-5.497 1.112-8.56 1.112-1.51.114-2.892.114-4.23 0 3.83 0 7.905-.385 12.236-1.11z" fill="#f6e181"/><path d="M446.866 298.4c-.784.384-1.34.555-1.724.555l-13.077 4.003c-3.063.783-6.297 1.34-9.744 1.724-5.67.398-10.626-.556-14.8-2.835-4.174-1.938-7.237-4.56-9.117-8.006-.727-1.51-1.34-3.005-1.724-4.572l-5.13.613h-.555c.384-.042.783-.213 1.168-.612 1.51-.712 2.835-1.88 4.003-3.39h.556c1.51-1.496 2.85-3.39 4.017-5.67.326-1.168.71-2.507 1.11-4.017v.57c.385 1.17.77 2.28 1.168 3.448.385 1.894 1.11 3.775 2.28 5.67.327.726.94 1.51 1.666 2.28 0 .398.228.782.613 1.11 7.464 8.633 20.314 11.695 38.448 9.13.285.058.556.058.84 0zM294.11 100.13v-5.726l.614-.555h-.613c0-3.064-.326-6.298-1.11-9.688-.327-.997-.826-2.394-1.44-4.288 1.056 1.01 2.11 1.894 3.164 2.564 1.895 1.895 3.96 3.22 6.24 4.003 1.168.4 2.108.727 2.89 1.112.728 0 1.283.228 1.668.613 12.58 2.62 24.702-5.727 36.454-25.087-.17.77-.342 1.496-.555 2.28l-13.077 26.21c-3.79 5.343-8.19 8.734-13.077 10.23-4.573 1.168-8.96.783-13.134-1.112-1.895-1.168-3.79-2.45-5.684-4.003-.77 1.17-1.553 2.28-2.337 3.448zm22.267 29.603c-1.168 1.054-2.28 2.01-3.447 2.835l-22.21 11.41c-2.278-.384-4.728-.94-7.407-1.723-5.726-1.11-9.9-1.667-12.507-1.667-1.952-.385-3.846-.556-5.74-.556-.386-.384-.77-.954-1.112-1.723l-1.724 1.722-8.576 11.354-5.114 6.838c.784 2.28 1.724 4.174 2.835 5.74 7.066 10.286 20.927 12.964 41.625 7.95.4-.114.727-.214 1.11-.27.172-.115.4-.23.614-.286-.385.342-.94.556-1.724.556l-25.656 10.242h-1.11c-1.938-.342-3.833-.726-5.728-1.11-5.285-1.51-9.288-2.508-11.966-2.836-1.11-.4-2.28-.612-3.39-.612-2.28-1.895-3.79-4.174-4.573-6.852-.385-.328-.556-.727-.556-1.11l-6.28 8.574-3.39 4.56-5.742 7.948c.4 3.79 1.51 7.023 3.46 9.687 6.455 11.026 20.7 14.245 42.738 9.687-.784.384-1.567.783-2.294 1.168l-24.53 7.393c-2.28-.384-5.285-1.168-9.132-2.28-5.67-1.552-9.843-2.506-12.52-2.89h-2.28c-1.895-1.896-3.234-4.175-3.947-6.782-.4-1.566-.612-2.905-.612-4.016l-9.13 11.41-1.667 2.835-6.283 7.963c.385 4.174 1.496 8.006 3.448 11.41 6.396 10.898 20.414 14.132 42.124 9.673h.612c-.783.4-1.34.556-1.724.556l-27.935 8.575h-.555c-2.294.385-4.573.385-6.853 0h-1.168c-2.223-.783-4.502-1.495-6.782-2.28l-1.168-.555c-4.174-2.28-6.852-5.74-7.963-10.3h-.555c-.385-1.495-.613-3.005-.613-4.5l-10.243 14.245c-.784 1.496-1.724 2.835-2.835 3.946-2.835 4.06-5.727 8.12-8.576 12.237.954-1.268 1.895-2.493 2.85-3.66.384 3.39 1.324 6.61 2.89 9.67 3.007 5.685 8.35 9.304 15.913 10.8 2.278.783 4.785 1.168 7.392 1.168 2.68.398 5.342.398 8.02 0 3.39-.385 6.838-.784 10.243-1.17-.4.386-.783.614-1.11.614l-9.688 2.835-10.855 2.85h-.556l-6.282 1.723c-.4 0-.954-.228-1.724-.556-.726-.4-1.51-.783-2.293-1.168-.712 0-1.325-.17-1.667-.57-.77-.385-1.553-.77-2.28-1.168-4.558-2.28-8.176-3.775-10.854-4.56-1.496-.326-3.05-.725-4.56-1.11-.725-1.11-1.338-2.45-1.665-4.003 0-.726-.227-1.51-.612-2.28-1.282 1.938-2.62 3.833-3.946 5.728l-6.852 9.687c-1.838 2.55-3.675 5.342-5.456 8.233.228.67.342 1.112.342 1.44 2.28 6.068 7.01 10.47 14.245 13.077h1.113c2.28.783 4.957 1.34 7.948 1.723 3.848.784 8.022.955 12.58.556h1.667c-.712.398-1.268.57-1.667.61l-13.134 1.682-8.505 1.17c-.398 1.88-.61 3.617-.61 5.113-.728 0-1.34-.17-1.668-.556-.783 0-1.34-.23-1.738-.556l1.738-4.003-3.462.556c-6.054-.4-11.01-2.28-14.8-5.74-1.17-.713-2.11-1.668-2.835-2.836l-2.835 4.003-8.576 12.522c-1.88 3.063-3.775 5.898-5.67 8.576 5.285 7.238 16.14 10.457 32.437 9.688-.768.384-1.723.77-2.834 1.168l-17.636 2.835h-5.74c-5.286-.398-9.46-1.723-12.522-4.002-9.516 13.675-18.633 27.152-27.366 40.443-2.62 4.175-5.513 8.576-8.52 13.135-3.446 4.957-6.68 10.072-9.686 15.357 2.28-1.88 4.9-4.003 7.964-6.226 10.242-7.62 18.248-13.69 23.932-18.248 11.012-8.02 20.912-14.644 29.66-19.986 9.843-6.397 21.98-13.235 36.44-20.47-2.28.383-4.346 0-6.283-1.17h-1.112c-1.168-.726-2.123-1.666-2.85-2.834l-2.89 1.44v-.272c.782-.784 1.566-1.34 2.278-1.738v-.556l9.687-4.558.612.555c.342.398.727.555 1.112.555l.555.556 2.28.613c0 .4.227.556.612.556l2.294.554h4.558c-.385.4-.954.955-1.724 1.724 1.112-.77 2.28-1.325 3.39-1.724 23.59-11.34 45.97-20.855 67.282-28.49 14.018-4.944 28.49-9.29 43.292-13.078 3.775-1.168 7.792-2.28 11.966-3.447 1.11 0 2.28-.158 3.39-.557 1.554-.385 3.064-.783 4.56-1.11 4.572-1.17 8.732-2.11 12.52-2.893 4.232-.726 8.02-1.51 11.412-2.222 3.062-.4 5.513-.784 7.393-1.168-2.28-.4-4.174-.955-5.67-1.724-1.495 0-3.062.214-4.558.612-1.51 0-2.85.157-4.018.556 1.95-1.168 4.017-1.895 6.296-2.293l-2.28-2.28c-2.278-1.495-3.788-3.446-4.572-5.725.4-.727.613-1.51.613-2.223.34-2.28.953-5.513 1.68-9.744v-4.5l12.564-13.136c.613-.398 1.282-.783 1.952-1.11 1.225-.784 2.45-1.568 3.732-2.28v.27l-8.576 31.056c.4.726.784 1.325 1.168 1.667.4.384.556.783.556 1.168l7.408 5.67v.555h.555c.783.4 1.338.783 1.723 1.168 1.11.4 2.108.727 2.835 1.125.783-.397 1.34-.554 1.723-.554l2.28-1.738c.727-.328 1.34-.712 1.682-1.11 2.28-1.882 4.003-4.175 5.17-6.84.328-.384.556-.726.556-1.11.385-.784.727-1.724 1.11-2.892.386-1.895.956-4.957 1.725-9.074.4-2.28.784-4.23 1.11-5.727l13.69-9.687c1.84-.897 3.734-1.667 5.742-2.28-12.58 10.23-16.54 19.916-11.966 29.047 0 .385.156.77.555 1.168 1.168 2.28 2.834 4.33 5.114 6.226.782.782 1.51 1.338 2.278 1.722 1.125 1.17 2.293 1.895 3.405 2.294.384.385.77.555 1.168.555-2.677.77-5.34.942-7.962.614l-5.727.556-8.518 1.723c1.895 9.06 11.738 16.853 29.602 23.306h-1.11l-5.728-.557c-6.453-1.495-12.692-3.39-18.818-5.67-1.11-1.51-2.607-3.233-4.56-5.113-3.39-3.847-6.067-6.51-7.947-8.02-.726-.727-1.68-1.496-2.85-2.28l-14.8 1.724-7.393 1.11c-.4 1.17-.556 2.28-.556 3.448-.397 9.858 8.506 18.82 26.77 26.768h-.614l-5.128-1.112c-7.237-1.552-14.018-4.003-20.47-7.393-.785-1.168-1.725-2.294-2.893-3.462-3.006-3.775-5.285-6.453-6.852-7.95-.726-.782-1.496-1.51-2.222-2.278-.384-1.895-.384-4.017 0-6.296l-7.464 1.167-5.67 1.11-6.837 1.17h-.57c-1.882 2.62-3.05 5.512-3.45 8.518-.71 10.684 7.623 19.972 25.102 27.935l-2.835-.555-16.525-5.115c-.4-.227-.783-.398-1.168-.612-.228-.17-.4-.4-.555-.556h-.57c-1.497-1.51-3.605-4.017-6.283-7.407-3.39-3.79-5.898-6.454-7.394-7.964-.4-.383-.954-.768-1.738-1.167v-.555l.613-5.114v-.556h.555c.4-1.168.727-2.28 1.126-3.447-3.79 1.17-7.794 2.28-11.967 3.448-.727.328-1.51.556-2.28.556-1.51.384-2.85.94-3.96 1.666-1.553.385-3.063.784-4.56 1.168-1.893 3.063-3.06 6.07-3.446 9.132-.726 10.4 7.237 19.36 23.918 26.767.456.214.84.442 1.168.613-.77 0-1.324-.228-1.723-.613h-1.724c-7.95-1.51-15.357-4.017-22.194-7.408-1.895-1.17-3.405-2.28-4.573-3.39l-.557-.614c-1.496-1.894-2.835-3.39-4.003-4.5 0-.4-.17-1.013-.555-1.74-1.496-3.446-1.724-6.837-.556-10.227.384-1.568.94-2.68 1.666-3.463h-1.11L234.85 323.5c-1.11.77-2.45 1.34-3.946 1.724-2.678 1.11-5.342 2.28-8.02 3.39-1.496 2.678-2.28 5.342-2.28 8.02-1.11 11.012 6.853 20.143 23.99 27.323h-1.724l-4.017-1.11c-6.838-1.184-12.906-3.064-18.248-5.742-1.11-1.895-2.45-4.174-3.946-6.838-2.28-3.79-4.004-6.453-5.13-7.963-.77-1.168-1.552-2.108-2.28-2.835 0-1.17.172-2.508.557-4.004 0-.783.17-1.34.555-1.724l-5.114 2.28c-3.063 1.552-6.282 2.834-9.687 4.003-2.663 1.495-5.34 2.834-7.948 4.003h.556c0 .34-.228.726-.556 1.11-2.28 10.243 3.775 19.76 18.192 28.492-8.348-1.88-15.585-5.285-21.64-10.23-3.788-3.06-6.068-6.466-6.85-10.24-.386-1.17-.557-2.28-.557-3.45-1.11.386-2.45.942-4.003 1.725-3.79 2.28-7.792 4.33-11.966 6.282-2.28 1.51-4.558 2.835-6.852 3.946 0 7.793 5.456 14.816 16.254 21.098.285.23.556.443.898.614-.4 0-.784-.228-1.17-.613l-4.57-.555c-4.902-1.552-9.46-3.846-13.69-6.894-3.007-2.293-5.115-5.128-6.227-8.518-22.82 13.69-44.074 28.49-63.832 44.46-5.4 4.288-11.012 9.13-16.796 14.473l1.11-.84c.998-.385 1.84-.727 2.55-1.11 3.52-2.067 6.967-3.947 10.3-5.728 14.474-5.4 26.825-9.63 37.01-12.522 16.753-4.957 30.044-7.407 39.902-7.407 15.97-.385 28.092 3.062 36.44 10.242 7.237 6.07 11.24 13.847 12.023 23.363.727 6.852-.783 14.815-4.56 23.932-1.566 4.56-3.232 8.348-5.184 11.41 1.567-3.062 2.892-6.85 4.017-11.41 2.28-8.732 3.05-16.14 2.28-22.194-3.063-15.983-12.522-25.27-28.49-27.935-12.922-2.293-30.002 0-51.313 6.838-10.243 3.39-20.87 7.62-31.882 12.58 1.168 0 2.28-.23 3.39-.614 23.59-4.958 41.24-4.175 53.036 2.28 11.74 6.067 19.76 11.58 23.92 16.523 2.293 2.678 3.233 4.573 2.85 5.684-1.112-1.894-3.235-3.96-6.298-6.24-5.67-4.558-12.522-8.176-20.47-10.854-21.312-7.223-46.74-6.226-76.356 2.85-8.733 4.557-15.97 8.56-21.64 11.965-1.167 2.664-2.506 4.943-4.002 6.895-1.168.726-2.45 1.282-4.017 1.666-3.39 1.168-6.61.94-9.673-.556l-3.405-4.56c-.385 0-.613-.227-.613-.554h.342c2.606.997 5.512.44 8.788-1.724 1.168-.783 2.123-1.51 2.835-2.293 1.567-1.496 3.29-3.22 5.185-5.115 2.28-2.663 4.73-5.67 7.394-9.13 1.11-1.88 2.28-3.62 3.39-5.115.784-.784 1.51-1.724 2.294-2.835 2.28-3.447 5.498-8.348 9.672-14.8 2.28-3.448 4.787-7.466 7.408-11.967.385 0 .613-.227.613-.612 9.06-14.017 16.523-25.27 22.193-33.605 7.963-11.026 17.48-24.317 28.49-39.9-2.278 1.55-4.73 2.506-7.392 2.89h-1.168c-1.894.27-3.732.228-5.4-.34-.996 1.452-2.064 2.905-3.118 4.287.34-.727.726-1.34 1.11-1.724.4-1.054.84-1.895 1.454-2.564l.27-.27h-.555l-2.28-1.112-.612-.556c-3.788-2.28-6.623-6.125-8.518-11.41v-.556l-3.447-23.99v-1.666c4.573 18.19 12.194 27.878 22.82 29.046h3.392c.384 0 .783-.213 1.168-.555h1.723c1.11-.385 2.45-.784 3.96-1.168 1.938-.727 3.448-1.667 4.56-2.835v.556l-.556 1.723c14.8-20.53 32.493-44.803 52.978-72.952 1.553-2.28 3.22-4.558 5.172-6.852 3.005-4.174 5.84-8.12 8.518-11.952.77-1.125 1.496-2.293 2.28-3.405 5.342-7.622 10.456-14.46 15.413-20.528 3.006-4.174 5.84-7.963 8.505-11.41.783-1.497 1.51-2.836 2.293-3.947 4.56-6.068 8.563-11.41 11.953-15.97 3.462-4.572 6.297-8.347 8.576-11.41 2.278-2.62 4.173-4.957 5.67-6.852h-.557c-1.88 1.567-4.003 2.507-6.282 2.906-1.11 1.11-2.278 2.435-3.39 3.945-.783 1.168-1.723 2.28-2.85 3.448.728-2.664 2.067-4.958 3.962-6.838h-3.96c-2.665-.4-5.172-1.34-7.394-2.85-.385-1.167-.954-2.107-1.724-2.89-1.168-2.608-3.062-6.397-5.74-11.355-1.112-1.552-2.052-3.048-2.835-4.558l2.278-29.104c.726 21.37 6.966 33.947 18.818 37.623 3.775 1.553 7.95 1.938 12.522 1.17h.612c.328 0 .94-.23 1.667-.557 1.553-.4 2.664-.783 3.447-1.168.385-.4.727-.954 1.112-1.724l.555-2.848c.386-1.11.614-2.28.614-3.39.342-3.448 0-7.066-1.168-10.855 0-.385-.17-.94-.556-1.724-.385-1.11-.783-2.28-1.11-3.39-1.17-2.664-2.893-6.454-5.172-11.41-1.51-2.28-2.62-4.332-3.405-6.226l5.13-27.38c.155-.556.326-1.11.554-1.724-1.895 21.31 2.507 34.773 13.134 40.457.386.385.77.613 1.113.613 2.663 1.496 5.498 2.28 8.56 2.28h5.685c1.553 0 2.892-.23 4.003-.613-2.677 4.174-6.068 7.236-10.24 9.117-.386.4-.77.555-1.17.555-.384.4-.77.955-1.11 1.738-1.554 1.88-3.064 3.775-4.56 5.727-.398.328-.783.94-1.167 1.667v.555c8.347 9.515 22.977 10.07 43.904 1.723zm-53.036 135.06c1.568-1.28 3.064-2.62 4.56-4.016-9.345 15.37-10.684 27.11-3.946 35.343 2.28 2.28 5.114 4.174 8.52 5.727 0 .342.212.555.61.555 1.497.784 3.007 1.11 4.503 1.11-3.39 2.295-7.18 3.463-11.354 3.463-2.28 0-4.388-.4-6.282-1.168l-.555-.556c-1.168-.397-2.28-.953-3.447-1.737-3.006-2.28-4.958-5.285-5.684-9.06 0-.4-.214-.954-.556-1.723.342-1.51.556-3.462.556-5.74v-.557c.4-1.895 1.11-3.775 2.28-5.67zm41.626-12.52c-.17.213-.384.555-.555.826-9.8 14.415-11.125 25.712-4.002 33.89 2.28 2.677 5.342 4.785 9.117 6.295v.556h.556c.4 0 .556.214.556.613 1.168.328 2.294.556 3.462.556-3.462 2.278-7.237 3.218-11.41 2.834-1.895-.385-3.62-.784-5.13-1.11-1.167-.386-2.108-.785-2.834-1.17h-.613l-1.11-1.11-.555-.613c-1.895-1.51-3.448-3.233-4.56-5.128 0-.384.158-.94.557-1.723.384-2.28.783-5.67 1.168-10.23.328-3.79.726-6.852 1.11-9.13l4.29-5.956c2.777-3.333 6.067-6.51 9.956-9.402zm-33.05-132.213c-1.11 0-2.45-.17-4.016-.57.4 1.126.954 2.294 1.738 3.405zM40.587 404.4c-1.17 3.006-2.11 6.296-2.893 9.687-1.895 6.068-3.775 11.41-5.67 15.912-1.11 1.95-2.28 3.617-3.39 5.184-1.567 3.006-2.906 5.5-4.017 7.394 1.11-4.56 2.28-9.9 3.404-15.97 2.28-12.52 3.448-22.977 3.448-31.325-.4-10.627-2.123-21.254-5.13-31.94-3.446-10.968-6.836-17.65-10.284-19.928-3.006-1.895-5.684-2.45-7.963-1.724-.783 0-1.338.23-1.723.614l-.555.555c.783-1.17 1.723-2.11 2.834-2.835 2.68-1.895 5.513-2.11 8.576-.556 2.664.726 5.285 2.834 7.95 6.224 3.79 4.174 7.065 9.687 9.686 16.54 4.174 11.396 6.07 25.484 5.727 42.166zM363.67 288.157l3.39-.556c-1.168-.768-2.108-1.722-2.834-2.89-.385 1.168-.556 2.28-.556 3.447zm-190.918-76.342c-1.11-1.51-2.45-3.447-3.96-5.726 0-.4-.214-.728-.613-1.127-.71-1.88-1.323-4.16-1.665-6.838-.385-2.28-.77-4.344-1.168-6.282l1.168-23.32c.17-.612.342-1.168.555-1.723 1.51 22.422 8.576 35.328 21.098 38.733 3.775.77 7.792.77 11.966 0h.556c2.28-.726 4.174-1.51 5.67-2.293-1.895 4.572-4.73 8.347-8.52 11.41-2.28 1.51-4.558 2.45-6.837 2.835h-.556c-1.51.4-3.063.556-4.558.556-4.574 0-8.577-1.495-11.968-4.558-.398-.726-.783-1.282-1.168-1.667zm-35.343 23.933v-29.66l.614-.555c2.28 22.024 9.46 34.545 21.653 37.608 3.39.728 7.18.728 11.41 0 .328 0 .713-.213 1.112-.554h.554c2.28-.385 4.003-.94 5.114-1.724-1.495 4.558-4.174 8.348-7.95 11.41-1.893 1.112-3.617 1.895-5.127 2.28-1.167.384-2.278.726-3.39 1.11-1.167.386-2.507.556-4.002.556-1.51 0-2.85-.17-4.018-.555-.77-1.496-1.723-2.835-2.834-3.946-1.496-2.28-3.775-5.342-6.838-9.13-2.678-3.064-4.73-5.343-6.297-6.84zm-22.75 11.125c5.343 19.916 13.905 30.443 25.643 31.61h3.405c1.88-.398 3.618-.782 5.114-1.167 1.168-.4 2.122-.727 2.835-1.125 1.95-.77 3.618-1.723 5.185-2.834-1.168 4.573-3.234 8.52-6.296 11.966-3.063 3.006-6.454 4.73-10.243 5.114l-.612.57h-4.558c-2.222-.4-4.502-1.34-6.78-2.85-3.847-2.663-6.853-6.837-9.132-12.52v-.614l-.556-.555-4.003-26.197zm104.278-64.717c-1.895.784-4.003 1.168-6.282 1.168-2.678 0-5.13-.555-7.408-1.723-.384-.726-.783-1.51-1.11-2.28-1.17-2.677-3.235-6.295-6.297-10.797-2.663-4.558-4.558-8.02-5.726-10.3v-.555c-.613-8.405-.057-16.966 1.724-25.656 1.894 22.437 8.96 35.172 21.097 38.178 3.775 1.168 7.95 1.168 12.522 0h2.28l2.278-1.11h.613c0-.386.17-.557.556-.557-1.895 4.502-4.787 8.12-8.576 10.798-1.88 1.497-3.775 2.494-5.67 2.836zm-25.656 108.85c-.385 1.168-.784 2.493-1.168 4.003-.328-.4-.727-.557-1.11-.557l.554-1.168c.442-.783.997-1.567 1.724-2.28zm27.935 2.28c-1.894.768-4.174 1.324-6.837 1.723v-1.725l7.393-12.522 4.003-2.28c-2.664 5.67-4.217 10.628-4.56 14.802zm-6.282 6.837c.77-.783 1.724-1.496 2.835-2.28l3.447-3.39c-.384 5.67 1.112 10.4 4.56 14.246 1.894 1.893 4.173 3.39 6.85 4.5.727.385 1.497.784 2.223 1.168 1.952.4 3.448.727 4.56 1.112-3.392 2.28-7.01 3.618-10.785 4.017-1.895 0-3.618-.17-5.128-.57-1.168-.385-2.28-.77-3.448-1.168-.727-.33-1.34-.713-1.667-1.112-1.17-.77-2.123-1.496-2.892-2.28v-4.002c0-2.28-.17-5.513-.555-9.687zm-28.49 31.88c-1.112-1.11-2.123-2.278-2.85-3.39 1.51-1.167 2.678-2.45 3.405-4.002l-.556.614c-1.11.327-2.28.726-3.404 1.11-.77-2.663-.94-5.34-.613-7.963.4-.383.954-.71 1.738-1.167l5.727-2.28c.726 4.574 2.834 8.02 6.225 10.3.783.727 1.51 1.283 2.293 1.667 1.168.385 2.493.784 4.003 1.168.77.342 1.496.556 2.28.556 1.894.4 3.39.556 4.558.556-2.663 2.678-5.896 4.572-9.672 5.74-3.46.713-6.68.556-9.686-.612-1.567-.727-2.68-1.51-3.448-2.294z" fill="#aa9740"/></g></svg>