<svg xmlns="http://www.w3.org/2000/svg" viewBox="0 0 479.99999 479.99999" version="1" width="512" height="512"><path d="M396.336 262.672c-1.465 119.01-72.432 193.994-158.73 192.94-86.3-1.057-155.408-77.776-153.942-196.785C85.114 139.802 156.6 23.33 242.9 24.387c86.298 1.054 154.886 119.26 153.436 238.285z" fill="#e9b96e" stroke="#c17d11" stroke-width="9.45364356" stroke-linecap="round" stroke-linejoin="bevel"/><path d="M242.76 33.857c-38.864-.477-75.705 25.78-103.417 67.926-27.712 42.146-45.543 99.51-46.25 157.165-1.417 115.307 63.872 186.197 144.633 187.19 80.76.99 147.76-68.276 149.176-183.583.708-57.653-15.72-115.437-42.398-158.252-26.68-42.814-62.88-69.97-101.743-70.446z" opacity=".472" fill="#fff" stroke="#fff" stroke-width="9.4539" stroke-linecap="round" stroke-linejoin="bevel"/><path d="M396.336 262.672c-1.465 119.01-72.432 193.994-158.73 192.938-86.3-1.055-155.408-77.774-153.942-196.783C85.114 139.802 156.6 23.33 242.9 24.387c86.298 1.054 154.886 119.26 153.436 238.285z" opacity=".37" fill="#f9f9c7" stroke-width="9.213"/></svg>