<svg xmlns="http://www.w3.org/2000/svg" viewBox="0 0 85 85" width="85" height="85"><style>.a{fill:#faba00;}.b{fill:#fce94f;opacity:0.6;}</style><g transform="translate(27.341 -208.357)matrix(-0.91288 -0.0069436 -0.034059 0.86024 427.64 -120.54)"><path d="m432.4 396.1c-0.3 2.1-5.3 2.2-5.4 3.4 2 2.1 6.2-1.2 8 0.3 1.8 1.5 2.9 9.1 1.9 10.7-0.4-0.4-2.9 1.5-5.5 2.2-2.8 0.8-7.9-1.7-11.2-0.9-3.2 0.8-7.6 3.4-9.4 5.9-1.8 2.5-2.1 3.7-2.3 9.1-0.2 5.4 3.2 19.4 4.7 26.4 1.5 7.1 2.4 16.8 5.3 20.6 2.9 3.7 5.6 3.9 8.8 5 3.2 1.1 9.3 0.8 12 1.5 2.8 0.7 4.5 3 6.5 2.4 2-0.6 3.7-3.1 4.4-4.4 1.3-1 3.6 2 5.6 2.4 2 0.4 3.2-0.3 7.1-2.3 3.9-2.1 9.8-11.1 12.3-16.1 2.5-5 4.1-10.2 4.7-16.4 0.6-6.2 0-19-2-24.4-2-5.3-5.2-9.4-8.2-10.9-3-1.5-6.4-0.5-8.5 0-2.1 0.5-3.9-0.6-5.3-0.9-1.2-0.3-5.4-1.3-8.8-1.5-2-2-3.6-4.3-5.3-6.8-1.7-2.5-5-4.2-5-4.2-1.8-0.4-3.9-3-4.3-0.9z" style="fill:#fcc200;stroke-linejoin:round;stroke-width:0.1"/><path d="m433.2 414.1c-6.4 4.8-10.1 16.2-10.1 32.3 0 17.9 11.2 30.1 19.7 32.4-14.3-18.7-15.6-26.6-15-36.7 0.7-10.1 2.3-20.3 5.4-28z" class="a"/><path d="m448.9 411.2c7.2 3.6 12.8 14.1 15.7 30 3.2 17.6-5.6 31.6-13.6 35.4 6.1-21.9 6.8-29.2 5.2-39.1-1.6-9.8-3-19.3-7.3-26.3z" class="a"/><path d="m413.8 439.2c-5.6-10.9-0.7-28.6 15.3-22.7-7.6 1.7-11.2 8.2-15.3 22.7z" class="b"/><path d="m434.8 418c-1.7-3.2 9.9-6.6 13.3-3.8 3.4 2.8 0.7 15-1.4 15.3-1.5 0.2-10.3-8.4-11.8-11.4z" class="b"/><path d="m427.6 393.4c-1.4 1.4-2.2 6.7-0.6 8.2 1.6 1.6 5.9-1.5 7.9 0 2.1 1.5 1.5 10 3.5 8.5 2.2-1.6 4.3-1.1 6.8-0.9 2.4 0.2-3.8-11.7-6.2-13.8-2.4-2.1-4.1-1.8-5.9-2.1-1.7-0.3-4.2-1.4-5.6 0z" fill="#4e9a06"/><path d="m427 399.6c0 0 4.7 1.3 7.9-1.5 2.1-1.8 3.8 4 4.7 7.6 0.4 1.5 0.6 2.6 0.6 2.6" style="fill:none;stroke-width:3;stroke:#2d8f20"/></g></svg>