<svg xmlns="http://www.w3.org/2000/svg" viewBox="0 0 512 512" id="svg300" width="512" height="512" clip-rule="evenodd" fill-rule="evenodd" image-rendering="optimizeQuality" shape-rendering="geometricPrecision" text-rendering="geometricPrecision"><defs id="defs4"><style id="style2">.fil18 {fill:green} .fil17 {fill:#008200} .fil16 {fill:#008500} .fil15 {fill:#008A00} .fil14 {fill:#008C00} .fil13 {fill:#009100} .fil12 {fill:#009400} .fil11 {fill:#009600} .fil10 {fill:#009C00} .fil9 {fill:#009E00} .fil8 {fill:#03A300} .fil7 {fill:#0FA600} .fil6 {fill:#1FAB00} .fil19 {fill:#61BD00} .fil5 {fill:#704A29} .fil4 {fill:#A6ED63} .fil20 {fill:#B3F073} .fil3 {fill:#BFBFBF} .fil21 {fill:#BFF282} .fil2 {fill:#C4C4C4} .fil1 {fill:#CCCCCC} .fil22 {fill:#CCF591} .fil0 {fill:#D4D4D4} .fil23 {fill:#D9F7A1} .fil24 {fill:#E6FAB0} .fil25 {fill:#F2FCBF} .fil26 {fill:#FFFFCF}</style></defs><g id="Layer_x0020_1"><g id="_320004600"><g id="g4924"><path id="polygon6" class="fil0" fill="#d4d4d4" d="M269.392 330.99l26-11.26 27.78-13.788 29.482-16.035 28.243-17.293 26.215-17.386 22.573-16.785 19.716-15.647 14.937-14.35 10.684-12.684 5.313-10.294-.258-7.355-6.463-4.285-11.467-.37-16.31 2.94-19.81 5.91-23.717 8.717-25.617 11.512-28.163 14.01-28.996 15.99-28.73 17.338-25.83 17.163-22.955 16.532-19.023 15.96-15.436 14.44L197.24 326.4l-5.385 10.1.657 7.636 6.063 4.003 11.54.564 15.943-2.688 20.31-6z"/><path id="polygon8" class="fil1" fill="#ccc" d="M264.478 331.575l23.705-10.448 25.35-12.385 26.567-14.588 25.916-15.713 23.61-15.88 20.9-15.306 17.658-14.42 13.66-13.14 9.397-11.427 4.88-9.333-.11-6.69-5.944-3.795-10.42-.264-14.577 2.453-18.107 5.437-21.438 7.876L361.82 214.4l-25.455 12.683L309.9 241.85l-26.018 15.534-23.504 15.584-20.9 15.305-17.362 14.526-13.94 13.063-9.414 11.398-4.982 9.156.7 6.822 5.354 3.663 10.522.442 14.595-2.424 18.387-5.363z"/><path id="polygon10" class="fil2" fill="#c4c4c4" d="M259.386 332.264l21.53-9.43 22.876-11.47 24.138-13.185 23.103-14.09 21.373-14.077 18.574-13.725 15.82-12.886 12.195-11.78 8.773-10.317 4.36-8.52-.17-5.904-5.233-3.454-9.456-.306-13.426 2.26-16.196 4.85-19.172 7.08-21.173 9.224-22.895 11.44-23.633 13.17-23.608 14.105-21.355 14.106-18.93 13.93-15.54 12.96-12.474 11.705-8.493 10.394-4.434 8.325.554 6.156 4.85 3.203 9.53.5 13.144-2.337 16.476-4.774z"/><path id="polygon12" class="fil3" fill="#bfbfbf" d="M254.547 332.57l19.01-8.25 20.317-10.23 21.502-11.664 20.496-12.584 19.047-12.497 16.62-12.32 14.147-11.407 10.71-10.45 7.693-9.18 3.916-7.513-.023-5.238-4.85-3.203-8.465-.365-11.796 2.07-14.303 4.23-17.158 6.193-18.894 8.382-20.346 10.246-21.027 11.667-20.972 12.582-19.017 12.48-16.735 12.19-13.764 11.658-11.2 10.493-7.484 9.062-3.738 7.41.526 5.7 4.348 2.742 8.286.468 11.59-1.953 14.79-4.274z"/><path id="polygon14" class="fil4" fill="#a6ed63" d="M452.737 86.166l.8-1.213 1.126-.65 1.953.374 3.016 1.734 4.347 2.743 4.437 2.967 5.055 3.557 4.11 3.63 3.903 3.75 2.734 3.437 1.726 2.99-.3 2.9-.627 4.113-1.678 4.483-1.367 4.54-2.18 4.023-1.78 3.003-1.75 1.76-.737-.048-3.346 1.182-3.54.78-3.685.113-2.72-.404-1.968-1.63-.25-2.62 2.02-3.89 5.214-5.262 4.964-5.63 3.1-5.028.833-4.233-.72-3.85-3-3.006-4.228-2.534-6.125-1.992-6.984-1.22-1.537-1.363-.648-1.6-.412-2.013.046-2.04z"/><path id="polygon16" class="fil5" fill="#704a29" d="M453.435 84.776l1.184-.96 2.22-.532 4.008.924 3.195 1.157 3.788 1.84 3.726 2.076 4.318 2.76 3.785 3.067 3.5 3.467 2.573 4.044 2.095 4.517-.004 3.003-.582 4.6-1.427 5.327-1.605 5.43-2.256 4.777-1.692 3.978-1.63 1.967-.962.042-3.138 1.06-3.184.575-3.225-.388-2.278-.936-1.685-2.028.21-3.123 2.198-3.994 5.008-5.142 4.638-5.442 2.79-5.086.89-4.543-.823-4.027-2.836-3.614-4.02-2.654-5.754-2.168-6.896-1.547-2.512-1.274-1.76-1.75-1.375-1.97-.47-1.704z"/><path id="polygon18" class="fil6" fill="#1fab00" d="M462.542 212.247l-8.905 8.38-12.043 9.44-14.502 10.86-19.965 13.028-25.592 16.276-29.633 18.374-31.5 19.45-32.434 19.2-30.98 18.637-28.494 16.45-23.428 13.528-19.34 10.69-15.846 8.874-13.786 7.722-12.32 6.363-11.905 5.372-12.053 4.707-13.412 3.992-14.92 3.637-25.325 2.853-18.672-2.45-13.104-6.69-7.786-9.998-4.144-12.377-.324-13.556 2.09-13.686 4.128-13.165 2.45-6.154 3.263-5.636 3.383-5.427 3.838-4.98 3.203-4.85 3.35-4.186 2.684-4.037 2.372-3.62 11.898-12.36 28.294-24.115 40.75-32.018 49.74-35.944L237.6 178.11 293.24 145l52.642-26.127 46.59-15.407 10.775-1.72 10.093.176 9.172 1.18 8.596 2.304 7.248 2.57 6.76 3.086 5.59 2.775 5.013 2.595 8.486 5.604 7.568 6.61 5.794 7.436 4.444 8.176 2.563 8.748 1.276 9.53-.96 10.033-2.068 10.71-1.975 4.38-2.314 5.087-3.928 5.782-4.744 6.49z"/><path id="polygon20" class="fil6" fill="#1fab00" d="M462.542 212.247l-8.905 8.38-12.043 9.44-14.502 10.86-13.7 9.174-8.293 5.54-4.636 3.19-1.97 1.374-1.127.65-1.125.65-2.504 1.682-4.947 3.607-8.396 5.36-10.647 6.66-12.53 7.71-13.67 8.405-14.884 8.83-14.97 9.158-15.048 9.437-14.204 9.188-19.904 12.243-14.836 8.092-10.336 4.19-5.477.912-1.86-2.402 2.195-5.295 5.383-7.57 8.92-9.653 14.417-14.84 18.416-17.897 21.114-21.432 23.057-24.566 23.164-27.868 22.963-31.226 20.82-34.53 18.483-37.683 4.792-9.006 5.673-5.29 6.072-2.48 6.512-.008 6.212 1.665 6.08 2.73 5.41 3.353 4.954 2.905 8.206 6.004 7.2 6.86 5.496 7.332 4.324 7.968 2.477 8.6 1.052 9.62-.634 10.12-1.966 10.89-1.872 4.557-2.417 4.91-3.72 5.663-4.952 6.61z"/><path id="polygon22" class="fil7" fill="#0fa600" d="M462.72 212.144l-9.083 8.482-11.866 9.34-14.678 10.962-13.7 9.173-8.293 5.54-4.636 3.19-1.97 1.374-1.23.472-.844.725-2.43 1.403-4.636 3.665-8.114 4.96-9.747 6.102-11.313 6.808-12.353 7.606-13.683 7.9-13.847 8.507-14.1 8.892-13.818 8.965-19.935 12.26-14.704 8.252-10.038 4.294-5.476.91-1.878-2.43 2.285-5.07 5.384-7.57 8.92-9.653 14.164-14.455 18.076-17.19 20.256-19.908 22.078-23.25 22.335-26.64 21.967-29.94 20.582-33.642 18.323-37.55 4.775-9.037 5.393-5.365 5.775-2.583 6.1-.244 5.68 1.222 5.678 2.448 5.236 2.98 4.627 2.817 8.03 6.107 6.918 6.786 5.17 7.244 4.06 7.923 2.18 8.495 1.01 9.133-.767 9.96-1.758 10.77-1.694 4.454-2.418 4.91-3.72 5.663-4.92 6.593z"/><path id="polygon24" class="fil8" fill="#03a300" d="M462.72 212.144l-9.083 8.482-11.866 9.34-14.678 10.962-13.7 9.173-8.293 5.54-4.636 3.19-1.793 1.27-1.02.354-.948.547-2.43 1.403-4.738 3.487-7.674 4.904-8.78 5.583-10.206 6.13-10.825 6.762-12.38 7.147-12.515 7.738-13.3 8.153-13.625 8.893-19.934 12.26-14.424 8.328-10.216 4.398-5.27.79-1.804-2.235 2.315-5.087 5.56-7.673 8.92-9.653 14.107-14.146 17.332-16.285 19.634-18.8 21.202-21.758 21.28-25.042 21.26-28.503 19.884-32.727 18.04-37.152 4.57-9.39 5.17-5.75 5.554-2.97 5.774-.806 5.28.94 5.474 2.092 4.628 2.817 4.628 2.817 7.82 6.226 6.742 6.89 4.89 7.168 3.763 7.818 2.046 8.335.935 8.94-.707 9.65-1.86 10.59-1.695 4.454-2.418 4.91-3.72 5.663-4.92 6.593z"/><path id="polygon26" class="fil9" fill="#009e00" d="M462.822 212.322l-9.185 8.304-11.866 9.34-14.678 10.962-13.7 9.173-8.293 5.54-4.636 3.19-1.793 1.27-1.02.354-.948.547-2.43 1.403-4.56 3.384-7.29 4.682-7.935 4.858-8.902 5.376-9.464 5.7-10.57 6.38-11.406 7.06-12.514 7.738-13.078 8.538-19.934 12.26-14.602 8.43-10.04 4.295-5.475.91-1.58-2.325 2.21-4.79 5.59-7.69 8.715-9.534 14-13.85 16.815-15.472 18.862-17.604 20.475-20.35 20.303-23.728 20.664-27.41 19.337-31.898 17.863-36.574 4.57-9.39 5.097-5.946 5.037-3.382 5.357-1.118 4.796.51 5.146 2.004 4.423 2.462 4.45 2.92 7.54 6.15 6.413 6.802 4.592 7.064 3.66 7.64 1.65 8.053.802 8.776-.662 9.662-1.803 10.283-1.694 4.454-2.315 5.088-3.72 5.663-4.922 6.593z"/><path id="polygon28" class="fil10" fill="#009c00" d="M462.822 212.322l-9.185 8.304-11.866 9.34-14.678 10.962-13.7 9.173-8.293 5.54-4.636 3.19-1.793 1.27-1.02.354-.77.444-2.25 1.3-4.534 3.367-7.035 4.3-7.005 4.28-7.7 4.447-8.115 4.96-9.39 5.42-10.1 6.308-11.493 7.385-12.677 8.346-19.904 12.243-14.454 8.345-10.186 4.38-5.197.986-1.478-2.148 2.107-4.968 5.693-7.513 8.713-9.532 13.748-13.466L312.01 284.9l18.045-16.42 19.616-18.83 19.606-22.336 19.656-26.08 18.802-31.113 17.626-36.16 4.26-9.45 4.875-6.33 4.815-3.766 4.842-1.532 4.556.095 4.66 1.574 4.304 2.255 4.17 2.845 7.464 6.432 6.105 6.743 4.312 6.99 3.26 7.357 1.65 8.052.7 8.6-.884 9.277-1.626 10.18-1.694 4.454-2.315 5.088-3.72 5.663-4.922 6.593z"/><path id="polygon30" class="fil11" fill="#009600" d="M462.822 212.322l-9.185 8.304-11.866 9.34-14.678 10.962-13.7 9.173-8.293 5.54-4.578 2.88-1.747 1.284-1.067.34-.74.427-2.132 1.508-4.682 3.177-6.426 3.987-6.087 3.75-6.367 3.678-6.65 4.076-8.057 4.65-8.99 5.705-10.766 6.454-12.47 8.226-19.83 12.437-14.424 8.327-9.936 4.473-5.047 1.177-1.507-2.132 2.315-5.088 5.486-7.393 8.92-9.65 13.484-13.037 15.85-13.654 17.422-15.312 18.43-17.393 18.747-20.815 18.867-24.912 18.374-30.078 17.403-36.07 4.29-9.467 4.742-6.49 4.312-4.228 4.442-1.814 4.053-.365 4.26 1.292 3.994 2.197 4.17 2.844 7.08 6.654 5.824 6.668 4.21 6.81 3.053 7.48 1.426 7.667.418 8.524-.825 8.968-1.52 9.883-1.695 4.454-2.315 5.088-3.72 5.663-4.922 6.593z"/><path id="polygon32" class="fil12" fill="#009400" d="M462.822 212.322l-9.185 8.304-11.866 9.34-14.678 10.962-13.7 9.173-8.293 5.54-4.578 2.88-1.747 1.284-.89.237-.74.43-2.073 1.196-4.355 3.264-6.07 3.78-5.14 3.206-5.243 3.027-5.45 3.146-6.545 3.778-7.777 4.726-9.907 6.234-12.13 7.99-19.905 12.243-14.333 8.553-9.906 4.456-5.076 1.192-1.477-2.148 2.595-5.013 5.486-7.392 8.92-9.652 13.275-12.917 15.436-12.664 16.442-13.996 17.555-15.9 17.84-19.305L397.57 204.5l17.662-29.19 17.165-35.66 4.14-9.655 4.36-6.743 4.015-4.332 4.117-2.377 3.64-.602 3.758.833 3.713 2.12 3.844 2.758 7.08 6.655 5.647 6.77 3.882 6.724 2.98 7.282 1.324 7.49.197 8.14-.928 8.79-1.343 9.78-1.694 4.452-2.315 5.088-3.72 5.663-4.922 6.593z"/><path id="polygon34" class="fil13" fill="#009100" d="M462.822 212.322l-9.185 8.304-11.866 9.34-14.678 10.962-13.7 9.173-8.293 5.54-4.578 2.88-1.747 1.284-.89.237-.562.326-2.044 1.18-4.178 3.162-5.805 3.352-4.382 2.806-3.94 2.274-3.94 2.275-5.183 2.716-6.633 4.108-9.156 5.76-11.758 7.814-19.8 12.42-14.145 8.403-9.918 4.502-5.064 1.147-1.507-2.132 2.613-4.983 5.796-7.336 8.92-9.652 12.992-12.517 14.918-11.85 15.715-12.59 16.904-14.497 16.862-17.99 17.266-22.487 17.216-28.183 17.08-35.332 4.065-9.85 3.96-7.026 3.66-4.88 3.717-2.658 3.258-.855 3.506.464 3.314 1.84 3.785 3.067 6.798 6.58 5.35 6.665 3.88 6.723 2.57 7.047 1.203 7.283.096 7.962-1.048 8.582-1.446 9.6-1.575 4.66-2.314 5.09-3.738 5.632-5.024 6.416z"/><path id="polygon36" class="fil14" fill="#008c00" d="M463.03 212.202l-9.393 8.424-11.866 9.34-14.678 10.962-13.7 9.173-8.293 5.54-4.68 2.702-1.587 1.152-.843.25-.562.325-2.074 1.196-4.28 2.984-5.317 3.307-3.274 2.127-2.738 1.344-2.607 1.505-3.76 2.172-5.348 3.324-8.012 5.138-11.39 7.563-19.785 12.45-14.276 8.243-9.804 4.633-5.076 1.194-1.375-1.97 2.612-4.984 5.796-7.335 8.92-9.65 12.74-12.135 14.37-11.02 14.915-11.377 15.896-13.166 15.988-16.496 16.586-21.068 16.698-27.372 16.676-35.14 4.066-9.85 3.858-7.203 3.26-5.16 3.512-3.015 2.636-1.522 3.226.388 3.09 1.454 3.475 3.01 6.416 6.8 5.35 6.667 3.393 6.767 2.477 6.823.894 7.225-.024 7.754-.926 8.315-1.388 9.29-1.575 4.66-2.314 5.09-3.738 5.632-4.846 6.313z"/><path id="polygon38" class="fil15" fill="#008a00" d="M463.03 212.202l-9.393 8.424-11.866 9.34-14.678 10.962-13.7 9.173-8.293 5.54-4.68 2.702-1.587 1.152-.665.147-.563.326-1.866 1.077-4.103 2.882-5.064 2.924-2.504 1.682-1.437.59-1.125.65-2.548 1.196-3.998 2.584-7.39 4.504-10.886 7.55-19.83 12.436-14.145 8.402-9.815 4.68-4.767 1.252-1.375-1.97 2.612-4.984 5.767-7.318 8.92-9.652 12.504-11.72 13.657-10.137 14.217-9.985 15.02-11.673 15.1-14.957 15.962-19.958 16.163-26.59 16.618-34.828 3.964-10.03 3.428-7.467 3.055-5.516 2.814-3.4 2.402-1.86 2.723-.073 2.91 1.557 3.357 2.802 6.414 6.8 4.846 6.682 3.13 6.722 2.36 6.616.612 7.15-.128 7.576-1.075 8.124-1.283 8.995-1.575 4.66-2.314 5.09-3.738 5.632-4.846 6.313z"/><path id="polygon40" class="fil16" fill="#008500" d="M463.03 212.202l-9.393 8.424-11.866 9.34-14.678 10.962-13.7 9.173-8.086 5.42-4.71 2.72-1.585 1.15-.767-.03-.563.326-1.688.974-4.09 2.835-4.68 2.702-1.39 1.08-.505.015.283-.4-1.05.37-2.992 1.726-6.548 4.254-10.603 7.15-19.728 12.613-14.128 8.433-9.626 4.53-4.767 1.252-1.18-2.043 2.816-4.628 5.767-7.32 8.92-9.65 12.4-11.425 12.93-9.204 13.447-8.79 14.31-10.235 14.103-13.67 15.192-18.763 15.437-25.657 16.455-34.222 3.947-10.058 3.206-7.854 2.673-5.767 2.506-3.935 1.983-2.173 2.31-.307 2.41 1.097 3.356 2.8 6.03 7.025 4.665 6.783 3.012 6.515 2.065 6.588.42 6.747-.07 7.267-1.177 7.946-1.283 8.995-1.575 4.66-2.314 5.09-3.738 5.632-4.846 6.313z"/><path id="polygon42" class="fil17" fill="#008200" d="M463.03 212.202l-9.393 8.424-11.866 9.34-14.678 10.962-13.7 9.173-8.086 5.42-4.71 2.72-1.585 1.15-.767-.03-.355.206-1.896 1.094-3.912 2.733-4.117 2.377-.74.427 1.023-.827 1.586-1.153.34-.71-1.793 1.272-5.51 3.456-10.338 7.194-19.682 12.627-14.144 8.403-9.536 4.755-4.767 1.25-1.18-2.042 2.817-4.628 5.796-7.335 9.098-9.755 12.045-11.218 12.692-8.316 12.616-7.56 13.256-8.64 13.422-12.252 14.287-17.252 14.92-24.844 16.362-33.97 3.684-10.105 3.102-8.032 2.33-6.36 2.077-4.2 1.498-2.603 1.91-.59 2.26.906 3.196 2.934 5.852 7.126 4.386 6.708 2.684 6.428 1.768 6.482.11 6.69-.274 6.91-1.09 7.62-1.208 8.715-1.575 4.66-2.314 5.09-3.738 5.632-4.846 6.313z"/><path id="polygon44" class="fil18" fill="green" d="M463.03 212.202l-9.393 8.424-11.866 9.34-14.678 10.962-13.492 9.053-8.294 5.54-4.502 2.6-1.586 1.152-.768-.03-.385.22-1.688.976-3.912 2.732-3.76 2.172.206-.12 2.225-1.757 2.872-1.935 1.66-1.432-.355.205-4.785 3-9.76 6.898-19.7 12.598-14.333 8.552-9.506 4.74-4.664 1.428-1.078-1.866 2.876-4.938 5.886-7.11 9.128-9.772 12.06-10.714 11.772-7.31 11.862-6.336 12.438-7.458 12.535-10.712 13.693-16.16 14.176-23.94 15.996-33.72 3.666-10.134 3-8.208 1.724-6.524 1.752-4.763 1.276-2.988 1.586-1.152 1.997.86 2.897 2.83 5.674 7.228 4.06 6.622 2.42 6.382 1.65 6.275.007 6.51-.394 6.705-1.073 7.65-1.328 8.506-1.575 4.66-2.314 5.09-3.738 5.632-4.846 6.313z"/><path id="polygon46" class="fil4" fill="#a6ed63" d="M85.062 329.918l3.836-2.452 2.947-2.215 2.71-1.8 4.134-3.65 4.178-3.638 3.747-3.427 3.955-3.547 3.794-3.415 3.955-3.547 4.15-3.62 4.53-3.367 4.06-3.37 4.708-2.72 4.8-2.494 5.624-2.774 6.133-3.264 7.418-4.046 8.797-5.08 10.767-6.452 5.865-4.137 6.206-4.846 6.28-5.127 6.874-5.47 7.2-5.656 8.678-5.76 9.464-5.702 11.195-5.713 9.668-5.347 10.973-6.098 11.228-6.956 11.21-6.986 10.265-6.914 9.42-6.19 7.553-5.11 5.685-3.56 7.63-5.39 6.813-4.685 5.258-4.3 5.023-3.886 4.49-4.33 5.156-4.478 5.494-5.187 7.127-5.852 8.96-5.686 12.154-4.53 13.887-3.238 15.098-1.965 14.607-.693 13.598.64 11.378 1.922 8.537 3.088 2.423 2.076-.62.635-3.524-.493-4.926-1.145-6.347-1.074-6.17-.702-5.417.126-3.2 1.847-3.82 2.483-4.278 1.207-5.58.733-5.52.423-6.362.198-6.16 1.03-6.024 1.74-5.317 3.306-9.508 6.516-7.806 5.494-6.53 4.284-5.302 3.812-5.14 3.204-5.02 3.412-5.63 3.724-5.94 4.417-5.02 3.412-4.458 3.087-4.577 2.88-4.4 2.776-4.886 2.822-5.123 3.234-6.012 3.47-6.34 4.136-2.46 1.42-2.59 2.008-2.947 2.215-2.77 2.587-3.23 2.615-3.052 2.512-2.667 2.29-2 2.143-6.977 5.29-6.607 4.565-6.367 3.677-6.19 3.574-6.59 3.29-6.574 3.322-7.08 3.81-7.27 4.713-8.22 5.26-7.984 5.596-8.014 5.614-7.996 5.644-8.236 5.23-8.322 5.08-8.56 4.666-8.56 4.19-8.128 3.706-6.443 3.957-5.48 3.914-4.518 3.872-4.638 3.664-4.235 3.472-5.17 3.22-5.82 2.848-7.285 3.456-6.81 4.21-6.58 5.02-5.778 5.588-5.275 6.047-4.256 6.446-3.38 6.73-1.696 6.982-2.944 9.677-2.968 6.965-3.602 4.568-3.052 2.512-3.316 1.164-2.5.456-1.94.13-.86.22-10.445 11.798-7.32 7.228-5.287 2.54-2.808-1.855-1.31-5.76.5-9.53 1.732-13.005 3.084-16.273.55-2.057 2.134-1.982 2.666-2.29 3.94-2.273 4.382-2.806 5.184-2.716 5.628-3.25 6.573-3.32 5.42-3.13 5.273-3.043 4.755-2.982 4.887-2.82z"/><path id="polygon48" class="fil4" fill="#a6ed63" d="M61.918 306.316l5.465-4.42 4.918-3.588 4.828-2.037 2.916-1.446 2.89-1.905 2.488-2.188 3.154-2.334 2.874-2.41 3.734-2.63 4.117-2.376 5.183-2.242 4.71-2.72 4.71-3.47 4.8-4.27 5.318-5.085 5.854-5.867 7.184-6.162 8.636-6.724 10.93-7.06 5.94-3.943 6.47-3.975 6.71-4.386 7.39-4.505 7.554-5.11 8.782-5.585 9.14-6.264 10.544-6.838 9.197-6.574 10.16-6.616 10.576-6.856 11.047-6.378 10.102-6.306 9.67-5.346 8.233-4.754 7.285-3.455 34.31-16.294 27.953-12.665 20.61-8.898 13.016-4.75 3.7-.91-5.304 3.81-15.8 8.135-26.268 12.915-8.483 3.91-9.196 4.046-9.905 4.456-9.995 4.782-10.394 4.5-9.506 4.74-9.15 4.532-7.495 4.326-2.43 1.402-2.887 1.905-3.362 2.454-3.407 2.718-3.718 2.66-3.35 2.407-2.975 2.232-2.31 2.085-7.17 4.89-6.22 4.34-6.19 3.575-5.526 3.426-6.114 3.294-6.19 3.574-6.723 3.882-7.094 4.61-8.34 5.05-7.893 5.822-7.91 5.79-7.466 6.088-8.012 5.614-8.014 5.614-8.22 5.26-8.335 4.575-8 4.34-5.925 4.923-4.83 5.04-3.765 5.175-3.868 4.997-3.705 4.39-4.593 4.152-5.627 3.25-5.952 2.685-5.778 3.81-5.953 4.464-5.513 5.158-5.835 5.897-5.173 6.225-5.202 6.518-4.063 6.848-3.142 4.065-2.982 3.934-2.904 3.177-2.43 3.18-2.284 2.543-1.704 2.248-1.083 1.613-.09 1.553 1.765 19.476 1.06 16.132-.25 12.15-1.016 7.34-2.488 1.712-3.206-4.665-4.41-11.946-4.86-19.704.15-2.338 1.487-4.334 2.093-5.473 3.07-6.788 2.97-6.966 3.19-7.055 3.174-6.61 2.998-5.206 3.603-6.346 4.36-6.268 4.684-6.18 5.38-5.87z"/><path id="polygon50" class="fil4" fill="#a6ed63" d="M76.905 295.886l9.868-8.422 8.975-6.96 7.776-4.725 5.065-2.925 4.738-3.487 5.023-3.887 5.436-4.4 5.926-4.923 7.51-5.6 8.53-6.425 10.872-6.75 5.94-3.943 6.47-3.975 6.71-4.386 7.39-4.505 7.554-5.11 8.782-5.585 9.14-6.264 10.544-6.838 9.197-6.574 10.16-6.616 10.576-6.856 11.047-6.378 10.102-6.306 9.67-5.346 8.233-4.754 7.285-3.455 34.31-16.294 27.953-12.665 20.61-8.898 13.016-4.75 3.7-.91-5.304 3.81-15.8 8.135-26.268 12.915-8.483 3.91-9.196 4.046-9.905 4.456-9.995 4.782-10.394 4.5-9.506 4.74-9.15 4.532-7.495 4.326-2.43 1.402-2.887 1.905-3.362 2.454-3.407 2.718-3.718 2.66-3.35 2.407-2.975 2.232-2.31 2.085-7.17 4.89-6.22 4.34-6.19 3.575-5.526 3.426-6.114 3.294-6.19 3.574-6.723 3.882-7.094 4.61-8.34 5.05-7.893 5.822-7.91 5.79-7.466 6.088-8.012 5.614-8.014 5.614-8.22 5.26-8.335 4.575-8 4.34-5.925 4.923-4.83 5.04-3.765 5.175-3.868 4.997-3.705 4.39-4.593 4.152-5.627 3.25-5.952 2.685-5.778 3.81-5.953 4.464-5.513 5.158-5.835 5.897-5.173 6.225-5.202 6.518-4.063 6.848-3.142 4.065-2.42 3.61-2.428 3.178-1.854 2.808-1.704 2.248-.862 1.997-.595 1.57.265 1.347 8.716 25.494 3.705 19.345-.432 12.728-3.293 6.404-5.742-.437-6.827-7.037-7.235-13.83-6.174-20.683-.057-2.218 1.308-4.23 1.87-5.86 2.733-6.553 2.85-7.174 3.472-6.98 3.5-6.524 3.456-5.233 4.15-5.398 6.43-7.465 8.196-8.72 9.51-9.52z"/><path id="polygon52" class="fil4" fill="#a6ed63" d="M102.622 359.033l4.426-.54 3.42-.988 2.915-1.447 4.178-3.162 4.725-2.214 4.367-1.534 4.766-1.25 4.487-1.328 4.664-1.43 4.528-2.14 4.887-2.822 4.045-3.322 4.71-2.72 4.68-2.7 5.64-2.745 6.117-3.293 7.418-4.046 8.796-5.077 10.87-6.276 5.97-4.434 6.607-4.564 6.946-5.275 7.63-5.392 8.013-5.614 9.166-5.807 10.1-5.83 11.505-5.656 9.48-5.196 10.29-6.455 10.014-7.28 10.353-7.242 9.067-7.21 8.354-6.323 6.77-5.172 5.42-3.604 6.962-4.77 4.562-3.384 2.37-2.394 1.363-1.538.876-1.493 1.75-1.76 3.05-2.512 5.525-3.426 8.575-5.464 12.456-7.428 14.588-8.935 16.04-9.497 15.61-9.763 14.763-9.038 12.31-8.093 9.064-5.985 2.428-1.402 1.923 1.14.84 2.755.26 4.35-.686 4.9-.763 5.178-1.145 4.926-.923 4.01-2.756 2.615-4.34 1.992-5.994 1.723-6.5 1.738-7.77 1.724-7.344 1.988-7.018 2.552-5.685 3.558-9.777 6.87-8.664 6.265-7.807 5.495-6.768 5.17-6.606 4.565-6.324 4.64-6.428 4.46-6.31 4.67-5.036 3.382-4.457 3.086-4.577 2.88-4.383 2.806-4.887 2.82-5.14 3.206-6.012 3.47-6.443 3.958-2.458 1.42-2.46 2.17-2.873 2.41-2.755 2.616-3.23 2.615-2.948 2.69-2.667 2.29-2 2.142-6.977 5.29-6.62 4.06-6.62 3.308-6.31 2.892-6.72 2.655-6.794 2.936-7.285 3.457-7.287 4.207-8.323 5.556-7.78 5.952-7.998 6.12-7.643 6.188-8.118 5.91-7.866 5.806-8.44 4.873-8.664 4.488-8.35 3.32-6.752 3.424-6.027 2.966-4.96 3.102-5.066 2.924-4.457 3.087-5.05 3.43-5.393 3.587-7.85 6.784-6.79 9.45-6.716 10.867-6.113 11.506-6.315 10.676-6.272 9.11-6.594 6.294-6.72 2.656-11.765-.474-10.166-1.12-8.952-2.1-7.248-2.567-6.093-3.236-4.774-3.483-3.518-3.97-1.977-3.835-2.02-6.1-.08-4.93 1.306-3.755 2.754-2.616 2.992-1.728 3.76-.394 3.714.344 3.578 1.41 1.628-.19 2.43-1.402 2.845-2.868 3.852-3.725 4.014-4.33 4.846-4.536 5.287-4.316 6.265-3.854 5.643-2.745 5.714-1.8 5.74-1.34 5.58-.733z"/><path id="polygon54" class="fil4" fill="#a6ed63" d="M50.128 423.105l1.837-2.837.626-4.114.185-5.358-1.838-7.903-2.95-7.3-4.078-6.65-4.42-5.466-4.995-4.343-4.63-2.342-4.29-.524-3.302 1.67-2.137 3.207-.642 5.386.496 6.468 1.708 7.268 2.446 7.315 3.44 6.78 4.195 5.556 5.397 4.15 2.38 1.114 2.87.594 2.694-.054 3.082-.752z"/><path id="polygon56" class="fil19" fill="#61bd00" d="M427.155 214.156l-3.54 2.557-2.963 2.185-2.236 1.804-4.43 3.545-4.133 3.65-4.074 3.34-3.675 3.622-4.058 3.368-3.764 3.398-4.162 3.666-4.132 3.65-4.652 3.16-4.59 2.926-4.902 2.317-5.345 2.85-6.413 3.187-7.21 3.927-9.005 5.197-10.19 6.633-6.34 4.135-6.028 4.744-6.28 5.126-6.564 5.527-7.687 5.7-8.398 5.838-9.447 5.73-10.885 5.772-10.277 5.183-10.382 6.23-10.958 6.604-10.545 6.838-10.1 6.306-8.885 5.405-7.613 4.118-5.492 2.184-11.12 3.655-6.515 4.79-4.3 5.957-3.856 6.728-6.152 7.54-10.16 8.394-16.41 9.197-24.518 9.93-10.2 3.125-8.956 2.683-8.513 2.15-7.267 1.71-6.927.997-5.67.51-5.118.23-4.01-.45-6.674-1.16-5.104-1.043-3.756-1.307-2.81-1.38-2.425-1.6-1.656-2.046-1.982-2.133-2.112-2.77-1.225-2.53 2.68-.56 5 .865 7.203 2.08 7.71 2.066 7.988 2.14 6.627 1.15 5.136-.2 5.876-2.406 5.747-3.042 5.76-3.84 6.176-4.078 6.22-4.342 6.828-4.18 7.24-3.942 8.04-3.38 8.454-3.142 7.138-2.343 6.07-2.004 5.417-1.905 4.724-2.214 5.066-2.923 4.873-4.077 6.074-5.482 3.94-4.052 4.355-3.265 4.296-2.953 4.96-2.627 4.887-2.82 5.672-2.763 5.982-3.454 7.034-3.824 1.852-1.583 2.4-1.86 2.875-2.41 3.05-2.512 2.933-2.72 3.052-2.51 2.666-2.29 2.61-1.98 6.545-5.558 6.428-4.46 6.266-3.855 6.59-3.292 6.293-3.396 6.975-3.514 7.033-3.824 7.7-4.446 7.807-5.494 7.938-5.333 7.807-5.495 8.116-5.436 7.997-5.644 8.44-4.873 8.562-4.666 9.046-4.237 7.717-3.94 6.426-3.988 5.407-4.11 4.815-3.766 4.207-3.93 4.563-3.385 5.242-3.027 6.233-2.61 10.216-4.4 11.965-6.156 12.352-7.13 12.44-7.934 10.946-8.333 9.23-7.817 6.15-7.065 2.596-5.488.175-22.61-.015-11.722-.07-2.723.262 3.876.195 8.615.904 11.484 1.48 12.14 2.694 10.685-.476 1.775-1.438 1.817-2.49 2.188-3.153 2.334-4.605 2.42-4.887 2.823-5.626 3.25-5.983 3.453-5.746 3.042L441 205.65l-5.27 3.042-4.25 2.968z"/><path id="polygon58" class="fil20" fill="#b3f073" d="M48.16 421.477l1.602-2.425.85-3.73.18-4.882-1.66-7.255-2.657-6.72-3.75-6.088-4.095-4.903-4.67-3.78-4.32-2.284-3.994-.42-2.992 1.728-2.06 2.928-.688 4.898.45 5.98 1.562 6.602 2.346 6.662 3.276 6.085 3.887 5.023 4.878 3.66 2.175.758 2.663.714 2.443-.147 2.546-.72z"/><path id="polygon60" class="fil21" fill="#bff282" d="M46.223 419.83l1.543-2.114.67-3.15.018-4.277-1.336-6.693-2.33-6.158-3.427-5.526-3.77-4.34-4.167-3.32-4.097-1.898-3.684-.362-2.814 1.625-1.883 2.824-.702 4.394.423 5.52 1.444 5.92 1.9 5.893 3.147 5.45 3.545 4.43 4.628 2.818 2.073.58 2.543.506 2.235-.026 2.4-.635z"/><path id="polygon62" class="fil22" fill="#ccf591" d="M44.095 418.334l1.244-1.744.713-2.663.286-3.404-1.237-6.04-1.977-5.61-3.1-4.963-3.25-3.85-3.756-3.084-3.8-1.795-3.61-.165L23 386.52l-1.78 2.527-.447 4.01.408 5.018 1.37 5.45 1.783 5.21 2.82 4.886 3.296 3.587 4.126 2.358 1.775.475 2.16.254 2.116-.235 1.982-.395z"/><path id="polygon64" class="fil23" fill="#d9f7a1" d="M42.26 416.866l1.084-1.612.55-2.056.314-2.945-.91-5.477-1.86-4.93-2.48-4.294-2.836-3.614-3.46-2.505-3.388-1.558-3.284-.08-2.428 1.403-1.602 2.425-.67 3.626.363 4.528 1.25 4.767 1.655 4.574 2.555 4.013 2.792 3.127 3.8 1.794 1.673.298 2.058.076 1.628-.19 2.013-.412z"/><path id="polygon66" class="fil24" fill="#e6fab0" d="M40.133 415.37l.903-1.035.476-1.775.358-2.458-.586-4.914-1.414-4.16-2.275-3.938-2.512-3.052-3.237-2.12-2.988-1.276-2.9.174-2.222 1.283-1.72 2.217-.39 3.225.234 3.894 1.207 4.28 1.49 3.878 2.275 3.464 2.646 2.46 3.475 1.233 1.553.092 1.748.017 1.33-.295 1.556-.385z"/><path id="polygon68" class="fil25" fill="#f2fcbf" d="M38.195 413.724l.846-.725.314-1.17.298-1.67-.47-4.233-1.076-3.643-1.95-3.377-1.906-2.413-2.808-1.854-2.766-.892-2.515-.048-2.073 1.197-1.645 1.938-.284 2.928.07 3.198 1.088 3.598 1.182 3.346 2.215 2.947 2.337 1.93 3.048.49 1.33-.294 1.63-.19 1.17-.162 1.347-.265z"/><path id="polygon70" class="fil26" fill="#ffffcf" d="M36.896 411.473l.773-1.67-.293-3.584-.78-3.064-1.626-2.814-1.683-2.03-2.323-1.422-2.336-.626-2.235.027-1.746 1.286-1.468 1.835-.508 2.544.055 2.693.96 2.96 1.016 2.652 1.804 2.235 2.203 1.216 2.62.227 1.244-.442 1.228-.472.843-.25 1.17-.162z"/><path id="polygon72" class="fil4" fill="#a6ed63" d="M269.592 300.623l-1.124.175-1.91.59-1.51.872-2.074 1.197-1.26 1.24-.74.902-.032.767.68.358 1.273.015 1.704-.47 2.174-1.02 1.408-1.05 1.466-1.358.594-1.093.237-.89z"/><path id="polygon74" class="fil4" fill="#a6ed63" d="M224.478 259.693l1.585-1.152.623-1.11.34-.71-.99-.415-1.272-.015-1.91.59-1.51.872-1.127.65-.918.53-.846.725-.443.532-.8 1.21.25.844.4.283 1.45-.087.563-.325 1.05-.37.92-.53 1.227-.472z"/><path id="polygon76" class="fil4" fill="#a6ed63" d="M141.14 314.05l1.377-1.034.623-1.11.238-.888-.888-.237-1.273-.015-1.703.47-1.51.872-1.126.65-.948.547-.815.708-.443.532-.8 1.213.146.665.503.46 1.45-.087.564-.325 1.02-.352 1.05-.37 1.247-.442z"/><path id="polygon78" class="fil4" fill="#a6ed63" d="M102.743 333.73l-1.243-.034-1.91.59-1.512.872-2.073 1.197-1.258 1.24-.623 1.11-.06.785.71.34 1.272.016 1.584-.677 2.295-.813 1.288-1.257 1.586-1.153.592-1.093.238-.887z"/><path id="polygon80" class="fil4" fill="#a6ed63" d="M109.613 354.247l1.258-1.24.624-1.11.358-.68-1.008-.446-1.153.193-1.804.292-1.51.872-1.126.65-.948.547-.816.708-.34.71-.92 1.005.237.89.412.236 1.45-.087.683-.118 1.02-.352.95-.547 1.227-.474z"/><path id="polygon82" class="fil4" fill="#a6ed63" d="M118.25 335.004l-1.274-.015-1.716.516-1.866 1.077-1.866 1.077-1.127 1.125-.8 1.213.267.872.383.253 1.348-.265 1.555-.384 1.968-.9 1.765-1.255 1.288-1.258.726-.932.356-.68z"/><path id="polygon84" class="fil4" fill="#a6ed63" d="M128.25 290.015l-1.17.163-1.91.59-1.688.974-1.866 1.077-1.26 1.24-.724.932-.06.785.71.34 1.272.016 1.686-.5 1.986-.87 1.568-1.182 1.483-1.33.623-1.11.238-.887z"/><path id="polygon86" class="fil4" fill="#a6ed63" d="M144.93 336.62l-1.17.163-1.91.59-1.51.872-2.045 1.18-1.288 1.257-.726.932-.03.768.68.357 1.274.015 1.716-.517 2.163-.972 1.39-1.08 1.484-1.33.623-1.11.238-.887z"/><path id="polygon88" class="fil4" fill="#a6ed63" d="M190.922 289.058l-1.14.145-1.893.62-1.512.87-2.044 1.18-1.305 1.23-.726.93-.03.77.68.356 1.272.015 1.733-.487 2.145-1.002 1.408-1.05 1.466-1.36.592-1.093.238-.887z"/><path id="polygon90" class="fil19" fill="#61bd00" d="M294.927 241.016l-1.17.162-1.686.5-1.865 1.077-1.896 1.094-1.276 1.21-.726.932-.06.785.607.163 1.273.015 1.686-.5 2.015-.886 1.746-1.286 1.275-1.21.624-1.11.34-.71z"/><path id="polygon92" class="fil19" fill="#61bd00" d="M296.247 274.492l-1.14.146-2.014.41-1.688.976-1.866 1.077-1.186 1.436-.726.933.072.944.578.18 1.273.016 1.733-.487 1.97-.9 1.585-1.152 1.465-1.36.594-1.092.34-.71z"/><path id="polygon94" class="fil19" fill="#61bd00" d="M343.473 246.713l1.483-1.33.37-1.478.016-1.273-1.092-.593-1.363-.24-2.013.41-1.69.976-1.124.65-.948.547-.798.737-.358.68-.503 1.318.352 1.02.725.846 1.495.4.666-.147 1.02-.352 1.07-.34 1.227-.472z"/><path id="polygon96" class="fil19" fill="#61bd00" d="M227.267 326.837l-1.095-.118-1.526.366-1.125.65-1.687.974-.904 1.035-.416.99.323 1.038.532.443 1.167.313 1.348-.265 1.91-.59.903-1.035 1.08-1.137.344-1.185.03-.768z"/><path id="polygon98" class="fil19" fill="#61bd00" d="M146.207 356.616l-.785-.06-1.273-.015-.92.53-1.332.77-.593 1.093-.548.83.427.74.223.385 1.095.118 1.14-.145 1.436-.59.815-.708.726-.933.236-.888.163-.608z"/><path id="polygon100" class="fil19" fill="#61bd00" d="M143.813 366.765l-.785-.06-1.14.145-.95.547-1.302.753-.548.83-.518.812.428.74.222.386 1.065.135.873-.267 1.406-.575.845-.724.815-.708.237-.887.163-.606z"/><path id="polygon102" class="fil19" fill="#61bd00" d="M129.886 379.032l-.768-.03-1.14.144-.95.547-1.302.753-.518.812-.565.8.325.563.222.386 1.095.118.963-.042 1.406-.575.845-.725.695-.915.238-.887.162-.608z"/><path id="polygon104" class="fil19" fill="#61bd00" d="M140.752 375.76l-.768-.03-1.348.264-.918.53-1.126.65-.725.932-.535.783.325.56.222.386 1.064.136 1.153-.192 1.245-.443.8-.737.92-1.005.237-.888.162-.607z"/><path id="polygon106" class="fil19" fill="#61bd00" d="M145.103 375.498l-.768-.03-1.14.145-.948.547-1.303.752-.548.83-.535.783.325.563.325.562 1.066.136.992-.06 1.406-.575.845-.724.695-.915.238-.886.06-.785z"/><path id="polygon108" class="fil19" fill="#61bd00" d="M150.57 358.086l-.975.09-1.348.264-.918.53-1.127.65-.725.932-.358.68.147.665.4.283.888.238 1.17-.162 1.228-.472.816-.708.902-1.035.445-1.006.133-.59z"/><path id="polygon110" class="fil19" fill="#61bd00" d="M162.424 347.016l-.785-.06-1.17.162-.95.548-1.125.65-.696.915-.34.71.22.86.43.266.886.238 1.02-.353 1.23-.47.844-.726.846-.724.237-.888.134-.59z"/><path id="polygon112" class="fil19" fill="#61bd00" d="M144.756 333.72l-.785-.06-1.17.162-.947.547-1.303.752-.52.812-.546.83.325.562.204.356 1.095.118.962-.042 1.405-.575.846-.725.725-.932.238-.888.15-.56z"/><path id="polygon114" class="fil19" fill="#61bd00" d="M124.305 321.28l-.888-.238-1.17.162-.918.53-1.334.77-.518.812-.416.99.325.563.325.562 1.065.135.843-.25 1.556-.384.695-.915.847-.725.237-.888.06-.785z"/><path id="polygon116" class="fil19" fill="#61bd00" d="M107.533 337.716l-.785-.06-1.02.352-.95.548-1.124.65-.816.707-.34.71.117.683.413.235.785.06 1.02-.35 1.246-.443.827-.755.815-.708.34-.71.18-.577z"/><path id="polygon118" class="fil19" fill="#61bd00" d="M164.52 364.052l-.994.06-1.228.47-.918.53-1.125.65-.846.726-.34.71.146.665.383.253.784.06 1.05-.37 1.246-.442.798-.737 1.023-.828.55-.83.15-.56z"/><path id="polygon120" class="fil19" fill="#61bd00" d="M129.63 335.7l-.786-.06-1.153.192-.917.53-1.303.753-.565.8-.518.812.324.563.224.385 1.065.135.974-.09 1.423-.544.8-.738.74-.902.24-.888.162-.607z"/><path id="polygon122" class="fil19" fill="#61bd00" d="M118.95 343.604l-.77-.03-1.17.162-.917.53-1.126.65-.725.932-.536.783.445.77.206.356 1.065.136 1.052-.37 1.245-.442.8-.738.844-.725.24-.887.178-.578z"/><path id="polygon124" class="fil19" fill="#61bd00" d="M134.54 325.124l-.887-.238-1.17.163-.948.546-1.303.752-.518.813-.445 1.008.324.563.325.564 1.094.118.843-.25 1.525-.367.726-.933.845-.725.238-.887.03-.768z"/><path id="polygon126" class="fil19" fill="#61bd00" d="M156.838 328.245l-.785-.06-1.17.162-.948.547-1.125.65-.696.915-.34.71.117.68.414.237.887.238 1.142-.145 1.228-.472.845-.725.725-.932.238-.887.15-.56z"/><path id="polygon128" class="fil19" fill="#61bd00" d="M157.84 306.657l-.784-.06-1.33.294-.92.53-1.125.65-.74.904-.52.812.326.563.222.384 1.065.135 1.153-.193 1.245-.442.8-.738.92-1.005.238-.887.163-.608z"/><path id="polygon130" class="fil19" fill="#61bd00" d="M148.72 321.163l-1.064-.136-1.33.295-1.126.65-1.688.974-.92 1.006-.416.99.267.873.382.252.963-.042 1.348-.265 1.79-.797 1.024-.827.903-1.035.518-.812.18-.577z"/><path id="polygon132" class="fil19" fill="#61bd00" d="M113.823 324.33l-1.065-.135-1.348.264-1.125.65-1.333.77-.903 1.034-.417.99.147.665.503.46 1.065.135 1.228-.472 1.556-.385.903-1.035 1.023-.827.415-.99.06-.786z"/><path id="polygon134" class="fil19" fill="#61bd00" d="M193.66 313.225l-.992.06-1.33.294-1.126.65-1.48.854-.922 1.005-.547.83.427.74.222.384 1.095.118 1.228-.472 1.6-.647 1.007-.857 1.023-.828.445-1.007.133-.59z"/><path id="polygon136" class="fil19" fill="#61bd00" d="M207.685 340.117l-.992.06-1.33.294-1.126.65-1.303.753-.92 1.005-.52.813.12.683.428.265 1.066.136 1.33-.295 1.423-.546 1.007-.857.92-1.005.445-1.008.134-.59z"/><path id="polygon138" class="fil19" fill="#61bd00" d="M155.087 368.51l-.992.06-1.348.264-1.125.65-1.48.855-.904 1.034-.548.83.427.74.205.355 1.095.117 1.246-.442 1.583-.678 1.023-.827 1.005-.857.445-1.008.15-.56z"/><path id="polygon140" class="fil19" fill="#61bd00" d="M167.304 349.45l-1.065-.134-1.35.264-1.124.65-1.303.753-.904 1.034-.446 1.008.25.843.4.282.975-.09 1.244-.44 1.406-.576 1.023-.828 1.006-.857.534-.784.163-.607z"/><path id="polygon142" class="fil19" fill="#61bd00" d="M190.128 356.493l-.945.072-1.556.384-1.303.752-1.303.752-.902 1.035-.535.782.237.89.412.235 1.066.136 1.245-.443 1.406-.575 1.2-.93 1.212-.976.416-.992.18-.577z"/><path id="polygon144" class="fil19" fill="#61bd00" d="M169.29 369.787l-.784-.06-1.123.174-.948.55-1.126.648-.714.886-.547.83.324.562.325.563 1.093.117 1.14-.145 1.23-.472.844-.725.696-.915.238-.888.06-.785z"/><path id="polygon146" class="fil19" fill="#61bd00" d="M188.15 342.668l-.786-.06-1.17.162-.918.53-1.333.77-.518.812-.518.813.427.74.223.385 1.065.136.843-.25 1.435-.592.816-.708.845-.725.24-.886.162-.608z"/><path id="polygon148" class="fil19" fill="#61bd00" d="M196.235 276.987l-.768-.03-1.17.16-.948.548-1.304.753-.518.812-.565.8.325.563.222.385 1.095.118.946-.072 1.424-.545.828-.755.742-.903.238-.888.133-.59z"/><path id="polygon150" class="fil19" fill="#61bd00" d="M243.042 277.962l-.785-.06-1.153.19-.948.55-1.303.75-.536.784-.547.83.427.74.222.385 1.094.12.843-.25 1.423-.546.828-.754.846-.725.237-.888.135-.59z"/><path id="polygon152" class="fil19" fill="#61bd00" d="M251.306 247.68l-.888-.24-1.153.193-.947.547-1.304.753-.742.902-.416.99.445.77.206.356.963-.04 1.17-.164 1.405-.574.845-.725.725-.932.34-.71.15-.56z"/><path id="polygon154" class="fil4" fill="#a6ed63" d="M292.59 217.882l-1.172.162-1.525.367-1.333.77-1.48.856-1.11 1.154-.697.915.22.86.532.444 1.243.03 1.436-.59 1.703-.47 1.11-1.155 1.2-.93.624-1.11.03-.768z"/><path id="polygon156" class="fil4" fill="#a6ed63" d="M337.023 186.225l-.963.042-1.525.368-1.51.872-1.69.974-.902 1.036-.518.813.25.842.4.282 1.065.136 1.228-.473 1.79-.797 1.41-1.05 1.2-.93.415-.99.162-.607z"/><path id="polygon158" class="fil4" fill="#a6ed63" d="M335.812 219.148l-.975.09-1.526.367-1.51.872-1.687.975-.904 1.035-.536.783.267.872.487.43 1.065.136 1.245-.442 1.893-.62 1.306-1.227 1.183-.96.444-1.008.048-.74z"/><path id="polygon160" class="fil4" fill="#a6ed63" d="M388.57 146.434l-.976.09-1.526.367-1.125.65-1.688.975-.904 1.035-.534.783.118.682.43.266 1.065.136 1.346-.265 1.79-.796 1.024-.827 1.08-1.138.446-1.008.133-.59z"/><path id="polygon162" class="fil4" fill="#a6ed63" d="M348.702 134.976l-.992.06-1.51.396-1.302.753-1.688.974-.92 1.004-.726.933.147.665.504.46 1.273.016 1.347-.265 1.79-.797 1.202-.93 1.08-1.138.446-1.007.03-.767z"/><path id="polygon164" class="fil4" fill="#a6ed63" d="M134.51 266.656l-.963.043-1.658.206-1.304.752-1.688.975-.8 1.212-.697.915.22.86.43.266 1.244.033 1.33-.296 1.81-.767 1.182-.96 1.128-1.125.415-.99.162-.607z"/><path id="polygon166" class="fil4" fill="#a6ed63" d="M191.188 254.43l-.963.04-1.525.37-1.333.768-1.688.975-.904 1.035-.696.915.117.682.413.236 1.243.034 1.348-.265 1.792-.798 1.23-.947 1.08-1.138.416-.99.18-.578z"/><path id="polygon168" class="fil4" fill="#a6ed63" d="M201.106 216.202l-.536.783-.518.812.325.563.325.563 1.065.135.963-.042 1.228-.472 1.364-1.538.12-1.57-1.317-.503-1.894.62z"/><path id="polygon170" class="fil4" fill="#a6ed63" d="M254.98 210.333l-.786-.06-1.153.192-.917.53-1.126.65-.565.8-.518.812.428.74.222.385 1.065.136.872-.267 1.245-.442.8-.737.844-.724.24-.888.132-.59z"/><path id="polygon172" class="fil4" fill="#a6ed63" d="M104.014 298.243l-.607-.163-1.124.175-.947.547-1.304.752-.564.8-.52.813.43.74.22.385 1.067.136.872-.267 1.423-.544.828-.755.816-.707.06-.785.163-.607z"/><path id="polygon174" class="fil4" fill="#a6ed63" d="M173.66 319.283l.087 1.45 1.093.593 2.19-.514.846-.725.696-.915.238-.888.18-.578-.83-.547-.768-.032-1.243-.032-.95.547z"/><path id="polygon176" class="fil4" fill="#a6ed63" d="M99.56 346.82l.087 1.452 1.093.593 2.088-.692.845-.725.828-.755.24-.888.15-.56-.8-.565-.77-.03-1.17.162-.946.547z"/><path id="polygon178" class="fil4" fill="#a6ed63" d="M84.783 339.832l-.415.99-.548.83.428.74.222.386 1.095.118.946-.072 1.424-.545 1.363-1.54.193-1.374-1.39-.698-2.013.412z"/><path id="polygon180" class="fil4" fill="#a6ed63" d="M79.42 357.423l.206 1.657.99.416 2.22-.532.816-.708.726-.932.34-.71.18-.577-.932-.726-.785-.06-1.152.193-.918.53z"/><path id="polygon182" class="fil4" fill="#a6ed63" d="M57.557 338.57l-.888-.237-1.17.162-.92.53-1.125.65-.547.83-.416.99.427.74.222.385 1.065.136.873-.267 1.228-.473.815-.708.846-.726.236-.888.163-.607z"/><path id="polygon184" class="fil4" fill="#a6ed63" d="M105.892 347.39l.206 1.66 1.093.592 2.09-.692.845-.725.798-.738.238-.887.18-.578-.83-.548-.886-.238-1.124.175-.948.548z"/><path id="polygon186" class="fil4" fill="#a6ed63" d="M103.417 327.1l-.71-.34-1.14.144-.948.548-1.304.752-.518.812-.445 1.008.427.74.222.385 1.095.117.843-.25 1.406-.574.845-.725.817-.708.06-.785.163-.607z"/><path id="polygon188" class="fil4" fill="#a6ed63" d="M133.233 364.857l.087 1.45 1.213.8 2.19-.514.846-.725.695-.915.237-.887.06-.785-.812-.518-.785-.06-1.14.145-.948.548z"/><path id="polygon190" class="fil4" fill="#a6ed63" d="M126.428 376.052l-.578-.18-1.17.163-.948.547-1.125.65-.696.915-.34.71.22.86.533.443.887.238 1.02-.353 1.35-.264.724-.932.846-.725.03-.768.06-.785z"/><path id="polygon192" class="fil4" fill="#a6ed63" d="M77.48 347.564l.086 1.45 1.213.8 2.22-.53.695-.916.845-.724.238-.888.06-.785-.83-.547-.767-.03-1.17.162-.918.53z"/><path id="polygon194" class="fil4" fill="#a6ed63" d="M79.143 354.344l.087 1.45 1.11.623 2.22-.53.798-.74.743-.9.06-.786.134-.59-.783-.535-.606-.163-1.273-.015-.917.53z"/><path id="polygon196" class="fil4" fill="#a6ed63" d="M94.344 352.083l-.742.903-.416.99.445.77.206.356 1.065.135 1.07-.34 1.227-.472 1.466-1.36.21-1.345-1.51-.906-1.893.62z"/><path id="polygon198" class="fil4" fill="#a6ed63" d="M75.846 363.75l-.71-.34-1.243-.032-.948.547-1.125.65-.623 1.11-.238.887.368 1.05.503.46.99.416 1.17-.162 1.23-.472.845-.725.696-.916-.042-.963.03-.767z"/><path id="polygon200" class="fil4" fill="#a6ed63" d="M99.08 339.082l-.785-.06-1.123.174-.948.547-1.126.65-.535.783-.548.83.325.562.325.563 1.095.12.963-.043 1.228-.472.846-.725.696-.915.238-.888.06-.785z"/><path id="polygon202" class="fil4" fill="#a6ed63" d="M63.944 330.618l.087 1.45 1.213.8 2.22-.53.697-.916.845-.725.238-.887.06-.785-.813-.518-.785-.06-1.153.19-.918.53z"/><path id="polygon204" class="fil4" fill="#a6ed63" d="M63.944 330.618l.087 1.45 1.213.8 2.22-.53.697-.916.845-.725.238-.887.06-.785-.813-.518-.785-.06-1.153.19-.918.53z"/><path id="polygon206" class="fil4" fill="#a6ed63" d="M168.012 327.283l-.785-.06-1.153.192-.92.53-1.124.65-.535.782-.548.83.427.74.325.563 1.094.118.86-.22 1.33-.294.714-.886.828-.754.238-.888.06-.785z"/><path id="polygon208" class="fil4" fill="#a6ed63" d="M124.612 384.604l-.578-.18-1.17.162-.948.547-1.303.753-.518.812-.548.83.428.74.325.563 1.095.12.843-.25 1.525-.368.726-.932.844-.725.03-.768.06-.785z"/><path id="polygon210" class="fil4" fill="#a6ed63" d="M157.71 294.254l-.033 1.243 1.11.623 2.19-.515.845-.725.696-.915.238-.888.163-.607-.71-.34-.77-.03-1.14.144-.947.547z"/><path id="polygon212" class="fil4" fill="#a6ed63" d="M81.036 319.525l-.475-.002-.946.548-.948.548-1.126.65-.918.53-.443.532.117.682.31.058.785.06 1.02-.352 1.228-.472.846-.725.845-.724.134-.59.282-.4z"/><path id="polygon214" class="fil4" fill="#a6ed63" d="M80.178 329.736l-1.02.352-.948.547-1.126.65-.638.605-.518.813.325.563.963-.043.843-.25 1.227-.472.845-.724.816-.708.34-.71.385-.222-.71-.34z"/><path id="polygon216" class="fil4" fill="#a6ed63" d="M55.745 342.342l-.015 1.272.887.238 1.97-.9.844-.724.92-.53.34-.71.282-.4-.71-.34-.785-.06-1.02.35-.95.55z"/><path id="polygon218" class="fil4" fill="#a6ed63" d="M53.993 347.105l-.015 1.272.887.238 1.97-.9.844-.724.917-.53.34-.71.283-.4-.71-.34-.785-.06-1.02.352-.948.548z"/><path id="polygon220" class="fil4" fill="#a6ed63" d="M48.336 339.906l-.032 1.243.785.06 2.087-.693.828-.755.815-.708.163-.607.385-.222-.71-.34-.59-.134-1.038.324-.948.547z"/><path id="polygon222" class="fil4" fill="#a6ed63" d="M41.71 349.22l-.136 1.066.99.416 2.088-.692.846-.725.798-.738.358-.68.162-.607-.71-.34-.665.146-1.037.323-.948.546z"/><path id="polygon224" class="fil4" fill="#a6ed63" d="M66.323 334.26l-.505.015-1.05.37-.92.53-1.33.77-.64.604-.62.634.205.356.223.385.962-.043.843-.25 1.437-.59.815-.71.846-.724.162-.608.133-.59z"/><path id="polygon226" class="fil4" fill="#a6ed63" d="M55.066 330.768l-.238.888.888.237 2.07-.72.816-.71.845-.724.34-.71.283-.4-.607-.164-.665.147-1.068.34-.918.53z"/><path id="polygon228" class="fil4" fill="#a6ed63" d="M70.246 320.74l-.016 1.273.888.238 2.1-.738.816-.708.845-.725.34-.71.253-.384-.68-.357-.786-.062-1.05.37-.918.53z"/><path id="polygon230" class="fil4" fill="#a6ed63" d="M42.266 352.375l-.458.027-.948.547-.947.546-1.126.65-.918.53-.46.503.116.68.327.09.768.03 1.04-.323 1.227-.472.845-.725.83-.755.15-.56.264-.43z"/><path id="polygon232" class="fil4" fill="#a6ed63" d="M46.497 343.218l-.845.725-.535.783.222.385.102.18.962-.044.948-.547 1.228-.473 1.586-1.152.415-.99-1.167-.313-1.79.797z"/><path id="polygon234" class="fil4" fill="#a6ed63" d="M87.64 326.177l-.62.635-.667.622.325.563.103.178.993-.06.74-.427 1.228-.472 1.587-1.153.416-.99-1.168-.313-1.808.768z"/><path id="polygon236" class="fil4" fill="#a6ed63" d="M94.82 350.308l-1.067.34-1.584.677-1.51.872-1.867 1.078-1.408 1.05-.8.737.12.682.31.058 1.14-.145 1.51-.872 1.968-.9 1.408-1.05 1.482-.854.726-.932.46-.502z"/><path id="polygon238" class="fil4" fill="#a6ed63" d="M70.298 315.22l-.578-.18-1.05.37-.92.53-1.124.65-.845.725-.34.71.028.458.297.105.768.03.948-.547 1.246-.44.8-.738.946-.548.15-.56.266-.43z"/><path id="polygon240" class="fil4" fill="#a6ed63" d="M83.094 305.305l-.948.548-.62.635.325.562.103.178.963-.042 1.05-.37 1.228-.472 1.483-1.33.416-.99-1.185-.343-1.688.976z"/><path id="polygon242" class="fil4" fill="#a6ed63" d="M73.867 335.63l-.768-.03-1.068.34-.948.547-1.126.65-.62.635-.536.783.325.562.12.208.946-.072.86-.22 1.228-.473.846-.725.828-.754.358-.68.235-.412z"/><path id="polygon244" class="fil4" fill="#a6ed63" d="M50.148 344.823l-.62.634-.536.783.325.563.12.207.945-.072.86-.22 1.436-.592 1.466-1.36.416-.99-1.27-.49-1.81.767z"/><path id="polygon246" class="fil4" fill="#a6ed63" d="M50.382 346.938l-.665.148-.948.547-.92.53-1.124.65-.77.444-.638.605.325.563.12.208.945-.073.89-.237 1.228-.472.815-.707.83-.754.357-.682.265-.43z"/><path id="polygon248" class="fil4" fill="#a6ed63" d="M68.7 338.377l-.488.045-1.067.34-.92.53-1.33.77-.622.634-.638.605.325.564.102.177.963-.04.74-.428 1.436-.592.817-.708.947-.547.163-.608.253-.383z"/><path id="polygon250" class="fil4" fill="#a6ed63" d="M59.546 332.92l-.992.06-1.508.397-1.303.752-1.69.974-.74.902-.52.813.25.842.4.282.963-.042 1.05-.37 1.79-.797 1.202-.93 1.2-.93.548-.83.133-.59z"/><path id="polygon252" class="fil4" fill="#a6ed63" d="M99.61 317.016l-.828.755-.638.606.325.563.22.384.947-.072 1.067-.34 1.228-.472 1.466-1.36.313-1.168-1.167-.313-1.808.767z"/><path id="polygon254" class="fil4" fill="#a6ed63" d="M85.96 346.657l-.64.605-.517.813.325.562.103.178.963-.042.844-.25 1.245-.443 1.466-1.36.415-.99-1.287-.52-1.79.797z"/><path id="polygon256" class="fil4" fill="#a6ed63" d="M95.58 358.123l-.74.427-.638.605.325.563.103.178.962-.043.843-.25 1.228-.47 1.483-1.332.416-.99-1.168-.312-1.688.975z"/><path id="polygon258" class="fil4" fill="#a6ed63" d="M73.94 360.862l-.134 1.065.888.238 2.088-.692.798-.738.845-.725.34-.71.283-.4-.71-.34-.665.147-.948.547-.918.53z"/><path id="polygon260" class="fil4" fill="#a6ed63" d="M83.842 359.885l-.816.707-.65.652.325.563.206.355.993-.06 1.02-.352 1.244-.442 1.466-1.36.343-1.185-1.215-.325-1.79.797z"/><path id="polygon262" class="fil4" fill="#a6ed63" d="M96.9 343.104l-.682.118-1.02.352-.948.547-1.126.65-.638.606-.65.652.325.563.103.18.993-.06.74-.428 1.228-.472.846-.725.918-.53.34-.71.283-.4z"/><path id="polygon264" class="fil4" fill="#a6ed63" d="M89.258 336.775l-.135 1.066.99.416 2.088-.692.846-.725.828-.756.15-.56.163-.608-.71-.34-.458.028-1.068.34-.948.547z"/><path id="polygon266" class="fil4" fill="#a6ed63" d="M97.713 343.622l-.638.606-.547.83.324.562.103.178.992-.06.843-.25 1.246-.442 1.466-1.36.415-.99-1.288-.52-1.79.797z"/><path id="polygon268" class="fil4" fill="#a6ed63" d="M104.928 349.21l-.665.148-.918.53-.948.547-1.125.65-.74.428-.668.622.324.563.103.178.993-.06.844-.25 1.245-.442.828-.755.815-.71.34-.71.283-.4z"/><path id="polygon270" class="fil4" fill="#a6ed63" d="M117.502 389.183l-.768-.03-1.038.322-.948.547-1.126.65-.62.635-.536.783.223.385.22.385.947-.072.86-.22 1.228-.472.845-.725.8-.737.356-.68.163-.607z"/><path id="polygon272" class="fil4" fill="#a6ed63" d="M126.654 371.656l-.135 1.066.887.238 2.088-.693.845-.725.798-.737.18-.578.266-.43-.71-.34-.488.045-.918.53-.948.547z"/><path id="polygon274" class="fil4" fill="#a6ed63" d="M111.668 354.797l-.118 1.095.888.238 2.07-.722.846-.725.816-.707.34-.71.283-.4-.71-.34-.683.117-.918.53-.948.547z"/><path id="polygon276" class="fil4" fill="#a6ed63" d="M83.217 351.004l-.135 1.066.887.238 2.117-.71.8-.737.844-.724.164-.607.252-.384-.68-.358-.487.045-.95.547-.917.53z"/><path id="polygon278" class="fil4" fill="#a6ed63" d="M73.293 357.208l-.016 1.273.888.24 2.118-.71.798-.738.846-.725.34-.71.283-.4-.71-.34-.786-.06-1.05.37-.918.53z"/><path id="polygon280" class="fil4" fill="#a6ed63" d="M79.77 362.75l-.683.117-1.05.37-.948.546-1.097.633-.667.622-.62.635.324.563.102.178.963-.043.77-.443 1.2-.455.844-.725.947-.548.34-.71.253-.383z"/><path id="polygon282" class="fil4" fill="#a6ed63" d="M93.227 357.467l-.992.06-1.228.472-.918.53-1.334.768-.816.708-.547.83.324.563.223.384.975-.09 1.038-.322 1.435-.592.816-.708 1.006-.857.565-.8.133-.59z"/><path id="polygon284" class="fil4" fill="#a6ed63" d="M127.908 314.935l-.976.09-1.245.44-.918.532-1.334.77-.798.736-.565.8.325.563.222.385.992-.058 1.02-.353 1.437-.592.814-.708 1.023-.828.548-.83.133-.59z"/><path id="polygon286" class="fil4" fill="#a6ed63" d="M126.417 347.032l-.665.148-1.228.472-.918.53-1.333.77-.816.707-.667.62.147.667.4.282.992-.06 1.02-.353 1.436-.59.815-.71 1.024-.827.34-.71.163-.607z"/><path id="polygon288" class="fil4" fill="#a6ed63" d="M134.262 371.016l-.785-.06-1.23.472-.917.53-1.333.77-.815.707-.548.83.147.665.4.283.977-.09 1.037-.322 1.436-.59.815-.71 1.006-.856.36-.68.16-.608z"/><path id="polygon290" class="fil4" fill="#a6ed63" d="M92.465 315.928l-.785-.06-1.14.145-.948.547-1.125.65-.518.813-.55.83.326.562.307.533 1.095.118.963-.042 1.23-.472.844-.725.696-.915.238-.888.077-.755z"/><path id="polygon292" class="fil4" fill="#a6ed63" d="M277.105 172.047l-.59-.133-1.14.145-.95.547-1.124.65-.695.915-.358.68.34 1.067.43.265.887.238 1.02-.353 1.35-.265.724-.932.816-.708.06-.785.163-.607z"/><path id="polygon294" class="fil4" fill="#a6ed63" d="M254.924 195.12l-1.14.146-1.716.517-1.51.872-2.045 1.18-1.305 1.227-.696.916-.06.785.71.34 1.243.033 1.733-.487 2.146-1.004 1.408-1.05 1.288-1.257.594-1.093.238-.888z"/></g></g></g></svg>