<?xml version="1.0" encoding="UTF-8" standalone="no"?>
<!-- Created with Inkscape (http://www.inkscape.org/) -->

<svg
   xmlns:dc="http://purl.org/dc/elements/1.1/"
   xmlns:cc="http://creativecommons.org/ns#"
   xmlns:rdf="http://www.w3.org/1999/02/22-rdf-syntax-ns#"
   xmlns:svg="http://www.w3.org/2000/svg"
   xmlns="http://www.w3.org/2000/svg"
   xmlns:sodipodi="http://sodipodi.sourceforge.net/DTD/sodipodi-0.dtd"
   xmlns:inkscape="http://www.inkscape.org/namespaces/inkscape"
   width="533.33331"
   height="533.33331"
   viewBox="0 0 500.00001 500.00001"
   id="svg2"
   version="1.1"
   inkscape:version="0.92.1 r"
   sodipodi:docname="entry_type__mango.svg">
  <defs
     id="defs11" />
  <sodipodi:namedview
     id="base"
     pagecolor="#ffffff"
     bordercolor="#666666"
     borderopacity="1.0"
     inkscape:pageopacity="0.0"
     inkscape:pageshadow="2"
     inkscape:zoom="0.70710678"
     inkscape:cx="255.45854"
     inkscape:cy="330.36517"
     inkscape:document-units="px"
     inkscape:current-layer="layer1"
     showgrid="false"
     units="px"
     inkscape:window-width="1841"
     inkscape:window-height="1027"
     inkscape:window-x="79"
     inkscape:window-y="29"
     inkscape:window-maximized="1" />
  <metadata
     id="metadata7">
    <rdf:RDF>
      <cc:Work
         rdf:about="">
        <dc:format>image/svg+xml</dc:format>
        <dc:type
           rdf:resource="http://purl.org/dc/dcmitype/StillImage" />
        <dc:title />
      </cc:Work>
    </rdf:RDF>
  </metadata>
  <g
     inkscape:label="Layer 1"
     inkscape:groupmode="layer"
     id="layer1"
     transform="translate(0,-552.36216)">
    <path
       style="fill:#fdd75b;fill-opacity:1;fill-rule:evenodd;stroke:#000000;stroke-width:1px;stroke-linecap:butt;stroke-linejoin:miter;stroke-opacity:1"
       d="m 100.4,658.86606 c -27.454659,43.2406 -36.66755,100.23825 -27.885714,151.10909 7.974431,46.19375 37.379424,96.33649 65.686004,126.42895 33.57837,35.69686 43.63896,87.2501 85.02973,105.8293 21.33109,9.575 53.00314,5.0485 76.03655,-3.9184 49.3754,-19.2219 85.70482,-76.03138 102.81135,-128.02037 19.78293,-60.12291 13.1368,-129.97698 -7.75527,-189.72353 -13.99229,-40.01475 -38.19825,-81.78758 -75.12005,-102.61413 -20.61076,-11.62595 -47.09462,-4.81847 -70.71429,-6.25975 -26.16353,-1.59651 -53.50575,-10.24081 -78.59221,-2.64155 -27.277,8.26283 -54.21919,25.74953 -69.4961,49.81039 z"
       id="path4147"
       inkscape:connector-curvature="0"
       sodipodi:nodetypes="assssaaaaaa" />
    <path
       style="fill:#008000;fill-rule:evenodd;stroke:#000000;stroke-width:1px;stroke-linecap:butt;stroke-linejoin:miter;stroke-opacity:1"
       d="m 259.5,611.36216 c 6.5783,-2.83355 12.58289,-11.79651 20,-10.5 7.74122,1.35316 10.07622,2.37316 14.27786,5.20232 16.25197,10.94318 27.49146,28.05771 39.41548,43.60434 5.72229,7.46076 9.5188,16.28333 15.30666,23.69334 8.85524,11.33707 20.76958,20.06653 29.5,31.5 10.8077,14.15389 18.71117,30.30604 28,45.5 2.91025,4.76037 5.49462,9.73199 8.68886,14.30666 5.79284,8.2963 11.64728,15.6192 18.92894,23.73111 17.05547,19.00013 36.80217,64.26889 36.80217,64.26889 0,0 -3.72228,-15.09448 -4.41997,-22.80666 -1.36656,-15.10589 2.17858,-30.42559 0.5,-45.5 -2.57071,-23.08604 -5.96485,-46.25445 -16.07554,-67.80666 C 439.36284,692.97627 427.38447,672.59673 412,653.86216 c -17.92402,-21.82714 -45.59779,-36.10283 -72.3822,-46.19334 -14.68859,-5.53365 -30.99824,-4.97397 -46.54226,-7.15558 -7.5512,-1.05981 -15.23848,-4.48497 -22.69334,-2.88219 -5.65958,1.21679 -14.80666,9.07554 -14.80666,9.07554 0,0 1.53343,5.68549 3.92446,4.65557 z"
       id="path4149"
       inkscape:connector-curvature="0"
       sodipodi:nodetypes="ssaaaaaascaassaaacs" />
    <path
       style="fill:#501616;fill-rule:evenodd;stroke:#000000;stroke-width:1px;stroke-linecap:butt;stroke-linejoin:miter;stroke-opacity:1"
       d="m 244.54443,589.89993 c -2.06411,2.12107 -0.42079,5.90517 -0.54443,8.86223 -0.12536,2.99812 1.24523,6.37022 -0.2,9 -0.69461,1.26393 -3.6,2.4 -3.6,2.4 l 11,2 h 11 c 0,0 -6.56139,-4.69412 -7.85557,-8.26889 -1.49315,-4.12435 0.85557,-13.13111 0.85557,-13.13111 -0.34504,-1.5652 -3.00579,-1.23451 -4.6,-1.4 -2.01564,-0.20923 -4.64228,-0.91453 -6.05557,0.53777 z"
       id="path4151"
       inkscape:connector-curvature="0"
       sodipodi:nodetypes="aaacccasaa" />
    <path
       style="fill:#ff9a15;fill-opacity:0.38362068;fill-rule:evenodd;stroke:none;stroke-width:1px;stroke-linecap:butt;stroke-linejoin:miter;stroke-opacity:1;filter:url(#filter4333)"
       d="m 178.79989,628.66905 c 7.60976,2.42393 3.36372,17.85657 10.43579,21.5673 14.75413,7.74152 35.82202,-17.31525 49.39607,-7.65292 6.3369,4.51076 -1.79755,17.97477 4.17432,22.95875 11.57303,9.65858 32.30421,-7.76917 45.22176,0 11.02378,6.63018 16.6751,21.30414 18.0887,34.09025 1.63831,14.81861 -11.82722,43.1346 -11.82722,43.1346 0,0 -5.56576,18.78442 -32.69882,18.78442 -27.13305,0 -49.94877,6.32338 -64.7019,-9.74007 -4.87303,-5.30583 -1.39144,-21.5673 -1.39144,-21.5673 0,0 13.91439,2.78288 -9.74007,-10.43579 -23.65446,-13.21867 -38.96029,-18.78443 -38.96029,-18.78443 0,0 -20.87158,0 -16.69726,-13.21866 4.17431,-13.21867 -11.82723,-21.56731 0.69572,-32.69882 12.52295,-11.13151 30.59863,-31.98165 48.00464,-26.43733 z"
       id="path4153"
       inkscape:connector-curvature="0"
       sodipodi:nodetypes="aaaaaacsacscssa" />
    <path
       style="fill:#fb9919;fill-opacity:0.46120688;fill-rule:evenodd;stroke:none;stroke-width:1px;stroke-linecap:butt;stroke-linejoin:miter;stroke-opacity:1;filter:url(#filter4333-1)"
       d="m 214.71802,816.76776 c 7.60976,2.42393 3.36372,17.85657 10.43579,21.5673 14.75413,7.74152 35.82202,-17.31525 49.39607,-7.65292 6.3369,4.51076 -1.79755,17.97477 4.17432,22.95875 11.57303,9.65858 32.30421,-7.76917 45.22176,0 11.02378,6.63018 16.6751,21.30414 18.0887,34.09025 1.63831,14.81861 -11.82722,43.1346 -11.82722,43.1346 0,0 -5.56576,18.78442 -32.69882,18.78442 -27.13305,0 -49.94877,6.32338 -64.7019,-9.74007 -4.87303,-5.30583 -1.39144,-21.5673 -1.39144,-21.5673 0,0 13.91439,2.78288 -9.74007,-10.43579 -23.65446,-13.21867 -38.96029,-18.78443 -38.96029,-18.78443 0,0 -20.87158,0 -16.69726,-13.21866 4.17431,-13.21867 -11.82723,-21.56731 0.69572,-32.69882 12.52295,-11.13151 30.59863,-31.98165 48.00464,-26.43733 z"
       id="path4153-2"
       inkscape:connector-curvature="0"
       sodipodi:nodetypes="aaaaaacsacscssa"
       transform="matrix(0.72197705,0,0,0.63607882,56.561782,422.4742)" />
  </g>
</svg>
