<svg xmlns="http://www.w3.org/2000/svg" viewBox="0 0 479.99998 479.99998" width="512" height="512"><g fill-rule="evenodd"><path d="M235.098 121.28c-116.77-66.43-311.764 267.835-31.066 346.048 216.415 10.72 316.06-361.053 80.355-340.698-7.502 2.142-34.284 0-49.29-5.35z" fill="#54007f" stroke="#000" stroke-width="10.552200000000001" stroke-linejoin="round"/><path d="M249.027 118.06c-41.776-3.217 33.345 31.067 23.7 9.646 7.503-60 56.59-86.016 76.947-88.16 55.704-10.713 8.642-43.622-18.15-16.837-11.787 4.284-53.563 21.426-82.497 95.35z" fill="#004e00" stroke="#000" stroke-width="10.552200000000001" stroke-linejoin="round"/><path d="M124.754 375.197c2.142-9.645 28.923-207.857 106.06-231.42-7.492-12.863-11.787-17.147-27.858-12.863-97.492 52.497-98.557 239.988-78.202 244.283z" fill="#49205f"/><path d="M257.975 126.398c-.538-3.514 24.597-92.906 101.776-105.765 10.173 10.01-76.608 10.174-101.775 105.765z" fill="#090" fill-opacity=".5"/></g></svg>