<?xml version="1.0" encoding="UTF-8" standalone="no"?>
<svg
   xmlns:dc="http://purl.org/dc/elements/1.1/"
   xmlns:cc="http://creativecommons.org/ns#"
   xmlns:rdf="http://www.w3.org/1999/02/22-rdf-syntax-ns#"
   xmlns:svg="http://www.w3.org/2000/svg"
   xmlns="http://www.w3.org/2000/svg"
   xmlns:sodipodi="http://sodipodi.sourceforge.net/DTD/sodipodi-0.dtd"
   xmlns:inkscape="http://www.inkscape.org/namespaces/inkscape"
   viewBox="0 0 464.43 444.34"
   width="495.39"
   height="473.96"
   version="1.1"
   id="svg56"
   sodipodi:docname="entry_type__wood.svg"
   inkscape:version="0.92.1 r">
  <metadata
     id="metadata62">
    <rdf:RDF>
      <cc:Work
         rdf:about="">
        <dc:format>image/svg+xml</dc:format>
        <dc:type
           rdf:resource="http://purl.org/dc/dcmitype/StillImage" />
      </cc:Work>
    </rdf:RDF>
  </metadata>
  <defs
     id="defs60" />
  <sodipodi:namedview
     pagecolor="#ffffff"
     bordercolor="#666666"
     borderopacity="1"
     objecttolerance="10"
     gridtolerance="10"
     guidetolerance="10"
     inkscape:pageopacity="0"
     inkscape:pageshadow="2"
     inkscape:window-width="1841"
     inkscape:window-height="1027"
     id="namedview58"
     showgrid="false"
     inkscape:zoom="0.70418265"
     inkscape:cx="415.72836"
     inkscape:cy="66.984725"
     inkscape:window-x="79"
     inkscape:window-y="29"
     inkscape:window-maximized="1"
     inkscape:current-layer="svg56" />
  <path
     d="M56.63 97.34c-.18 1.88-5.22 53.95-11.46 79.8-6.58 27.26-19.33 52.66-27.4 79.5-5.12 17-13.32 51.53-13.32 51.53s25.66 8.63 36.12 2.6c11.1-6.4 18.27-28.1 21.48-40l3.63 3.33c2.6 19.52 5.44 37.14 17.1 50.1l-29.6 23.45c-.4 12.14-2.68 27 6.02 25.48 36.12-8.94 50.16-20.52 65.38-28.07-11.08 87.25 4.76-.3 31.64 15.92l1.85-22.72c8.72 1.9 8.97 6.04 9.8 10.05l-4.6 15.9c30.7 1.3 51.67 1.6 66.34 1.2l-5.6 10.4 6.8 30.2 20.2-32.1 20.9 49.8-6.7-64.1.3-.6c2.5-1.8 4.3-3.8 8.3-5.7 12.6-.1 27.6-.5 45.4-1.2l22.2 28.3-18.9 59.7 25.7-26.5 10 29.8 8.1-58.3-5.6-39.5c5.8-4.8 9.5-10.7 12-17.2 4.3 2.1 8.4 4.4 12.8 6.9l6.1 43.7 8.9-34.4 32.8 45.8-14-38.25c9.1 3.65 19.9 7.2 33.18 10.5 10.6 1.87 7.88-16.13 7.38-30.82l-36.9-29.2c-1.5-5.84-3.1-11.6-4.4-16.04l1.2-16.4 1.1.1 37 37.4-31-64c9.76-4.7 18.6-8.8 28.5-25.7l5.5-13.6-7.76-36.7c-9.7 13.4-18.7 23.47-25.56 22.5 3.78-36.33-1.44-59.16-2.8-87.8l-41.8-.6-1.16-4.2H111.4v.2l-12.17-.2H56.6zm174.1 308.54l-14.55 23.08 14.64-22.72-.1-.36z"
     fill="#a1652b"
     stroke="#4c2f14"
     stroke-width="7.51"
     id="path2" />
  <path
     d="M430.18 123.9c-.65 41.7-28.17 72.1-81.47 91.94-29.1 10.84-71.7 22.5-108.4 21.94-40.3-.62-84.6-7.75-115.1-21.67-47.8-21.8-71.8-58.5-71.1-98 .5-34.1 16.4-68.8 54.3-89.6C142.1 10 199.6 7.1 248.5 7.8c44.85.7 76.35 23.38 108.43 40.15 42.2 22.07 73.8 39.34 73.24 76z"
     color="#000"
     fill="#472c13"
     id="path4" />
  <path
     d="M430.18 116.24c-.65 41.7-28.17 72.1-81.47 91.94-29.1 10.84-71.7 22.5-108.4 21.94-40.3-.62-84.6-7.75-115.1-21.67-47.8-21.9-71.8-58.6-71.1-98.02.5-34.08 16.4-68.87 54.3-89.64C142.1 2.2 199.6-.7 248.5.1c44.84.7 76.34 23.36 108.42 40.13 42.2 22.07 73.8 39.33 73.24 76z"
     color="#000"
     fill="#d48834"
     id="path6" />
  <path
     d="M418.54 113.44c0 39.14-25.38 68.04-75.1 87.43-27.15 10.6-66.94 22.15-101.37 22.15-37.88 0-79.54-6.05-108.28-18.66-45.3-19.84-68.2-53.92-68.2-90.92 0-31.98 14.4-64.85 49.6-84.88C146.6 10.7 200.5 7.14 246.4 7.14c42.08 0 71.96 20.82 102.28 36.08 39.93 20.1 69.83 35.83 69.83 70.22z"
     color="#000"
     fill="#f6c47b"
     id="path8" />
  <path
     d="M402.12 113.44c0 35.5-23.02 61.7-68.1 79.3-24.64 9.6-60.73 20.08-91.95 20.08-34.36 0-72.14-5.48-98.2-16.92C102.83 177.9 82 147 82 113.44c0-29 13.08-58.8 45-76.98 28.48-16.2 73.4-22.4 115.07-22.4 38.16 0 69.23 21.85 96.73 35.7 36.2 18.2 63.32 32.48 63.32 63.67z"
     color="#000"
     fill="#efac39"
     id="path10" />
  <path
     d="M396.65 113.44c0 34.28-22.23 59.6-65.78 76.58-23.78 9.28-58.64 19.4-88.8 19.4-33.17 0-69.66-5.3-94.85-16.34-39.6-17.38-59.73-47.23-59.73-79.64 0-28.02 12.6-56.8 43.4-74.35 27.5-15.7 70.9-21.7 111.1-21.7 36.8 0 65.7 17.3 92.3 30.6 34.9 17.6 62.2 35.2 62.2 65.3z"
     color="#000"
     fill="#f6c47b"
     id="path12" />
  <path
     d="M382.27 113.44c0 31.1-20.17 54.06-59.66 69.46-21.5 8.4-53.1 17.6-80.5 17.6-30.1 0-63.2-4.8-86-14.83-35.9-15.77-54.1-42.84-54.1-72.23 0-25.4 17.5-52.06 45.5-67.98 25-14.2 58.3-19.08 94.8-19.08 33.4 0 60.7 19.14 84.8 31.27 31.7 15.96 55.5 28.46 55.5 55.8z"
     color="#000"
     fill="#efac39"
     id="path14" />
  <path
     d="M375.5 113.44c0 29.6-19.2 51.45-56.78 66.1-20.53 8-50.6 16.75-76.65 16.75-28.63 0-60.13-4.6-81.87-14.2-34.2-15-51.55-40.8-51.55-68.8 0-24.2 10.9-49.1 37.5-64.2 23.74-13.5 61.18-18.7 95.92-18.7 31.82 0 57.72 18.2 80.65 29.7 30.18 15.2 52.78 27.1 52.78 53.1z"
     color="#000"
     fill="#f6c47b"
     id="path16" />
  <path
     d="M363.08 113.44c0 26.84-17.4 46.66-51.5 59.95-18.62 7.2-45.9 15.1-69.52 15.1-25.97 0-54.53-4.2-74.25-12.8-31-13.6-46.7-37-46.7-62.4 0-22 9.9-44.5 34-58.2 21.6-12.3 55.5-17 87-17 28.9 0 52.4 16.5 73.2 27 27.4 13.7 47.9 24.5 47.9 48.1z"
     color="#000"
     fill="#efac39"
     id="path18" />
  <path
     d="M357.87 113.44c0 25.68-16.66 44.65-49.28 57.37-17.9 7-44 14.6-66.6 14.6-24.9 0-52.2-3.9-71.1-12.2-29.7-13-44.8-35.3-44.8-59.6 0-21 9.4-42.5 32.5-55.7C179.2 46.2 212.2 45 242.4 45c27.6 0 49.55 12.57 69.45 22.6 26.2 13.2 45.8 23.5 45.8 46.1z"
     color="#000"
     fill="#f6c47b"
     id="path20" />
  <path
     d="M347.1 113.44c0 23.3-15.12 40.5-44.7 52.03-16.16 6.3-39.84 13.18-60.34 13.18-22.54 0-47.33-3.6-64.44-11.1-26.9-11.8-40.58-32.1-40.58-54.12 0-19.03 8.57-38.6 29.52-50.5 18.7-10.64 48.16-14.7 75.5-14.7 25.05 0 45.44 14.34 63.5 23.42 23.75 11.96 41.54 21.32 41.54 41.8z"
     color="#000"
     fill="#efac39"
     id="path22" />
  <path
     d="M340.24 113.44c0 21.77-14.12 37.85-41.78 48.63-15.1 5.9-37.24 12.33-56.4 12.33-21.06 0-44.24-3.37-60.23-10.4-25.15-11.02-37.93-29.98-37.93-50.56 0-17.8 8.02-36.08 27.6-47.22 17.46-9.94 45-13.74 70.57-13.74 23.4 0 42.47 13.4 59.34 21.9 22.3 11.17 38.9 19.92 38.9 39.06z"
     color="#000"
     fill="#f6c47b"
     id="path24" />
  <path
     d="M331.1 113.44c0 19.74-12.8 34.33-37.88 44.1-13.7 5.35-33.77 11.18-51.15 11.18-19.1 0-40.12-3.05-54.63-9.42-22.82-10-34.4-27.2-34.4-45.87 0-16.14 7.27-32.72 25.03-42.83 15.85-9.02 40.83-12.47 64.02-12.47 21.2 0 38.5 12.16 53.8 19.86 20.1 10.1 35.2 18 35.2 35.4z"
     color="#000"
     fill="#efac39"
     id="path26" />
  <path
     d="M326.14 113.44c0 18.64-12.1 32.4-35.78 41.65-12.93 5-31.9 10.5-48.3 10.5-18.04 0-37.88-2.9-51.58-8.9C168.94 147.2 158 131 158 113.4c0-15.24 6.86-30.9 23.63-40.44 14.95-8.5 38.54-11.78 60.44-11.78 20.04 0 36.36 11.47 50.8 18.74C311.9 89.5 326.14 97 326.14 113.4z"
     color="#000"
     fill="#f6c47b"
     id="path28" />
  <path
     d="M318.32 113.44c0 16.9-10.97 29.4-32.45 37.77-11.73 4.6-28.92 9.6-43.8 9.6-16.36 0-34.36-2.6-46.78-8-19.6-8.5-24-19.4-24-35.4 0-13.8.7-31.8 15.9-40.5 13.5-7.7 34.9-10.7 54.8-10.7 18.2 0 40.1 9.3 53.2 15.9 17.2 8.7 23 16.6 23 31.5z"
     color="#000"
     fill="#efac39"
     id="path30" />
  <path
     d="M308.5 113.44c0 14.73-9.55 25.62-28.26 32.9-10.23 4-25.2 8.35-38.17 8.35-14.26 0-29.95-2.3-40.77-7.1-17.03-7.5-25.67-20.3-25.67-34.3 0-12.1 5.42-24.4 18.67-32 11.82-6.7 29.92-8.8 47.22-8.8 15.84 0 29.3 8.5 40.7 14.2 15.03 7.5 26.3 13.5 26.3 26.4z"
     color="#000"
     fill="#f6c47b"
     id="path32" />
  <path
     d="M302.33 113.44c0 13.36-8.67 23.23-25.64 29.85-9.3 3.6-22.9 7.5-34.7 7.5-13 0-27.2-2.1-37-6.4-15.5-6.8-23.3-18.4-23.3-31.1 0-10.9 4.9-22.2 16.9-29 10.8-6 27.7-8.3 43.4-8.3 14.3 0 26 8.2 36.4 13.4 13.6 6.8 23.8 12.2 23.8 24z"
     color="#000"
     fill="#efac39"
     id="path34" />
  <path
     d="M293.9 113.44c0 11.5-7.47 19.98-22.06 25.67-7.98 3.2-19.66 6.6-29.77 6.6-11.13 0-23.36-1.7-31.8-5.5-13.28-5.8-20.02-15.8-20.02-26.7 0-9.4 4.23-19 14.57-24.9 9.22-5.2 23.76-7.2 37.26-7.2 12.36 0 22.42 7.1 31.32 11.6 11.72 5.9 20.5 10.5 20.5 20.6z"
     color="#000"
     fill="#efac39"
     id="path36" />
  <path
     d="M291 113.44c0 10.85-7.04 18.86-20.82 24.24-7.53 2.93-18.56 6.14-28.1 6.14-10.5 0-22.06-1.68-30.03-5.18-12.54-5.5-18.9-14.95-18.9-25.2 0-8.88 3.98-18 13.74-23.55 8.7-5 22.4-6.9 35.1-6.9 11.6 0 21.1 6.7 29.5 10.9 11.1 5.6 19.4 10 19.4 19.5z"
     color="#000"
     fill="#f6c47b"
     id="path38" />
  <path
     d="M286.45 113.44c0 9.84-6.4 17.1-18.9 21.98-6.82 2.67-16.82 5.57-25.48 5.57-9.52 0-20-1.6-27.22-4.7-11.37-5-17.15-13.6-17.15-22.9 0-8.1 3.62-16.3 12.47-21.4 7.9-4.5 20.35-6.2 31.9-6.2 10.6 0 19.2 6 26.83 9.9 10.04 5 17.56 9 17.56 17.6z"
     color="#000"
     fill="#efac39"
     id="path40" />
  <path
     d="M280.74 113.44c0 8.57-5.56 14.9-16.46 19.16-5.95 2.32-14.67 4.85-22.2 4.85-8.3 0-17.44-1.33-23.74-4.1-9.9-4.34-14.94-11.8-14.94-19.92 0-7 3.16-14.2 10.87-18.6 6.88-3.92 17.73-5.4 27.8-5.4 9.22 0 16.73 5.27 23.38 8.6 8.75 4.4 15.3 7.86 15.3 15.4z"
     color="#000"
     fill="#f6c47b"
     id="path42" />
  <path
     d="M277.14 113.44c0 5.43-5.05 9.44-14.93 12.13-5.3 1.47-13.3 3.08-20.1 3.08-7.5 0-15.8-.84-21.5-2.6-9-2.75-13.5-7.48-13.5-12.6 0-4.45 2.9-9 9.9-11.8 6.3-2.47 16.1-3.42 25.2-3.42 8.4 0 15.2 3.34 21.2 5.46 8 2.7 13.9 4.9 13.9 9.7z"
     color="#000"
     fill="#efac39"
     id="path44" />
  <path
     d="M267.6 113.44c0 2.32-3.36 4.03-9.94 5.18-3.6.63-8.85 1.3-13.4 1.3-5.02.02-10.53-.34-14.33-1.1-6-1.17-9.03-3.2-9.03-5.4 0-1.9 1.9-3.84 6.56-5.03 4.15-1.1 10.7-1.5 16.78-1.5 5.56 0 10.1 1.4 14.1 2.3 5.3 1.2 9.24 2.1 9.24 4.1z"
     color="#000"
     fill="#f6c47b"
     id="path46" />
  <path
     d="M403.4 159.84l-24.77 2.32-19.43-5.88-20.52-.96-15.05-2.6 23.53-2.47 19.7 1.78 20.8 3.14 21.9-3.42M100 182.62l18.33-5.7 15.6 1.37 15.67-2.6 11.78-.5-17.4 5.6-15.15 1.8-16.22.9-15.9 6M173.9 5.1l11.53 6.07 6.97 8.32 8.78 6.3 5.94 5.5-11.1-5.6-8.2-6.5-8.3-7.5L168.96 7"
     fill="#a46623"
     id="path48" />
</svg>
