<svg xmlns="http://www.w3.org/2000/svg" width="512" height="512" viewBox="0 0 512 512"><g fill="#a4033f"><path d="M290.14 24.2l-55.04 6.7c9.32 37.4-5.42 65.68-19.96 97.04a172.54 170.1 0 0 0-131.7 165.02 172.54 170.1 0 0 0 136.5 166.26v28.6h73.97v-29.1h-.2a172.54 170.1 0 0 0 134.9-165.76 172.54 170.1 0 0 0-133.2-165.38c-12.9-35.2-11.12-67.48-5.22-103.4z"/><path d="M256.1 143.73c-51.17 112.34-26.57 216.04-.98 286.84m5.65-286.84c51.18 112.34 26.6 216.04 1 286.84m13.3-283.5c98.7 112 51.5 216.02 1 286.5m24.25-282.52c129.62 112 67.47 215.37 2 285.83m23.26-283.18c142.92 111.68 74.45 215.04 1.66 285.84m-91.4-293.8c-94.06 112-49.85 215.36-1.33 285.82m-19.9-281.18c-126.3 112-65.8 215.37-2.33 285.84m-9.97-283.18c-181.5 111.66-94.75 215.04-2.7 285.83" opacity=".63" stroke="#fff" stroke-width="1.99"/></g></svg>