<svg xmlns="http://www.w3.org/2000/svg" width="512" height="512" viewBox="0 0 512 512"><text style="line-height:1.25" x="118.188" y="334.122" font-size="40" font-family="sans-serif" letter-spacing="0" word-spacing="0" transform="translate(0 -161.533)"/><path d="M417.996 148.01c68.433 70.482 34.87 171.32-26.048 197.397-60.888 26.137-148.032-19.99-194.545-102.916-46.572-82.926-34.9-171.288 26.02-197.366C284.31 19.046 347.454 75.42 417.966 148.04z" fill="#c78f55"/><path d="M291.676 125.288c-5.85 8.406 5.94 21.267 14.346 27.177 5.05 3.565 13.128 5.852 18.414 2.674 7.426-4.546 13.218-17.288 8.614-24.654-7.307-11.88-33.474-16.692-41.374-5.227zm32.553 161.37c-5.793 8.434 6.028 21.295 14.404 27.205 5.05 3.565 13.07 5.852 18.415 2.614 7.424-4.514 13.216-17.227 8.612-24.652-7.306-11.82-33.473-16.633-41.404-5.198z" fill="#8e5125"/><path d="M274.865 126.477c.98 44.433 22.93 107.52-4.456 108.113-27.475.594-43.305-23.642-67.898-60.59-35.226-52.96-8.495-105.144 26.018-103.956 27.415.89 45.384 12.058 46.335 56.433z" fill="#dca467"/><path d="M149.643 475.47c58.81 11.672 164.34 5.494 173.338-44.256 9.03-49.72-71.698-136.775-130.537-148.448-58.81-11.702-134.607 46.216-143.637 95.936-9 49.78 41.998 85.065 100.837 96.768z" fill="#c98c53"/><path d="M185.225 432.194c29.197 37.78 88.422 51.087 121.004 25.96 32.582-25.158 10.9-70.037-18.267-107.817-29.167-37.81-68.52-54.176-101.104-29.048-32.584 25.126-30.772 73.065-1.635 110.875z" fill="#f5e49d"/><path d="M165.533 453.253c-1.425 7.128-18.86 8.108-29.018 7.128-6.148-.533-13.603-3.177-15.326-7.365-2.377-5.85 2.02-15.148 10.394-16.752 13.455-2.584 35.94 7.366 33.95 16.99z" fill="#8e5125"/></svg>