<svg xmlns="http://www.w3.org/2000/svg" width="640" height="640" viewBox="0 0 600 600"><path d="M322.14 543.22c-1.45 76.52-110.22 39.12-74.2-18.06 1.6-1.08 11.1-16.02 30.7-15.23 28.02.43 45.2 15.78 43.5 33.3z" color="#000" display="block" stroke="#000" stroke-width=".02" transform="matrix(5.1928 0 0 4.91556 -1182.66 -2310.956)" fill="#ff8d00"/><g fill="#307430"><path d="M201.9 33.63s15.93-8.54 15.93-3.66c29.14 49.72 48.9 121.04 74.23 172.38l18.88 13.56c-8.98 2.06-29.78.46-38.63 2.86 7.4-28.7-11.72-64.68-28.6-104.58-12.93-28.57-30.05-55.1-41.8-80.5z"/><path d="M345.24 514.74c86.4-232.98 32.3-319.1 32.3-319.1-.52-.77-153.58-67.72-155.2-89.2-.37-4.96-4.88-17.82 9.15-29.02-4.48 5.27 9.1 2.73 4.3 6.17-47.88 34.2 138.85 98.1 152.3 103.5 0 0 353.25 194.7-42.9 327.6z"/></g></svg>