<?xml version="1.0" encoding="UTF-8" standalone="no"?>
<svg
   xmlns:dc="http://purl.org/dc/elements/1.1/"
   xmlns:cc="http://creativecommons.org/ns#"
   xmlns:rdf="http://www.w3.org/1999/02/22-rdf-syntax-ns#"
   xmlns:svg="http://www.w3.org/2000/svg"
   xmlns="http://www.w3.org/2000/svg"
   xmlns:sodipodi="http://sodipodi.sourceforge.net/DTD/sodipodi-0.dtd"
   xmlns:inkscape="http://www.inkscape.org/namespaces/inkscape"
   viewBox="0 0 226.13 219.87"
   version="1.1"
   id="svg28"
   sodipodi:docname="walnuss2.svg"
   inkscape:version="0.92.1 r">
  <metadata
     id="metadata34">
    <rdf:RDF>
      <cc:Work
         rdf:about="">
        <dc:format>image/svg+xml</dc:format>
        <dc:type
           rdf:resource="http://purl.org/dc/dcmitype/StillImage" />
      </cc:Work>
    </rdf:RDF>
  </metadata>
  <defs
     id="defs32" />
  <sodipodi:namedview
     pagecolor="#ffffff"
     bordercolor="#666666"
     borderopacity="1"
     objecttolerance="10"
     gridtolerance="10"
     guidetolerance="10"
     inkscape:pageopacity="0"
     inkscape:pageshadow="2"
     inkscape:window-width="1841"
     inkscape:window-height="1027"
     id="namedview30"
     showgrid="false"
     inkscape:zoom="2.1467231"
     inkscape:cx="-19.046734"
     inkscape:cy="122.50054"
     inkscape:window-x="79"
     inkscape:window-y="29"
     inkscape:window-maximized="1"
     inkscape:current-layer="svg28" />
  <title
     id="title2">walnut</title>
  <path
     d="M113.76 87.24c-1.054-.035-2.197.824-3.5 3.03l-7.344 2.532c-5.5 1.44-4.947 3.748-6.062 5.813l-7.313 2.78-6.06 9.095-7.844 6.312-4.78 5.563-9.345 12.375c-4.287.698-5.59 1.995-8.343 3-5.883 7.44-2.885 7.718-4.1 11.394-6.068-.284-8.636 6.432-12.953 9.648-17.864 13.152-12.688 10.65-8.196 10.802 3.883-.587 7.886.424 11.125-9.843 4.09-2.34 6.752-4.2 10.36-8.153.67.842 4.733 1.5 12.11 2.342 2.727-2.2 4.257-3.994-1-3.53l-5.064-.533 1-2c3.035-.958 1.84 2.744 10.874-4.813 3.137-.866 6.968-.497 7.563-5.812 1.852 2.19 4.72 1.373 8.593-2.5 3.672-.918 2.982-2.483 2.03-4.062-1.866.794-2.984-.29-6.062 3.53-3.08 2.525-2.98 1.99-1.832-2.696 5.16-.106 2.448-3.066 3.332-5.615 1.69-1.878 2.93-4.353 6.053-5.718 2.598 3.832 1.07-.666 1.68-.99 1.732-.93 3.89-1.818 6.675-2.637 3.32-1.25 8.225-4.385 7.813-1.28.36-2.855 2.688-5.54 5.062-5.032l-2.032 4.532 4.313-.5-1.03 3.28c2.02 3.03 3.39 2.347 4.063-2.03v-5.53c1.91.638 4.58 4.793 5.28 0 1.187-1.716 2.592-3.397 7.595-4.064l3.53-2.53c3.196 1.23 5.355 1.096 4.532-3.03l-3.782-.25c-2.186-.55-2.488-1.55-7.062-1.5 0 0-1.812 1.786-2.032 3.03-1.01 5.722-10.844 3.836-10.844 2.53 1.183-1.09 3.033-1.86 5.563-2.28 3.237-2.76.87-6.633-3.03-3.28l-2.54-1.78c.907-4.414 3.05-6.29 5.28-8.064-.72-.925-1.462-1.504-2.28-1.53zm-4.28 5.063c.07 3.37-.914 3.722-2 3.78l-2.782 2.532c-3.56.97-2.225-1.19-1.782-2.78l2.282-1.5c1.545-.825 5.278-4.35 4.28-2.032zm-1.25 7.312c1.198-.065 2.698-2.23 3.03 3.78l-5.063 5.314-6.562-.25c-1.798.036-1.536 1.723-1.75 3.03-1.497 1.06-2.786 1.36-3.28-1.25-2.858-.444-1.792.96-2.032 1.75-2.72 3.863-6.87 6.58-10.344 9.843-3.38 1.833-3.243.42-2.284-1.75 1.16-1.15 1.976-2.368 5.563-3.03l1.744-4.793c2.116-.447 3.713-1.588 4.317-4.05 1.447-1.632 3-2.502 4.783-1.782 4.366-1.01 5.356-3.708 7.593-5.782-.335-.372 5.1-2.238-.336 3.79l-2.194 1.992s3.837.533 4.09-1.803c.162-1.506 2.973-1.23 2.973-1.23zm-35.618 24.25c.716-.09 1.834 1.397 1.402 4.423l3.653-1.892c2.54.847-1.423 3.117-2.062 4.105-.692 1.07-1.528 4.02-1.97 2.21l-1-4.186c-1.076.497-1.874.297-2.618-.038-1.12-1.323-.31-2.793 2.595-4.62zm-3 8.09c3.54-1.91.624.68 3.03 3.28-.25.93.33 2.685-1.78 1.75-1.322-.02-2.285-.4-3.28-.75-1.138-3.787 2.03-4.28 2.03-4.28zm-10.625 7.063c1.437-.693 2.827-1.215 2.78 3.53-3.002 3.248-3.576 2.365-5.062 3.032-2.93 1.283-3.38-.09-4.03-1.25-.06-2.53.93-2.064 2.03-1.28l1.5-1.25c3.217.932 1.96-1.77 2.782-2.783z"
     stroke="#590000"
     stroke-opacity=".756"
     fill="#3f3f3f"
     id="path4" />
  <path
     d="M6.46 178.41c-2.333-.105 4.807-15.368 8.586-25.254-8.433-9.22-8.034-21.093-3.03-34.345-1.67-17.82 3.023-32.174 16.162-41.92C30.62 59.118 40.533 50.06 50.906 41.537c6.29-7.818 10.49-15.986 32.325-21.213C94.518 11.518 107.34 3.58 139.8 6.685c4.522 2.852 12.665 7.154 11.112 7.576 8.418 4.1 16.836 5.866 25.254 20.205 4.886 2.86 15.19.3 14.647 8.586l3.03 5.557c10.535 8.985 6.986 15.958 9.092 23.74 8.337 8.77 10.387 16.286 12.122 23.738 6.59 7.24 5.343 14.48 4.04 21.718 1.59 7.177-1.84 11.007-4.04 15.657-2.473 14.43-7.124 23.783-13.637 28.788-5.015 19.738-16.7 24.468-26.77 32.83-12.053 7.273-23.74 13.812-31.82 13.132-13.244 3.247-27.002 6.274-49.496 5.556-1.285-4.595-15.965-1.815-20.708-6.566-10.08-2.704-15.565-7.707-23.234-11.617-14.22-10.646-16.22-15.18-23.234-22.223-5.138-1.87-17.383 6.66-19.698 5.05z"
     stroke="#590000"
     stroke-linecap="round"
     stroke-width="2"
     fill="#bd6142"
     id="path6" />
  <path
     d="M17.06 151.14c6.75-13.093 18.22-25.11 27.87-35.975 17.57-19.785 36.3-37.02 58.34-48.735 28.6-15.203 61.215-21.973 88.043-21.86 3.854 1.177 2.972 2.356 1.516 3.534C79.38 63.234 22.79 153.064 7.47 176.384z"
     stroke="#590000"
     stroke-linecap="round"
     stroke-width="2"
     fill="#ec8d5d"
     id="path8" />
  <path
     d="M7.21 177.91S49.95 106.14 114.03 72.6c24.59-12.87 79.802-23.74 79.802-23.74 1.338 1.16 3.643-.1 3.788 4.042-53.217 8.36-103.47 34.8-159.72 100.41-9.204 10.736-24.765 23.29-30.69 24.595z"
     stroke="#590000"
     stroke-linecap="round"
     stroke-width="2"
     fill="#e18a59"
     id="path10" />
</svg>
