<?xml version="1.0" encoding="UTF-8" standalone="no"?>
<svg
   xmlns:dc="http://purl.org/dc/elements/1.1/"
   xmlns:cc="http://creativecommons.org/ns#"
   xmlns:rdf="http://www.w3.org/1999/02/22-rdf-syntax-ns#"
   xmlns:svg="http://www.w3.org/2000/svg"
   xmlns="http://www.w3.org/2000/svg"
   xmlns:sodipodi="http://sodipodi.sourceforge.net/DTD/sodipodi-0.dtd"
   xmlns:inkscape="http://www.inkscape.org/namespaces/inkscape"
   width="512"
   height="512"
   version="1.1"
   id="svg85"
   sodipodi:docname="entry_type__grape.svg"
   inkscape:version="0.92.1 r">
  <metadata
     id="metadata89">
    <rdf:RDF>
      <cc:Work
         rdf:about="">
        <dc:format>image/svg+xml</dc:format>
        <dc:type
           rdf:resource="http://purl.org/dc/dcmitype/StillImage" />
        <dc:title></dc:title>
      </cc:Work>
    </rdf:RDF>
  </metadata>
  <sodipodi:namedview
     pagecolor="#ffffff"
     bordercolor="#666666"
     borderopacity="1"
     objecttolerance="10"
     gridtolerance="10"
     guidetolerance="10"
     inkscape:pageopacity="0"
     inkscape:pageshadow="2"
     inkscape:window-width="1841"
     inkscape:window-height="1027"
     id="namedview87"
     showgrid="false"
     inkscape:zoom="0.46411013"
     inkscape:cx="51.60251"
     inkscape:cy="303.45121"
     inkscape:window-x="79"
     inkscape:window-y="29"
     inkscape:window-maximized="1"
     inkscape:current-layer="imagebot_2" />
  <defs
     id="defs12">
    <linearGradient
       id="imagebot_113"
       y2="1">
      <stop
         offset="0"
         stop-color="#e470e6"
         id="stop2" />
      <stop
         offset="1"
         stop-color="#a849a3"
         id="stop4" />
    </linearGradient>
    <linearGradient
       id="imagebot_114"
       y2="1">
      <stop
         offset="0"
         stop-color="#e470e6"
         id="stop7" />
      <stop
         offset="1"
         stop-color="#a849a3"
         id="stop9" />
    </linearGradient>
  </defs>
  <g
     id="imagebot_2"
     transform="translate(0,-505)">
    <title
       id="title79">imagebot_2</title>
    <g
       id="g5376"
       transform="matrix(0.48542047,0,0,0.48542047,114.58825,518.10863)">
      <path
         inkscape:connector-curvature="0"
         style="fill:#e470e6;fill-opacity:1;stroke:#000000;stroke-width:1.5;stroke-linecap:round;stroke-linejoin:round"
         id="imagebot_95"
         d="m 23.9747,1624.2697 c -14.8134,31.5117 -52.4545,45.0076 -84.0744,30.144 -31.6196,-14.8641 -45.2437,-52.4589 -30.4307,-83.9709 14.8134,-31.512 52.4546,-45.0078 84.0744,-30.144 31.6194,14.864 45.2437,52.4588 30.4307,83.9709 z"
         transform="translate(326.05,-737.483)" />
      <path
         style="fill:#666666"
         inkscape:connector-curvature="0"
         id="imagebot_94"
         d="m 22.0838,1623.3832 c 2.1308,-0.4202 -27.7108,53.7443 -80.9486,29.0171 -53.298,-24.7582 -31.2077,-81.7522 -30.2209,-80.1215 32.9744,74.1711 70.7646,80.9487 111.1695,51.1029 z"
         transform="translate(326.05,-737.483)" />
      <path
         inkscape:connector-curvature="0"
         style="fill:#e470e6;fill-opacity:1;stroke:#000000;stroke-width:1.5;stroke-linecap:round;stroke-linejoin:round"
         id="imagebot_93"
         d="m -30.1329,1566.9535 c -14.8134,31.5117 -52.4545,45.0079 -84.0744,30.1442 -31.6194,-14.8641 -45.2437,-52.4592 -30.4307,-83.9709 14.8133,-31.5121 52.4546,-45.0079 84.0744,-30.1442 31.6196,14.8637 45.2437,52.4593 30.4307,83.9709 z"
         transform="translate(326.05,-737.483)" />
      <path
         style="fill:#666666"
         inkscape:connector-curvature="0"
         id="imagebot_92"
         d="m -32.0237,1566.067 c 2.1308,-0.4202 -27.7108,53.7443 -80.9486,29.0171 -53.298,-24.7582 -31.2077,-81.7522 -30.2209,-80.1213 32.9744,74.171 70.7646,80.9487 111.1695,51.1028 z"
         transform="translate(326.05,-737.483)" />
      <path
         inkscape:connector-curvature="0"
         style="fill:#e470e6;fill-opacity:1;stroke:#000000;stroke-width:1.5;stroke-linecap:round;stroke-linejoin:round"
         id="imagebot_91"
         d="m 310.3106,1197.0062 c -1e-4,34.8203 -28.324,63.0476 -63.2633,63.0476 -34.9393,0 -63.2633,-28.2273 -63.2633,-63.0476 0,-34.8202 28.3239,-63.0477 63.2633,-63.0477 v 0 c 34.9394,0 63.2633,28.2275 63.2633,63.0477 z"
         transform="matrix(0.90499,0.42542,-0.42542,0.90499,484.41,-460.263)" />
      <path
         style="fill:#666666"
         inkscape:connector-curvature="0"
         id="imagebot_90"
         d="m 308.213,1197.0062 c 1.7497,-1.2867 -2.214,60.4271 -60.9116,60.6958 -58.7696,0.2687 -63.021,-60.7106 -61.4345,-59.6531 61.3961,53.094 98.4772,43.1523 122.3461,-1.0448 z"
         transform="matrix(0.90499,0.42542,-0.42542,0.90499,484.41,-460.263)" />
      <path
         inkscape:connector-curvature="0"
         style="fill:#e470e6;fill-opacity:1;stroke:#000000;stroke-width:1.5;stroke-linecap:round;stroke-linejoin:round"
         id="imagebot_88"
         d="m -103.4619,1423.6635 c -14.8133,31.5117 -52.4545,45.0076 -84.0743,30.144 -31.6195,-14.8641 -45.2438,-52.4589 -30.4307,-83.9709 14.8134,-31.512 52.4546,-45.0078 84.0744,-30.144 31.6194,14.864 45.2436,52.4588 30.4306,83.9709 z"
         transform="translate(326.05,-737.483)" />
      <path
         style="fill:#666666"
         inkscape:connector-curvature="0"
         id="imagebot_87"
         d="m -105.3528,1422.777 c 2.1308,-0.4198 -27.7108,53.7443 -80.9485,29.0171 -53.298,-24.7578 -31.2077,-81.7522 -30.2209,-80.1213 32.9745,74.171 70.7646,80.9486 111.1695,51.1028 z"
         transform="translate(326.05,-737.483)" />
      <path
         inkscape:connector-curvature="0"
         style="fill:#e470e6;fill-opacity:1;stroke:#000000;stroke-width:1.5;stroke-linecap:round;stroke-linejoin:round"
         id="imagebot_86"
         d="m 248.9146,1128.1447 c -1e-4,34.8202 -28.324,63.0475 -63.2633,63.0475 -34.9393,0 -63.2633,-28.2272 -63.2633,-63.0475 0,-34.8203 28.3239,-63.0477 63.2633,-63.0477 v 0 c 34.9394,-10e-5 63.2633,28.2273 63.2633,63.0477 z"
         transform="matrix(0.90499,0.42542,-0.42542,0.90499,470.97,-505.513)" />
      <path
         style="fill:#666666"
         inkscape:connector-curvature="0"
         id="imagebot_85"
         d="m 246.817,1128.1447 c 1.7497,-1.2869 -2.214,60.427 -60.9116,60.6957 -58.7696,0.2687 -63.021,-60.7104 -61.4345,-59.6531 61.3961,53.094 98.4772,43.1523 122.3461,-1.0448 z"
         transform="matrix(0.90499,0.42542,-0.42542,0.90499,470.97,-505.513)" />
      <path
         inkscape:connector-curvature="0"
         style="fill:#e470e6;fill-opacity:1;stroke:#000000;stroke-width:1.5;stroke-linecap:round;stroke-linejoin:round"
         id="imagebot_83"
         d="m 209.5035,1096.2655 c -1e-4,34.8203 -28.324,63.0476 -63.2633,63.0476 -34.9393,0 -63.2633,-28.2273 -63.2633,-63.0476 0,-34.8202 28.3239,-63.0476 63.2632,-63.0476 v 0 c 34.9395,0 63.2634,28.2274 63.2634,63.0476 z"
         transform="matrix(0.90499,0.42542,-0.42542,0.90499,459.66,-528.853)" />
      <path
         style="fill:#666666"
         inkscape:connector-curvature="0"
         id="imagebot_82"
         d="m 207.4059,1096.2655 c 1.7497,-1.2867 -2.214,60.4271 -60.9116,60.6958 -58.7696,0.2687 -63.021,-60.7106 -61.4345,-59.6531 61.3961,53.094 98.4772,43.1523 122.3461,-1.0448 z"
         transform="matrix(0.90499,0.42542,-0.42542,0.90499,459.66,-528.853)" />
      <path
         inkscape:connector-curvature="0"
         style="fill:#e470e6;fill-opacity:1;stroke:#000000;stroke-width:1.5;stroke-linecap:round;stroke-linejoin:round"
         id="imagebot_80"
         d="m 67.1695,1694.2239 c -14.8133,31.5117 -52.4546,45.0076 -84.0744,30.1442 -31.6196,-14.8641 -45.2437,-52.4592 -30.4307,-83.9709 14.8134,-31.5121 52.4545,-45.0079 84.0744,-30.1442 31.6195,14.8641 45.2437,52.4592 30.4307,83.9709 z"
         transform="translate(324.636,-730.412)" />
      <path
         style="fill:#666666"
         inkscape:connector-curvature="0"
         id="imagebot_79"
         d="m 65.2788,1693.3374 c 2.1308,-0.4202 -27.7108,53.7443 -80.9486,29.0171 -53.298,-24.7582 -31.2077,-81.7522 -30.2209,-80.1213 32.9744,74.171 70.7646,80.9487 111.1695,51.1028 z"
         transform="translate(324.636,-730.412)" />
      <path
         inkscape:connector-curvature="0"
         style="fill:#e470e6;fill-opacity:1;stroke:#000000;stroke-width:1.5;stroke-linecap:round;stroke-linejoin:round"
         id="imagebot_77"
         d="m 429.4594,1229.5841 c -1e-4,34.8203 -28.324,63.0475 -63.2633,63.0475 -34.9393,0 -63.2632,-28.2272 -63.2633,-63.0475 0,-34.8203 28.3239,-63.0477 63.2632,-63.0477 h 10e-5 c 34.9394,0 63.2633,28.2274 63.2633,63.0477 z"
         transform="matrix(0.90499,0.42542,-0.42542,0.90499,532.49,-419.243)" />
      <path
         style="fill:#666666"
         inkscape:connector-curvature="0"
         id="imagebot_76"
         d="m 427.3618,1229.5841 c 1.7497,-1.2867 -2.214,60.427 -60.9116,60.6958 -58.7696,0.2687 -63.0211,-60.7106 -61.4345,-59.6532 61.3961,53.094 98.4772,43.1523 122.3461,-1.0448 z"
         transform="matrix(0.90499,0.42542,-0.42542,0.90499,532.49,-419.243)" />
      <path
         inkscape:connector-curvature="0"
         style="fill:#e470e6;fill-opacity:1;stroke:#000000;stroke-width:1.5;stroke-linecap:round;stroke-linejoin:round"
         id="imagebot_74"
         d="m 365.4033,1194.0217 c -10e-5,34.8203 -28.324,63.0475 -63.2633,63.0475 -34.9393,0 -63.2632,-28.2272 -63.2633,-63.0475 -1e-4,-34.8203 28.3239,-63.0477 63.2633,-63.0477 v 0 c 34.9393,0 63.2633,28.2274 63.2633,63.0477 z"
         transform="matrix(0.90499,0.42542,-0.42542,0.90499,510.57,-449.653)" />
      <path
         style="fill:#666666"
         inkscape:connector-curvature="0"
         id="imagebot_73"
         d="m 363.3056,1194.0217 c 1.7497,-1.2869 -2.214,60.427 -60.9116,60.6957 -58.7696,0.2687 -63.021,-60.7104 -61.4345,-59.6531 61.3961,53.094 98.4772,43.1523 122.3461,-1.0448 z"
         transform="matrix(0.90499,0.42542,-0.42542,0.90499,510.57,-449.653)" />
      <path
         inkscape:connector-curvature="0"
         style="fill:#e470e6;fill-opacity:1;stroke:#000000;stroke-width:1.5;stroke-linecap:round;stroke-linejoin:round"
         id="imagebot_71"
         d="m 326.0005,1162.1604 c -10e-5,34.8202 -28.324,63.0475 -63.2633,63.0475 -34.9393,0 -63.2632,-28.2273 -63.2633,-63.0475 0,-34.8203 28.3239,-63.0477 63.2633,-63.0477 v 0 c 34.9394,0 63.2633,28.2274 63.2633,63.0477 z"
         transform="matrix(0.90499,0.42542,-0.42542,0.90499,499.26,-472.983)" />
      <path
         style="fill:#666666"
         inkscape:connector-curvature="0"
         id="imagebot_70"
         d="m 323.9029,1162.1604 c 1.7497,-1.2869 -2.214,60.427 -60.9116,60.6957 -58.7696,0.2687 -63.021,-60.7106 -61.4345,-59.6531 61.3961,53.094 98.4772,43.1523 122.3461,-1.0448 z"
         transform="matrix(0.90499,0.42542,-0.42542,0.90499,499.26,-472.983)" />
      <path
         inkscape:connector-curvature="0"
         style="fill:#e470e6;fill-opacity:1;stroke:#000000;stroke-width:1.5;stroke-linecap:round;stroke-linejoin:round"
         id="imagebot_68"
         d="m 438.6722,1180.9596 c -10e-5,34.8202 -28.324,63.0475 -63.2633,63.0475 -34.9393,0 -63.2633,-28.2273 -63.2633,-63.0475 -10e-5,-34.8203 28.3239,-63.0477 63.2632,-63.0477 h 1e-4 c 34.9394,0 63.2633,28.2274 63.2633,63.0477 z"
         transform="matrix(0.90499,0.42542,-0.42542,0.90499,547.34,-439.753)" />
      <path
         style="fill:#666666"
         inkscape:connector-curvature="0"
         id="imagebot_67"
         d="m 436.5746,1180.9596 c 1.7497,-1.2869 -2.2141,60.427 -60.9116,60.6957 -58.7696,0.2687 -63.021,-60.7104 -61.4345,-59.6531 61.3961,53.094 98.4772,43.1523 122.3462,-1.0448 v 0 z"
         transform="matrix(0.90499,0.42542,-0.42542,0.90499,547.34,-439.753)" />
      <path
         inkscape:connector-curvature="0"
         style="fill:#e470e6;fill-opacity:1;stroke:#000000;stroke-width:1.5;stroke-linecap:round;stroke-linejoin:round"
         id="imagebot_65"
         d="m 402.9187,1176.3864 c -10e-5,34.8203 -28.324,63.0475 -63.2633,63.0475 -34.9393,0 -63.2632,-28.2272 -63.2633,-63.0475 0,-34.8203 28.3239,-63.0477 63.2632,-63.0477 h 10e-5 c 34.9394,-10e-5 63.2633,28.2273 63.2633,63.0477 z"
         transform="matrix(0.90499,0.42542,-0.42542,0.90499,531.78,-449.653)" />
      <path
         style="fill:#666666"
         inkscape:connector-curvature="0"
         id="imagebot_64"
         d="m 400.8211,1176.3864 c 1.7497,-1.2867 -2.214,60.427 -60.9116,60.6958 -58.7696,0.2687 -63.021,-60.7106 -61.4345,-59.6532 61.3961,53.094 98.4772,43.1523 122.3461,-1.0448 z"
         transform="matrix(0.90499,0.42542,-0.42542,0.90499,531.78,-449.653)" />
      <path
         inkscape:connector-curvature="0"
         style="fill:#e470e6;fill-opacity:1;stroke:#000000;stroke-width:1.5;stroke-linecap:round;stroke-linejoin:round"
         id="imagebot_62"
         d="m 428.329,1123.2142 c -1e-4,34.8203 -28.324,63.0476 -63.2633,63.0476 -34.9393,0 -63.2633,-28.2273 -63.2633,-63.0476 -10e-5,-34.8202 28.3239,-63.0477 63.2632,-63.0477 v 0 c 34.9395,0 63.2634,28.2275 63.2634,63.0477 z"
         transform="matrix(0.90499,0.42542,-0.42542,0.90499,555.12,-468.743)" />
      <path
         style="fill:#666666"
         inkscape:connector-curvature="0"
         id="imagebot_61"
         d="m 426.2314,1123.2142 c 1.7497,-1.2867 -2.214,60.4271 -60.9116,60.6958 -58.7696,0.2687 -63.021,-60.7106 -61.4345,-59.6531 61.3961,53.094 98.4772,43.1523 122.3461,-1.0448 z"
         transform="matrix(0.90499,0.42542,-0.42542,0.90499,555.12,-468.743)" />
      <path
         inkscape:connector-curvature="0"
         style="fill:#e470e6;fill-opacity:1;stroke:#000000;stroke-width:1.5;stroke-linecap:round;stroke-linejoin:round"
         id="imagebot_59"
         d="m 407.7672,1053.4708 c -10e-5,34.8202 -28.324,63.0475 -63.2633,63.0475 -34.9393,0 -63.2632,-28.2273 -63.2633,-63.0475 -10e-5,-34.8203 28.3239,-63.0478 63.2632,-63.0478 v 0 c 34.9395,0 63.2634,28.2275 63.2634,63.0478 z"
         transform="matrix(0.90499,0.42542,-0.42542,0.90499,560.78,-505.513)" />
      <path
         style="fill:#666666"
         inkscape:connector-curvature="0"
         id="imagebot_58"
         d="m 405.6696,1053.4708 c 1.7497,-1.2869 -2.214,60.427 -60.9116,60.6957 -58.7696,0.2687 -63.021,-60.7106 -61.4345,-59.6531 61.3961,53.094 98.4772,43.1523 122.3461,-1.0448 z"
         transform="matrix(0.90499,0.42542,-0.42542,0.90499,560.78,-505.513)" />
      <path
         inkscape:connector-curvature="0"
         style="fill:#e470e6;fill-opacity:1;stroke:#000000;stroke-width:1.5;stroke-linecap:round;stroke-linejoin:round"
         id="imagebot_56"
         d="m 387.0801,1090.6874 c -1e-4,34.8203 -28.324,63.0476 -63.2633,63.0476 -34.9393,0 -63.2632,-28.2273 -63.2633,-63.0476 0,-34.8202 28.3239,-63.0477 63.2632,-63.0477 h 10e-5 c 34.9394,-10e-5 63.2633,28.2275 63.2633,63.0477 z"
         transform="matrix(0.90499,0.42542,-0.42542,0.90499,543.1,-492.783)" />
      <path
         style="fill:#666666"
         inkscape:connector-curvature="0"
         id="imagebot_55"
         d="m 384.9825,1090.6874 c 1.7497,-1.2867 -2.214,60.4271 -60.9116,60.6958 -58.7696,0.2687 -63.0211,-60.7106 -61.4345,-59.6531 61.3961,53.094 98.4772,43.1523 122.3461,-1.0448 z"
         transform="matrix(0.90499,0.42542,-0.42542,0.90499,543.1,-492.783)" />
      <path
         inkscape:connector-curvature="0"
         style="fill:#e470e6;fill-opacity:1;stroke:#000000;stroke-width:1.5;stroke-linecap:round;stroke-linejoin:round"
         id="imagebot_53"
         d="m 362.7183,1126.5648 c -10e-5,34.8203 -28.324,63.0475 -63.2633,63.0475 -34.9393,0 -63.2632,-28.2272 -63.2633,-63.0475 -1e-4,-34.8203 28.3239,-63.0477 63.2633,-63.0477 v 0 c 34.9393,0 63.2633,28.2274 63.2633,63.0477 z"
         transform="matrix(0.90499,0.42542,-0.42542,0.90499,524.01,-481.473)" />
      <path
         style="fill:#666666"
         inkscape:connector-curvature="0"
         id="imagebot_52"
         d="m 360.6206,1126.5648 c 1.7497,-1.2867 -2.214,60.427 -60.9116,60.6958 -58.7696,0.2687 -63.021,-60.7106 -61.4345,-59.6532 61.3961,53.094 98.4772,43.1523 122.3461,-1.0448 z"
         transform="matrix(0.90499,0.42542,-0.42542,0.90499,524.01,-481.473)" />
      <path
         inkscape:connector-curvature="0"
         style="fill:#e470e6;fill-opacity:1;stroke:#000000;stroke-width:1.5;stroke-linecap:round;stroke-linejoin:round"
         id="imagebot_50"
         d="m 304.025,1125.1517 c -10e-5,34.8203 -28.324,63.0476 -63.2633,63.0476 -34.9393,0 -63.2632,-28.2273 -63.2633,-63.0476 0,-34.8202 28.3239,-63.0477 63.2632,-63.0477 v 0 c 34.9395,0 63.2634,28.2275 63.2634,63.0477 z"
         transform="matrix(0.90499,0.42542,-0.42542,0.90499,497.14,-494.903)" />
      <path
         style="fill:#666666"
         inkscape:connector-curvature="0"
         id="imagebot_49"
         d="m 301.9274,1125.1517 c 1.7497,-1.2867 -2.214,60.4271 -60.9116,60.6958 -58.7696,0.2687 -63.021,-60.7106 -61.4345,-59.6531 61.3961,53.094 98.4772,43.1523 122.3461,-1.0448 z"
         transform="matrix(0.90499,0.42542,-0.42542,0.90499,497.14,-494.903)" />
      <path
         inkscape:connector-curvature="0"
         style="fill:#e470e6;fill-opacity:1;stroke:#000000;stroke-width:1.5;stroke-linecap:round;stroke-linejoin:round"
         id="imagebot_47"
         d="m -65.8579,1321.1447 c -14.8134,31.5121 -52.4546,45.0079 -84.0744,30.1442 -31.6195,-14.8641 -45.2437,-52.4589 -30.4307,-83.9709 14.8133,-31.5117 52.4545,-45.0076 84.0744,-30.1442 31.6196,14.864 45.2438,52.4589 30.4307,83.9709 z"
         transform="translate(326.05,-737.483)" />
      <path
         style="fill:#666666"
         inkscape:connector-curvature="0"
         id="imagebot_46"
         d="m -67.7487,1320.2582 c 2.1308,-0.4202 -27.7108,53.7443 -80.9486,29.0171 -53.298,-24.7578 -31.2077,-81.7522 -30.2209,-80.1213 32.9745,74.1681 70.7646,80.9487 111.1695,51.1029 z"
         transform="translate(326.05,-737.483)" />
      <path
         inkscape:connector-curvature="0"
         style="fill:#e470e6;fill-opacity:1;stroke:#000000;stroke-width:1.5;stroke-linecap:round;stroke-linejoin:round"
         id="imagebot_45"
         d="m 328.1534,1072.5607 c -10e-5,34.8202 -28.324,63.0475 -63.2633,63.0475 -34.9393,0 -63.2633,-28.2272 -63.2633,-63.0475 0,-34.8203 28.3239,-63.0477 63.2632,-63.0477 h 1e-4 c 34.9394,-1e-4 63.2633,28.2274 63.2633,63.0477 z"
         transform="matrix(0.90499,0.42542,-0.42542,0.90499,519.76,-514.003)" />
      <path
         style="fill:#666666"
         inkscape:connector-curvature="0"
         id="imagebot_44"
         d="m 326.0558,1072.5607 c 1.7497,-1.2869 -2.214,60.427 -60.9116,60.6957 -58.7696,0.2687 -63.021,-60.7104 -61.4345,-59.6531 61.3961,53.094 98.4772,43.1523 122.3461,-1.0448 z"
         transform="matrix(0.90499,0.42542,-0.42542,0.90499,519.76,-514.003)" />
      <path
         inkscape:connector-curvature="0"
         style="fill:#e470e6;fill-opacity:1;stroke:#000000;stroke-width:1.5;stroke-linecap:round;stroke-linejoin:round"
         id="imagebot_42"
         d="m 358.4942,1020.1375 c -10e-5,34.8203 -28.324,63.0475 -63.2633,63.0475 -34.9393,0 -63.2632,-28.2273 -63.2633,-63.0475 -1e-4,-34.8202 28.3239,-63.0477 63.2633,-63.0477 v 0 c 34.9394,0 63.2633,28.2274 63.2633,63.0477 z"
         transform="matrix(0.90499,0.42542,-0.42542,0.90499,545.22,-531.673)" />
      <path
         style="fill:#666666"
         inkscape:connector-curvature="0"
         id="imagebot_41"
         d="m 356.3965,1020.1375 c 1.7497,-1.2868 -2.214,60.4271 -60.9116,60.6957 -58.7696,0.2687 -63.021,-60.7105 -61.4345,-59.6531 61.3961,53.094 98.4772,43.1523 122.3461,-1.0448 z"
         transform="matrix(0.90499,0.42542,-0.42542,0.90499,545.22,-531.673)" />
      <path
         inkscape:connector-curvature="0"
         style="fill:#e470e6;fill-opacity:1;stroke:#000000;stroke-width:1.5;stroke-linecap:round;stroke-linejoin:round"
         id="imagebot_39"
         d="m 178.7145,1040.5081 c -10e-5,34.8203 -28.324,63.0476 -63.2633,63.0476 -34.9393,0 -63.2633,-28.2273 -63.2633,-63.0476 0,-34.8203 28.3239,-63.0477 63.2632,-63.0477 v 0 c 34.9395,-1e-4 63.2634,28.2274 63.2634,63.0477 z"
         transform="matrix(0.90499,0.42542,-0.42542,0.90499,457.54,-561.373)" />
      <path
         style="fill:#666666"
         inkscape:connector-curvature="0"
         id="imagebot_38"
         d="m 176.6169,1040.5081 c 1.7497,-1.2867 -2.214,60.4271 -60.9116,60.6958 -58.7696,0.2687 -63.021,-60.7106 -61.4345,-59.6532 61.3961,53.094 98.4772,43.1523 122.3461,-1.0448 z"
         transform="matrix(0.90499,0.42542,-0.42542,0.90499,457.54,-561.373)" />
      <path
         inkscape:connector-curvature="0"
         style="fill:#e470e6;fill-opacity:1;stroke:#000000;stroke-width:1.5;stroke-linecap:round;stroke-linejoin:round"
         id="imagebot_36"
         d="m 230.2565,1055.9729 c -10e-5,34.8203 -28.324,63.0476 -63.2633,63.0476 -34.9393,0 -63.2633,-28.2273 -63.2633,-63.0476 0,-34.8203 28.3239,-63.0477 63.2633,-63.0477 v 0 c 34.9394,0 63.2633,28.2274 63.2633,63.0477 z"
         transform="matrix(0.90499,0.42542,-0.42542,0.90499,478.04,-542.993)" />
      <path
         style="fill:#666666"
         inkscape:connector-curvature="0"
         id="imagebot_35"
         d="m 228.1589,1055.9729 c 1.7497,-1.2867 -2.214,60.4271 -60.9116,60.6958 -58.7696,0.2687 -63.021,-60.7106 -61.4345,-59.6532 61.3961,53.094 98.4772,43.1523 122.3461,-1.0448 z"
         transform="matrix(0.90499,0.42542,-0.42542,0.90499,478.04,-542.993)" />
      <path
         inkscape:connector-curvature="0"
         style="fill:#e470e6;fill-opacity:1;stroke:#000000;stroke-width:1.5;stroke-linecap:round;stroke-linejoin:round"
         id="imagebot_33"
         d="m 292.9416,1046.3527 c -10e-5,34.8203 -28.324,63.0475 -63.2633,63.0475 -34.9393,0 -63.2633,-28.2272 -63.2633,-63.0475 0,-34.8203 28.3239,-63.0477 63.2633,-63.0477 v 0 c 34.9393,-10e-5 63.2633,28.2273 63.2633,63.0477 z"
         transform="matrix(0.90499,0.42542,-0.42542,0.90499,509.16,-533.803)" />
      <path
         style="fill:#666666"
         inkscape:connector-curvature="0"
         id="imagebot_32"
         d="m 290.8439,1046.3527 c 1.7497,-1.2867 -2.214,60.427 -60.9116,60.6958 -58.7696,0.2687 -63.021,-60.7106 -61.4345,-59.6532 61.3961,53.094 98.4772,43.1523 122.3461,-1.0448 z"
         transform="matrix(0.90499,0.42542,-0.42542,0.90499,509.16,-533.803)" />
      <path
         inkscape:connector-curvature="0"
         style="fill:#e470e6;fill-opacity:1;stroke:#000000;stroke-width:1.5;stroke-linecap:round;stroke-linejoin:round"
         id="imagebot_30"
         d="m 302.2201,994.6521 c -10e-5,34.8203 -28.324,63.0475 -63.2633,63.0475 -34.9393,0 -63.2632,-28.2272 -63.2633,-63.0475 -1e-4,-34.8203 28.3239,-63.0477 63.2632,-63.0477 v 0 c 34.9395,0 63.2634,28.2274 63.2634,63.0477 z"
         transform="matrix(0.90499,0.42542,-0.42542,0.90499,524.71,-555.723)" />
      <path
         style="fill:#666666"
         inkscape:connector-curvature="0"
         id="imagebot_29"
         d="m 300.1225,994.6521 c 1.7497,-1.2868 -2.214,60.427 -60.9116,60.6957 -58.7696,0.2688 -63.021,-60.7104 -61.4345,-59.6531 61.3961,53.094 98.4772,43.1523 122.3461,-1.0448 z"
         transform="matrix(0.90499,0.42542,-0.42542,0.90499,524.71,-555.723)" />
      <path
         inkscape:connector-curvature="0"
         style="fill:#e470e6;fill-opacity:1;stroke:#000000;stroke-width:1.5;stroke-linecap:round;stroke-linejoin:round"
         id="imagebot_27"
         d="m 388.9505,987.4854 c -10e-5,34.8203 -28.324,63.0475 -63.2633,63.0475 -34.9393,0 -63.2632,-28.2272 -63.2633,-63.0475 0,-34.8203 28.3239,-63.0477 63.2633,-63.0477 v 0 c 34.9394,-10e-5 63.2633,28.2274 63.2633,63.0477 z"
         transform="matrix(0.90499,0.42542,-0.42542,0.90499,566.43,-540.163)" />
      <path
         style="fill:#666666"
         inkscape:connector-curvature="0"
         id="imagebot_26"
         d="m 386.8529,987.4854 c 1.7497,-1.2868 -2.214,60.4271 -60.9116,60.6958 -58.7696,0.2687 -63.021,-60.7106 -61.4345,-59.6531 61.3961,53.0939 98.4772,43.1523 122.3461,-1.0448 z"
         transform="matrix(0.90499,0.42542,-0.42542,0.90499,566.43,-540.163)" />
      <path
         inkscape:connector-curvature="0"
         style="fill:#e470e6;fill-opacity:1;stroke:#000000;stroke-width:1.5;stroke-linecap:round;stroke-linejoin:round"
         id="imagebot_24"
         d="m 338.3559,957.8184 c -1e-4,34.8203 -28.324,63.0475 -63.2633,63.0475 -34.9393,0 -63.2632,-28.2272 -63.2633,-63.0475 0,-34.8203 28.3239,-63.0477 63.2633,-63.0477 v 0 c 34.9394,0 63.2633,28.2275 63.2633,63.0477 z"
         transform="matrix(0.90499,0.42542,-0.42542,0.90499,549.46,-564.913)" />
      <path
         style="fill:#666666"
         inkscape:connector-curvature="0"
         id="imagebot_23"
         d="m 336.2582,957.8184 c 1.7497,-1.2868 -2.214,60.4271 -60.9116,60.6957 -58.7696,0.2687 -63.021,-60.7105 -61.4346,-59.6531 61.3961,53.094 98.4772,43.1523 122.3461,-1.0448 v 0.002 z"
         transform="matrix(0.90499,0.42542,-0.42542,0.90499,549.46,-564.913)" />
      <path
         inkscape:connector-curvature="0"
         style="fill:#e470e6;fill-opacity:1;stroke:#000000;stroke-width:1.5;stroke-linecap:round;stroke-linejoin:round"
         id="imagebot_21"
         d="m 276.3532,939.6259 c -1e-4,34.8203 -28.324,63.0475 -63.2633,63.0475 -34.9393,0 -63.2632,-28.2272 -63.2633,-63.0475 0,-34.8203 28.3239,-63.0477 63.2632,-63.0477 v 0 c 34.9395,-1e-4 63.2634,28.2274 63.2634,63.0477 z"
         transform="matrix(0.90499,0.42542,-0.42542,0.90499,524.71,-586.833)" />
      <path
         style="fill:#666666"
         inkscape:connector-curvature="0"
         id="imagebot_20"
         d="m 274.2556,939.6259 c 1.7497,-1.2868 -2.214,60.4271 -60.9116,60.6957 -58.7696,0.2687 -63.021,-60.7105 -61.4345,-59.6531 61.3961,53.094 98.4772,43.1523 122.3461,-1.0448 z"
         transform="matrix(0.90499,0.42542,-0.42542,0.90499,524.71,-586.833)" />
      <path
         inkscape:connector-curvature="0"
         style="fill:#e470e6;fill-opacity:1;stroke:#000000;stroke-width:1.5;stroke-linecap:round;stroke-linejoin:round"
         id="imagebot_18"
         d="m 189.7728,966.5906 c -1e-4,34.8203 -28.324,63.0475 -63.2633,63.0475 -34.9393,0 -63.2633,-28.2272 -63.2633,-63.0475 0,-34.8203 28.3239,-63.0477 63.2633,-63.0477 v 0 c 34.9393,0 63.2633,28.2275 63.2633,63.0477 z"
         transform="matrix(0.90499,0.42542,-0.42542,0.90499,478.75,-593.193)" />
      <path
         style="fill:#666666"
         inkscape:connector-curvature="0"
         id="imagebot_17"
         d="m 187.6751,966.5906 c 1.7497,-1.2868 -2.214,60.4271 -60.9116,60.6957 -58.7696,0.2687 -63.021,-60.7105 -61.4345,-59.6531 61.3961,53.094 98.4772,43.1523 122.3461,-1.0448 z"
         transform="matrix(0.90499,0.42542,-0.42542,0.90499,478.75,-593.193)" />
      <path
         inkscape:connector-curvature="0"
         style="fill:none;fill-opacity:1;stroke:#3f7f00;stroke-width:3"
         id="imagebot_15"
         d="m -96.6135,1072.3811 c 0,0 -4.4609,-120.2782 89.2151,-160.3726 93.6763,-40.0916 111.5211,-26.7284 169.5137,17.8189 57.9897,44.547 93.6763,22.2733 93.6763,22.2733"
         transform="translate(326.05,-737.483)" />
      <path
         inkscape:connector-curvature="0"
         style="fill:#e470e6;fill-opacity:1;stroke:#000000;stroke-width:1.5;stroke-linecap:round;stroke-linejoin:round"
         id="imagebot_14"
         d="m 230.3238,926.1481 c -1e-4,34.8203 -28.324,63.0475 -63.2633,63.0475 -34.9393,0 -63.2632,-28.2272 -63.2633,-63.0475 0,-34.8203 28.3239,-63.0477 63.2632,-63.0477 v 0 c 34.9394,0 63.2634,28.2274 63.2634,63.0477 z"
         transform="matrix(0.90499,0.42542,-0.42542,0.90499,506.33,-603.093)" />
      <path
         style="fill:#666666"
         inkscape:connector-curvature="0"
         id="imagebot_13"
         d="m 228.2261,926.1481 c 1.7497,-1.2868 -2.214,60.4271 -60.9116,60.6957 -58.7696,0.2687 -63.021,-60.7106 -61.4345,-59.6531 61.3961,53.094 98.4772,43.1523 122.3461,-1.0448 z"
         transform="matrix(0.90499,0.42542,-0.42542,0.90499,506.33,-603.093)" />
      <path
         inkscape:connector-curvature="0"
         style="fill:#007f3f;stroke:none;stroke-width:1.5;stroke-linecap:round;stroke-linejoin:round"
         id="imagebot_8"
         d="m -94.8497,800.5731 c 9.9059,-16.4041 2.9508,-54.8875 2.9508,-54.8875 0,0 -17.6823,6.1765 -31.6863,15.5165 -10.9615,-12.8734 -26.6989,-23.7195 -26.6989,-23.7195 0,0 -8.2517,16.8971 -11.655,33.4 -16.8704,-1.246 -35.7162,2.3237 -35.7162,2.3237 0,0 6.0132,17.7198 15.2038,31.7187 -12.8973,11.1109 -23.8124,27.0054 -23.8124,27.0054 0,0 16.7558,8.1626 33.1576,11.4564 -1.3685,16.9595 2.0415,35.8669 2.0415,35.8669 0,0 40.6294,-14.1865 47.4866,-32.0793 4.239,-11.0608 1.4355,-28.2446 -8.5167,-34.2685 -0.0375,-0.1919 -0.0801,-0.3744 -0.1247,-0.5626 0.0963,-0.1655 0.2222,-0.3163 0.3193,-0.4825 0.1867,-0.0444 0.3735,-0.0797 0.5599,-0.1298 0.2239,0.1508 0.4553,0.2982 0.6903,0.4363 10.1231,5.9075 26.6348,-0.1389 34.2242,-9.3364 0.5736,-0.6918 1.1002,-1.4455 1.5861,-2.253 z"
         transform="translate(326.05,-737.483)" />
      <path
         inkscape:connector-curvature="0"
         style="fill:#007f3f;stroke:none;stroke-width:1.5;stroke-linecap:round;stroke-linejoin:round"
         id="imagebot_7"
         d="m -237.6583,898.9559 c -9.6202,-18.1125 -48.7807,-32.8623 -48.7807,-32.8623 0,0 -4.044,19.6384 -3.1618,37.6337 -17.8433,2.9995 -36.4489,11.4989 -36.4489,11.4989 0,0 10.981,16.8629 24.2654,29.0557 -10.4141,14.8148 -17.4906,34.0911 -17.4906,34.0911 0,0 19.5743,4.2087 37.477,3.4554 3.1164,17.9527 11.7137,36.7119 11.7137,36.7119 0,0 16.702,-10.9092 28.7372,-24.1689 14.8212,10.5739 34.0558,17.8273 34.0558,17.8273 0,0 9.2976,-45.1201 -3.3648,-61.2483 -7.8275,-9.9705 -25.1464,-16.834 -36.1446,-10.9998 -0.1918,-0.0677 -0.3885,-0.1331 -0.5846,-0.1951 -0.0981,-0.1774 -0.1672,-0.3787 -0.2677,-0.5579 0.0641,-0.1951 0.1229,-0.392 0.1846,-0.5872 0.2656,-0.1212 0.5242,-0.2543 0.7799,-0.3964 10.9864,-6.0557 14.5089,-24.5447 10.2312,-36.573 -0.3199,-0.907 -0.7229,-1.8047 -1.1971,-2.6948 z"
         transform="translate(326.05,-737.483)" />
      <path
         style="fill:none;stroke:#3f7f00;stroke-width:2"
         inkscape:connector-curvature="0"
         id="imagebot_6"
         d="m -56.1171,942.3859 c 0,0 -35.6866,-17.8189 -84.7568,-22.2737 -49.0702,-4.4543 -107.0628,17.819 -107.0628,17.819"
         transform="translate(326.05,-737.483)" />
      <path
         style="fill:none;stroke:#3f7f00;stroke-width:2"
         inkscape:connector-curvature="0"
         id="imagebot_5"
         d="m -118.568,919.9323 c 0,0 26.7648,4.4551 40.1478,-40.0916 13.3827,-44.5469 -49.0702,-66.8203 -49.0702,-66.8203"
         transform="translate(326.05,-737.483)" />
      <path
         inkscape:connector-curvature="0"
         style="fill:#7fff00;stroke:none;stroke-width:1.5;stroke-linecap:round;stroke-linejoin:round"
         id="imagebot_4"
         d="m -250.126,918.7504 c -5.2326,-9.9113 -26.5332,-17.9823 -26.5332,-17.9823 0,0 -2.1996,10.7463 -1.7198,20.5938 -9.7053,1.6413 -19.826,6.2922 -19.826,6.2922 0,0 5.9727,9.2275 13.1987,15.8995 -5.6646,8.1067 -9.5136,18.6542 -9.5136,18.6542 0,0 10.6469,2.3031 20.3853,1.8909 1.695,9.8237 6.3715,20.0888 6.3715,20.0888 0,0 9.0846,-5.9698 15.631,-13.2253 8.0615,5.7859 18.524,9.7552 18.524,9.7552 0,0 5.0571,-24.69 -1.8302,-33.5151 -4.2576,-5.4559 -13.6779,-9.2117 -19.6606,-6.0192 -0.1043,-0.0353 -0.2113,-0.0739 -0.318,-0.1064 -0.0535,-0.0974 -0.091,-0.2067 -0.1457,-0.3055 0.0349,-0.1064 0.0671,-0.2156 0.1004,-0.321 0.1445,-0.0649 0.2851,-0.1389 0.4242,-0.2156 5.9756,-3.3137 7.8919,-13.4313 5.565,-20.0131 -0.174,-0.4959 -0.3932,-0.9875 -0.6511,-1.4747 z"
         transform="translate(326.05,-737.483)" />
      <path
         inkscape:connector-curvature="0"
         style="fill:#7fff00;stroke:none;stroke-width:1.5;stroke-linecap:round;stroke-linejoin:round"
         id="imagebot_3"
         d="m -119.0791,804.1186 c 5.3815,-8.9607 1.603,-29.9814 1.603,-29.9814 0,0 -9.6058,3.3738 -17.2134,8.476 -5.955,-7.0319 -14.5039,-12.9563 -14.5039,-12.9563 0,0 -4.4828,9.2297 -6.3313,18.2449 -9.1649,-0.6805 -19.4026,1.2691 -19.4026,1.2691 0,0 3.2667,9.6794 8.2594,17.3256 -7.0064,6.0698 -12.936,14.7516 -12.936,14.7516 0,0 9.1026,4.4587 18.0123,6.2576 -0.7435,9.2643 1.109,19.5922 1.109,19.5922 0,0 22.072,-7.7493 25.7972,-17.5232 2.3028,-6.042 0.7798,-15.4282 -4.6267,-18.7184 -0.0207,-0.1035 -0.0437,-0.2038 -0.0679,-0.3073 0.0523,-0.0916 0.1208,-0.1713 0.1734,-0.2629 0.1013,-0.0296 0.203,-0.0444 0.3042,-0.071 0.1217,0.0826 0.2473,0.1627 0.375,0.2394 5.4994,3.2271 14.469,-0.0739 18.5925,-5.0999 0.3116,-0.378 0.5977,-0.7899 0.8617,-1.2309 z"
         transform="translate(326.05,-737.483)" />
      <g
         style="fill:#e470e6;fill-opacity:1"
         id="imagebot_115"
         transform="translate(1.95313,7.8125)">
        <path
           inkscape:connector-curvature="0"
           style="fill:#e470e6;fill-opacity:1;stroke:#000000;stroke-width:1.5;stroke-linecap:round;stroke-linejoin:round"
           id="imagebot_11"
           d="m 283.15881,414.52937 c -14.81334,31.51198 -52.4546,45.00776 -84.07432,30.14388 -31.61972,-14.86387 -45.24415,-52.45876 -30.43099,-83.97083 14.81326,-31.51202 52.4546,-45.00798 84.07432,-30.14411 v 0 c 31.6199,14.86397 45.2442,52.45913 30.43099,83.97106 z" />
        <path
           inkscape:connector-curvature="0"
           style="fill:#e470e6;fill-opacity:1"
           id="imagebot_10"
           d="m 228.6416,985.5151 c 1.7497,-1.2868 -2.214,60.4271 -60.9116,60.6958 -58.7696,0.2687 -63.021,-60.7106 -61.4345,-59.6531 61.3961,53.0939 98.4772,43.1523 122.3461,-1.0448 z"
           transform="matrix(0.90499,0.42542,-0.42542,0.90499,493.6,-575.513)" />
      </g>
    </g>
  </g>
</svg>
