<?xml version="1.0" encoding="UTF-8" standalone="no"?>
<!-- Created with Inkscape (http://www.inkscape.org/) -->

<svg
   xmlns:dc="http://purl.org/dc/elements/1.1/"
   xmlns:cc="http://creativecommons.org/ns#"
   xmlns:rdf="http://www.w3.org/1999/02/22-rdf-syntax-ns#"
   xmlns:svg="http://www.w3.org/2000/svg"
   xmlns="http://www.w3.org/2000/svg"
   xmlns:xlink="http://www.w3.org/1999/xlink"
   xmlns:sodipodi="http://sodipodi.sourceforge.net/DTD/sodipodi-0.dtd"
   xmlns:inkscape="http://www.inkscape.org/namespaces/inkscape"
   width="512"
   height="512"
   viewBox="0 0 512 512"
   version="1.1"
   id="svg8"
   inkscape:version="0.92.1 r"
   sodipodi:docname="entry_type__raddish.svg">
  <defs
     id="defs2">
    <clipPath
       clipPathUnits="userSpaceOnUse"
       id="clipPath5511">
      <use
         x="0"
         y="0"
         xlink:href="#g5507"
         id="use5513"
         width="100%"
         height="100%" />
    </clipPath>
  </defs>
  <sodipodi:namedview
     id="base"
     pagecolor="#ffffff"
     bordercolor="#666666"
     borderopacity="1.0"
     inkscape:pageopacity="0.0"
     inkscape:pageshadow="2"
     inkscape:zoom="0.7"
     inkscape:cx="375.87935"
     inkscape:cy="341.05172"
     inkscape:document-units="px"
     inkscape:current-layer="g257"
     showgrid="false"
     units="px"
     scale-x="1"
     inkscape:window-width="1841"
     inkscape:window-height="1027"
     inkscape:window-x="79"
     inkscape:window-y="29"
     inkscape:window-maximized="1" />
  <metadata
     id="metadata5">
    <rdf:RDF>
      <cc:Work
         rdf:about="">
        <dc:format>image/svg+xml</dc:format>
        <dc:type
           rdf:resource="http://purl.org/dc/dcmitype/StillImage" />
        <dc:title></dc:title>
        <dc:creator>
          <cc:Agent>
            <dc:title>Gregor Santner</dc:title>
          </cc:Agent>
        </dc:creator>
      </cc:Work>
    </rdf:RDF>
  </metadata>
  <g
     inkscape:label="Ebene 1"
     inkscape:groupmode="layer"
     id="layer1"
     transform="translate(0,-161.53335)">
    <text
       xml:space="preserve"
       style="font-style:normal;font-weight:normal;font-size:40px;line-height:1.25;font-family:sans-serif;letter-spacing:0px;word-spacing:0px;fill:#000000;fill-opacity:1;stroke:none"
       x="118.18785"
       y="334.1221"
       id="text3684"><tspan
         sodipodi:role="line"
         id="tspan3682"
         x="118.18785"
         y="369.51273" /></text>
    <g
       transform="matrix(3.7795284,0,0,3.7795284,-76.655539,191.95633)"
       id="g257">
      <g
         id="g5525"
         transform="matrix(8.9619766,0,0,8.9619766,-309.05053,-394.51933)">
        <path
           id="path243"
           d="m 48.282,45.31 c 0.004,0.276 -0.88,1.226 -1.886,2.208 -0.245,0.238 -0.473,0.455 -0.685,0.65 1.912,-1.07 1.46,-0.42 0.208,0.42 l -0.334,0.22 c 0.158,-0.028 0.326,-0.052 0.5,-0.074 0.98,-0.12 1.79,-0.098 1.807,0.047 0.02,0.143 -0.824,0.293 -1.776,0.41 l 0.125,0.02 c 0.952,0.142 1.685,0.376 1.637,0.52 -0.047,0.145 -0.928,0.06 -1.88,-0.083 -0.672,-0.1 -1.2,-0.204 -1.436,-0.306 -0.052,0.01 -0.09,0.005 -0.113,-0.016 -0.01,-0.01 -0.017,-0.025 -0.016,-0.045 -0.053,-0.017 -0.084,-0.037 -0.088,-0.066 0,-0.014 0.008,-0.03 0.023,-0.046 -0.023,0.005 -0.044,0.005 -0.062,-0.005 -0.053,-0.032 -0.056,-0.143 -0.02,-0.313 1.075,-0.5 0.13,-4.6 0.565,-4.91 0.247,-0.045 0.246,1.243 0.16,2.678 -0.177,0.574 0.203,0.68 0.04,0.967 0.047,-0.046 0.414,-0.41 1.034,-0.78 1.074,-1.048 2.053,-1.738 2.187,-1.542 0.01,0.013 0.01,0.035 0.012,0.046 z"
           inkscape:connector-curvature="0"
           style="fill:#d5dc92;stroke:#d5dc92;stroke-width:0.08368899" />
        <path
           id="path245"
           d="m 40.31,57.343 c 0.107,-0.094 1.64,-1.86 1.78,-1.852 3.146,-1.925 0.303,-1.654 -1.78,1.853 z"
           inkscape:connector-curvature="0"
           style="fill:#e60627;stroke:#e60627;stroke-width:0.06593678" />
        <g
           inkscape:label="Clip"
           id="g5507">
          <path
             sodipodi:nodetypes="ccccc"
             inkscape:connector-curvature="0"
             id="path5519"
             d="m 44.572,48.776 c -4.277,-1.625 -4.98,5.862 -1.855,6.226 2.565,2.04 7.758,-4.33 2.47,-5.935 -0.21,-0.114 -0.418,-0.216 -0.615,-0.29 z"
             style="fill:#de0015" />
        </g>
      </g>
    </g>
  </g>
</svg>
