<svg xmlns="http://www.w3.org/2000/svg" viewBox="0 0 512 512" width="512" height="512" id="svg5066"><style id="style5054">.a{fill:#faba00;}.b{fill:#fce94f;opacity:0.6;}</style><g id="g116"><path d="M269.98 180.4c11.1 98.34 19.6 115.92-23.52 123.76-41.06 7.45-37.2-22.67-73.28-88.3-41.27-75.1-10.88-102.6 25.48-112.32 33.7-9.07 62.2-4.45 71.32 76.9z" id="path102" fill="#eea01a"/><path d="M370.93 162.72c13.38 98.03 22.3 115.5-20.62 124.32-40.8 8.4-37.7-21.8-75.32-86.54-43.02-74.14-13.3-102.33 22.82-112.9 33.5-9.86 62.06-5.9 73.15 75.15z" id="path104" fill="#ffc022"/><path d="M420.55 234.1c17.77 130.32 29.66 153.48-27.4 165.22-54.24 11.18-50.13-28.98-100.1-115-57.23-98.53-17.7-136.03 30.33-150.12 44.5-13.05 82.47-7.8 97.17 99.87z" id="path106" fill="#eea01a"/><path d="M232.6 272.4c17.78 130.3 29.63 153.42-27.4 165.18-54.23 11.18-50.13-28.98-100.13-115-57.2-98.5-17.67-135.96 30.33-150.05 44.55-13.1 82.47-7.85 97.2 99.87z" id="path108" fill="#ffc022"/><path d="M270.07 207.36c57.6-16.4-23.22-120.9-56.67-157.65C192.32 26.5 73.86-4.1 87.55 31.5c10.42 26.87 32.05 32.87 22.98 62.86-6.22 20.44 66.05-53.9 88.78-22.6 30.98 42.58-13.23 159.5 31 146.92z" id="path110" fill="#797451"/><path d="M378.9 294.45c17.76 130.26 29.65 153.3-27.4 165.13-53.9 11.27-78.33-4.7-100.1-114.98-20.54-104.16-13.9-137.06 30.32-150.05 44.54-13.1 82.47-7.87 97.2 99.87z" id="path112" fill="#ffc022"/><path d="M281.47 328.58c48.53 122.23 29.66 153.3-27.4 165.12-53.9 11.28-78.32-4.68-100.1-114.97-20.53-104.16-13.88-137.06 30.33-150.02 44.2-12.9 58.3 2 97.2 99.9z" id="path114" fill="#eea01a"/></g></svg>