<svg xmlns="http://www.w3.org/2000/svg" viewBox="0 0 100 100" width="106.667" height="106.667"><path d="M14.46 3.47s57.143 49.643 76.786 86.786c-23.57-31.43-78.57-83.93-78.57-83.93zM22.674 10.26c-7.5 9.286-8.214 22.857-8.214 22.857" fill="#0f0"/><path d="M26.025 46.564c-2.514 6.11-9.654 8.965-15.946 6.376-6.294-2.59-9.357-9.642-6.843-15.752 2.514-6.11 9.654-8.965 15.947-6.376 6.293 2.59 9.355 9.642 6.84 15.752z" fill="#ff0000"/><path d="M20.754 52.86c-.376.91-1.493 1.316-2.496.903-1.004-.413-2.395.54-2.02-.372.376-.912 4.474-2.576 5.477-2.163 1.003.413-.586.72-.96 1.632z" fill="#800000"/><path d="M47.674 37.76c-7.5 7.4-8.214 18.214-8.214 18.214M70.53 60.64c-7.5 5.658-8.213 13.93-8.213 13.93M53.324 13.74c-10.99 2.96-18.526 12.972-18.526 12.972M72.252 41.24c-9.294 2.308-15.668 10.115-15.668 10.115M86.895 64.44c-6.752 1.412-11.383 6.187-11.383 6.187" fill="#0f0"/><path d="M48.733 67.31c-1.93 4.69-7.407 6.88-12.235 4.893-4.828-1.987-7.178-7.398-5.25-12.086 1.93-4.688 7.408-6.878 12.236-4.89 4.828 1.985 7.178 7.396 5.25 12.084z" fill="#ff0000"/><path d="M44.688 72.14c-.288.7-1.145 1.01-1.915.694-.77-.317-1.837.414-1.55-.286.29-.7 3.433-1.976 4.203-1.66.77.317-.45.553-.738 1.253z" fill="#800000"/><path d="M69.165 82.547c-1.48 3.6-5.688 5.282-9.396 3.757-3.708-1.526-5.513-5.68-4.032-9.282 1.482-3.6 5.688-5.282 9.396-3.756 3.708 1.525 5.513 5.68 4.03 9.28z" fill="#ff0000"/><path d="M66.06 86.256c-.222.537-.88.776-1.47.533-.593-.245-1.412.317-1.19-.22.22-.538 2.634-1.52 3.226-1.276.59.244-.346.425-.567.962z" fill="#800000"/><path d="M96.705 92.95c-1.22 2.966-4.686 4.35-7.74 3.095-3.055-1.257-4.54-4.68-3.32-7.646 1.22-2.967 4.685-4.352 7.74-3.096 3.053 1.257 4.54 4.68 3.32 7.646z" fill="#ff0000"/><path d="M94.146 96.005c-.182.443-.725.64-1.212.44s-1.162.26-.98-.182c.183-.442 2.17-1.25 2.658-1.05.487.2-.284.35-.466.792z" fill="#800000"/><g><path d="M71.448 13.414c1.668 5.782-1.808 11.86-7.762 13.578-5.954 1.717-12.133-1.578-13.8-7.36-1.667-5.782 1.808-11.86 7.762-13.578 5.954-1.717 12.133 1.578 13.8 7.36z" fill="#ff0000"/><path d="M71.253 20.89c.25.862-.32 1.783-1.268 2.057-.95.274-1.402 1.74-1.65.878-.25-.863 1.73-4.37 2.68-4.645.95-.273-.01.846.238 1.71z" fill="#800000"/></g><g><path d="M86 41.34c1.226 4.253-1.33 8.725-5.71 9.988s-8.926-1.16-10.153-5.414c-1.227-4.253 1.33-8.725 5.71-9.988S84.772 37.086 86 41.34z" fill="#ff0000"/><path d="M85.856 46.838c.183.635-.235 1.313-.933 1.514-.7.202-1.032 1.28-1.215.646-.183-.635 1.274-3.215 1.972-3.416.698-.202-.008.62.176 1.256z" fill="#800000"/></g><g><path d="M97.398 64.58c.927 3.214-1.005 6.592-4.314 7.547-3.31.954-6.744-.877-7.67-4.09-.927-3.214 1.004-6.593 4.314-7.548 3.31-.955 6.743.876 7.67 4.09z" fill="#ff0000"/><path d="M97.29 68.734c.138.48-.177.992-.705 1.144-.528.153-.78.968-.918.488s.963-2.43 1.49-2.58c.528-.153-.005.47.133.948z" fill="#800000"/></g></svg>
