<svg xmlns="http://www.w3.org/2000/svg" width="512" height="512" viewBox="0 0 512 512"><text style="line-height:1.25" x="118.188" y="334.122" font-size="40" font-family="sans-serif" letter-spacing="0" word-spacing="0" transform="translate(0 -161.533)"/><g fill="none"><path d="M332.09 293.18L125.128 176.622l56.365-91.64L387.486 202.03z" fill="#000"/><g transform="translate(544.875 218.96) scale(1.02103)"><path d="M-198.77-91.74c5.345 28.333-13.29 55.636-41.625 60.98-28.334 5.346-55.637-13.29-60.98-41.625-5.345-28.333 13.29-55.636 41.623-60.98 28.337-5.346 55.637 13.29 60.982 41.624z" fill="#1f1a3d"/><circle transform="translate(-288.052 -112.07)" cx="42.489" cy="42.489" r="42.489" fill="#34385f"/><circle transform="translate(-272.43 -86.88)" r="28.199" cx="28.199" cy="28.199" fill="#494b6b"/><circle transform="translate(-252.828 -55.81)" r="10.133" cx="10.133" cy="10.133" fill="#b1b7d9"/></g><g transform="translate(482.83 190.06) scale(1.02103)"><circle transform="translate(-302.283 -134.273)" r="55.69" cx="55.69" cy="55.69" fill="#1f1a3d"/><circle transform="translate(-288.053 -112.07)" cx="42.489" cy="42.489" r="42.489" fill="#34385f"/><circle transform="translate(-272.432 -86.88)" r="28.199" cx="28.199" cy="28.199" fill="#494b6b"/><circle transform="translate(-252.828 -55.813)" r="10.133" cx="10.133" cy="10.133" fill="#b1b7d9"/></g><g transform="translate(411.044 181.563) scale(1.02103)"><circle transform="translate(-302.283 -134.273)" r="55.689" cx="55.689" cy="55.689" fill="#1f1a3d"/><circle transform="translate(-288.053 -112.07)" cx="42.489" cy="42.489" r="42.489" fill="#34385f"/><circle transform="translate(-272.433 -86.882)" r="28.199" cx="28.199" cy="28.199" fill="#494b6b"/><circle transform="translate(-252.83 -55.814)" r="10.133" cx="10.133" cy="10.133" fill="#b1b7d9"/></g><g transform="translate(599.34 256.14) scale(1.02103)"><circle transform="translate(-302.283 -134.273)" r="55.689" cx="55.689" cy="55.689" fill="#1f1a3d"/><circle transform="translate(-288.053 -112.07)" cx="42.489" cy="42.489" r="42.489" fill="#34385f"/><circle transform="translate(-272.433 -86.88)" r="28.199" cx="28.199" cy="28.199" fill="#494b6b"/><circle transform="translate(-252.83 -55.814)" r="10.133" cx="10.133" cy="10.133" fill="#b1b7d9"/></g><g transform="translate(645.495 291.15) scale(1.02103)"><circle transform="translate(-302.283 -134.273)" r="55.689" cx="55.689" cy="55.689" fill="#1f1a3d"/><circle transform="translate(-288.055 -112.07)" cx="42.489" cy="42.489" r="42.489" fill="#34385f"/><circle transform="translate(-272.434 -86.88)" r="28.199" cx="28.199" cy="28.199" fill="#494b6b"/><circle transform="translate(-252.83 -55.814)" r="10.133" cx="10.133" cy="10.133" fill="#b1b7d9"/></g><g transform="translate(410.966 502.764) scale(1.02103)"><circle transform="translate(-302.283 -134.273)" r="55.687" cx="55.687" cy="55.687" fill="#1f1a3d"/><circle transform="translate(-288.054 -112.07)" cx="42.489" cy="42.489" r="42.489" fill="#34385f"/><circle transform="translate(-272.436 -86.884)" r="28.201" cx="28.201" cy="28.201" fill="#494b6b"/><circle transform="translate(-252.832 -55.814)" r="10.133" cx="10.133" cy="10.133" fill="#b1b7d9"/></g><g transform="translate(369.725 448.92) scale(1.02103)"><circle transform="translate(-302.283 -134.273)" r="55.689" cx="55.689" cy="55.689" fill="#1f1a3d"/><circle transform="translate(-288.054 -112.07)" cx="42.489" cy="42.489" r="42.489" fill="#34385f"/><circle transform="translate(-272.432 -86.88)" r="28.198" cx="28.198" cy="28.198" fill="#494b6b"/><circle transform="translate(-252.83 -55.813)" r="10.133" cx="10.133" cy="10.133" fill="#b1b7d9"/></g><g transform="translate(468.504 516.346) scale(1.02103)"><path d="M-198.77-91.74c5.346 28.334-13.288 55.637-41.624 60.98-28.335 5.346-55.637-13.29-60.982-41.625-5.343-28.333 13.29-55.637 41.625-60.98 28.335-5.346 55.636 13.29 60.98 41.625z" fill="#1f1a3d"/><circle transform="translate(-288.052 -112.07)" cx="42.489" cy="42.489" r="42.489" fill="#34385f"/><circle transform="translate(-272.43 -86.878)" r="28.198" cx="28.198" cy="28.198" fill="#494b6b"/><circle transform="translate(-252.827 -55.81)" r="10.133" cx="10.133" cy="10.133" fill="#b1b7d9"/></g><g transform="translate(367.19 380.435) scale(1.02103)"><path d="M-198.77-91.74c5.345 28.334-13.29 55.637-41.625 60.98-28.334 5.347-55.637-13.29-60.98-41.625-5.345-28.333 13.29-55.636 41.623-60.98 28.336-5.345 55.636 13.29 60.982 41.624z" fill="#1f1a3d"/><circle transform="translate(-288.052 -112.068)" cx="42.489" cy="42.489" r="42.489" fill="#34385f"/><circle transform="translate(-272.432 -86.88)" r="28.199" cx="28.199" cy="28.199" fill="#494b6b"/><circle transform="translate(-252.828 -55.81)" r="10.133" cx="10.133" cy="10.133" fill="#b1b7d9"/></g><g transform="translate(443.806 434.947) scale(1.02103)"><circle transform="translate(-302.283 -134.273)" r="55.687" cx="55.687" cy="55.687" fill="#1f1a3d"/><circle transform="translate(-288.054 -112.072)" cx="42.489" cy="42.489" r="42.489" fill="#34385f"/><circle transform="translate(-272.436 -86.884)" r="28.201" cx="28.201" cy="28.201" fill="#494b6b"/><circle transform="translate(-252.832 -55.815)" r="10.133" cx="10.133" cy="10.133" fill="#b1b7d9"/></g><g transform="translate(532.417 472.222) scale(1.02103)"><circle transform="translate(-302.283 -134.273)" r="55.689" cx="55.689" cy="55.689" fill="#1f1a3d"/><circle transform="translate(-288.053 -112.07)" cx="42.489" cy="42.489" r="42.489" fill="#34385f"/><circle transform="translate(-272.433 -86.882)" r="28.199" cx="28.199" cy="28.199" fill="#494b6b"/><circle transform="translate(-252.83 -55.815)" r="10.133" cx="10.133" cy="10.133" fill="#b1b7d9"/></g><g transform="translate(374.13 299.637) scale(1.02103)"><circle transform="translate(-302.283 -134.273)" r="55.69" cx="55.69" cy="55.69" fill="#1f1a3d"/><circle transform="translate(-288.053 -112.07)" cx="42.489" cy="42.489" r="42.489" fill="#34385f"/><circle transform="translate(-272.43 -86.88)" r="28.198" cx="28.198" cy="28.198" fill="#494b6b"/><circle transform="translate(-252.83 -55.812)" r="10.133" cx="10.133" cy="10.133" fill="#b1b7d9"/></g><g transform="translate(436.824 363.426) scale(1.02103)"><circle transform="translate(-302.283 -134.273)" r="55.689" cx="55.689" cy="55.689" fill="#1f1a3d"/><circle transform="translate(-288.053 -112.07)" cx="42.489" cy="42.489" r="42.489" fill="#34385f"/><circle transform="translate(-272.433 -86.88)" r="28.199" cx="28.199" cy="28.199" fill="#494b6b"/><circle transform="translate(-252.83 -55.814)" r="10.133" cx="10.133" cy="10.133" fill="#b1b7d9"/></g><g transform="translate(503.447 395.452) scale(1.02103)"><circle transform="translate(-302.283 -134.273)" r="55.687" cx="55.687" cy="55.687" fill="#1f1a3d"/><circle transform="translate(-288.054 -112.072)" cx="42.489" cy="42.489" r="42.489" fill="#34385f"/><circle transform="translate(-272.435 -86.884)" r="28.201" cx="28.201" cy="28.201" fill="#494b6b"/><circle transform="translate(-252.832 -55.815)" r="10.133" cx="10.133" cy="10.133" fill="#b1b7d9"/></g><g transform="translate(582.916 416.957) scale(1.02103)"><circle transform="translate(-302.283 -134.273)" r="55.687" cx="55.687" cy="55.687" fill="#1f1a3d"/><circle transform="translate(-288.054 -112.072)" cx="42.489" cy="42.489" r="42.489" fill="#34385f"/><circle transform="translate(-272.435 -86.884)" r="28.201" cx="28.201" cy="28.201" fill="#494b6b"/><circle transform="translate(-252.832 -55.816)" r="10.133" cx="10.133" cy="10.133" fill="#b1b7d9"/></g><g transform="translate(390.62 216.145) scale(1.02103)"><path d="M-198.77-91.74c5.345 28.334-13.29 55.637-41.625 60.98-28.335 5.347-55.637-13.29-60.98-41.624-5.345-28.333 13.29-55.636 41.623-60.98 28.337-5.347 55.637 13.29 60.982 41.624z" fill="#1f1a3d"/><circle transform="translate(-288.053 -112.07)" r="42.49" cx="42.49" cy="42.49" fill="#34385f"/><circle transform="translate(-272.43 -86.88)" r="28.199" cx="28.199" cy="28.199" fill="#494b6b"/><circle transform="translate(-252.828 -55.812)" r="10.133" cx="10.133" cy="10.133" fill="#b1b7d9"/></g><g transform="translate(422.463 284.374) scale(1.02103)"><circle transform="translate(-302.283 -134.273)" r="55.687" cx="55.687" cy="55.687" fill="#1f1a3d"/><circle transform="translate(-288.054 -112.07)" cx="42.489" cy="42.489" r="42.489" fill="#34385f"/><circle transform="translate(-272.436 -86.883)" r="28.201" cx="28.201" cy="28.201" fill="#494b6b"/><circle transform="translate(-252.832 -55.815)" r="10.133" cx="10.133" cy="10.133" fill="#b1b7d9"/></g><g transform="translate(479.84 316.983) scale(1.02103)"><circle transform="translate(-302.283 -134.273)" r="55.689" cx="55.689" cy="55.689" fill="#1f1a3d"/><circle transform="translate(-288.054 -112.07)" cx="42.489" cy="42.489" r="42.489" fill="#34385f"/><circle transform="translate(-272.434 -86.88)" r="28.199" cx="28.199" cy="28.199" fill="#494b6b"/><circle transform="translate(-252.83 -55.813)" r="10.133" cx="10.133" cy="10.133" fill="#b1b7d9"/></g><g transform="translate(547.872 349.97) scale(1.02103)"><circle transform="translate(-302.283 -134.273)" r="55.689" cx="55.689" cy="55.689" fill="#1f1a3d"/><circle transform="translate(-288.054 -112.07)" cx="42.489" cy="42.489" r="42.489" fill="#34385f"/><circle transform="translate(-272.434 -86.882)" r="28.199" cx="28.199" cy="28.199" fill="#494b6b"/><circle transform="translate(-252.83 -55.814)" r="10.133" cx="10.133" cy="10.133" fill="#b1b7d9"/></g><g transform="translate(626.2 347.636) scale(1.02103)"><circle transform="translate(-302.283 -134.273)" r="55.689" cx="55.689" cy="55.689" fill="#1f1a3d"/><circle transform="translate(-288.054 -112.07)" cx="42.489" cy="42.489" r="42.489" fill="#34385f"/><circle transform="translate(-272.434 -86.88)" r="28.199" cx="28.199" cy="28.199" fill="#494b6b"/><circle transform="translate(-252.83 -55.813)" r="10.133" cx="10.133" cy="10.133" fill="#b1b7d9"/></g><g fill-rule="evenodd"><path d="M288.148 12.057c-23.92 23.963-52.558 56.81-52.558 93.97-.218 9.074-.13 17.387.693 24.875-5.774-3.175-11.424-5.845-16.94-7.99-19.474-6.546-49.378 9.515-55.428-26.12-14.087 17.43-5.593 29.534 1.274 41.408 17.463 23.624 41.52 36.54 65.62 49.377-12.468 13.366-39.696 13.233-25.164 51.284.678 2.274 1.712 4.606-2.548 6.056 31.595 16.545 57.41-3.39 68.487-21.663 38.06 14.056 73.1 23.626 88.556 4.14-17.407-17.165-13.2-43.57-56.7-49.054 66.807-19.834 87.12-54.436 81.866-97.16-6.402 27.576-61.528 39.003-94.727 58.215 2.722-6.483 4.78-13.678 6.17-21.583 6.058-45.83-10.222-66.26-8.602-105.755z" fill="#a4d23f"/><path d="M278.66 107.192c10.022-1.055 18.576 1.84 24.335 12.26l-2.65 2.094-18.973-3.02z" fill="#eaffa9"/><path d="M250.633 180.37l27.962-73.21c5.133 10.07 13.86 12.95 24.403 12.202l-30.504 73.21c-5.452 6.6-23.723-4.99-21.86-12.203z" fill="#8daf1d"/></g></g></svg>