<svg xmlns="http://www.w3.org/2000/svg" viewBox="0 0 511.99997 511.99999" width="512" height="512"><path d="M272.652 197.26c-28.08-41.455-59.648-80.36-73.14-96.09-5.177-36.745-14.22-47.246-14.787-48.07l-8.282 5.66c.115.18 6.756 10.83 10.916 42.88l-.424.378c.034.028.22.242.557.62 3.225 25.43 4.875 64.038.643 121.12-9.136 123.38-32.503 128.363-32.743 128.4l-.346 10.008c1.027.09 4.78.09 9.548-3.963 11.52-9.76 26.97-38.03 33.847-130.86 3.234-43.688 5.058-84.496 2.99-108.697 14.27 16.906 48.126 58.793 61.186 82.623 21.152 38.562 53.803 97.524 54.254 98.264l8.57-5.225c-.45-.74-24.714-55.605-52.793-97.052z" fill="#249332"/><path d="M209.057 321.927c28.084.75 49.92 34.44 50.544 78.233.625 43.798-31.082 93.228-87.98 91.736-56.892-1.507-90.034-48.664-90.694-94.967-.494-34.44 18.104-68.77 48.376-72.58 30.268-3.8 40.444 15.172 40.444 15.172s13.69-18.282 39.314-17.597z" fill="#e50043"/><path d="M359.22 267.58c34.385-2.533 65.094 29.865 70.403 67.197 6.63 46.648-8.177 105.405-67.98 118.656-59.81 13.234-106.68-27.388-119.42-75.563-9.476-35.814 1.013-76.512 31.63-88.37 30.613-11.846 46.188 5.322 46.188 5.322s11.673-25.206 39.18-27.24z" fill="#de0042"/><path d="M184.726 53.098l-3.64-8.308s-4.377-2.654-3.71-6.672c.667-4.007 4.683-6.344 4.683-6.344l-4.685-11.703-19.058 10.694s0 8.03 3.354 13.378c3.335 5.347 12.02 12.03 12.02 12.03l2.755 2.587 8.287-5.662z" fill="#9c7851"/></svg>