<?xml version="1.0" encoding="UTF-8" standalone="no"?>
<!-- Generator: Adobe Illustrator 10.0, SVG Export Plug-In . SVG Version: 3.0.0 Build 77)  -->

<svg
   xmlns:i="http://ns.adobe.com/AdobeIllustrator/10.0/"
   xmlns:dc="http://purl.org/dc/elements/1.1/"
   xmlns:cc="http://creativecommons.org/ns#"
   xmlns:rdf="http://www.w3.org/1999/02/22-rdf-syntax-ns#"
   xmlns:svg="http://www.w3.org/2000/svg"
   xmlns="http://www.w3.org/2000/svg"
   xmlns:sodipodi="http://sodipodi.sourceforge.net/DTD/sodipodi-0.dtd"
   xmlns:inkscape="http://www.inkscape.org/namespaces/inkscape"
   i:rulerOrigin="0 0"
   i:viewOrigin="75 584"
   space="preserve"
   i:pageBounds="0 792 612 0"
   viewBox="0 0 512.00001 512.00001"
   enable-background="new 0 0 461.305 376.775"
   overflow="visible"
   version="1.1"
   id="svg205"
   sodipodi:docname="entry_type__lemon.svg"
   inkscape:version="0.92.1 r"
   width="512"
   height="512"
   style="overflow:visible">
  <defs
     id="defs209" />
  <sodipodi:namedview
     pagecolor="#ffffff"
     bordercolor="#666666"
     borderopacity="1"
     objecttolerance="10"
     gridtolerance="10"
     guidetolerance="10"
     inkscape:pageopacity="0"
     inkscape:pageshadow="2"
     inkscape:window-width="1841"
     inkscape:window-height="1027"
     id="namedview207"
     showgrid="false"
     inkscape:zoom="0.88581887"
     inkscape:cx="-3.2694015"
     inkscape:cy="153.54642"
     inkscape:window-x="79"
     inkscape:window-y="29"
     inkscape:window-maximized="1"
     inkscape:current-layer="g200" />
  <g
     id="Layer_1"
     i:layer="yes"
     i:rgbTrio="#4F008000FFFF"
     i:dimmedPercent="50"
     transform="translate(0,135.22501)">
    <g
       id="g200"
       style="clip-rule:evenodd;fill-rule:evenodd">
      <g
         id="g4790"
         transform="matrix(1.0856519,0,0,1.0856519,5.5884182,-83.748257)">
        <path
           style="fill:#e8e800"
           inkscape:connector-curvature="0"
           id="path2"
           i:knockout="Off"
           d="m 194.58,76.32 h -0.18 l 4.212,3.096 1.368,0.18 1.512,-2.268 -0.288,-1.188 -5.58,-0.324 -1.04,0.504 z" />
        <path
           style="fill:#dbdb00"
           inkscape:connector-curvature="0"
           id="path4"
           i:knockout="Off"
           d="m 195.48,75.528 h -0.18 l 4.212,3.168 1.368,0.144 1.332,-2.412 -0.288,-1.008 -5.544,-0.324 z" />
        <path
           style="fill:#e8e800"
           inkscape:connector-curvature="0"
           id="path6"
           i:knockout="Off"
           d="m 190.4,86.328 h -0.18 l 4.176,3.168 1.404,0.144 1.476,-2.232 -0.288,-1.188 -5.58,-0.324 -1.01,0.432 z" />
        <path
           style="fill:#dbdb00"
           inkscape:connector-curvature="0"
           id="path8"
           i:knockout="Off"
           d="m 191.3,85.608 h -0.18 l 4.176,3.132 1.404,0.18 1.3,-2.412 -0.288,-1.08 -5.508,-0.288 -0.9,0.468 z" />
        <path
           style="fill:#7f4008"
           inkscape:connector-curvature="0"
           id="path10"
           i:knockout="Off"
           d="m 170.28,76.32 -12.276,-10.08 -21.92,-22.032 -8.28,-10.512 -5.508,-10.62 -3.49,-11.268 -1.476,-10.8 V 0 l 4.5,5.076 3.168,1.62 1.62,-0.288 1.692,-2.088 0.9,-2.7 5.4,12.6 7.92,13.5 10.188,13.068 15.48,15.408 10.8,8.244 2.988,1.8 -11.7,10.08 z" />
        <path
           style="fill:#e8e800"
           inkscape:connector-curvature="0"
           id="path14"
           i:knockout="Off"
           d="m 163.51,115.02 -1.008,0.108 -2.7,2.592 2.808,0.576 1.512,2.844 0.9,-0.144 1.8,-2.268 -2.412,-3.312 -0.9,-0.4 z" />
        <path
           style="fill:#dbdb00"
           inkscape:connector-curvature="0"
           id="path16"
           i:knockout="Off"
           d="m 164.41,113.94 -1.008,0.18 -2.7,2.52 2.808,0.576 1.512,2.88 0.9,-0.18 1.8,-2.196 -2.412,-3.312 -0.9,-0.47 z" />
        <path
           style="fill:#e8e800"
           inkscape:connector-curvature="0"
           id="path22"
           i:knockout="Off"
           d="m 146.7,96.408 h -0.108 l 3.708,2.808 1.98,0.504 1.332,-2.304 -0.288,-1.188 -5.72,-0.288 -0.9,0.468 z" />
        <path
           style="fill:#dbdb00"
           inkscape:connector-curvature="0"
           id="path24"
           i:knockout="Off"
           d="m 147.6,95.616 h -0.108 l 3.708,2.88 1.98,0.432 1.332,-2.232 -0.288,-1.188 -5.72,-0.288 -0.9,0.396 z" />
        <path
           style="fill:#dbdb00"
           inkscape:connector-curvature="0"
           id="path28"
           i:knockout="Off"
           d="m 152.42,139.25 -0.072,0.108 -0.072,0.144 v 0.288 l 0.072,0.108 0.072,0.144 0.036,0.108 0.072,0.108 0.108,0.144 0.072,0.108 0.108,0.108 0.144,0.144 0.18,0.108 0.108,0.072 0.18,0.036 0.18,0.072 0.108,0.108 0.18,0.072 0.18,0.072 h 0.792 l 0.108,-0.072 0.144,-0.072 0.108,-0.036 0.108,-0.072 0.144,-0.072 0.036,-0.108 0.072,-0.108 0.108,-0.144 v -0.108 l 0.072,-0.108 v -0.324 l -0.072,-0.108 -0.036,-0.18 -0.072,-0.108 -0.072,-0.144 -0.108,-0.108 -0.072,-0.108 -0.108,-0.144 -0.108,-0.108 -0.18,-0.108 -0.144,-0.072 -0.18,-0.108 -0.108,-0.144 h -0.18 l -0.18,-0.036 h -0.18 l -0.18,-0.072 H 153.5 l -0.144,0.072 h -0.18 l -0.108,0.036 -0.108,0.072 -0.144,0.072 -0.108,0.036 -0.108,0.144 -0.072,0.036 -0.072,0.144 -0.04,0.11 z" />
        <path
           style="fill:#e8e800"
           inkscape:connector-curvature="0"
           id="path30"
           i:knockout="Off"
           d="m 185.9,109.73 -0.072,0.108 -0.072,0.144 v 0.288 l 0.072,0.108 0.072,0.144 0.036,0.108 0.072,0.108 0.108,0.144 0.072,0.108 0.108,0.108 0.144,0.144 0.18,0.108 0.108,0.072 0.18,0.036 0.18,0.072 0.108,0.108 0.18,0.072 0.18,0.072 h 0.612 l 0.18,-0.072 h 0.108 l 0.144,-0.108 0.108,-0.072 0.108,-0.072 0.144,-0.108 0.04,-0.11 0.072,-0.144 0.108,-0.18 v -0.036 l 0.072,-0.144 v -0.288 l -0.072,-0.108 -0.036,-0.144 -0.072,-0.108 -0.07,-0.11 -0.108,-0.144 -0.072,-0.108 -0.108,-0.108 -0.108,-0.144 -0.18,-0.108 -0.144,-0.072 -0.18,-0.036 -0.108,-0.144 h -0.18 l -0.18,-0.036 h -0.18 l -0.18,-0.072 h -0.288 l -0.144,0.072 h -0.18 l -0.108,0.036 -0.108,0.072 -0.144,0.072 -0.108,0.036 -0.108,0.144 -0.072,0.036 -0.072,0.144 -0.04,0.11 z" />
        <path
           style="fill:#dbdb00"
           inkscape:connector-curvature="0"
           id="path32"
           i:knockout="Off"
           d="m 186.01,109.12 -0.072,0.144 -0.036,0.108 v 0.432 l 0.036,0.108 0.072,0.108 0.072,0.144 0.108,0.108 0.072,0.108 0.108,0.144 0.18,0.108 0.108,0.108 0.18,0.072 0.144,0.072 0.216,0.036 0.144,0.072 0.18,0.072 0.18,0.036 h 0.576 l 0.18,-0.036 h 0.144 l 0.108,-0.072 0.108,-0.072 0.144,-0.108 0.108,-0.072 0.072,-0.108 0.036,-0.108 0.144,-0.18 v -0.504 l -0.072,-0.108 -0.072,-0.108 -0.036,-0.144 -0.072,-0.108 -0.07,-0.11 -0.108,-0.144 -0.108,-0.108 -0.144,-0.108 -0.108,-0.144 -0.108,-0.036 -0.18,-0.072 -0.144,-0.108 h -0.18 l -0.18,-0.072 h -0.18 l -0.18,-0.072 h -0.288 l -0.108,0.072 h -0.18 l -0.144,0.072 -0.108,0.036 -0.108,0.072 -0.144,0.072 -0.108,0.108 -0.072,0.072 -0.036,0.108 -0.07,0.11 z" />
        <path
           style="fill:#406f1e"
           inkscape:connector-curvature="0"
           id="path38"
           i:knockout="Off"
           d="m 123.3,118.3 -6.696,13.932 -8.6,12.89 -9.108,10.8 -17.1,16.632 -11.412,8.1 -6.3,2.88 -5.076,0.9 -3.924,-0.18 -6.768,-1.8 -11.232,-5.22 -17.856,-10.37 -18,-8.532 -1.224,-0.79 5.112,0.9 5.868,-1.188 8.532,-4.788 10.8,-9.432 10.08,-12.888 21.42,-30.744 10.512,-11.88 12.276,-9.396 11.412,-6.804 13.068,-5.508 11.232,-2.988 9.18,-1.224 h 7.308 l 8.712,1.224 8.388,2.376 9.612,4.32 6.768,4.212 -40.356,38.088 -6.62,6.48 z" />
        <path
           style="fill:#7fae4e"
           inkscape:connector-curvature="0"
           id="path40"
           i:knockout="Off"
           d="m 137.59,89.64 -5.688,-1.62 h -5.724 l -5.976,1.8 -6.804,3.888 -5.22,4.32 -5.58,8.28 -9.9,17.208 -6.408,7.92 -7.812,6.3 -13.968,7.524 -16.488,5.976 -16.344,4.1 -9,1.476 6.732,1.044 7.812,-0.324 10.8,-2.196 22.68,-8.604 13.608,-7.02 8.892,-6.48 5.796,-7.31 11.7,-22.032 4.104,-4.788 7.2,-5.58 7.308,-3.132 5.292,-0.756 h 2.99 z" />
        <path
           style="fill:#f7f619"
           inkscape:connector-curvature="0"
           id="path42"
           i:knockout="Off"
           d="m 170.28,71.316 -11.376,4.5 -9.18,5.112 -10.224,8.1 -11.376,13.068 -6.732,10.8 -4.68,10.944 -2.412,9.396 -1.476,10.512 -0.612,16.2 0.792,17.388 2.7,18.9 4.32,17.244 4.5,12.889 6.48,14.578 9.396,16.201 12.492,17.207 18.72,21.602 16.092,15.73 13.608,11.088 14.4,9 19.513,9.504 20.088,8.102 9.791,1.908 12.42,1.512 6.877,2.699 10.512,8.389 5.867,2.088 7.201,0.791 24.119,-1.188 12.313,-0.504 8.389,1.08 6.479,2.412 12.42,6.912 6.301,1.295 h 9 l 9.791,-1.906 4.934,-1.801 9.467,2.412 6.912,0.396 8.1,-1.189 7.201,-3.311 7.596,-6.121 6.48,-8.568 3.744,-8.207 2.088,-8.279 1.08,-10.514 v -10.332 l -1.512,-14.867 -0.9,-5.221 4.5,-8.711 3.131,-10.188 1.693,-13.5 V 254.88 l -1.514,-13.645 -3.6,-19.656 -11.879,-49.032 -6.121,-29.52 -4.391,-14.508 -5.076,-11.592 -6.912,-10.908 -10.908,-12.6 -15.8,-14.292 -17.389,-13.212 -20.088,-12.6 -14.219,-7.308 -17.1,-6.408 -19.98,-5.004 -21.313,-3.276 -20.988,-1.8 h -13.031 l -14.113,1.656 -11.555,2.844 -9.72,3.456 -14.112,7.2 -13.39,9.252 -12.6,11.592 -5.22,5.796 z" />
      </g>
    </g>
  </g>
  <metadata
     id="metadata203">
    <rdf:RDF>
      <cc:Work>
        <dc:format>image/svg+xml</dc:format>
        <dc:type
           rdf:resource="http://purl.org/dc/dcmitype/StillImage" />
        <cc:license
           rdf:resource="http://creativecommons.org/publicdomain/zero/1.0/" />
        <dc:publisher>
          <cc:Agent
             rdf:about="http://openclipart.org/">
            <dc:title>Openclipart</dc:title>
          </cc:Agent>
        </dc:publisher>
        <dc:title></dc:title>
        <dc:date>2007-11-16T03:07:15</dc:date>
        <dc:description />
        <dc:source>https://openclipart.org/detail/8603/lemon-variations-by-gerald_g-8603</dc:source>
        <dc:creator>
          <cc:Agent>
            <dc:title>Gerald_G</dc:title>
          </cc:Agent>
        </dc:creator>
        <dc:subject>
          <rdf:Bag>
            <rdf:li>food</rdf:li>
            <rdf:li>fruit</rdf:li>
            <rdf:li>lemon</rdf:li>
          </rdf:Bag>
        </dc:subject>
      </cc:Work>
      <cc:License
         rdf:about="http://creativecommons.org/publicdomain/zero/1.0/">
        <cc:permits
           rdf:resource="http://creativecommons.org/ns#Reproduction" />
        <cc:permits
           rdf:resource="http://creativecommons.org/ns#Distribution" />
        <cc:permits
           rdf:resource="http://creativecommons.org/ns#DerivativeWorks" />
      </cc:License>
    </rdf:RDF>
  </metadata>
</svg>
