<svg xmlns="http://www.w3.org/2000/svg" width="640" height="640" viewBox="0 0 600 600"><path d="M555.045 316.484c0 127.21-111.98 230.335-250.116 230.335-138.136 0-250.117-103.126-250.117-230.336 0-127.21 111.98-230.336 250.116-230.336 138.134 0 250.115 103.125 250.115 230.336z" fill="#ff1b00"/><path d="M355.008 223.83l-69.11-47.886-34.257 67.736-6.444-72.866-84.232 28.562 59.995-55.162-84.865-27.344 91.29-5.144-35.783-67.232 69.11 47.887 34.258-67.735 6.444 72.866 84.233-28.56-59.996 55.16 84.865 27.345-91.29 5.143z" fill="#177317"/><path d="M124.94 226.175c-37.563 37.315-50.387 84.167-35.547 142.438 7.762 30.478 19.21 59.645 45.955 86.788 25.71 26.093 60.16 39.302 77.92 48.735 12.71 6.75 68.417 12.344 89.885 7.055 31.56-7.777 54.79-15.585 73.46-29.194-70.75 37.87-308.586-47.5-251.672-255.82z" fill="#e30000" fill-opacity=".579"/></svg>
