<?xml version="1.0" encoding="UTF-8" standalone="no"?>
<svg
   xmlns:dc="http://purl.org/dc/elements/1.1/"
   xmlns:cc="http://creativecommons.org/ns#"
   xmlns:rdf="http://www.w3.org/1999/02/22-rdf-syntax-ns#"
   xmlns:svg="http://www.w3.org/2000/svg"
   xmlns="http://www.w3.org/2000/svg"
   xmlns:sodipodi="http://sodipodi.sourceforge.net/DTD/sodipodi-0.dtd"
   xmlns:inkscape="http://www.inkscape.org/namespaces/inkscape"
   viewBox="0 0 511.99999 512"
   height="512"
   width="512"
   xml:space="preserve"
   id="svg2"
   version="1.1"
   sodipodi:docname="ear-of-corn-vector-publicdomainvectors.org.svg"
   inkscape:version="0.92.1 r"><sodipodi:namedview
     pagecolor="#ffffff"
     bordercolor="#666666"
     borderopacity="1"
     objecttolerance="10"
     gridtolerance="10"
     guidetolerance="10"
     inkscape:pageopacity="0"
     inkscape:pageshadow="2"
     inkscape:window-width="1841"
     inkscape:window-height="1027"
     id="namedview189"
     showgrid="false"
     inkscape:zoom="0.51473689"
     inkscape:cx="112.44978"
     inkscape:cy="129.8486"
     inkscape:window-x="79"
     inkscape:window-y="29"
     inkscape:window-maximized="1"
     inkscape:current-layer="g12" /><metadata
     id="metadata8"><rdf:RDF><cc:Work
         rdf:about=""><dc:format>image/svg+xml</dc:format><dc:type
           rdf:resource="http://purl.org/dc/dcmitype/StillImage" /><dc:title></dc:title></cc:Work></rdf:RDF></metadata><defs
     id="defs6" /><g
     transform="matrix(1.3333333,0,0,-1.3333333,0,512)"
     id="g10"><g
       transform="scale(0.1)"
       id="g12"><path
         id="path64"
         style="fill:#50772a;fill-opacity:1;fill-rule:evenodd;stroke:none;stroke-width:0.60264701"
         d="m 1850.214,2010.107 c 292.5187,403.1347 588.4908,794.2407 1012.007,741.4969 -271.8782,-168.9279 -279.1823,-995.4222 -418.7734,-1493.1422 -197.7345,250.5503 -395.487,501.101 -593.2336,751.6453"
         inkscape:connector-curvature="0" /><path
         id="path66"
         style="fill:#50772a;fill-opacity:1;fill-rule:evenodd;stroke:none;stroke-width:0.60264701"
         d="m 1910.4907,1896.7552 c -259.2767,357.3335 -521.6331,704.0063 -897.0369,657.2589 240.9899,-149.7398 247.4643,-882.3355 371.1913,-1323.5152 175.2919,222.0875 350.5657,444.1748 525.8456,666.2563"
         inkscape:connector-curvature="0" /><path
         id="path68"
         style="fill:#d4ac15;fill-opacity:1;fill-rule:evenodd;stroke:none;stroke-width:0.60264701"
         d="m 1834.3342,3543.2349 c 140.7603,0 176.8047,-49.5554 176.8047,-110.682 10e-5,-61.1205 -23.0997,-110.6762 -176.8046,-110.6761 -153.6991,-1e-4 -176.7985,49.5556 -176.7985,110.6761 0,61.1265 36.0261,110.682 176.7984,110.682"
         inkscape:connector-curvature="0" /><path
         id="path70"
         style="fill:#c8a418;fill-opacity:1;fill-rule:evenodd;stroke:none;stroke-width:0.60264701"
         d="m 2114.6555,3536.618 c -140.7603,0 -176.7986,-49.5497 -176.7986,-110.6822 0,-61.1205 23.0996,-110.6762 176.7986,-110.6762 153.699,0 176.7985,49.5557 176.7984,110.6762 1e-4,61.1325 -36.0262,110.6822 -176.7984,110.6822"
         inkscape:connector-curvature="0" /><path
         id="path72"
         style="fill:#c8a418;fill-opacity:1;fill-rule:evenodd;stroke:none;stroke-width:0.60264701"
         d="m 2308.3823,1067.7721 c -168.8737,0 -212.1075,-59.4512 -212.1075,-132.78131 0,-73.34221 27.7096,-132.78717 212.1075,-132.78722 184.404,2e-5 212.1137,59.44501 212.1137,132.78722 0,73.33011 -43.2339,132.78131 -212.1137,132.78131"
         inkscape:connector-curvature="0" /><path
         id="path74"
         style="fill:#c8a418;fill-opacity:1;fill-rule:evenodd;stroke:none;stroke-width:0.60264701"
         d="m 2303.2898,1277.8368 c -166.3183,0 -208.9013,-58.5472 -208.9013,-130.7684 0,-72.2213 27.2938,-130.7746 208.9015,-130.7745 181.6136,0 208.8955,58.5532 208.8955,130.7745 0,72.2212 -42.571,130.7684 -208.8957,130.7684"
         inkscape:connector-curvature="0" /><path
         id="path76"
         style="fill:#c8a418;fill-opacity:1;fill-rule:evenodd;stroke:none;stroke-width:0.60264701"
         d="m 2298.2036,1487.9135 c -163.7693,0 -205.6893,-57.6613 -205.6893,-128.7677 0,-71.1122 26.8719,-128.7675 205.6893,-128.7675 178.8174,10e-5 205.6834,57.6553 205.6834,128.7675 0,71.1064 -41.914,128.7677 -205.6834,128.7677"
         inkscape:connector-curvature="0" /><path
         id="path78"
         style="fill:#c8a418;fill-opacity:1;fill-rule:evenodd;stroke:none;stroke-width:0.60264701"
         d="m 2293.1052,1697.9841 c -161.2081,0 -202.4712,-56.7573 -202.4712,-126.7546 0,-70.0035 26.4441,-126.7608 202.4712,-126.7608 176.0273,0 202.4774,56.7573 202.4774,126.7608 0,69.9973 -41.2692,126.7546 -202.4774,126.7546"
         inkscape:connector-curvature="0" /><path
         id="path80"
         style="fill:#c8a418;fill-opacity:1;fill-rule:evenodd;stroke:none;stroke-width:0.60264701"
         d="m 2288.0188,1908.0428 c -158.6588,0 -199.2711,-55.8413 -199.2711,-124.7479 0,-68.8947 26.0343,-124.7419 199.2711,-124.7419 173.2309,0 199.2713,55.8593 199.2713,124.7419 -1e-4,68.9066 -40.6184,124.7479 -199.2713,124.7479"
         inkscape:connector-curvature="0" /><path
         id="path82"
         style="fill:#c8a418;fill-opacity:1;fill-rule:evenodd;stroke:none;stroke-width:0.60264701"
         d="m 2282.9144,2118.1195 c -156.0915,0 -196.0469,-54.9553 -196.0469,-122.7351 0,-67.7858 25.6124,-122.7349 196.0469,-122.7351 170.4648,0 196.0652,54.9493 196.0773,122.7351 -0.014,67.7798 -39.9675,122.7351 -196.0773,122.7351"
         inkscape:connector-curvature="0" /><path
         id="path84"
         style="fill:#c8a418;fill-opacity:1;fill-rule:evenodd;stroke:none;stroke-width:0.60264701"
         d="m 2277.8342,2328.1841 c -153.5364,0 -192.841,-54.0513 -192.841,-120.7222 0,-66.6708 25.1904,-120.7343 192.841,-120.7343 167.6623,0 192.847,54.0635 192.847,120.7343 0,66.6709 -39.2986,120.7222 -192.847,120.7222"
         inkscape:connector-curvature="0" /><path
         id="path86"
         style="fill:#c8a418;fill-opacity:1;fill-rule:evenodd;stroke:none;stroke-width:0.60264701"
         d="m 2272.7416,2538.2609 c -150.9931,0 -189.6408,-53.1595 -189.6407,-118.7215 0,-65.568 24.7748,-118.7214 189.6409,-118.7214 164.86,0 189.6409,53.1534 189.6409,118.7214 0,65.562 -38.6477,118.7215 -189.6411,118.7215"
         inkscape:connector-curvature="0" /><path
         id="path88"
         style="fill:#c8a418;fill-opacity:1;fill-rule:evenodd;stroke:none;stroke-width:0.60264701"
         d="m 2267.6554,2748.3256 c -148.4319,0 -186.4287,-52.2495 -186.4287,-116.7086 0,-64.4532 24.3589,-116.7087 186.4287,-116.7087 162.07,0 186.4289,52.2555 186.4289,116.7087 0,64.4591 -38.0029,116.7086 -186.4289,116.7086"
         inkscape:connector-curvature="0" /><path
         id="path90"
         style="fill:#c8a418;fill-opacity:1;fill-rule:evenodd;stroke:none;stroke-width:0.60264701"
         d="m 2262.5631,2958.3903 c -145.8767,1e-4 -183.2166,-51.3516 -183.2165,-114.6958 -10e-5,-63.3444 23.931,-114.6958 183.2165,-114.6958 159.2797,0 183.2228,51.3514 183.2228,114.6958 0,63.3442 -37.3521,114.6959 -183.2228,114.6958"
         inkscape:connector-curvature="0" /><path
         id="path92"
         style="fill:#c8a418;fill-opacity:1;fill-rule:evenodd;stroke:none;stroke-width:0.60264701"
         d="m 2257.4708,3168.4669 c -143.3155,0 -179.9987,-50.4536 -179.9986,-112.6889 0,-62.2413 23.5093,-112.689 179.9986,-112.689 156.4954,1e-4 180.0166,50.4476 180.0166,112.6891 0,62.2352 -36.6952,112.6888 -180.0166,112.6888"
         inkscape:connector-curvature="0" /><path
         id="path94"
         style="fill:#c8a418;fill-opacity:1;fill-rule:evenodd;stroke:none;stroke-width:0.60264701"
         d="m 2252.3783,3378.5376 c -140.7603,0 -176.7984,-49.5557 -176.7984,-110.6821 0,-61.1265 23.0994,-110.6822 176.7984,-110.6822 153.7051,2e-4 176.8107,49.5557 176.8107,110.6822 0,61.1264 -36.0504,110.6761 -176.8107,110.6821"
         inkscape:connector-curvature="0" /><path
         id="path96"
         style="fill:#d4ac15;fill-opacity:1;fill-rule:evenodd;stroke:none;stroke-width:0.60264701"
         d="m 1600.5615,1067.7721 c 168.8736,0 212.1076,-59.4512 212.1076,-132.78129 0,-73.33609 -27.7097,-132.78722 -212.1076,-132.78722 -184.3979,0 -212.1017,59.44504 -212.1016,132.7872 -10e-5,73.33021 43.2218,132.78131 212.1016,132.78131"
         inkscape:connector-curvature="0" /><path
         id="path98"
         style="fill:#d4ac15;fill-opacity:1;fill-rule:evenodd;stroke:none;stroke-width:0.60264701"
         d="m 1605.6538,1277.8368 c 166.3186,0 208.9076,-58.5472 208.9076,-130.7684 0,-72.2213 -27.2999,-130.7746 -208.9076,-130.7746 -181.6017,0 -208.9015,58.5533 -208.9015,130.7746 0,72.2211 42.5769,130.7684 208.9015,130.7684"
         inkscape:connector-curvature="0" /><path
         id="path100"
         style="fill:#d4ac15;fill-opacity:1;fill-rule:evenodd;stroke:none;stroke-width:0.60264701"
         d="m 1610.7463,1487.9135 c 163.7632,0 205.6893,-57.6613 205.6893,-128.7677 0,-71.1124 -26.8781,-128.7674 -205.6893,-128.7674 -178.8295,-10e-5 -205.6896,57.6552 -205.6896,128.7674 10e-5,71.1064 41.9202,128.7677 205.6896,128.7677"
         inkscape:connector-curvature="0" /><path
         id="path102"
         style="fill:#d4ac15;fill-opacity:1;fill-rule:evenodd;stroke:none;stroke-width:0.60264701"
         d="m 1615.8386,1697.9841 c 161.2079,0 202.4773,-56.7573 202.4773,-126.7545 0,-70.0036 -26.4502,-126.7609 -202.4773,-126.7609 -176.0271,0 -202.4834,56.7573 -202.4834,126.7608 0,69.9973 41.2753,126.7546 202.4834,126.7546"
         inkscape:connector-curvature="0" /><path
         id="path104"
         style="fill:#d4ac15;fill-opacity:1;fill-rule:evenodd;stroke:none;stroke-width:0.60264701"
         d="m 1620.9309,1908.043 c 158.6528,-2e-4 199.2592,-55.8415 199.2592,-124.7481 0,-68.8826 -26.0283,-124.7419 -199.2592,-124.7419 -173.2369,0 -199.2773,55.8593 -199.2773,124.7419 -1e-4,68.9066 40.6185,124.7479 199.2773,124.7481"
         inkscape:connector-curvature="0" /><path
         id="path106"
         style="fill:#d4ac15;fill-opacity:1;fill-rule:evenodd;stroke:none;stroke-width:0.60264701"
         d="m 1626.0234,2118.1196 c 156.0975,-1e-4 196.053,-54.9554 196.053,-122.7352 0,-67.7858 -25.6124,-122.7351 -196.053,-122.7351 -170.4528,2e-4 -196.0594,54.9493 -196.0592,122.7351 -2e-4,67.7798 39.9434,122.7351 196.0592,122.7352"
         inkscape:connector-curvature="0" /><path
         id="path108"
         style="fill:#d4ac15;fill-opacity:1;fill-rule:evenodd;stroke:none;stroke-width:0.60264701"
         d="m 1631.1097,2328.1841 c 153.5484,2e-4 192.841,-54.0513 192.8408,-120.7222 2e-4,-66.6708 -25.1906,-120.7343 -192.8408,-120.7343 -167.6505,0 -192.8471,54.0635 -192.8471,120.7283 0,66.6767 39.2986,120.7282 192.8471,120.7282"
         inkscape:connector-curvature="0" /><path
         id="path110"
         style="fill:#d4ac15;fill-opacity:1;fill-rule:evenodd;stroke:none;stroke-width:0.60264701"
         d="m 1636.2019,2538.2609 c 150.9933,0 189.6411,-53.1595 189.6411,-118.7215 0,-65.568 -24.7809,-118.7214 -189.641,-118.7214 -164.8662,0 -189.641,53.1534 -189.641,118.7214 0,65.562 38.6478,118.7215 189.6409,118.7215"
         inkscape:connector-curvature="0" /><path
         id="path112"
         style="fill:#d4ac15;fill-opacity:1;fill-rule:evenodd;stroke:none;stroke-width:0.60264701"
         d="m 1641.2884,2748.3256 c 148.4439,10e-5 186.4288,-52.2495 186.4288,-116.7086 0,-64.4532 -24.3469,-116.7087 -186.429,-116.7087 -162.0696,0 -186.4287,52.2555 -186.4287,116.7087 0,64.4591 38.003,116.7086 186.4289,116.7086"
         inkscape:connector-curvature="0" /><path
         id="path114"
         style="fill:#d4ac15;fill-opacity:1;fill-rule:evenodd;stroke:none;stroke-width:0.60264701"
         d="m 1646.3746,2958.3903 c 145.8889,0 183.2229,-51.3516 183.2229,-114.6958 0,-63.3442 -23.9312,-114.6958 -183.2228,-114.6958 -159.2616,0 -183.2168,51.3516 -183.2168,114.6958 0,63.3442 37.3521,114.6958 183.2167,114.6958"
         inkscape:connector-curvature="0" /><path
         id="path116"
         style="fill:#d4ac15;fill-opacity:1;fill-rule:evenodd;stroke:none;stroke-width:0.60264701"
         d="m 1651.4731,3168.467 c 143.3155,0 180.0107,-50.4537 180.0107,-112.689 0,-62.2413 -23.5154,-112.6889 -180.0107,-112.689 -156.4954,0 -180.0046,50.4477 -180.0046,112.689 0,62.2353 36.683,112.6889 180.0046,112.689"
         inkscape:connector-curvature="0" /><path
         id="path118"
         style="fill:#d4ac15;fill-opacity:1;fill-rule:evenodd;stroke:none;stroke-width:0.60264701"
         d="m 1656.5655,3378.5376 c 140.7602,0 176.7985,-49.5557 176.7984,-110.6821 10e-5,-61.1265 -23.0993,-110.682 -176.7984,-110.6822 -153.6992,2e-4 -176.8046,49.5557 -176.8046,110.6822 0,61.1264 36.0383,110.6761 176.8046,110.6821"
         inkscape:connector-curvature="0" /><path
         id="path120"
         style="fill:#dab013;fill-opacity:1;fill-rule:evenodd;stroke:none;stroke-width:0.60264701"
         d="m 2196.6034,913.32566 c -168.8858,2e-5 -212.1076,-59.45109 -212.1076,-132.7812 0,-73.33609 27.7037,-132.78722 212.1076,-132.78726 184.398,3e-5 212.0955,59.45119 212.0955,132.78725 0,73.33013 -43.2278,132.78128 -212.0955,132.78121"
         inkscape:connector-curvature="0" /><path
         id="path122"
         style="fill:#f0c20b;fill-opacity:1;fill-rule:evenodd;stroke:none;stroke-width:0.60264701"
         d="m 2196.6034,913.32566 c -26.4201,2e-5 -49.7486,-1.45239 -70.329,-4.19446 -18.1938,-15.28906 -24.5457,-36.44802 -24.5457,-60.07789 0,-51.87578 19.592,-95.22426 150.0289,-103.94449 127.7552,-8.52751 149.1733,30.37937 149.9928,80.73056 -17.7239,51.02605 -72.9082,87.48633 -205.147,87.48628"
         inkscape:connector-curvature="0" /><path
         id="path124"
         style="fill:#fadf43;fill-opacity:1;fill-rule:evenodd;stroke:none;stroke-width:0.60264701"
         d="m 2300.343,882.3857 c -58.8002,3.92329 -73.8484,-15.76518 -73.8484,-41.30537 0,-25.53411 9.6484,-46.87996 73.8484,-51.1647 64.2181,-4.29094 73.8665,15.75918 73.8665,41.29927 0,25.53429 -15.0602,47.24752 -73.8665,51.1708"
         inkscape:connector-curvature="0" /><path
         id="path126"
         style="fill:#dab013;fill-opacity:1;fill-rule:evenodd;stroke:none;stroke-width:0.60264701"
         d="m 2190.818,1147.4841 c -168.8736,0 -212.1076,-59.451 -212.1076,-132.7811 0,-73.3361 27.7157,-132.77533 212.1076,-132.77529 184.398,2e-5 212.1076,59.43914 212.1076,132.77529 0,73.3301 -43.2279,132.7811 -212.1076,132.7811"
         inkscape:connector-curvature="0" /><path
         id="path128"
         style="fill:#f0c20b;fill-opacity:1;fill-rule:evenodd;stroke:none;stroke-width:0.60264701"
         d="m 2190.818,1147.4841 c -26.4141,0 -49.7426,-1.4463 -70.329,-4.1822 -18.1877,-15.2893 -24.5457,-36.4542 -24.5457,-60.084 0,-51.8638 19.598,-95.23033 150.0349,-103.93849 127.7492,-8.53966 149.1673,30.37939 149.9989,80.72449 -17.7238,51.0262 -72.9203,87.4802 -205.1591,87.4802"
         inkscape:connector-curvature="0" /><path
         id="path130"
         style="fill:#fadf43;fill-opacity:1;fill-rule:evenodd;stroke:none;stroke-width:0.60264701"
         d="m 2294.5637,1116.5563 c -58.8063,3.9293 -73.8665,-15.7773 -73.8665,-41.3054 0,-25.5342 9.6544,-46.886 73.8665,-51.1708 64.212,-4.2908 73.8604,15.7713 73.8604,41.3054 0,25.5403 -15.0602,47.2355 -73.8604,51.1708"
         inkscape:connector-curvature="0" /><path
         id="path132"
         style="fill:#dab013;fill-opacity:1;fill-rule:evenodd;stroke:none;stroke-width:0.60264701"
         d="m 2185.0386,1381.6609 c -168.8737,-2e-4 -212.1076,-59.4573 -212.1076,-132.7874 0,-73.3302 27.7037,-132.7872 212.1076,-132.7873 184.3979,0 212.1016,59.4572 212.1016,132.7874 0,73.33 -43.2218,132.7871 -212.1016,132.7873"
         inkscape:connector-curvature="0" /><path
         id="path134"
         style="fill:#f0c20b;fill-opacity:1;fill-rule:evenodd;stroke:none;stroke-width:0.60264701"
         d="m 2185.0386,1381.6609 c -26.4201,-2e-4 -49.7486,-1.4645 -70.329,-4.2005 -18.1937,-15.2771 -24.5457,-36.4482 -24.5457,-60.078 0,-51.8697 19.592,-95.2242 150.035,-103.9385 127.7491,-8.5275 149.1671,30.3916 149.9988,80.7307 -17.7239,51.0321 -72.9203,87.4861 -205.1591,87.4863"
         inkscape:connector-curvature="0" /><path
         id="path136"
         style="fill:#fadf43;fill-opacity:1;fill-rule:evenodd;stroke:none;stroke-width:0.60264701"
         d="m 2288.7782,1350.7209 c -58.8002,3.9233 -73.8604,-15.7713 -73.8604,-41.3114 0,-25.5343 9.6604,-46.874 73.8604,-51.1708 64.218,-4.2848 73.8664,15.7713 73.8664,41.3114 0,25.5342 -15.0601,47.2475 -73.8664,51.1708"
         inkscape:connector-curvature="0" /><path
         id="path138"
         style="fill:#dab013;fill-opacity:1;fill-rule:evenodd;stroke:none;stroke-width:0.60264701"
         d="m 2179.2532,1615.8192 c -168.8737,2e-4 -212.1076,-59.4511 -212.1076,-132.7751 0,-73.3422 27.7158,-132.7933 212.1076,-132.7933 184.3979,0 212.1076,59.4511 212.1077,132.7933 -1e-4,73.324 -43.2279,132.7751 -212.1077,132.7751"
         inkscape:connector-curvature="0" /><path
         id="path140"
         style="fill:#f0c20b;fill-opacity:1;fill-rule:evenodd;stroke:none;stroke-width:0.60264701"
         d="m 2179.2532,1615.8192 c -26.408,0 -49.7425,-1.4463 -70.3291,-4.1823 -18.1936,-15.2892 -24.5456,-36.4541 -24.5456,-60.0839 0,-51.8699 19.6041,-95.2363 150.035,-103.9446 127.7491,-8.5335 149.1731,30.3794 149.9866,80.7306 -17.7117,51.0262 -72.9081,87.4802 -205.1469,87.4802"
         inkscape:connector-curvature="0" /><path
         id="path142"
         style="fill:#fadf43;fill-opacity:1;fill-rule:evenodd;stroke:none;stroke-width:0.60264701"
         d="m 2282.9989,1584.8794 c -58.8063,3.9292 -73.8544,-15.7712 -73.8544,-41.2933 0,-25.5462 9.6483,-46.886 73.8544,-51.1708 64.2119,-4.297 73.8604,15.7592 73.8604,41.2994 0,25.5281 -15.0481,47.2415 -73.8604,51.1647"
         inkscape:connector-curvature="0" /><path
         id="path144"
         style="fill:#dab013;fill-opacity:1;fill-rule:evenodd;stroke:none;stroke-width:0.60264701"
         d="m 2173.4738,1849.9838 c -168.8797,0 -212.1136,-59.4451 -212.1136,-132.7933 0,-73.318 27.7157,-132.7691 212.1136,-132.7691 184.3979,0 212.1016,59.4511 212.1015,132.7691 1e-4,73.3482 -43.2217,132.7933 -212.1015,132.7933"
         inkscape:connector-curvature="0" /><path
         id="path146"
         style="fill:#f0c20b;fill-opacity:1;fill-rule:evenodd;stroke:none;stroke-width:0.60264701"
         d="m 2173.4738,1849.9838 c -26.408,0 -49.7486,-1.4645 -70.3289,-4.1884 -18.1938,-15.2892 -24.5458,-36.4541 -24.5458,-60.0779 0,-51.8759 19.5921,-95.2242 150.035,-103.9446 127.7611,-8.5393 149.1731,30.3795 149.9988,80.7246 -17.7239,51.0321 -72.9142,87.4863 -205.1591,87.4863"
         inkscape:connector-curvature="0" /><path
         id="path148"
         style="fill:#fadf43;fill-opacity:1;fill-rule:evenodd;stroke:none;stroke-width:0.60264701"
         d="m 2277.2255,1819.0438 c -58.8124,3.9293 -73.8665,-15.759 -73.8666,-41.3113 10e-5,-25.5222 9.6546,-46.8739 73.8666,-51.1587 64.2061,-4.2849 73.8543,15.7651 73.8543,41.2994 0,25.5401 -15.048,47.2414 -73.8543,51.1706"
         inkscape:connector-curvature="0" /><path
         id="path150"
         style="fill:#dab013;fill-opacity:1;fill-rule:evenodd;stroke:none;stroke-width:0.60264701"
         d="m 2167.6884,2084.1543 c -168.8737,0 -212.1076,-59.4511 -212.1076,-132.7872 0,-73.3421 27.7158,-132.7813 212.1076,-132.7811 184.3979,-2e-4 212.1136,59.439 212.1136,132.7811 0,73.3361 -43.2338,132.7872 -212.1136,132.7872"
         inkscape:connector-curvature="0" /><path
         id="path152"
         style="fill:#f0c20b;fill-opacity:1;fill-rule:evenodd;stroke:none;stroke-width:0.60264701"
         d="m 2167.6884,2084.1543 c -26.408,0 -49.7425,-1.4584 -70.3167,-4.1944 -18.206,-15.2892 -24.558,-36.4541 -24.558,-60.0839 0,-51.8699 19.6041,-95.2363 150.035,-103.9446 127.7611,-8.5274 149.1731,30.3795 149.9988,80.7306 -17.7239,51.0382 -72.9083,87.4923 -205.1591,87.4923"
         inkscape:connector-curvature="0" /><path
         id="path154"
         style="fill:#fadf43;fill-opacity:1;fill-rule:evenodd;stroke:none;stroke-width:0.60264701"
         d="m 2271.4341,2053.2085 c -58.8064,3.9293 -73.8544,-15.7654 -73.8544,-41.2995 0,-25.5401 9.6483,-46.8859 73.8544,-51.1708 64.2119,-4.2966 73.8603,15.7654 73.8603,41.2995 0,25.5341 -15.048,47.2535 -73.8603,51.1708"
         inkscape:connector-curvature="0" /><path
         id="path156"
         style="fill:#dab013;fill-opacity:1;fill-rule:evenodd;stroke:none;stroke-width:0.60264701"
         d="m 2161.909,2318.3189 c -168.8797,0 -212.1136,-59.4573 -212.1136,-132.7874 0,-73.342 27.7158,-132.7809 212.1136,-132.7811 184.3979,0 212.1137,59.4392 212.1137,132.7811 0,73.3303 -43.2339,132.7874 -212.1137,132.7874"
         inkscape:connector-curvature="0" /><path
         id="path158"
         style="fill:#f0c20b;fill-opacity:1;fill-rule:evenodd;stroke:none;stroke-width:0.60264701"
         d="m 2161.909,2318.3189 c -26.408,0 -49.7485,-1.4585 -70.3229,-4.1945 -18.1998,-15.2891 -24.5457,-36.4542 -24.5517,-60.0778 -1e-4,-51.8699 19.6039,-95.2303 150.0349,-103.9446 127.7611,-8.5395 149.1732,30.3794 149.9988,80.7307 -17.7239,51.0321 -72.9144,87.4801 -205.1591,87.4862"
         inkscape:connector-curvature="0" /><path
         id="path160"
         style="fill:#fadf43;fill-opacity:1;fill-rule:evenodd;stroke:none;stroke-width:0.60264701"
         d="m 2265.6605,2287.3789 c -58.8122,3.9233 -73.8662,-15.7652 -73.8662,-41.3054 0,-25.5341 9.6544,-46.88 73.8664,-51.1708 64.2061,-4.2908 73.8543,15.7653 73.8543,41.3054 0,25.5343 -15.048,47.2416 -73.8545,51.1708"
         inkscape:connector-curvature="0" /><path
         id="path162"
         style="fill:#dab013;fill-opacity:1;fill-rule:evenodd;stroke:none;stroke-width:0.60264701"
         d="m 2156.1236,2552.4774 c -168.8737,0 -212.1076,-59.445 -212.1076,-132.7813 0,-73.3299 27.7158,-132.7812 212.1076,-132.7812 184.3979,10e-5 212.1137,59.4511 212.1137,132.7872 0,73.3301 -43.2341,132.7753 -212.1137,132.7753"
         inkscape:connector-curvature="0" /><path
         id="path164"
         style="fill:#f0c20b;fill-opacity:1;fill-rule:evenodd;stroke:none;stroke-width:0.60264701"
         d="m 2156.1236,2552.4774 c -26.402,0 -49.7425,-1.4524 -70.3168,-4.1884 -18.194,-15.2892 -24.5458,-36.4482 -24.5458,-60.078 0,-51.8758 19.592,-95.2303 150.0229,-103.9445 127.7611,-8.5335 149.1732,30.3855 149.9988,80.7246 -17.724,51.0321 -72.9083,87.4863 -205.1591,87.4863"
         inkscape:connector-curvature="0" /><path
         id="path166"
         style="fill:#fadf43;fill-opacity:1;fill-rule:evenodd;stroke:none;stroke-width:0.60264701"
         d="m 2259.8753,2521.5435 c -58.8124,3.9293 -73.8604,-15.7653 -73.8604,-41.2994 0,-25.5462 9.6484,-46.8921 73.8604,-51.1768 64.2061,-4.2848 73.8543,15.7712 73.8542,41.3054 1e-4,25.534 -15.0479,47.2414 -73.8542,51.1708"
         inkscape:connector-curvature="0" /><path
         id="path168"
         style="fill:#dab013;fill-opacity:1;fill-rule:evenodd;stroke:none;stroke-width:0.60264701"
         d="m 2150.3442,2786.6419 c -168.8798,0 -212.1136,-59.4452 -212.1136,-132.7811 0,-73.3363 27.7158,-132.7874 212.1136,-132.7874 184.3979,0 212.1137,59.4511 212.1137,132.7872 0,73.3361 -43.2339,132.7813 -212.1137,132.7813"
         inkscape:connector-curvature="0" /><path
         id="path170"
         style="fill:#f0c20b;fill-opacity:1;fill-rule:evenodd;stroke:none;stroke-width:0.60264701"
         d="m 2150.3442,2786.6419 c -26.402,0 -49.7485,-1.4523 -70.3228,-4.1884 -18.1879,-15.2892 -24.5458,-36.4482 -24.5458,-60.084 0,-51.8698 19.598,-95.2241 150.0289,-103.9384 127.7551,-8.5335 149.1732,30.3854 149.9988,80.7306 -17.7239,51.032 -72.9143,87.4802 -205.1591,87.4802"
         inkscape:connector-curvature="0" /><path
         id="path172"
         style="fill:#fadf43;fill-opacity:1;fill-rule:evenodd;stroke:none;stroke-width:0.60264701"
         d="m 2254.0958,2755.708 c -58.812,3.9233 -73.8663,-15.7713 -73.8663,-41.3054 0,-25.5343 9.6544,-46.88 73.8662,-51.1708 64.2062,-4.291 73.8546,15.7713 73.8546,41.3055 0,25.534 -15.0541,47.2414 -73.8545,51.1707"
         inkscape:connector-curvature="0" /><path
         id="path174"
         style="fill:#dab013;fill-opacity:1;fill-rule:evenodd;stroke:none;stroke-width:0.60264701"
         d="m 2144.5588,3020.8123 c -168.8737,0 -212.0955,-59.451 -212.0955,-132.7872 0,-73.3301 27.7035,-132.7872 212.0955,-132.7872 184.41,0 212.1137,59.4571 212.1137,132.7872 0,73.3362 -43.2341,132.7872 -212.1137,132.7872"
         inkscape:connector-curvature="0" /><path
         id="path176"
         style="fill:#f0c20b;fill-opacity:1;fill-rule:evenodd;stroke:none;stroke-width:0.60264701"
         d="m 2144.5588,3020.8063 c -26.402,2e-4 -49.7364,-1.4524 -70.3168,-4.1824 -18.1939,-15.2891 -24.5458,-36.46 -24.5458,-60.0899 0,-51.8697 19.592,-95.2242 150.035,-103.9385 127.749,-8.5335 149.1731,30.3794 149.9867,80.7245 -17.724,51.0322 -72.9083,87.4863 -205.1591,87.4863"
         inkscape:connector-curvature="0" /><path
         id="path178"
         style="fill:#fadf43;fill-opacity:1;fill-rule:evenodd;stroke:none;stroke-width:0.60264701"
         d="m 2248.3103,2989.8725 c -58.8122,3.9292 -73.8602,-15.7713 -73.8602,-41.3054 0,-25.5403 9.6484,-46.8799 73.8603,-51.1708 64.2121,-4.2909 73.8543,15.7713 73.8544,41.3052 0,25.5404 -15.048,47.2477 -73.8545,51.171"
         inkscape:connector-curvature="0" /><path
         id="path180"
         style="fill:#dab013;fill-opacity:1;fill-rule:evenodd;stroke:none;stroke-width:0.60264701"
         d="m 2138.7734,3254.9769 c -168.8737,0 -212.0955,-59.4511 -212.0955,-132.7812 0,-73.3361 27.7037,-132.7872 212.0955,-132.7872 184.4039,0 212.1198,59.4511 212.1197,132.7872 1e-4,73.3301 -43.228,132.7812 -212.1197,132.7812"
         inkscape:connector-curvature="0" /><path
         id="path182"
         style="fill:#f0c20b;fill-opacity:1;fill-rule:evenodd;stroke:none;stroke-width:0.60264701"
         d="m 2138.7734,3254.9769 c -26.396,0 -49.7364,-1.4584 -70.3168,-4.1882 -18.1879,-15.2894 -24.5458,-36.4543 -24.5458,-60.0841 10e-5,-51.8699 19.5981,-95.2303 150.0289,-103.9386 127.7551,-8.5334 149.1792,30.3795 149.9928,80.7246 -17.7239,51.0322 -72.9083,87.4862 -205.1591,87.4863"
         inkscape:connector-curvature="0" /><path
         id="path184"
         style="fill:#fadf43;fill-opacity:1;fill-rule:evenodd;stroke:none;stroke-width:0.60264701"
         d="m 2242.5312,3224.0369 c -58.8124,3.9354 -73.8664,-15.7711 -73.8665,-41.3054 0,-25.5341 9.6544,-46.8798 73.8665,-51.1646 64.2059,-4.297 73.8602,15.7713 73.8603,41.3052 0,25.5343 -15.0602,47.2417 -73.8603,51.1648"
         inkscape:connector-curvature="0" /><path
         id="path186"
         style="fill:#dab013;fill-opacity:1;fill-rule:evenodd;stroke:none;stroke-width:0.60264701"
         d="m 2132.994,3489.1354 c -168.8737,0 -212.1015,-59.4451 -212.1015,-132.7752 0,-73.3421 27.7096,-132.7873 212.1015,-132.7873 184.41,0 212.1137,59.4452 212.1137,132.7873 0,73.3301 -43.2218,132.7752 -212.1137,132.7752"
         inkscape:connector-curvature="0" /><path
         id="path188"
         style="fill:#f0c20b;fill-opacity:1;fill-rule:evenodd;stroke:none;stroke-width:0.60264701"
         d="m 2132.994,3489.1354 c -26.402,0 -49.7304,-1.4464 -70.3168,-4.1824 -18.1939,-15.2892 -24.5458,-36.4541 -24.5458,-60.0839 0,-51.8759 19.5921,-95.2303 150.035,-103.9385 127.7489,-8.5395 149.1731,30.3794 149.9865,80.7245 -17.7237,51.0322 -72.9081,87.4803 -205.1589,87.4803"
         inkscape:connector-curvature="0" /><path
         id="path190"
         style="fill:#fadf43;fill-opacity:1;fill-rule:evenodd;stroke:none;stroke-width:0.60264701"
         d="m 2236.7456,3458.2075 c -58.8123,3.9233 -73.8603,-15.7713 -73.8603,-41.3054 0,-25.5402 9.6484,-46.8859 73.8603,-51.1767 64.212,-4.2909 73.8665,15.7713 73.8665,41.3113 0,25.5344 -15.0601,47.2356 -73.8665,51.1708"
         inkscape:connector-curvature="0" /><path
         id="path192"
         style="fill:#e7bb0e;fill-opacity:1;fill-rule:evenodd;stroke:none;stroke-width:0.60264701"
         d="m 1682.4611,917.6406 c 168.8738,0 212.1078,-59.45113 212.1078,-132.78722 0,-73.34221 -27.7158,-132.78124 -212.1078,-132.78124 -184.4099,-10e-6 -212.1135,59.43903 -212.1135,132.78124 0,73.33608 43.2339,132.78722 212.1135,132.78722"
         inkscape:connector-curvature="0" /><path
         id="path194"
         style="fill:#fbc907;fill-opacity:1;fill-rule:evenodd;stroke:none;stroke-width:0.60264701"
         d="m 1682.4611,917.6406 c 26.4141,0 49.7486,-1.45839 70.3169,-4.19438 18.1939,-15.2892 24.5459,-36.45413 24.5459,-60.07796 0,-51.87584 -19.592,-95.22416 -150.0229,-103.94457 -127.7492,-8.53349 -149.1854,30.37954 -149.999,80.7306 17.7239,51.02619 72.9083,87.48631 205.1591,87.48631"
         inkscape:connector-curvature="0" /><path
         id="path196"
         style="fill:#fadf43;fill-opacity:1;fill-rule:evenodd;stroke:none;stroke-width:0.60264701"
         d="m 1578.7095,886.70062 c 58.8002,3.92326 73.8605,-15.76518 73.8605,-41.30541 0,-25.53411 -9.6485,-46.87983 -73.8605,-51.17065 -64.206,-4.29695 -73.8665,15.76518 -73.8544,41.30541 -0.014,25.53411 15.0482,47.24139 73.8544,51.17065"
         inkscape:connector-curvature="0" /><path
         id="path198"
         style="fill:#e7bb0e;fill-opacity:1;fill-rule:evenodd;stroke:none;stroke-width:0.60264701"
         d="m 1690.7898,1174.7962 c 168.8798,-0.014 212.1137,-59.4572 212.1137,-132.7933 0,-73.33011 -27.7158,-132.78126 -212.1137,-132.78126 -184.4039,-2e-5 -212.1137,59.45115 -212.1137,132.78116 0,73.3362 43.2339,132.7934 212.1137,132.7934"
         inkscape:connector-curvature="0" /><path
         id="path200"
         style="fill:#fbc907;fill-opacity:1;fill-rule:evenodd;stroke:none;stroke-width:0.60264701"
         d="m 1690.7898,1174.7962 c 26.4139,0 49.7424,-1.4644 70.3169,-4.2005 18.1938,-15.2891 24.5518,-36.4542 24.5518,-60.0838 0,-51.87 -19.5981,-95.2184 -150.029,-103.9388 -127.7491,-8.53346 -149.1793,30.3795 -149.9989,80.7368 17.7239,51.02 72.9143,87.4862 205.1592,87.4863"
         inkscape:connector-curvature="0" /><path
         id="path202"
         style="fill:#fadf43;fill-opacity:1;fill-rule:evenodd;stroke:none;stroke-width:0.60264701"
         d="m 1587.0381,1143.8563 c 58.8123,3.9231 73.8665,-15.7713 73.8665,-41.3115 0,-25.5341 -9.6546,-46.8739 -73.8665,-51.1708 -64.2121,-4.2847 -73.8544,15.7652 -73.8544,41.3114 0,25.5342 15.0481,47.2416 73.8544,51.1709"
         inkscape:connector-curvature="0" /><path
         id="path204"
         style="fill:#e7bb0e;fill-opacity:1;fill-rule:evenodd;stroke:none;stroke-width:0.60264701"
         d="m 1699.1184,1431.9396 c 168.8797,0 212.1016,-59.4512 212.1016,-132.7811 0,-73.3363 -27.7037,-132.7873 -212.1016,-132.7873 -184.4041,0 -212.1077,59.451 -212.1077,132.7873 0,73.3299 43.2339,132.7811 212.1077,132.7811"
         inkscape:connector-curvature="0" /><path
         id="path206"
         style="fill:#fbc907;fill-opacity:1;fill-rule:evenodd;stroke:none;stroke-width:0.60264701"
         d="m 1699.1184,1431.9396 c 26.4019,0 49.7425,-1.4584 70.3167,-4.1824 18.2,-15.2891 24.5519,-36.454 24.5519,-60.0958 0,-51.8639 -19.598,-95.2183 -150.0229,-103.9386 -127.7552,-8.5275 -149.1852,30.3915 -150.0048,80.7366 17.7177,51.02 72.9262,87.4802 205.1591,87.4802"
         inkscape:connector-curvature="0" /><path
         id="path208"
         style="fill:#fadf43;fill-opacity:1;fill-rule:evenodd;stroke:none;stroke-width:0.60264701"
         d="m 1595.3666,1401.0057 c 58.8123,3.9233 73.8605,-15.7773 73.8605,-41.3113 0,-25.5342 -9.6424,-46.8739 -73.8605,-51.1709 -64.206,-4.2848 -73.8544,15.7713 -73.8544,41.3054 0,25.5403 15.0542,47.2477 73.8544,51.1768"
         inkscape:connector-curvature="0" /><path
         id="path210"
         style="fill:#e7bb0e;fill-opacity:1;fill-rule:evenodd;stroke:none;stroke-width:0.60264701"
         d="m 1707.4349,1689.0891 c 168.8797,0 212.1136,-59.4572 212.1136,-132.7813 0,-73.342 -27.7156,-132.7872 -212.1136,-132.7872 -184.3919,0 -212.0956,59.4452 -212.0956,132.7872 0,73.3241 43.2218,132.7813 212.0956,132.7813"
         inkscape:connector-curvature="0" /><path
         id="path212"
         style="fill:#fbc907;fill-opacity:1;fill-rule:evenodd;stroke:none;stroke-width:0.60264701"
         d="m 1707.4349,1689.0891 c 26.42,0 49.7545,-1.4584 70.3289,-4.1884 18.2,-15.2891 24.5458,-36.4542 24.5458,-60.0838 0,-51.8699 -19.5921,-95.2302 -150.017,-103.9446 -127.7731,-8.5275 -149.1852,30.3794 -150.0048,80.7366 17.7179,51.026 72.9142,87.4802 205.1471,87.4802"
         inkscape:connector-curvature="0" /><path
         id="path214"
         style="fill:#fadf43;fill-opacity:1;fill-rule:evenodd;stroke:none;stroke-width:0.60264701"
         d="m 1603.6952,1658.1553 c 58.8003,3.9232 73.8604,-15.7714 73.8604,-41.3055 0,-25.5341 -9.6424,-46.88 -73.8604,-51.1708 -64.2059,-4.2968 -73.8603,15.7653 -73.8603,41.2994 0,25.5403 15.0601,47.2416 73.8603,51.1769"
         inkscape:connector-curvature="0" /><path
         id="path216"
         style="fill:#e7bb0e;fill-opacity:1;fill-rule:evenodd;stroke:none;stroke-width:0.60264701"
         d="m 1715.7696,1946.2326 c 168.8796,10e-5 212.1075,-59.4392 212.1075,-132.7872 0,-73.3182 -27.7097,-132.7693 -212.1075,-132.7693 -184.4041,1e-4 -212.1018,59.4511 -212.1018,132.7693 0,73.348 43.222,132.7872 212.1018,132.7872"
         inkscape:connector-curvature="0" /><path
         id="path218"
         style="fill:#fbc907;fill-opacity:1;fill-rule:evenodd;stroke:none;stroke-width:0.60264701"
         d="m 1715.7696,1946.2326 c 26.4139,0 49.7424,-1.4584 70.3228,-4.1824 18.1999,-15.2892 24.5457,-36.4542 24.5457,-60.084 -10e-5,-51.8697 -19.592,-95.2301 -150.0289,-103.9445 -127.7553,-8.5334 -149.1732,30.3855 -149.9929,80.7306 17.7179,51.0261 72.9084,87.4803 205.1533,87.4803"
         inkscape:connector-curvature="0" /><path
         id="path220"
         style="fill:#fadf43;fill-opacity:1;fill-rule:evenodd;stroke:none;stroke-width:0.60264701"
         d="m 1612.0239,1915.2987 c 58.8002,3.9293 73.8603,-15.7653 73.8603,-41.2994 0,-25.5341 -9.6484,-46.886 -73.8603,-51.1707 -64.2181,-4.2849 -73.8665,15.7652 -73.8665,41.2995 0,25.5401 15.0601,47.2533 73.8665,51.1706"
         inkscape:connector-curvature="0" /><path
         id="path222"
         style="fill:#e7bb0e;fill-opacity:1;fill-rule:evenodd;stroke:none;stroke-width:0.60264701"
         d="m 1724.0981,2203.3882 c 168.8738,0 212.1075,-59.4513 212.1075,-132.7814 0,-73.3421 -27.7098,-132.7812 -212.1075,-132.7811 -184.398,0 -212.1017,59.439 -212.1076,132.7811 0,73.3301 43.2276,132.7813 212.1076,132.7814"
         inkscape:connector-curvature="0" /><path
         id="path224"
         style="fill:#fbc907;fill-opacity:1;fill-rule:evenodd;stroke:none;stroke-width:0.60264701"
         d="m 1724.0981,2203.3882 c 26.414,-10e-5 49.7424,-1.4585 70.3289,-4.1885 18.1877,-15.2892 24.5457,-36.4542 24.5457,-60.084 0,-51.8636 -19.5979,-95.2363 -150.0288,-103.9384 -127.7673,-8.5275 -149.1733,30.3794 -149.9988,80.7366 17.7176,51.014 72.9081,87.4742 205.153,87.4743"
         inkscape:connector-curvature="0" /><path
         id="path226"
         style="fill:#fadf43;fill-opacity:1;fill-rule:evenodd;stroke:none;stroke-width:0.60264701"
         d="m 1620.3524,2172.4481 c 58.8063,3.9355 73.8664,-15.7712 73.8664,-41.2993 -0.014,-25.5462 -9.6603,-46.886 -73.8664,-51.1708 -64.212,-4.2969 -73.8665,15.7713 -73.8665,41.3054 0,25.5341 15.0603,47.2415 73.8665,51.1647"
         inkscape:connector-curvature="0" /><path
         id="path228"
         style="fill:#e7bb0e;fill-opacity:1;fill-rule:evenodd;stroke:none;stroke-width:0.60264701"
         d="m 1732.4267,2460.5377 c 168.8737,-10e-5 212.1076,-59.4513 212.1076,-132.7814 0,-73.3422 -27.7158,-132.7812 -212.1076,-132.7812 -184.3979,0 -212.1137,59.439 -212.1137,132.7814 -2e-4,73.3299 43.2339,132.7749 212.1137,132.7812"
         inkscape:connector-curvature="0" /><path
         id="path230"
         style="fill:#fbc907;fill-opacity:1;fill-rule:evenodd;stroke:none;stroke-width:0.60264701"
         d="m 1732.4266,2460.5314 c 26.4081,2e-4 49.7425,-1.4462 70.3289,-4.1822 18.1939,-15.2892 24.5459,-36.4482 24.5459,-60.078 -2e-4,-51.8699 -19.5981,-95.2303 -150.035,-103.9444 -127.7612,-8.5337 -149.1733,30.3794 -149.9988,80.7304 17.7239,51.0264 72.9082,87.4804 205.159,87.4742"
         inkscape:connector-curvature="0" /><path
         id="path232"
         style="fill:#fadf43;fill-opacity:1;fill-rule:evenodd;stroke:none;stroke-width:0.60264701"
         d="m 1628.681,2429.5976 c 58.8062,3.9354 73.8544,-15.7652 73.8544,-41.2933 0,-25.5401 -9.6486,-46.886 -73.8544,-51.1768 -64.2121,-4.2848 -73.8605,15.7712 -73.8605,41.3054 0,25.5281 15.0482,47.2354 73.8605,51.1647"
         inkscape:connector-curvature="0" /><path
         id="path234"
         style="fill:#e7bb0e;fill-opacity:1;fill-rule:evenodd;stroke:none;stroke-width:0.60264701"
         d="m 1740.7552,2717.693 c 168.8738,0 212.1077,-59.445 212.1077,-132.7872 10e-5,-73.3301 -27.7158,-132.7752 -212.1077,-132.7752 -184.3979,0 -212.1136,59.4451 -212.1136,132.7752 0,73.3421 43.2339,132.7874 212.1136,132.7872"
         inkscape:connector-curvature="0" /><path
         id="path236"
         style="fill:#fbc907;fill-opacity:1;fill-rule:evenodd;stroke:none;stroke-width:0.60264701"
         d="m 1740.7552,2717.693 c 26.402,0 49.7305,-1.4524 70.3229,-4.1884 18.2,-15.2892 24.5518,-36.4599 24.5518,-60.0839 0,-51.8699 -19.592,-95.2363 -150.0349,-103.9446 -127.7613,-8.5335 -149.1732,30.3794 -149.9989,80.7306 17.7239,51.0262 72.9082,87.4865 205.1591,87.4863"
         inkscape:connector-curvature="0" /><path
         id="path238"
         style="fill:#fadf43;fill-opacity:1;fill-rule:evenodd;stroke:none;stroke-width:0.60264701"
         d="m 1637.0156,2686.7531 c 58.8002,3.9292 73.8484,-15.7652 73.8484,-41.2993 0,-25.5403 -9.6484,-46.886 -73.8484,-51.1708 -64.2242,-4.2908 -73.8665,15.7652 -73.8665,41.2933 0,25.5402 15.0481,47.2536 73.8665,51.1768"
         inkscape:connector-curvature="0" /><path
         id="path240"
         style="fill:#e7bb0e;fill-opacity:1;fill-rule:evenodd;stroke:none;stroke-width:0.60264701"
         d="m 1749.0778,2974.8364 c 168.8737,0 212.1076,-59.445 212.1076,-132.7812 0,-73.3361 -27.7036,-132.7811 -212.1077,-132.7811 -184.3918,0 -212.1076,59.445 -212.1076,132.7811 0,73.3362 43.2339,132.7812 212.1077,132.7812"
         inkscape:connector-curvature="0" /><path
         id="path242"
         style="fill:#fbc907;fill-opacity:1;fill-rule:evenodd;stroke:none;stroke-width:0.60264701"
         d="m 1749.0778,2974.8364 c 26.408,0 49.7364,-1.4524 70.3289,-4.1824 18.1998,-15.2891 24.5518,-36.466 24.5518,-60.0838 0,-51.8758 -19.6041,-95.2303 -150.041,-103.9446 -127.7551,-8.5335 -149.1672,30.3794 -149.9988,80.7246 17.7299,51.0321 72.9203,87.4864 205.1591,87.4862"
         inkscape:connector-curvature="0" /><path
         id="path244"
         style="fill:#fadf43;fill-opacity:1;fill-rule:evenodd;stroke:none;stroke-width:0.60264701"
         d="m 1645.3321,2943.8966 c 58.8063,3.9292 73.8484,-15.7653 73.8484,-41.2995 0,-25.5402 -9.6424,-46.8799 -73.8484,-51.1707 -64.212,-4.2909 -73.8604,15.7714 -73.8543,41.3054 0,25.5342 15.054,47.2416 73.8543,51.1648"
         inkscape:connector-curvature="0" /><path
         id="path246"
         style="fill:#e7bb0e;fill-opacity:1;fill-rule:evenodd;stroke:none;stroke-width:0.60264701"
         d="m 1757.4125,3231.9859 c 168.8676,0 212.1016,-59.4451 212.1016,-132.7752 0,-73.3421 -27.7038,-132.7873 -212.1016,-132.7873 -184.392,0 -212.1197,59.4452 -212.1197,132.7873 0.014,73.3301 43.2459,132.7752 212.1197,132.7752"
         inkscape:connector-curvature="0" /><path
         id="path248"
         style="fill:#fbc907;fill-opacity:1;fill-rule:evenodd;stroke:none;stroke-width:0.60264701"
         d="m 1757.4125,3231.9859 c 26.4019,0 49.7303,-1.4524 70.3167,-4.1823 18.2,-15.2892 24.558,-36.4601 24.558,-60.0839 0,-51.8699 -19.6042,-95.2303 -150.0412,-103.9386 -127.749,-8.5395 -149.1731,30.3794 -149.9927,80.7246 17.7299,51.0321 72.9143,87.4802 205.1592,87.4802"
         inkscape:connector-curvature="0" /><path
         id="path250"
         style="fill:#fadf43;fill-opacity:1;fill-rule:evenodd;stroke:none;stroke-width:0.60264701"
         d="m 1653.6547,3201.0521 c 58.8183,3.9232 73.8543,-15.7713 73.8543,-41.3055 0,-25.5342 -9.6423,-46.8799 -73.8543,-51.1648 -64.1999,-4.2968 -73.8484,15.7654 -73.8484,41.2995 0,25.5341 15.0541,47.2475 73.8484,51.1708"
         inkscape:connector-curvature="0" /><path
         id="path252"
         style="fill:#e7bb0e;fill-opacity:1;fill-rule:evenodd;stroke:none;stroke-width:0.60264701"
         d="m 1765.7291,3489.1354 c 168.8795,0 212.1075,-59.4451 212.1075,-132.7752 0,-73.3421 -27.7098,-132.7873 -212.1076,-132.7873 -184.3979,0 -212.1077,59.4452 -212.1077,132.7873 0,73.3301 43.2339,132.7752 212.1078,132.7752"
         inkscape:connector-curvature="0" /><path
         id="path254"
         style="fill:#fbc907;fill-opacity:1;fill-rule:evenodd;stroke:none;stroke-width:0.60264701"
         d="m 1765.7291,3489.1354 c 26.4198,0 49.7483,-1.4464 70.3166,-4.1824 18.1999,-15.2892 24.5459,-36.4541 24.5459,-60.0839 0,-51.8759 -19.592,-95.2303 -150.0169,-103.9385 -127.7552,-8.5395 -149.1853,30.3794 -150.0048,80.7246 17.7298,51.0321 72.9142,87.4802 205.1592,87.4802"
         inkscape:connector-curvature="0" /><path
         id="path256"
         style="fill:#fadf43;fill-opacity:1;fill-rule:evenodd;stroke:none;stroke-width:0.60264701"
         d="m 1661.9772,3458.2075 c 58.8123,3.9234 73.8605,-15.7713 73.8605,-41.3054 0,-25.5402 -9.6425,-46.8859 -73.8605,-51.1708 -64.206,-4.2968 -73.8544,15.7654 -73.8544,41.3054 0,25.5344 15.0482,47.2356 73.8544,51.1708"
         inkscape:connector-curvature="0" /><path
         id="path258"
         style="fill:#fbd724;fill-opacity:1;fill-rule:evenodd;stroke:none;stroke-width:0.60264701"
         d="m 1965.6451,789.05987 c 168.8796,-2e-5 212.1135,-59.45116 212.1135,-132.78722 0,-73.33013 -27.7098,-132.78124 -212.1135,-132.78124 -184.398,0 -212.1078,59.45113 -212.1078,132.78124 0,73.33609 43.228,132.78722 212.1078,132.78722"
         inkscape:connector-curvature="0" /><path
         id="path260"
         style="fill:#fbe972;fill-opacity:1;fill-rule:evenodd;stroke:none;stroke-width:0.60264701"
         d="m 1965.6451,789.05987 c 26.4079,0 49.7484,-1.45839 70.3167,-4.19452 18.206,-15.28308 24.558,-36.44804 24.558,-60.07782 0,-51.87584 -19.6041,-95.2243 -150.0291,-103.93246 -127.7551,-8.53962 -149.1792,30.3794 -150.0048,80.71848 17.7238,51.0262 72.9203,87.48632 205.1592,87.48632"
         inkscape:connector-curvature="0" /><path
         id="path262"
         style="fill:#e7bb0e;fill-opacity:1;fill-rule:evenodd;stroke:none;stroke-width:0.60264701"
         d="m 2137.1824,748.48956 c 30.2348,-23.88881 40.5762,-56.38961 40.5762,-92.21691 0,-73.33013 -27.7098,-132.78124 -212.1135,-132.78124 -41.9623,0 -75.789,3.08546 -103.0407,8.70816 240.5827,2.85665 277.2115,83.16529 277.2115,181.84871 0,11.77583 -0.8256,23.29231 -2.6335,34.44128"
         inkscape:connector-curvature="0" /><path
         id="path264"
         style="fill:#fef5b8;fill-opacity:1;fill-rule:evenodd;stroke:none;stroke-width:0.60264701"
         d="m 1869.0769,759.86163 c 58.8062,3.92925 73.8604,-15.7713 73.8604,-41.31154 0,-25.53411 -9.6484,-46.87384 -73.8604,-51.17078 -64.2061,-4.28471 -73.8545,15.76531 -73.8545,41.30554 0,25.5401 15.0542,47.25351 73.8545,51.17678"
         inkscape:connector-curvature="0" /><path
         id="path266"
         style="fill:#fbd724;fill-opacity:1;fill-rule:evenodd;stroke:none;stroke-width:0.60264701"
         d="m 1965.6451,1044.2387 c 168.8796,0 212.1135,-59.44515 212.1135,-132.78128 0,-73.33605 -27.7098,-132.78122 -212.1135,-132.78121 -184.386,0 -212.1078,59.44515 -212.1078,132.78124 0,73.33609 43.228,132.78125 212.1078,132.78125"
         inkscape:connector-curvature="0" /><path
         id="path268"
         style="fill:#fbe972;fill-opacity:1;fill-rule:evenodd;stroke:none;stroke-width:0.60264701"
         d="m 1965.6451,1044.2387 c 26.4079,10e-5 49.7484,-1.4525 70.3288,-4.1884 18.1939,-15.2892 24.5459,-36.4541 24.5459,-60.08399 0,-51.86982 -19.6041,-95.21816 -150.0291,-103.94453 -127.7551,-8.52752 -149.1732,30.3794 -150.0048,80.73658 17.7359,51.02624 72.9263,87.48034 205.1592,87.48034"
         inkscape:connector-curvature="0" /><path
         id="path270"
         style="fill:#e7bb0e;fill-opacity:1;fill-rule:evenodd;stroke:none;stroke-width:0.60264701"
         d="m 2137.1824,1003.6745 c 30.2348,-23.87693 40.5762,-56.38977 40.5762,-92.21708 0,-73.33605 -27.7098,-132.78122 -212.1135,-132.78121 -41.9623,0 -75.789,3.08558 -103.0407,8.70218 240.5827,2.86266 277.2115,83.1714 277.2115,181.85483 0,11.76968 -0.8256,23.28623 -2.6335,34.44128"
         inkscape:connector-curvature="0" /><path
         id="path272"
         style="fill:#fef5b8;fill-opacity:1;fill-rule:evenodd;stroke:none;stroke-width:0.60264701"
         d="m 1869.0829,1015.0464 c 58.8002,3.9172 73.8544,-15.7713 73.8544,-41.31139 0,-25.53422 -9.6484,-46.87395 -73.8544,-51.17077 -64.2121,-4.28484 -73.8605,15.76518 -73.8605,41.30542 0,25.54009 15.0603,47.24754 73.8605,51.17674"
         inkscape:connector-curvature="0" /><path
         id="path274"
         style="fill:#fbd724;fill-opacity:1;fill-rule:evenodd;stroke:none;stroke-width:0.60264701"
         d="m 1965.6451,1299.4176 c 168.8796,0 212.1135,-59.4391 212.1135,-132.7753 0,-73.3361 -27.7098,-132.7813 -212.1135,-132.7813 -184.386,0 -212.1078,59.4453 -212.1078,132.7813 0,73.3361 43.2399,132.7753 212.1078,132.7753"
         inkscape:connector-curvature="0" /><path
         id="path276"
         style="fill:#fbe972;fill-opacity:1;fill-rule:evenodd;stroke:none;stroke-width:0.60264701"
         d="m 1965.6451,1299.4176 c 26.4078,0 49.7484,-1.4464 70.3287,-4.1824 18.194,-15.2892 24.546,-36.4541 24.546,-60.0839 0,-51.87 -19.6041,-95.2243 -150.0291,-103.9447 -127.7551,-8.5273 -149.1732,30.3796 -150.0048,80.7367 17.7238,51.0202 72.9263,87.4743 205.1592,87.4743"
         inkscape:connector-curvature="0" /><path
         id="path278"
         style="fill:#e7bb0e;fill-opacity:1;fill-rule:evenodd;stroke:none;stroke-width:0.60264701"
         d="m 2137.1824,1258.8594 c 30.2348,-23.8889 40.5762,-56.3958 40.5762,-92.2171 0,-73.3361 -27.7098,-132.7813 -212.1135,-132.7813 -41.9623,0 -75.789,3.0796 -103.0407,8.7023 240.5827,2.8626 277.2115,83.1714 277.2115,181.8427 0,11.7818 -0.8256,23.2985 -2.6335,34.4534"
         inkscape:connector-curvature="0" /><path
         id="path280"
         style="fill:#fef5b8;fill-opacity:1;fill-rule:evenodd;stroke:none;stroke-width:0.60264701"
         d="m 1869.083,1270.2253 c 58.8001,3.9235 73.8543,-15.7713 73.8543,-41.3053 -2e-4,-25.5344 -9.6484,-46.8741 -73.8544,-51.1709 -64.2121,-4.2849 -73.8605,15.7653 -73.8605,41.2994 0,25.5464 15.0603,47.2536 73.8606,51.1768"
         inkscape:connector-curvature="0" /><path
         id="path282"
         style="fill:#fbd724;fill-opacity:1;fill-rule:evenodd;stroke:none;stroke-width:0.60264701"
         d="m 1965.6451,1554.6085 c 168.8796,-10e-5 212.1135,-59.4572 212.1135,-132.7813 0,-73.3421 -27.7098,-132.7811 -212.1135,-132.7811 -184.386,0 -212.1078,59.439 -212.1078,132.7811 0,73.3241 43.2399,132.7813 212.1078,132.7813"
         inkscape:connector-curvature="0" /><path
         id="path284"
         style="fill:#fbe972;fill-opacity:1;fill-rule:evenodd;stroke:none;stroke-width:0.60264701"
         d="m 1965.6451,1554.6085 c 26.4079,0 49.7484,-1.4525 70.3288,-4.1885 18.1939,-15.2891 24.5459,-36.4541 24.5459,-60.0838 0,-51.876 -19.6041,-95.2364 -150.0291,-103.9446 -127.7551,-8.5275 -149.1732,30.3794 -150.0048,80.7245 17.7238,51.0322 72.9263,87.4923 205.1592,87.4924"
         inkscape:connector-curvature="0" /><path
         id="path286"
         style="fill:#e7bb0e;fill-opacity:1;fill-rule:evenodd;stroke:none;stroke-width:0.60264701"
         d="m 2137.1825,1514.0382 c 30.2347,-23.8829 40.5761,-56.3896 40.5761,-92.211 0,-73.3361 -27.7098,-132.7811 -212.1135,-132.7811 -41.9623,0 -75.789,3.0794 -103.0407,8.7021 240.5827,2.8565 277.2115,83.1713 277.2115,181.8428 0,11.7816 -0.8256,23.2862 -2.6334,34.4472"
         inkscape:connector-curvature="0" /><path
         id="path288"
         style="fill:#fef5b8;fill-opacity:1;fill-rule:evenodd;stroke:none;stroke-width:0.60264701"
         d="m 1869.0829,1525.4102 c 58.8002,3.9232 73.8544,-15.7832 73.8544,-41.3055 0,-25.5522 -9.6484,-46.8919 -73.8543,-51.1767 -64.2122,-4.2909 -73.8606,15.7713 -73.8606,41.3054 0,25.5281 15.0603,47.2415 73.8605,51.1768"
         inkscape:connector-curvature="0" /><path
         id="path290"
         style="fill:#fbd724;fill-opacity:1;fill-rule:evenodd;stroke:none;stroke-width:0.60264701"
         d="m 1965.6451,1809.7872 c 168.8795,0 212.1135,-59.4571 212.1135,-132.7812 0,-73.3361 -27.7098,-132.781 -212.1135,-132.7811 -184.386,0 -212.1078,59.445 -212.1078,132.7811 0,73.3242 43.2399,132.7812 212.1078,132.7812"
         inkscape:connector-curvature="0" /><path
         id="path292"
         style="fill:#fbe972;fill-opacity:1;fill-rule:evenodd;stroke:none;stroke-width:0.60264701"
         d="m 1965.6451,1809.7932 c 26.4079,0 49.7484,-1.4584 70.3288,-4.1944 18.1939,-15.2891 24.5459,-36.448 24.5459,-60.0777 0,-51.8759 -19.6041,-95.2362 -150.0291,-103.9447 -127.7551,-8.5275 -149.1732,30.3794 -150.0048,80.7308 17.7359,51.0259 72.9263,87.486 205.1592,87.486"
         inkscape:connector-curvature="0" /><path
         id="path294"
         style="fill:#e7bb0e;fill-opacity:1;fill-rule:evenodd;stroke:none;stroke-width:0.60264701"
         d="m 2137.1824,1769.223 c 30.2348,-23.8889 40.5762,-56.3896 40.5762,-92.217 0,-73.3361 -27.7098,-132.781 -212.1135,-132.7811 -41.9623,0 -75.789,3.0854 -103.0407,8.7081 240.5827,2.8565 277.2115,83.1655 277.2115,181.8368 0,11.7877 -0.8256,23.2923 -2.6335,34.4532"
         inkscape:connector-curvature="0" /><path
         id="path296"
         style="fill:#fef5b8;fill-opacity:1;fill-rule:evenodd;stroke:none;stroke-width:0.60264701"
         d="m 1869.0829,1780.583 c 58.8002,3.9292 73.8544,-15.7713 73.8544,-41.3054 0,-25.5282 -9.6484,-46.8679 -73.8544,-51.1648 -64.2121,-4.2968 -73.8605,15.7653 -73.8605,41.3054 0,25.5281 15.0603,47.2415 73.8605,51.1648"
         inkscape:connector-curvature="0" /><path
         id="path298"
         style="fill:#fbd724;fill-opacity:1;fill-rule:evenodd;stroke:none;stroke-width:0.60264701"
         d="m 1965.6451,2064.966 c 168.8796,0 212.1135,-59.4511 212.1135,-132.7872 0,-73.3301 -27.7096,-132.7812 -212.1135,-132.7812 -184.386,0 -212.1079,59.4511 -212.1078,132.7812 -10e-5,73.3361 43.2399,132.7872 212.1078,132.7872"
         inkscape:connector-curvature="0" /><path
         id="path300"
         style="fill:#fbe972;fill-opacity:1;fill-rule:evenodd;stroke:none;stroke-width:0.60264701"
         d="m 1965.6451,2064.966 c 26.4079,0 49.7484,-1.4584 70.3288,-4.1824 18.1939,-15.3012 24.5459,-36.4661 24.5459,-60.0838 0,-51.8698 -19.6041,-95.2304 -150.0291,-103.9446 -127.7551,-8.5394 -149.1732,30.3794 -150.0048,80.7306 17.7237,51.0201 72.9263,87.4804 205.1592,87.4802"
         inkscape:connector-curvature="0" /><path
         id="path302"
         style="fill:#e7bb0e;fill-opacity:1;fill-rule:evenodd;stroke:none;stroke-width:0.60264701"
         d="m 2137.1824,2024.408 c 30.2348,-23.889 40.5762,-56.4019 40.5762,-92.2292 0,-73.3301 -27.7098,-132.7691 -212.1135,-132.7691 -41.9623,0 -75.789,3.0735 -103.0407,8.7022 240.5827,2.8505 277.2115,83.1712 277.2115,181.8427 0,11.7756 -0.8256,23.2863 -2.6335,34.4534"
         inkscape:connector-curvature="0" /><path
         id="path304"
         style="fill:#fef5b8;fill-opacity:1;fill-rule:evenodd;stroke:none;stroke-width:0.60264701"
         d="m 1869.0829,2035.7678 c 58.8002,3.9233 73.8544,-15.7713 73.8544,-41.3114 0,-25.5343 -9.6484,-46.8739 -73.8544,-51.1587 -64.2121,-4.2969 -73.8605,15.7592 -73.8605,41.2993 0,25.5342 15.0603,47.2415 73.8605,51.1708"
         inkscape:connector-curvature="0" /><path
         id="path306"
         style="fill:#fbd724;fill-opacity:1;fill-rule:evenodd;stroke:none;stroke-width:0.60264701"
         d="m 1965.6451,2320.1448 c 168.8796,-1e-4 212.1135,-59.4451 212.1135,-132.7812 0,-73.3301 -27.7098,-132.7811 -212.1135,-132.781 -184.386,-1e-4 -212.1078,59.4509 -212.1078,132.781 0,73.3361 43.2399,132.7872 212.1078,132.7812"
         inkscape:connector-curvature="0" /><path
         id="path308"
         style="fill:#fbe972;fill-opacity:1;fill-rule:evenodd;stroke:none;stroke-width:0.60264701"
         d="m 1965.6451,2320.1448 c 26.4079,0 49.7484,-1.4524 70.3288,-4.1824 18.1939,-15.289 24.5459,-36.46 24.5459,-60.0838 0,-51.8758 -19.6041,-95.2364 -150.0291,-103.9445 -127.755,-8.5335 -149.1732,30.3853 -150.0048,80.7365 17.7359,51.0201 72.9263,87.4742 205.1592,87.4742"
         inkscape:connector-curvature="0" /><path
         id="path310"
         style="fill:#e7bb0e;fill-opacity:1;fill-rule:evenodd;stroke:none;stroke-width:0.60264701"
         d="m 2137.1824,2279.5868 c 30.2348,-23.883 40.5762,-56.3956 40.5762,-92.2171 0,-73.3362 -27.7098,-132.7872 -212.1135,-132.7871 -41.9623,0 -75.789,3.0854 -103.0407,8.7082 240.5827,2.8564 277.2115,83.1773 277.2115,181.8426 0,11.7818 -0.8256,23.2923 -2.6335,34.4534"
         inkscape:connector-curvature="0" /><path
         id="path312"
         style="fill:#fef5b8;fill-opacity:1;fill-rule:evenodd;stroke:none;stroke-width:0.60264701"
         d="m 1869.0829,2290.9467 c 58.8002,3.9292 73.8544,-15.7714 73.8544,-41.3055 0,-25.5341 -9.6484,-46.88 -73.8544,-51.1647 -64.2121,-4.2909 -73.8605,15.7652 -73.8605,41.2993 0,25.5402 15.0601,47.2415 73.8605,51.1709"
         inkscape:connector-curvature="0" /><path
         id="path314"
         style="fill:#fbd724;fill-opacity:1;fill-rule:evenodd;stroke:none;stroke-width:0.60264701"
         d="m 1965.6451,2575.3296 c 168.8796,0 212.1135,-59.4511 212.1135,-132.7811 0,-73.3362 -27.7098,-132.7812 -212.1135,-132.7812 -184.386,1e-4 -212.1078,59.445 -212.1079,132.7812 10e-5,73.33 43.24,132.7811 212.1079,132.7811"
         inkscape:connector-curvature="0" /><path
         id="path316"
         style="fill:#fbe972;fill-opacity:1;fill-rule:evenodd;stroke:none;stroke-width:0.60264701"
         d="m 1965.6451,2575.3296 c 26.4079,0 49.7484,-1.4522 70.3288,-4.1884 18.1939,-15.289 24.5459,-36.4601 24.5459,-60.0838 0,-51.8697 -19.6041,-95.2302 -150.0291,-103.9385 -127.7551,-8.5335 -149.1732,30.3795 -150.0048,80.7184 17.7238,51.0322 72.9264,87.4923 205.1592,87.4923"
         inkscape:connector-curvature="0" /><path
         id="path318"
         style="fill:#e7bb0e;fill-opacity:1;fill-rule:evenodd;stroke:none;stroke-width:0.60264701"
         d="m 2137.1824,2534.7716 c 30.2346,-23.889 40.5762,-56.4017 40.5762,-92.2231 0,-73.3362 -27.7098,-132.7812 -212.1135,-132.7812 -41.9623,0 -75.789,3.0795 -103.0407,8.7082 240.5827,2.8506 277.2115,83.1714 277.2115,181.8367 0,11.7879 -0.8256,23.2922 -2.6335,34.4594"
         inkscape:connector-curvature="0" /><path
         id="path320"
         style="fill:#fef5b8;fill-opacity:1;fill-rule:evenodd;stroke:none;stroke-width:0.60264701"
         d="m 1869.0829,2546.1254 c 58.8002,3.9353 73.8544,-15.7652 73.8544,-41.3054 0,-25.5341 -9.6484,-46.88 -73.8544,-51.1647 -64.2121,-4.2909 -73.8605,15.7712 -73.8606,41.3054 0,25.5342 15.0604,47.2416 73.8606,51.1647"
         inkscape:connector-curvature="0" /><path
         id="path322"
         style="fill:#fbd724;fill-opacity:1;fill-rule:evenodd;stroke:none;stroke-width:0.60264701"
         d="m 1965.6451,2830.5147 c 168.8796,-1e-4 212.1135,-59.4572 212.1135,-132.7873 0,-73.3301 -27.7098,-132.7874 -212.1135,-132.7874 -184.386,0 -212.1078,59.4573 -212.1078,132.7874 0,73.3299 43.2399,132.7873 212.1078,132.7873"
         inkscape:connector-curvature="0" /><path
         id="path324"
         style="fill:#fbe972;fill-opacity:1;fill-rule:evenodd;stroke:none;stroke-width:0.60264701"
         d="m 1965.6451,2830.5147 c 26.4079,0 49.7484,-1.4525 70.3287,-4.1946 18.194,-15.289 24.546,-36.4481 24.546,-60.0779 0,-51.8758 -19.6041,-95.2302 -150.0291,-103.9384 -127.7551,-8.5335 -149.1732,30.3794 -150.0048,80.7245 17.7359,51.0263 72.9263,87.4863 205.1592,87.4864"
         inkscape:connector-curvature="0" /><path
         id="path326"
         style="fill:#e7bb0e;fill-opacity:1;fill-rule:evenodd;stroke:none;stroke-width:0.60264701"
         d="m 2137.1824,2789.9505 c 30.2348,-23.889 40.5762,-56.3958 40.5762,-92.2172 0,-73.336 -27.7098,-132.7933 -212.1135,-132.7933 -41.9623,0 -75.789,3.0916 -103.0407,8.7204 240.5827,2.8505 277.2115,83.1653 277.2115,181.8366 0,11.7818 -0.8256,23.2983 -2.6335,34.4535"
         inkscape:connector-curvature="0" /><path
         id="path328"
         style="fill:#fef5b8;fill-opacity:1;fill-rule:evenodd;stroke:none;stroke-width:0.60264701"
         d="m 1869.083,2801.3102 c 58.8001,3.9294 73.8543,-15.771 73.8543,-41.3054 0,-25.5401 -9.6484,-46.8798 -73.8544,-51.1708 -64.2121,-4.2908 -73.8606,15.7713 -73.8605,41.3116 0,25.5342 15.0603,47.2415 73.8606,51.1646"
         inkscape:connector-curvature="0" /><path
         id="path330"
         style="fill:#fbd724;fill-opacity:1;fill-rule:evenodd;stroke:none;stroke-width:0.60264701"
         d="m 1965.6451,3085.6934 c 168.8795,0 212.1135,-59.4511 212.1135,-132.7812 0,-73.3361 -27.7098,-132.7873 -212.1135,-132.7873 -184.386,0 -212.1078,59.4512 -212.1078,132.7873 0,73.3301 43.228,132.7812 212.1078,132.7812"
         inkscape:connector-curvature="0" /><path
         id="path332"
         style="fill:#fbe972;fill-opacity:1;fill-rule:evenodd;stroke:none;stroke-width:0.60264701"
         d="m 1965.6451,3085.6934 c 26.4079,0 49.7484,-1.4584 70.3288,-4.1945 18.1939,-15.2831 24.5459,-36.448 24.5459,-60.0778 0,-51.8699 -19.6043,-95.2303 -150.0291,-103.9386 -127.7551,-8.5395 -149.1732,30.3795 -150.0048,80.7246 17.7359,51.0322 72.9263,87.4863 205.1592,87.4863"
         inkscape:connector-curvature="0" /><path
         id="path334"
         style="fill:#e7bb0e;fill-opacity:1;fill-rule:evenodd;stroke:none;stroke-width:0.60264701"
         d="m 2137.1824,3045.1292 c 30.2348,-23.8829 40.5762,-56.3957 40.5762,-92.217 0,-73.3361 -27.7098,-132.7873 -212.1135,-132.7873 -41.9623,0 -75.789,3.0855 -103.0407,8.7082 240.5827,2.8567 277.2115,83.1774 277.2115,181.8488 0,11.7757 -0.8256,23.2922 -2.6335,34.4473"
         inkscape:connector-curvature="0" /><path
         id="path336"
         style="fill:#fef5b8;fill-opacity:1;fill-rule:evenodd;stroke:none;stroke-width:0.60264701"
         d="m 1869.0829,3056.4952 c 58.8002,3.9231 73.8544,-15.7713 73.8544,-41.3055 0,-25.5402 -9.6484,-46.8859 -73.8544,-51.1648 -64.2121,-4.2968 -73.8605,15.7592 -73.8605,41.2993 0,25.5343 15.0603,47.2417 73.8605,51.171"
         inkscape:connector-curvature="0" /><path
         id="path338"
         style="fill:#fbd724;fill-opacity:1;fill-rule:evenodd;stroke:none;stroke-width:0.60264701"
         d="m 1965.6451,3340.8722 c 168.8796,0 212.1135,-59.4511 212.1135,-132.7811 0,-73.3362 -27.7098,-132.7812 -212.1135,-132.7814 -184.386,0 -212.1079,59.4452 -212.1078,132.7813 -10e-5,73.3301 43.2399,132.7812 212.1078,132.7812"
         inkscape:connector-curvature="0" /><path
         id="path340"
         style="fill:#fbe972;fill-opacity:1;fill-rule:evenodd;stroke:none;stroke-width:0.60264701"
         d="m 1965.6451,3340.8722 c 26.4079,0 49.7484,-1.4523 70.3288,-4.1884 18.1939,-15.2832 24.5459,-36.4481 24.5459,-60.0778 0,-51.87 -19.6041,-95.2304 -150.0291,-103.9386 -127.7551,-8.5455 -149.1732,30.3794 -150.0048,80.7246 17.7359,51.0321 72.9263,87.4803 205.1592,87.4802"
         inkscape:connector-curvature="0" /><path
         id="path342"
         style="fill:#e7bb0e;fill-opacity:1;fill-rule:evenodd;stroke:none;stroke-width:0.60264701"
         d="m 2137.1824,3300.314 c 30.2348,-23.8828 40.5762,-56.3957 40.5762,-92.2169 0,-73.3422 -27.7098,-132.7872 -212.1135,-132.7874 -41.9623,0 -75.7892,3.0856 -103.0407,8.7083 240.5827,2.8566 277.2115,83.1713 277.2115,181.8488 0,11.7756 -0.8256,23.2923 -2.6335,34.4472"
         inkscape:connector-curvature="0" /><path
         id="path344"
         style="fill:#fef5b8;fill-opacity:1;fill-rule:evenodd;stroke:none;stroke-width:0.60264701"
         d="m 1869.0829,3311.674 c 58.8002,3.9292 73.8544,-15.7713 73.8544,-41.3116 0,-25.5281 -9.6484,-46.8738 -73.8543,-51.1586 -64.2122,-4.2969 -73.8606,15.7653 -73.8606,41.2994 0,25.5401 15.0603,47.2475 73.8605,51.1708"
         inkscape:connector-curvature="0" /><path
         id="path346"
         style="fill:#fbd724;fill-opacity:1;fill-rule:evenodd;stroke:none;stroke-width:0.60264701"
         d="m 1965.6451,3596.057 c 168.8795,0 212.1135,-59.4511 212.1135,-132.7812 0,-73.3421 -27.7098,-132.7872 -212.1135,-132.7872 -184.3981,0 -212.1078,59.4511 -212.1078,132.7872 0,73.3301 43.228,132.7812 212.1078,132.7812"
         inkscape:connector-curvature="0" /><path
         id="path348"
         style="fill:#fbe972;fill-opacity:1;fill-rule:evenodd;stroke:none;stroke-width:0.60264701"
         d="m 1965.6451,3596.057 c 26.4079,0 49.7484,-1.4584 70.3166,-4.1884 18.2061,-15.2892 24.5581,-36.454 24.5581,-60.0839 0,-51.8759 -19.6041,-95.2242 -150.0291,-103.9385 -127.755,-8.5335 -149.1792,30.3794 -150.0048,80.7245 17.7238,51.0322 72.9203,87.4865 205.1592,87.4863"
         inkscape:connector-curvature="0" /><path
         id="path350"
         style="fill:#e7bb0e;fill-opacity:1;fill-rule:evenodd;stroke:none;stroke-width:0.60264701"
         d="m 2137.1824,3555.4869 c 30.2348,-23.877 40.5762,-56.3898 40.5762,-92.2111 0,-73.3421 -27.7098,-132.7872 -212.1135,-132.7872 -41.9623,0 -75.789,3.0855 -103.0407,8.7084 240.5827,2.8564 277.2115,83.1771 277.2115,181.8424 0,11.7818 -0.8256,23.2985 -2.6335,34.4475"
         inkscape:connector-curvature="0" /><path
         id="path352"
         style="fill:#fef5b8;fill-opacity:1;fill-rule:evenodd;stroke:none;stroke-width:0.60264701"
         d="m 1869.0768,3566.8528 c 58.8063,3.9292 73.8605,-15.7653 73.8605,-41.2994 0,-25.5401 -9.6484,-46.886 -73.8604,-51.1708 -64.2061,-4.2909 -73.8545,15.7653 -73.8545,41.2994 0,25.5401 15.0542,47.2415 73.8544,51.1708"
         inkscape:connector-curvature="0" /><path
         id="path354"
         style="fill:#78aa31;fill-opacity:1;fill-rule:evenodd;stroke:none;stroke-width:0.60264701"
         d="M 1691.1394,527.51099 C 2863.583,225.844 2550.4476,1958.9483 2984.8113,2015.9769 2284.397,2419.5394 2125.5151,1012.1959 1691.1394,527.51099"
         inkscape:connector-curvature="0" /><path
         id="path356"
         style="fill:#69982d;fill-opacity:1;fill-rule:evenodd;stroke:none;stroke-width:0.60264701"
         d="m 1738.7002,516.34393 c 124.6214,-27.10703 231.6876,-30.26487 324.0252,-14.24054 -61.687,123.33171 -97.5866,273.49335 -124.0247,433.51412 -52.9305,-112.60457 -108.127,-217.59168 -168.3073,-305.83731 l -31.6932,-113.43627"
         inkscape:connector-curvature="0" /><path
         id="path358"
         style="fill:#94c64a;fill-opacity:1;fill-rule:evenodd;stroke:none;stroke-width:0.60264701"
         d="m 2981.8946,2017.5558 c -422.112,240.667 -647.1223,-177.7627 -854.9995,-653.203 180.4387,369.0009 490.6211,706.477 854.8368,651.1781 l 0.1627,2.0249"
         inkscape:connector-curvature="0" /><path
         id="path360"
         style="fill:#94c64a;fill-opacity:1;fill-rule:evenodd;stroke:none;stroke-width:0.60264701"
         d="M 1691.1394,527.51099 C 2392.8433,346.96397 2562.3859,895.24024 2678.5582,1376.8578 2435.354,910.74029 2165.9106,500.5004 1691.1394,527.51099"
         inkscape:connector-curvature="0" /><path
         id="path362"
         style="fill:#78aa31;fill-opacity:1;fill-rule:evenodd;stroke:none;stroke-width:0.60264701"
         d="m 1738.6882,516.31986 c 124.6334,-27.11303 231.6936,-30.2408 324.0372,-14.21647 -13.885,27.78202 -26.4802,56.90192 -37.9366,87.19697 -85.6724,-39.64813 -179.4322,-62.0666 -283.2922,-62.96454 l -2.8084,-10.01596"
         inkscape:connector-curvature="0" /><path
         id="path364"
         style="fill:#69982d;fill-opacity:1;fill-rule:evenodd;stroke:none;stroke-width:0.60264701"
         d="M 1787.7316,580.39931 C 2389.1009,885.89912 2347.2289,1431.1019 2638.205,1884.9132 2143.462,1590.3032 2163.1866,946.25435 1787.7316,580.39931"
         inkscape:connector-curvature="0" /><path
         id="path366"
         style="fill:#58822c;fill-opacity:1;fill-rule:evenodd;stroke:none;stroke-width:0.60264701"
         d="m 1787.7316,580.39931 c 76.042,38.62369 141.7666,81.09829 199.2049,126.73071 -9.0759,33.30216 -17.2417,67.56878 -24.6964,102.57051 -48.3865,-83.37626 -104.5774,-161.16589 -174.5085,-229.30122"
         inkscape:connector-curvature="0" /><path
         id="path368"
         style="fill:#78aa31;fill-opacity:1;fill-rule:evenodd;stroke:none;stroke-width:0.60264701"
         d="M 2065.5639,496.45661 C 869.79295,188.78124 1189.1603,1956.3812 746.14666,2014.5426 1460.5063,2426.1384 1622.546,990.78379 2065.5639,496.45661"
         inkscape:connector-curvature="0" /><path
         id="path370"
         style="fill:#69992d;fill-opacity:1;fill-rule:evenodd;stroke:none;stroke-width:0.60264701"
         d="m 749.12224,2016.1637 c 430.50896,245.452 660.00836,-181.3003 872.03166,-666.2142 -184.0363,376.3411 -500.3916,720.5368 -871.87393,664.1472 l -0.15773,2.067"
         inkscape:connector-curvature="0" /><path
         id="path372"
         style="fill:#69992d;fill-opacity:1;fill-rule:evenodd;stroke:none;stroke-width:0.60264701"
         d="M 2065.5639,496.45661 C 1349.8965,312.30584 1176.9778,871.48996 1058.4943,1362.7015 1306.5469,887.29728 1581.343,468.90366 2065.5639,496.45661"
         inkscape:connector-curvature="0" /><path
         id="path374"
         style="fill:#94c64a;fill-opacity:1;fill-rule:evenodd;stroke:none;stroke-width:0.60264701"
         d="m 1967.0613,550.39358 c -613.338,311.58055 -570.6405,867.63692 -867.4007,1330.47582 504.583,-300.4737 484.4667,-957.33498 867.4007,-1330.47582"
         inkscape:connector-curvature="0" /></g></g></svg>