<svg xmlns="http://www.w3.org/2000/svg" viewBox="0 0 480 480.00001" width="512" height="512"><path d="M261.715 53.928c3.84 2.715 6.15 4.057 6.944 4.057 1.905.737 5.355 1.358 10.365 1.747 3.45.347 7.508-.216 12.128-1.747 2.31-.78 2.873 0 1.747 2.31-2.31 5.76 3.84 13.485 18.45 23.13 6.542 4.562 10.6 8.07 12.115 10.38 1.198 2.7 5.99 3.437 14.437 2.31l-1.69 4c-1.183 3.104-.778 5.587 1.127 7.565 1.53 1.516 3.84 2.483 6.944 2.873 3.104.39 5.414 1.747 6.93 4 2.324 2.714 2.15 6.944-.563 12.748-2.7 5.357-5.976 9.82-9.802 13.255-2.325 1.978-6.598 8.128-12.75 18.494-1.53 2.31-1.92 4.634-1.125 6.944.39 1.126 1.126 3.436 2.31 6.93.39 2.657.173 5.356-.563 8.07-1.978 5.747-3.104 9.24-3.494 10.382-1.14 4.273-1.14 7.32 0 9.24.78 1.184 2.31 3.104 4.62 5.818 4.23 6.54 8.85 10.93 13.875 13.254 3.827 1.516 8.288 7.883 13.255 19.058 3.883 8.056 5.587 12.344 5.183 12.69 1.588 1.92 3.277 4.057 5.24 6.367 1.92 2.31 3.047 5.198 3.45 8.692.78 11.507 1.358 18.047 1.748 19.62 1.126 3.84.173 9.587-2.873 17.312-.404 3.45.563 5.76 2.873 6.944 1.126 1.185 3.263 2.31 6.31 3.437 2.31 1.184 3.335 3.104 2.93 5.804 0 1.142-.39 2.89-1.184 5.2-.39 1.515 2.715 3.666 9.255 6.308 1.126.794 3.277 1.588 6.367 2.31 2.657.794 4.072 1.588 4.072 2.325 0 5.804 2.08 9.644 6.31 11.55 4.23 1.92 6.943 3.84 8.127 5.818l1.69 4.62c1.183 3.048 3.667 4.968 7.493 5.748 1.92 1.53 4.793 5.197 8.69 10.943 1.92 2.31 4 1.59 6.31-2.25l1.762 10.38c.39 2.31 1.906 5.414 4.62 9.24 1.516 1.92 3.84 4.793 6.93 8.634 1.126 1.978.563 5.587-1.747 11-3.045 6.93-4.62 11.335-4.62 13.255-.33 0-.952.62-1.688 1.746-1.184 2.31-2.31 5.746-3.494 10.38-2.714 12.735-5.76 22.726-9.255 30.06-1.92 3.494-3.436 4.23-4.62 2.31l-2.887-5.197c-2.31 0-4.23-.39-5.747-1.185-3.105-1.126-5.184-3.826-6.368-8.057l-2.887-8.128-15 7.002c-1.964.722-3.668.563-5.184-.62-.793-1.127-3.103-4.404-6.944-9.818-2.31-3.84-5.804-7.667-10.424-11.565-6.15-4.563-9.817-7.667-10.943-9.24-3.106-3.047-6.773-5.2-11.003-6.325-3.436-.794-5.573-1.357-6.31-1.747-2.714-1.516-8.128 0-16.184 4.62-3.104 1.92-4.85-.78-5.198-8.056l-10.987 2.31c-4.634 1.516-6.15-2.93-4.634-13.31.794-4.62 0-6.93-2.31-6.93-3.047 1.182-5.588 1.515-7.493 1.182-1.92-.404-2.887-1.588-2.887-3.508.404-1.906.563-3.263.563-4 .404-1.183-.78-3.493-3.436-6.987-2.31-3.047-4.62-5.357-6.93-6.888-1.53-1.574-3.508-2.137-5.82-1.747l-10.365 2.31c-10.38 2.715-17.715 2.484-21.945-.563-3.104-1.978-7.724-4.057-13.875-6.367-3.436-1.184-7.897-1.184-13.254 0l-7.492 1.747c3.436-4.23 4.23-7.724 2.31-10.38-1.588-1.92-3.667-3.278-6.38-4.058-3.09-.794-9.415-1.357-19.06-1.747-9.643-.404-16.357-1.126-20.183-2.31-3.508-1.14-8.69-4.634-15.622-10.38-6.15-5.025-10.38-7.667-12.69-8.07-4.23.403-9.255.403-15 0-7.336-.39-11.393-1.575-12.13-3.495-.403-2.657-1.587-5.356-3.493-8.07-2.324-2.7-2.093-4.23.563-4.62 4.62-.737 7.493-1.517 8.677-2.31 2.715-1.92 2.484-4-.563-6.324l-19.62-11.55c-8.52-4.635-16.185-6.382-23.13-5.198-6.15 2.656-10.38 4.23-12.69 4.634-2.7.332-3.668.332-2.93 0 2.31-1.588 4.46-2.945 6.38-4.07 7.724-4.62 11.723-10.598 12.113-17.933.794-14.206-3.263-20.414-12.113-18.436-4.634 1.126-9.255-3.494-13.875-13.874-4.23-8.46-6.713-15.795-7.507-21.946-.39-2.7 1.184-5.573 4.62-8.677 4.23-3.436 6.77-7.103 7.507-10.944 1.184-5.414.39-8.908-2.31-10.438-1.53-1.126-4.793-1.906-9.817-2.31-2.642-.39-2.873-1.357-.563-2.873 4.62-3.494 7.507-5.977 8.69-7.508 3.437-3.494 5.184-5.804 5.184-6.93.39-1.53-1.184-2.54-4.62-2.873-5.024-.403-10.38 2.643-16.184 9.183-1.14-2.31-1.358-7.262-.563-15 .388-3.826-1.2-8.057-4.636-12.69-3.436-4.62-5.01-9.025-4.62-13.298.39-4.635.953-7.508 1.747-8.634 1.517-2.31 2.657-4.23 3.437-5.803 1.184-3.84 5.414-4.635 12.69-2.325 6.54 2.325 13.876 6.382 22.004 12.128 6.137 4.288 11.898 5.024 17.312 2.31 2.7-1.516 4.793-3.436 6.31-5.746 1.977-2.31.793-6.15-3.437-11.565-2.31-3.437-2.7-7.104-1.126-10.944 3.045-6.93 4.56-10.988 4.56-12.114.795-3.898.232-7.175-1.688-9.817-1.574-1.574-1.747-2.715-.62-3.494.793-.404 3.276-.404 7.564 0 3.437 0 6.54-1.356 9.183-4.07 2.713-2.643 2.93-5.184.62-7.494-2.31-1.92-2.7-3.277-1.184-4 1.53-.793 5.818-1.76 12.69-2.944 6.945-1.516 11.002-2.643 12.186-3.437 1.126-.794 1.3-2.873.563-6.367-.794-4.23-.563-7.276.563-9.197 1.53-2.698 3.436-4.287 5.746-4.62 1.978-.403 3.51 0 4.635 1.128.39.39.62 2.873.62 7.493 0 4.23 1.126 5.588 3.436 4.072 4.23-2.324 10.597-5.197 19.058-8.69 1.126-.738-.953-5.59-6.367-14.44-4.62-8.07-6.324-12.286-5.184-12.69 6.54-1.516 10.208-2.31 10.988-2.31 5.357-.736 9.818 0 13.254 2.31 3.104 2.714 6.772 3.84 11.002 3.436 2.31 0 4.966-.563 8.07-1.69 8.85-1.183 15 1.92 18.495 9.256 1.517 3.436 3.827 6.15 6.93 8.056 3.452 1.92 5.358 3.104 5.762 3.45 1.184 1.574 3.104 2.31 5.746 2.31 1.978 0 5.414-.173 10.44-.562 2.7.39 4.23 1.747 4.62 4.057 0 3.436.345 5.587 1.125 6.323 1.184 1.574 3.104 2.7 5.818 3.494 3.438 1.126 5.92 2.31 7.495 3.436z" fill-rule="evenodd" fill="#678a45"/><path d="M276.152 219.11l-8.677-10.366 2.31-5.197c2.31-2.7 4.794-2.7 7.493 0 3.84 3.046 8.692 9.586 14.438 19.635 6.15 9.976 9.645 17.31 10.44 21.93 3.045 12.302 9.412 25.21 19 38.694 5.817 8.46 11.794 13.254 17.945 14.438 1.907-6.15 2.08-14.265.564-24.256-1.92-10.034-3.278-16.748-4.072-20.242-1.126-5.356-.332-7.276 2.31-5.76 2.715 1.92 6.21 7.118 10.44 15.578 3.84 8.504 5.976 15.39 6.323 20.805.78 3.493 1.342 9.643 1.747 18.494.78 8.07 2.31 14.047 4.62 17.888 4.62 7.724 11.737 11.954 21.382 12.734 7.666 1.126 15.217 6.945 22.494 17.325 4.23 6.542 10.828 13.645 19.62 21.37 1.98 3.103 11.407 13.484 28.313 31.185v8.07c0 1.92-2.31 6.367-6.93 13.312-2.713 4.562-3.435 6.93-2.31 6.93v15c.795 5.357-2.872 12.923-10.943 22.51l-1.184-2.31c1.184-8.072.953-12.923-.563-14.44-3.104-4.23-9.817-9.253-20.198-15-5.414-3.104-10.424-4.07-15.06-2.887-4.62.736-8.055.347-10.365-1.184-3.84-2.31-5.198-4.447-4.07-6.367 1.197-1.53 3.507-2.657 6.943-3.437l9.255-2.325c2.31-1.905.78-5.183-4.635-9.803-5.356-5.024-10.944-8.128-16.748-9.254-6.93-1.183-12.69-2.136-17.31-2.872-1.92-.39-9.024-1.184-21.383-2.31-8.85-.795-15.78-2.54-20.748-5.198-5.414-2.7-9.875-6.54-13.31-11.55l-3.437-6.945 32.31 2.31c8.072 1.92 22.163 7.118 42.188 15.564-9.254-8.85-18.105-16.344-26.623-22.495-3.826-3.104-10.77-5.197-20.747-6.38-10.38-.723-18.278-2.874-23.692-6.31-6.54-3.84-14.61-6.772-24.255-8.692-10.034-1.126-16.964-2.08-20.804-2.873-6.54-1.516-16.357-5.01-29.438-10.38-13.875-6.137-21.945-10.77-24.255-13.876-2.31-3.03-1.516-5.977 2.31-8.62 3.45-3.103 7.334-4.46 11.564-4.056 3.438.332 13.645 4.057 30.566 10.93 15.405 6.554 27.36 11.968 35.82 16.184l11.565 5.76c.78 0-1.14-2.482-5.76-7.507-2.7-3.046-8.114-6.54-16.185-10.366-8.07-4.23-14.437-8.866-19.058-13.876-5.76-5.76-13.658-10.207-23.692-13.254-12.286-2.31-21.93-4.634-28.875-6.944-8.46-2.7-14.207-7.103-17.31-13.312l-2.31-8.056 26 5.183c18.092 4.23 28.472 7.105 31.187 8.693l46.75 28.875c-11.16-19.29-18.28-31.027-21.383-35.257-12.677-18.883-22.884-31.01-30.565-36.367-21.6-13.875-36.99-25.772-46.245-35.82l-40.382-43.314 15 13.31c5.025 2.658 17.326 11.508 36.947 26.566 8.46 6.54 21.21 13.08 38.13 19.62-17.715-20.803-29.44-35.414-35.257-43.875-3.826-5.413-6.873-10.596-9.197-15.62l-2.31-6.368 6.944 4.057c4.967 3.84 8.85 7.507 11.507 11 3.884 5.747 17.138 17.702 39.863 35.807l-5.183-10.425c-8.85-14.22-16.98-29.28-24.256-45.06-4.62-10.77-5.803-18.668-3.493-23.634 2.715-5.025 6.21-5.414 10.44-1.184 3.435 3.494 6.308 8.287 8.618 14.438 1.53 4.23 4.072 12.127 7.508 23.677 2.7 7.738 9.08 22.898 19.058 45.637 4.23 9.645 15.622 26.955 34.074 51.99-3.45-5.804-6.324-12.748-8.634-20.804-1.516-5.025-5.587-11.334-12.128-19.073z" fill="#779e39" fill-rule="evenodd"/><path d="M108.66 126.117c.78 1.184 4.62 2.714 11.55 4.62 4.635 1.184 5.415 3.84 2.325 8.13 1.516 0 3.436-.796 5.746-2.312 1.98-1.588 4.058-1.977 6.368-1.183.794 2.7 1.92 7.897 3.45 15.62 1.185 6.54 2.7 11.898 4.62 16.128-2.31.794-6.944-.173-13.816-2.873-.794 2.7.953 4.62 5.183 5.804 5.356 1.53 8.46 3.668 9.255 6.325-1.574.78-3.278.78-5.24 0-2.326-1.53-4.015-2.484-5.2-2.888-.39 4.23 2.542 7.118 8.693 8.692 6.93 1.92 11.16 3.998 12.69 6.308-1.92 1.588-5.587.967-10.943-1.69-4.288-1.977-6.945-.952-8.13 2.874-2.7.736-4.23-.39-4.62-3.494 0-2.642-.952-3.826-2.872-3.436-1.126 4.23-3.84 5.024-8.07 2.31-7.32-5.025-11.782-7.724-13.312-8.114 4.23-.737 7.334-.347 9.254 1.184 1.92-1.184 1.747-2.152-.563-2.888-2.7-.39-4.057-1.516-4.057-3.494.78-.332 2.7-.563 5.804-.563 1.53 0 2.657-1.126 3.436-3.436l-19.057-6.38c-1.516 1.53-1.92 4.07-1.127 7.507 1.127 3.84 1.358 6.367.564 7.508-3.494 0-8.692 1.184-15.622 3.494l-.563-9.82c3.104.737 5.977.333 8.677-1.183 2.324-1.516 3.277-3.84 2.887-6.93 4.62-3.046 9.803-3.45 15.563-1.14 6.54 2.656 11.392 3.61 14.438 2.887-2.655-1.92-10.943-4.23-24.817-6.945-10.77-2.31-17.138-7.104-19.058-14.438 6.93-1.126 11.564-1.516 13.874-1.126 3.104.736 5.414 2.873 6.93 6.323 7.276-6.15 11.737-10.945 13.253-14.438-2.642-.737-4.403-1.92-5.183-3.45l-2.31 9.254c-1.53 1.126-3.104 1.126-4.634 0-1.92-1.574-3.436-1.978-4.62-1.184l5.804-4.62c3.84-3.047 4.634-5.992 2.31-8.634 1.14-.39 1.703-.39 1.703 0 0 .736-.173 1.357-.563 1.69zm2.873 23.692c0 1.92.794 3.666 2.31 5.182 6.54-4.23 9.082-7.666 7.494-10.38-1.906 2.31-3.826 2.887-5.747 1.747-2.7-1.517-4.62-1.907-5.746-1.185 1.126 1.184 1.69 2.714 1.69 4.634z" fill="#78b22a" fill-rule="evenodd"/><path d="M110.407 197.743l-8.07-4.62c1.126-.737 2.252-1.53 3.436-2.31 2.324-1.14 3.84-1.53 4.634-1.14l12.128 4.633c3.09 1.516 5.01 1.343 5.746-.62l19.06 5.804c2.31.39 3.666 1.357 4.07 2.873.39 1.184-.23 2.15-1.76 2.887-2.7.78-8.288-.173-16.75-2.887-3.825-1.127-6.308-1.516-7.492-1.127-2.31.347-3.667.564-4.07.564-1.907 0-5.517-1.343-10.93-4.057z" fill="#59851f" fill-rule="evenodd"/><path d="M95.97 204.673c1.515-.78 7.103-.16 16.747 1.76 1.92 0 5.357.16 10.38.564h8.678c7.666.39 14.828 3.826 21.382 10.366l-4.634-1.126c-3.826-2.31-8.85-3.667-15.06-4.057-4.23-.39-7.102-.173-8.618.563l-1.747 1.747-.563 1.184c-.404.737-.23 1.69.563 2.873 1.516 1.53 6.757 3.047 15.622 4.635 3.436.736 4.793 2.642 4 5.746h-5.184c-3.45.404-5.76.967-6.945 1.747-1.125.794-1.125 2.31 0 4.634.795 1.515 2.152 3.825 4.058 6.93 1.53 3.436 1.92 8.633 1.126 15.563l2.946 11.002c.332 1.92 3.046 8.056 8.056 18.495l7.507 8.633c.39.39.953 2.542 1.747 6.368 1.127 4.23 2.31 7.508 3.437 9.818 1.92 5.025 7.897 10.208 17.93 15.622-11.953-3.494-19.446-6.945-22.55-10.44-1.92-2.31-3.61-3.666-5.198-3.998-.78-.39-2.47-.39-5.184 0-7.724.736-13.254.563-16.748-.62-2.31-1.127-5.183-1.69-8.69-1.69-1.517.39-2.08.39-1.69 0 1.125-.794-.39-2.93-4.62-6.38-4.23-3.495-9.255-6.7-15.002-9.805-6.598-3.508-11-5.414-13.31-5.818-2.715-.333-7.104.403-13.255 2.31-8.517 3.103-12.516 3.897-12.127 2.323L75.15 282.06l.563 2.93c.794 1.92 2.152 2.656 4.072 2.31 2.31 0 6.54-1.357 12.676-4.057 4.29-1.92 8.303-2.715 12.13-2.31 1.977.39 4.287.736 6.943 1.126 1.978 0 4.057-2.658 6.367-8.072 2.715-5.746 4.404-11.333 5.198-16.748.78-4.62-.173-7.103-2.888-7.493-8.056-1.53-12.69-2.483-13.874-2.887-11.16-4.23-16.517-6.54-16.185-6.93 8.924-2.31 17.37-2.715 25.44-1.127 2.715.332 3.84-.967 3.437-4.057-.333-3.104-1.906-6.944-4.563-11.564-2.31-3.45-6.54-5.588-12.748-6.382-8.057-.39-14.61-.722-19.62-1.126-5.762-.78-5.59-2.483.562-5.183 7.724-3.103 12.128-5.023 13.31-5.817z" fill="#6ba025" fill-rule="evenodd"/><path d="M223.02 355.43c-.778.738-2.698.954-5.803.564-5.746-1.183-8.85-1.747-9.254-1.747h-24.24c-8.072.795-13.255.795-15.565 0-6.15-2.714-10.612-5.587-13.31-8.633-1.922-2.31-5.2-4.85-9.82-7.493-4.966-2.714-8.633-4.07-10.943-4.07-1.963.403-4.057.172-6.367-.564-2.714-.39-5.183-.62-7.508-.62-3.826.793-6.367 1.183-7.493 1.183-1.184 0-1.92-.78-2.31-2.31l-2.887-8.678-5.24-8.634 9.253 1.126c2.7.794 4.23 2.152 4.62 4.057 0 1.922 1.184 3.452 3.494 4.636 2.31 1.516 4.404 1.92 6.324 1.126 8.462-1.53 13.702-1.53 15.623 0 2.31 1.574 8.056 4.62 17.31 9.24 5.415 3.51 14.438 5.198 27.13 5.198 2.31 0 5.803-.563 10.437-1.69 4.23-.794 7.667-.23 10.367 1.69 12.69 9.24 18.105 14.437 16.184 15.62zM217.217 362.36c3.494-.778 6.54-.778 9.255 0 4.23 1.532 8.677 2.095 13.312 1.705l13.817 3.494c3.105 1.125 6.93.158 11.55-2.932 2.715-1.92 5.198-2.267 7.508-1.14l6.93 1.76 2.888 1.127 4.62 7.493c-1.126-.39-2.483-.736-4-1.126-2.713-.794-4.85-1.01-6.38-.62-3.437 1.587-9.24 2.93-17.312 4.056-1.92.794-5.183.794-9.817 0-4.62-.722-7.493-1.905-8.677-3.436-1.53-1.978-2.715-3.263-3.45-4.057-1.185-1.184-2.932-1.357-5.242-.563-2.252.736-4.793 1.126-7.493 1.126-3.046-.39-5.024-.39-5.76 0l-8.678 1.747c-1.126.39-2.093.563-2.887.563-.78 0-.78-.332 0-1.126l5.197-6.367zM142.156 260.113c-.794-1.905-.953-4.057-.563-6.367.794-3.046 1.126-4.793 1.126-5.183 0-1.53.952-2.483 2.872-2.887 2.31-.39 4.288.23 5.818 1.747 1.516 1.53 1.906 3.277 1.126 5.197 0 1.126-.404 2.484-1.126 4.057 0 1.53 5.01 4.563 15 9.197 4.23 2.7-.966 3.104-15.577 1.184-4.62-.794-7.493-3.104-8.677-6.945z" fill="#59851f" fill-rule="evenodd"/><path d="M160.65 253.183c1.127 1.184 5.588 3.105 13.254 5.804.39.737 0 1.126-1.126 1.126-1.184.405-2.54 0-4.057-1.126-1.125-.78-2.872-1.184-5.196-1.184-2.31 0-4.057-.39-5.184-1.126-1.183-1.184-1.357-2.136-.563-2.93 1.127-1.127 2.08-1.358 2.873-.564zM161.214 275.735c5.024 3.45 4.634 8.865-1.184 16.14l-.563-3.45c-.39-1.183-2.643-3.493-6.93-6.93-1.127-.793-1.358-3.103-.564-6.944.39-1.183 1.747-1.572 4.057-1.183 1.92.462 3.668 1.184 5.184 2.368zM185.47 302.864c-2.31 2.31-4.058 3.277-5.184 2.873-2.325-.78-5.198.967-8.692 5.197-.332.39-.736 1.516-1.126 3.494-.39.737-1.357.953-2.873.563-1.588-.39-2.945-1.746-4.07-4.056l-1.748-2.873.563-8.69zM156.593 221.998c3.105-3.046 7.725-1.126 13.875 5.804.794.736 1.92 1.126 3.436 1.126 2.31 0 5.414 1.357 9.255 4.057 13.08 9.99 19.85 15.174 20.183 15.578 4.62 4.62 11.564 9.067 20.82 13.297-15.002-6.193-25.787-10.207-32.327-12.113-6.93-1.92-13.875-5.024-20.805-9.254l-9.253-5.184c-4.23-2.715-5.747-4.635-4.62-5.82 2.31-1.515 2.7-3.435 1.183-5.745-.39-.404-1.183-.62-2.31-.62-.39.057-.23-.347.563-1.127zM157.157 195.433l13.874 5.803c5.415 1.53 8.678 2.874 9.82 4.014l5.182 6.367c3.104 3.84 8.69 9.587 16.748 17.31-8.057-4.62-14.207-8.85-18.437-12.69-4.288-4.23-9.645-7.16-16.185-8.677-4.634-1.53-7.724-4.013-9.254-7.507-.795-.795-1.516-1.92-2.31-3.437-.795-1.573-.564-1.978.563-1.183zM195.287 14.11c-.737 1.125-1.358 2.31-1.762 3.45-.722 2.7-.563 5.01.62 6.93 1.142 1.92 2.658 4.057 4.635 6.367.737 1.53.564 2.656-.62 3.45-1.92 1.516-3.278 2.527-4.014 2.874-1.574 1.185-1.964 2.31-1.184 3.495 4.23 4.966 6.77 8.46 7.508 10.38 2.31 6.15 3.104 9.645 2.31 10.38l-2.31 10.425-.563 23.072c.794 3.104 2.31 6.77 4.62 11s3.84 8.85 4.634 13.876c-9.253-11.175-13.873-19.636-13.873-25.44 0-3.104-.405-6.54-1.14-10.38-.78-3.104-1.185-5.588-1.185-7.493 0-.795.563-2.325 1.76-4.635 0-.78-.23-2.54-.576-5.183-.39-7.334-1.184-11.796-2.31-13.312-3.104-3.84-4.447-6.713-4.057-8.69l-1.127-9.184c.332-1.182.332-2.93 0-5.254l-5.24-12.676-.564-2.888 7.492 1.126zM172.778 70.676c1.516 5.024 2.873 11.002 4 17.932l-8.62-23.115-3.508-22.508c-.332-5.804-1.126-9.414-2.31-10.988l-6.31-9.254-4.057-10.38c7.32 0 12.345 3.666 15 11 1.575 5.747 2.7 12.128 3.495 19 .794 3.9 1.516 13.312 2.31 28.313z" fill="#59851f" fill-rule="evenodd"/><path d="M144.466 48.182c2.714-1.53 7.897-3.667 15.564-6.38l-4.563 2.872 1.126 9.875-1.746 15.563c0 1.92 1.183 6.714 3.493 14.438.737 2.31 2.484 4.404 5.184 6.382l6.38 5.183c2.31 2.31 8.057 11.565 17.312 27.692 3.046 5.804 10.597 15.39 22.508 28.875-2.714.39-6.38-2.31-10.944-8.07l-13.31-16.748c-10.772-10.77-18.106-19.058-21.946-24.818l-11.55-16.748c-3.84-4.62-6.714-10.034-8.634-16.185zM150.833 134.245l13.817 20.747c-10.367-4.62-16.127-8.85-17.31-12.69-3.437-8.85-4.953-14.034-4.62-15.564.39-1.574-2.658-6.367-9.256-14.438-3.826-3.884-6.31-6.598-7.493-8.114l-1.688-5.76 1.126-5.184c5.414 7.667 11.334 13.254 17.932 16.748 3.436 1.92 5.356 2.873 5.746 2.873 1.126 1.53 1.53 4.057 1.126 7.508-.332 5.01-.16 9.645.62 13.875zM115.59 101.3c2.31.735 3.84 1.92 4.62 3.45l9.818 14.437c-1.516.78-4.403-.347-8.69-3.45-2.31-1.907-5.748-3.437-10.368-4.62-2.656-.68-4.52-.737-5.472-.29l7.22-10.712zM38.22 124.99l25.986 14.44-25.424-.564-2.31-8.692zM264.588 97.242c2.324.794 2.324 1.747 0 2.873-3.09 1.184-5.01 1.978-5.747 2.31l-2.31 5.255 6.874 12.128c1.588 3.436 2.15 5.746 1.747 6.93 0 .332-.39 1.126-1.125 2.252 0 9.645 1.357 16.98 4.013 22.003 1.964 3.436 5.804 13.817 11.55 31.186l-24.24-37.568c1.183-6.54 1.357-10.987.563-13.312 0-1.516-1.53-4.23-4.634-8.056-3.826-5.414-6.54-9.587-8.056-12.69-2.31-3.495-2.873-6.54-1.747-9.255 2.31-4.622 3.494-8.462 3.494-11.552.39-10.38 1.69-20.76 4-31.2l7.564 9.818c1.128 1.184.564 4.057-1.746 8.692l2.31 15c.39 1.516 2.874 3.263 7.494 5.184z" fill="#59851f" fill-rule="evenodd"/><path d="M263.404 88.608l-1.69-15.06c-.39-2.64-.62-4.95-.62-6.87.404-3.495 1.978-2.542 4.62 2.872 2.324 4.23 4.288 7.103 5.818 8.634.794.78.953 1.963.563 3.494-.39 3.104-3.277 5.356-8.69 6.93zM270.97 106.496c4.966 7.724 7.276 12.518 6.87 14.438 0 1.92-1.34 1.92-3.998 0l-8.128-9.818c-.722-.736-.16-1.747 1.76-2.873 1.185-.794 2.31-1.357 3.495-1.747z" fill="#59851f" fill-rule="evenodd"/><path d="M243.783 214.49l-9.255-18.494 18.51 21.367c11.954 12.36 27.908 33.106 47.933 62.386 3.84 5.413 12.128 13.08 24.82 23.114 12.733 9.586 21.194 17.484 25.424 23.692 4.23 6.15 11.565 11.334 21.945 15.564 10.77 4.62 19.057 10.207 24.818 16.748 11.55 13.08 29.828 30.622 54.863 52.567l.564 6.367c0 7.277-.953 13.254-2.873 17.874-3.435 7.74-5.182 12.532-5.182 14.438l-8.692-2.31c-2.31-1.126-10.77-10.93-25.367-29.44-6.945-9.24-14.28-17.136-21.946-23.676-3.436-3.105-8.287-7.898-14.438-14.438-5.746-6.54-11.16-11.955-16.184-16.185-4.967-3.84-10.38-10.207-16.127-19.014-7.725-12.748-14.106-21.93-19.073-27.75-23.504-26.16-41.956-47.932-55.426-65.243-8.518-10.438-16.59-22.898-24.313-37.567z" fill="#d1d5a7" fill-rule="evenodd"/><path d="M448.22 433.366c-3.883 0-4.85-2.483-2.872-7.493 1.458 2.31 2.425 4.85 2.873 7.493zm-24.817-34.62c-5.01-6.542-11.55-12.923-19.62-19.06-8.852-6.15-14.83-10.61-17.933-13.31-8.07-5.357-14.61-9.82-19.635-13.255-9.587-6.54-16.748-12.3-21.368-17.31-4.62-4.634-11.334-12.53-20.184-23.692l-12.128-15.62 20.747 18.493 17.37 17.312c6.943 7.334 12.473 12.36 16.747 15 22.334 13.486 38.475 26.003 48.51 37.568l15 13.875c6.15 6.15 9.818 9.976 11.002 11.564 4.62 5.745 5.92 10.54 4 14.437-.174.39-.39.78-.564 1.126-1.068-1.588-2.426-3.162-4.057-4.635-2.324-1.905-4.403-4.215-6.323-6.93-5.414-7.334-9.24-12.517-11.564-15.563zM274.405 246.86c6.54 12.69 7.898 17.094 4.057 13.253-3.494-3.436-8.114-9.413-13.874-17.873l-20.805-32.933 9.254 8.056c5.804 4.23 12.908 14.106 21.368 29.497zM434.967 431.62c5.76 8.46 7.667 12.358 5.76 11.564-4.634-3.84-8.633-7.104-12.127-9.818-5.818-4.62-11.175-10.034-16.185-16.185-5.76-7.275-8.46-12.69-8.07-16.125.39-3.105 4.057-.953 11 6.323 6.152 6.54 12.692 14.655 19.622 24.24z" fill="#eeefe7" fill-rule="evenodd"/><path d="M108.66 78.184c.39 1.573 3.09 4.288 8.114 8.114 4.23 3.45 5.76 5.76 4.563 6.944-1.127 1.516-6.31-.967-15.564-7.565-1.906-1.516-1.906-3.436 0-5.746 1.53-2.714 2.483-3.277 2.887-1.746zM306.717 109.99l-2.31 5.183c-1.126 4.23-.953 7.898.62 10.944 1.92 3.104 2.484 5.414 1.69 6.945-.332.78-1.126 1.905-2.31 3.493-.736 1.516 0 3.668 2.31 6.31 1.588 1.184 2.93 2.15 4.07 2.873h16.186l-9.818 30.06c-.794 4.634-.39 11.174 1.127 19.635l-12.69-10.944c-1.185-1.185-4.62-8.52-10.382-21.99-1.574-4.23-3.09-7.118-4.62-8.634-.794-.39-2.54-.953-5.183-1.747-1.588-.39-1.357-3.668.563-9.818 2.7-7.724 4.23-12.908 4.62-15.564 3.046-12.344 4.793-20.025 5.198-23.13.39-2.7 1.747-3.262 4.057-1.746 2.642 1.53 4.966 4.23 6.872 8.128z" fill="#7bb334" fill-rule="evenodd"/><path d="M316.592 112.863c1.126 4.23 3.047 8.46 5.747 12.69 1.92 2.31 2.323 3.84 1.125 4.62-5.357 1.92-8.446 2.31-9.183 1.127-1.588-1.906-2.714-5.92-3.494-12.113-.404-3.046.39-5.357 2.31-6.887 1.92-1.184 3.104-.953 3.494.563zM300.408 194.306l16.747 23.057 9.818 5.82c6.93 4.62 11.334 8.286 13.254 10.943 2.31 3.09 2.526 4.446.62 4.057-2.324-.794-5.024-2.715-8.128-5.76-2.643-2.7-5.357-2.7-8.057 0l-2.888 4.576-13.874-1.69c-2.7-.405-4.446-1.358-5.182-2.888-.794-3.884-2.137-8.114-4.057-12.734l-6.944-22.51zM320.028 247.986c3.105 6.15 4.635 9.99 4.635 11.564-.404 1.53-2.324 3.047-5.818 4.635-2.643 1.126-4.794.722-6.31-1.184-1.53-3.45-3.104-6.38-4.634-8.69-1.905-3.047-3.262-8.46-4.056-16.127-.39-3.105 1.747-3.105 6.38 0 4.62 3.046 7.884 6.367 9.804 9.803zM293.463 220.25c2.325 5.01 2.888 9.082 1.747 12.172-.78 3.046-2.137 3.277-4.057.563l-9.24-15c-1.14-1.574-1.357-4.058-.563-7.552l1.126-7.507c.39-1.516 1.964 0 4.62 4.634 2.7 4.23 4.85 8.46 6.367 12.69zM276.152 192.56c0 4.62.347 8.287 1.126 10.987 1.92 3.046 1.358 3.61-1.747 1.703-2.64-2.324-5.182-6.555-7.492-12.69-2.324-7.335-5.977-14.438-10.944-21.383-2.31-3.436-4.057-8.287-5.197-14.438l-1.184-8.057 22.566 32.312c2.25 3.494 3.22 7.334 2.872 11.564zM261.094 188.488c3.104 5.818 4.62 10.438 4.62 13.875-7.667-6.93-12.46-13.254-14.438-19.058-1.126-3.84-.16-4.62 2.945-2.31 2.643 1.92 4.953 4.447 6.874 7.493zM240.347 47.62c2.7 4.23 3.826 6.93 3.436 8.055 0 .794-.736 2.094-2.31 4.057-.736 1.53-1.357 4.23-1.69 8.07V79.37c-.793 9.24-2.324 17.137-4.634 23.678-1.185 3.45-.78 9.427 1.125 17.888.794 3.826 1.762 7.493 2.888 10.987-3.84-10.827-7.277-17.7-10.38-20.804-1.92-2.31-2.484-4.62-1.748-6.93 1.574-3.104 2.7-5.992 3.494-8.634 2.31-6.208 3.435-16.184 3.435-30.06 0-5.023.404-9.586 1.184-13.874 1.125-6.54 2.887-7.897 5.197-4zM180.286 23.927l2.31 15c1.126 5.415.563 8.85-1.747 10.38l4.056 10.425 4.62 20.2c1.92 5.745 3.84 15.62 5.76 29.437l-7.507-10.945c-2.31-3.104-4.405-10.597-6.368-22.55-.404-6.152-.736-9.992-1.126-11.508 0-2.714-.968-5.414-2.888-8.13-1.573-2.31-1.963-4.965-1.184-8.055 1.184-4.23 1.747-7.738 1.747-10.38-.39-6.21-2.525-12.922-6.366-20.242l2.873.563c1.978 1.184 3.9 3.09 5.82 5.804zM153.157 100.115L168.72 116.3l2.31 9.254c.39.794 3.842 7.508 10.382 20.184 3.494 5.414 4.62 9.08 3.494 11l-9.818-10.38-12.127-20.24c-1.183-4.23-1.573-8.288-1.183-12.13 0-1.515-.16-2.31-.563-2.31-1.516 0-3.437-.735-5.747-2.31-1.978-1.125-2.93-1.92-2.93-2.31.39-.735-.174-2.31-1.704-4.633l-20.242-24.24c-1.515-1.127-1.688-3.452-.562-6.946 1.126-3.437 2.31-5.184 3.436-5.184 5.414.794 7.335 4.057 5.82 9.818l1.746 8.114c2.642 5.356 6.713 10.77 12.127 16.127z" fill="#7bb334" fill-rule="evenodd"/></svg>