<?xml version="1.0" encoding="UTF-8" standalone="no"?>
<!-- Generator: Adobe Illustrator 10.0, SVG Export Plug-In . SVG Version: 3.0.0 Build 77)  -->

<svg
   xmlns:i="http://ns.adobe.com/AdobeIllustrator/10.0/"
   xmlns:dc="http://purl.org/dc/elements/1.1/"
   xmlns:cc="http://creativecommons.org/ns#"
   xmlns:rdf="http://www.w3.org/1999/02/22-rdf-syntax-ns#"
   xmlns:svg="http://www.w3.org/2000/svg"
   xmlns="http://www.w3.org/2000/svg"
   xmlns:sodipodi="http://sodipodi.sourceforge.net/DTD/sodipodi-0.dtd"
   xmlns:inkscape="http://www.inkscape.org/namespaces/inkscape"
   i:rulerOrigin="0 0"
   i:viewOrigin="176 557"
   space="preserve"
   i:pageBounds="0 792 612 0"
   viewBox="0 0 512.00002 511.99998"
   enable-background="new 0 0 258.119 322.963"
   overflow="visible"
   version="1.1"
   id="svg83"
   sodipodi:docname="entry_type__strawberry.svg"
   width="512"
   height="512"
   style="overflow:visible"
   inkscape:version="0.92.1 r">
  <defs
     id="defs87" />
  <sodipodi:namedview
     pagecolor="#ffffff"
     bordercolor="#666666"
     borderopacity="1"
     objecttolerance="10"
     gridtolerance="10"
     guidetolerance="10"
     inkscape:pageopacity="0"
     inkscape:pageshadow="2"
     inkscape:window-width="1841"
     inkscape:window-height="1027"
     id="namedview85"
     showgrid="false"
     inkscape:zoom="1.4614677"
     inkscape:cx="93.650099"
     inkscape:cy="247.36811"
     inkscape:window-x="79"
     inkscape:window-y="29"
     inkscape:window-maximized="1"
     inkscape:current-layer="g74" />
  <g
     i:extraneous="self"
     id="g77"
     transform="matrix(1.4553613,0,0,1.4553613,67.965784,20.938407)">
    <g
       id="Layer_1"
       i:layer="yes"
       i:rgbTrio="#4F008000FFFF"
       i:dimmedPercent="50">
      <g
         stroke-miterlimit="10"
         id="g74"
         style="clip-rule:evenodd;fill-rule:evenodd;stroke:none;stroke-width:0.036;stroke-miterlimit:10;stroke-opacity:1">
        <path
           d="m 77.814,62.047 c -24.048,4.824 -25.452,7.848 -35.172,16.164 -9.792,8.316 -16.884,20.88 -22.788,33.228 -5.976,12.24 -12.708,26.712 -12.708,39.672 -0.144,12.852 0.72,22.032 12.708,37.116 12.204,15.084 43.38,34.777 59.508,52.416 15.84,17.496 21.744,39.924 35.64,51.877 13.86,11.807 32.472,21.852 46.944,18.611 14.436,-3.637 29.735,-22.607 38.952,-38.988 9,-16.416 7.739,-38.627 15.228,-58.463 7.488,-19.908 25.452,-39.168 29.448,-59.869 3.815,-20.808 3.708,-46.152 -6.156,-63.684 -10.008,-17.604 -26.28,-36.144 -53.244,-40.896 -27.32,-4.617 -84.13,7.803 -108.36,12.807 z"
           i:knockout="Off"
           id="path4"
           inkscape:connector-curvature="0"
           style="fill:#e2391c;stroke:none;stroke-opacity:1" />
        <path
           d="m 32.238,153.45 c -1.512,0.9 -4.932,-3.132 -6.084,-5.148 -1.188,-2.16 -1.584,-5.148 -0.9,-7.02 0.612,-1.872 2.952,-4.392 4.644,-4.104 1.62,0.252 4.428,2.556 4.968,5.4 0.288,2.74 -1.188,9.83 -2.628,10.87 z"
           i:knockout="Off"
           id="path6"
           inkscape:connector-curvature="0"
           style="stroke:none;stroke-opacity:1" />
        <path
           d="m 31.734,149.42 c -0.792,0.324 -2.376,-1.476 -2.952,-2.484 -0.612,-1.044 -0.756,-2.556 -0.432,-3.42 0.252,-1.008 1.476,-2.088 2.268,-1.98 0.828,0.108 2.088,1.26 2.412,2.628 0.036,1.29 -0.576,4.71 -1.296,5.25 z"
           i:knockout="Off"
           id="path8"
           inkscape:connector-curvature="0"
           style="fill:#ffe4c4;stroke:none;stroke-opacity:1" />
        <path
           d="m 55.962,189.23 c -1.332,1.225 -5.472,-1.908 -7.128,-3.563 -1.728,-1.801 -2.664,-4.645 -2.52,-6.588 0.072,-2.09 1.908,-4.896 3.564,-5.113 1.584,-0.18 5.004,1.404 6.084,4.068 1.044,2.52 1.044,9.86 0,11.19 z"
           i:knockout="Off"
           id="path10"
           inkscape:connector-curvature="0"
           style="stroke:none;stroke-opacity:1" />
        <path
           d="m 54.558,185.46 c -0.684,0.576 -2.664,-0.973 -3.456,-1.729 -0.864,-0.936 -1.332,-2.195 -1.26,-3.203 0,-1.08 0.9,-2.377 1.728,-2.484 0.756,0 2.448,0.611 2.988,1.98 0.396,1.28 0.576,4.67 0,5.43 z"
           i:knockout="Off"
           id="path12"
           inkscape:connector-curvature="0"
           style="fill:#ffe4c4;stroke:none;stroke-opacity:1" />
        <path
           d="m 118.13,175.09 c -1.656,0.756 -4.464,-3.854 -5.364,-5.904 -0.936,-2.27 -0.936,-5.328 0,-7.093 0.828,-1.872 3.528,-3.852 5.184,-3.456 1.548,0.468 4.068,3.168 4.212,6.011 -0.1,2.7 -2.37,9.65 -4.03,10.44 z"
           i:knockout="Off"
           id="path14"
           inkscape:connector-curvature="0"
           style="stroke:none;stroke-opacity:1" />
        <path
           d="m 118.17,171.02 c -0.828,0.324 -2.196,-1.873 -2.592,-2.844 -0.468,-1.117 -0.468,-2.592 0,-3.457 0.432,-0.9 1.584,-1.871 2.484,-1.656 0.648,0.252 1.98,1.404 2.052,2.881 -0.07,1.3 -1.22,4.61 -1.94,5.08 z"
           i:knockout="Off"
           id="path16"
           inkscape:connector-curvature="0"
           style="fill:#ffe4c4;stroke:none;stroke-opacity:1" />
        <path
           d="m 98.19,212.64 c -1.332,1.225 -5.472,-1.908 -7.128,-3.564 -1.728,-1.799 -2.664,-4.643 -2.52,-6.588 0.072,-2.088 1.908,-4.895 3.564,-5.111 1.584,-0.18 5.004,1.404 6.084,4.068 1.044,2.51 1.044,9.85 0,11.19 z"
           i:knockout="Off"
           id="path18"
           inkscape:connector-curvature="0"
           style="stroke:none;stroke-opacity:1" />
        <path
           d="m 96.75,208.86 c -0.576,0.576 -2.736,-0.973 -3.42,-1.729 -0.864,-0.936 -1.332,-2.195 -1.26,-3.203 0,-1.08 0.9,-2.377 1.728,-2.484 0.792,0 2.376,0.611 2.952,1.98 0.396,1.29 0.576,4.67 0,5.43 z"
           i:knockout="Off"
           id="path20"
           inkscape:connector-curvature="0"
           style="fill:#ffe4c4;stroke:none;stroke-opacity:1" />
        <path
           d="m 127.21,249.28 c -1.332,1.152 -5.472,-1.801 -7.128,-3.564 -1.692,-1.729 -2.736,-4.715 -2.556,-6.623 0.072,-1.98 1.908,-4.969 3.564,-5.076 1.692,-0.18 4.932,1.404 6.12,4.068 1.05,2.52 1.05,9.86 0.01,11.19 z"
           i:knockout="Off"
           id="path22"
           inkscape:connector-curvature="0"
           style="stroke:none;stroke-opacity:1" />
        <path
           d="m 125.77,245.47 c -0.684,0.576 -2.664,-0.973 -3.456,-1.729 -0.756,-0.863 -1.44,-2.303 -1.224,-3.203 0,-0.936 0.9,-2.447 1.728,-2.447 0.792,0 2.376,0.611 2.952,1.979 0.39,1.22 0.57,4.64 0,5.4 z"
           i:knockout="Off"
           id="path24"
           inkscape:connector-curvature="0"
           style="fill:#ffe4c4;stroke:none;stroke-opacity:1" />
        <path
           d="m 146.47,281.76 c -0.863,1.475 -5.796,-0.217 -7.848,-1.332 -2.124,-1.332 -3.96,-3.564 -4.393,-5.58 -0.468,-1.98 0.36,-5.293 1.944,-5.904 1.512,-0.613 5.148,-0.145 7.021,2.088 1.66,2.15 4,9.06 3.28,10.72 z"
           i:knockout="Off"
           id="path26"
           inkscape:connector-curvature="0"
           style="stroke:none;stroke-opacity:1" />
        <path
           d="m 143.98,278.52 c -0.469,0.684 -2.845,-0.037 -3.816,-0.613 -1.044,-0.719 -1.979,-1.727 -2.124,-2.736 -0.288,-1.008 0.216,-2.555 0.937,-2.844 0.684,-0.432 2.52,0 3.42,1.008 0.72,1 1.94,4.35 1.58,5.18 z"
           i:knockout="Off"
           id="path28"
           inkscape:connector-curvature="0"
           style="fill:#ffe4c4;stroke:none;stroke-opacity:1" />
        <path
           d="m 172.28,272.36 c -1.836,-0.252 -2.053,-5.436 -1.765,-7.775 0.217,-2.449 1.836,-5.006 3.492,-6.156 1.62,-1.189 4.933,-1.621 6.192,-0.469 1.26,1.188 1.872,4.787 0.72,7.309 -1.33,2.42 -6.99,7.1 -8.64,7.1 z"
           i:knockout="Off"
           id="path30"
           inkscape:connector-curvature="0"
           style="stroke:none;stroke-opacity:1" />
        <path
           d="m 174.29,268.83 c -0.9,-0.18 -1.044,-2.627 -0.864,-3.742 0.181,-1.225 0.792,-2.449 1.692,-2.988 0.828,-0.686 2.304,-0.721 3.024,-0.252 0.575,0.576 0.827,2.23 0.323,3.563 -0.82,1.19 -3.23,3.35 -4.17,3.42 z"
           i:knockout="Off"
           id="path32"
           inkscape:connector-curvature="0"
           style="fill:#ffe4c4;stroke:none;stroke-opacity:1" />
        <path
           d="m 184.16,237.58 c -1.332,1.15 -5.472,-1.801 -7.128,-3.564 -1.729,-1.729 -2.664,-4.717 -2.521,-6.625 0.072,-1.98 1.908,-4.967 3.564,-5.076 1.584,-0.18 5.004,1.404 6.084,4.068 1.05,2.52 1.05,9.86 0.01,11.19 z"
           i:knockout="Off"
           id="path34"
           inkscape:connector-curvature="0"
           style="stroke:none;stroke-opacity:1" />
        <path
           d="m 182.72,233.77 c -0.684,0.576 -2.664,-0.973 -3.456,-1.729 -0.756,-0.863 -1.439,-2.305 -1.224,-3.203 0,-0.938 0.9,-2.449 1.728,-2.449 0.792,0 2.376,0.611 2.952,1.98 0.39,1.22 0.57,4.64 0,5.4 z"
           i:knockout="Off"
           id="path36"
           inkscape:connector-curvature="0"
           style="fill:#ffe4c4;stroke:none;stroke-opacity:1" />
        <path
           d="m 146.97,208.96 c -1.584,0.793 -4.859,-3.24 -5.939,-5.291 -1.225,-2.197 -1.368,-5.148 -0.721,-7.057 0.576,-1.943 3.133,-4.248 4.753,-3.996 1.691,0.252 4.319,2.699 4.823,5.543 0.19,2.79 -1.43,9.77 -2.91,10.81 z"
           i:knockout="Off"
           id="path38"
           inkscape:connector-curvature="0"
           style="stroke:none;stroke-opacity:1" />
        <path
           d="m 146.61,204.93 c -0.792,0.287 -2.412,-1.549 -2.916,-2.592 -0.576,-1.045 -0.685,-2.557 -0.324,-3.42 0.216,-0.973 1.584,-1.98 2.304,-1.908 0.756,0.215 2.088,1.15 2.34,2.664 0.11,1.3 -0.68,4.72 -1.4,5.26 z"
           i:knockout="Off"
           id="path40"
           inkscape:connector-curvature="0"
           style="fill:#ffe4c4;stroke:none;stroke-opacity:1" />
        <path
           d="m 207.56,188.73 c -1.332,1.225 -5.472,-1.908 -7.128,-3.563 -1.728,-1.801 -2.664,-4.645 -2.52,-6.59 0.072,-2.088 1.908,-4.895 3.563,-5.111 1.584,-0.18 5.005,1.404 6.084,4.068 1.05,2.52 1.05,9.86 0.01,11.19 z"
           i:knockout="Off"
           id="path42"
           inkscape:connector-curvature="0"
           style="stroke:none;stroke-opacity:1" />
        <path
           d="m 206.12,184.95 c -0.685,0.576 -2.664,-0.973 -3.456,-1.729 -0.756,-0.936 -1.44,-2.195 -1.224,-3.203 0,-1.08 0.899,-2.377 1.728,-2.484 0.792,0 2.376,0.611 2.952,1.98 0.39,1.29 0.57,4.68 0,5.43 z"
           i:knockout="Off"
           id="path44"
           inkscape:connector-curvature="0"
           style="fill:#ffe4c4;stroke:none;stroke-opacity:1" />
        <path
           d="m 224.12,135.88 c -1.692,0.72 -4.536,-3.6 -5.472,-5.76 -0.937,-2.34 -1.044,-5.22 -0.181,-7.092 0.864,-1.872 3.349,-3.996 5.076,-3.6 1.548,0.396 4.212,3.06 4.392,5.904 0.07,2.74 -2.31,9.73 -3.82,10.55 z"
           i:knockout="Off"
           id="path46"
           inkscape:connector-curvature="0"
           style="stroke:none;stroke-opacity:1" />
        <path
           d="m 224.08,131.82 c -0.792,0.288 -2.232,-1.8 -2.664,-2.808 -0.54,-1.152 -0.432,-2.52 -0.072,-3.42 0.433,-0.972 1.62,-1.872 2.448,-1.728 0.756,0.108 1.98,1.512 2.124,2.844 -0.11,1.26 -1.05,4.68 -1.84,5.12 z"
           i:knockout="Off"
           id="path48"
           inkscape:connector-curvature="0"
           style="fill:#ffe4c4;stroke:none;stroke-opacity:1" />
        <path
           d="m 195.35,97.183 c -1.332,1.152 -5.473,-1.8 -7.129,-3.564 -1.728,-1.728 -2.663,-4.716 -2.52,-6.624 0.144,-1.98 1.836,-4.968 3.528,-5.076 1.691,-0.18 4.932,1.404 6.12,4.068 1.05,2.52 1.05,9.864 0,11.196 z"
           i:knockout="Off"
           id="path50"
           inkscape:connector-curvature="0"
           style="stroke:none;stroke-opacity:1" />
        <path
           d="m 193.91,93.367 c -0.684,0.576 -2.664,-0.972 -3.456,-1.728 -0.756,-0.864 -1.44,-2.304 -1.224,-3.204 0,-0.936 0.899,-2.448 1.728,-2.448 0.792,0 2.376,0.612 2.952,1.98 0.4,1.224 0.58,4.644 0,5.4 z"
           i:knockout="Off"
           id="path52"
           inkscape:connector-curvature="0"
           style="fill:#ffe4c4;stroke:none;stroke-opacity:1" />
        <path
           d="m 165.44,143.01 c -1.656,0.72 -4.465,-3.78 -5.364,-5.868 -0.937,-2.34 -0.937,-5.22 0,-7.092 0.899,-1.872 3.456,-3.852 5.147,-3.456 1.513,0.396 4.177,3.168 4.248,5.976 -0.12,2.7 -2.39,9.65 -4.04,10.44 z"
           i:knockout="Off"
           id="path54"
           inkscape:connector-curvature="0"
           style="stroke:none;stroke-opacity:1" />
        <path
           d="m 165.47,138.98 c -0.827,0.36 -2.195,-1.944 -2.592,-2.88 -0.468,-1.116 -0.468,-2.628 0,-3.42 0.433,-0.9 1.584,-1.872 2.484,-1.656 0.647,0.252 1.979,1.404 2.052,2.88 -0.06,1.3 -1.22,4.61 -1.94,5.08 z"
           i:knockout="Off"
           id="path56"
           inkscape:connector-curvature="0"
           style="fill:#ffe4c4;stroke:none;stroke-opacity:1" />
        <path
           d="m 138.58,131.2 c -1.62,0.684 -4.752,-3.276 -5.796,-5.472 -1.044,-2.16 -1.26,-5.256 -0.504,-7.056 0.684,-1.908 3.24,-4.212 4.896,-3.852 1.513,0.252 4.356,2.88 4.645,5.652 0.15,2.81 -1.76,9.73 -3.24,10.73 z"
           i:knockout="Off"
           id="path58"
           inkscape:connector-curvature="0"
           style="stroke:none;stroke-opacity:1" />
        <path
           d="m 138.33,127.14 c -0.864,0.36 -2.268,-1.62 -2.808,-2.628 -0.469,-1.044 -0.685,-2.556 -0.252,-3.42 0.287,-0.972 1.548,-2.016 2.376,-1.872 0.684,0.144 2.124,1.332 2.231,2.736 0.07,1.32 -0.9,4.67 -1.55,5.18 z"
           i:knockout="Off"
           id="path60"
           inkscape:connector-curvature="0"
           style="fill:#ffe4c4;stroke:none;stroke-opacity:1" />
        <path
           d="m 92.61,131.24 c -1.332,1.188 -5.472,-1.836 -7.128,-3.528 -1.692,-1.728 -2.736,-4.716 -2.556,-6.624 0.072,-1.98 1.908,-4.968 3.564,-5.076 1.692,-0.18 4.932,1.404 6.12,4.068 1.044,2.56 1.044,9.79 0,11.16 z"
           i:knockout="Off"
           id="path62"
           inkscape:connector-curvature="0"
           style="stroke:none;stroke-opacity:1" />
        <path
           d="m 91.17,127.46 c -0.684,0.576 -2.664,-0.972 -3.456,-1.728 -0.756,-0.864 -1.44,-2.304 -1.224,-3.204 0,-0.936 0.9,-2.448 1.728,-2.448 0.792,-0.072 2.376,0.576 2.952,1.944 0.396,1.3 0.576,4.68 0,5.44 z"
           i:knockout="Off"
           id="path64"
           inkscape:connector-curvature="0"
           style="fill:#ffe4c4;stroke:none;stroke-opacity:1" />
        <path
           d="m 42.426,113.31 c -1.764,-0.396 -1.548,-5.616 -1.008,-7.884 0.576,-2.376 2.196,-4.86 4.032,-5.796 1.692,-1.008 5.112,-1.152 6.228,0.108 1.008,1.296 1.476,4.896 0.036,7.308 -1.656,2.16 -7.524,6.51 -9.288,6.26 z"
           i:knockout="Off"
           id="path66"
           inkscape:connector-curvature="0"
           style="stroke:none;stroke-opacity:1" />
        <path
           d="m 44.802,110 c -0.9,-0.216 -0.792,-2.736 -0.504,-3.816 0.144,-1.224 1.116,-2.34 1.944,-2.808 0.864,-0.54 2.376,-0.576 3.024,0.036 0.396,0.576 0.72,2.412 0,3.564 -0.792,1.09 -3.708,3.07 -4.464,3.03 z"
           i:knockout="Off"
           id="path68"
           inkscape:connector-curvature="0"
           style="fill:#ffe4c4;stroke:none;stroke-opacity:1" />
        <path
           d="m 128.07,51.103 c -4.824,-3.276 -9.432,-5.94 -13.968,-7.848 -4.536,-1.908 -8.856,-3.204 -13.104,-3.744 l 6.912,6.084 C 92.034,43.651 79.146,44.155 68.418,47.107 57.69,50.095 49.914,55.243 44.406,63.091 c 3.672,-2.7 8.172,-4.212 13.644,-4.68 5.436,-0.468 11.7,0.216 18.936,2.052 -9.72,9.036 -15.84,17.64 -18.936,26.244 -2.988,8.64 -2.808,16.632 0.828,24.804 2.448,-11.88 5.76,-20.052 10.368,-25.2 4.536,-5.04 9,-5.472 16.704,-5.04 7.632,0.324 16.992,2.628 28.656,7.056 -4.068,11.736 -6.156,20.88 -5.868,27.864 0.252,6.876 2.484,11.304 7.092,13.428 -2.232,-10.692 -2.088,-19.548 0.864,-27 2.844,-7.488 8.208,-13.284 16.236,-17.532 l 4.896,12.816 7.74,-16.884 c 3.636,0.936 7.199,3.6 10.979,8.532 3.708,4.824 7.344,11.556 11.196,20.34 0.828,-7.92 0.144,-15.408 -2.448,-23.004 -2.556,-7.668 -6.804,-14.868 -12.744,-22.284 4.572,-2.592 10.116,-3.204 17.208,-1.692 7.057,1.44 15.084,4.896 24.624,10.368 -3.42,-5.184 -7.92,-9.576 -14.04,-13.032 -6.155,-3.564 -13.392,-6.192 -22.248,-8.028 0.216,-1.764 2.521,-3.276 7.2,-4.392 4.608,-1.224 11.412,-2.052 20.556,-2.628 -9.107,-0.576 -17.928,-0.216 -27.287,1.224 -9.324,1.368 -18.54,3.744 -28.08,7.128 10.476,-14.22 16.56,-25.056 18.647,-33.336 1.98,-8.244 -0.18,-13.356 -6.624,-15.732 -4.968,5.184 -8.532,11.448 -10.979,19.332 -2.43,7.885 -3.58,16.705 -3.47,27.289 z"
           i:knockout="Off"
           id="path72"
           inkscape:connector-curvature="0"
           style="fill:#137f40;stroke:none;stroke-opacity:1" />
      </g>
    </g>
  </g>
  <metadata
     id="metadata81">
    <rdf:RDF>
      <cc:Work>
        <dc:format>image/svg+xml</dc:format>
        <dc:type
           rdf:resource="http://purl.org/dc/dcmitype/StillImage" />
        <cc:license
           rdf:resource="http://creativecommons.org/publicdomain/zero/1.0/" />
        <dc:publisher>
          <cc:Agent
             rdf:about="http://openclipart.org/">
            <dc:title>Openclipart</dc:title>
          </cc:Agent>
        </dc:publisher>
        <dc:title>Simple Fruit Strawberry</dc:title>
        <dc:date>2007-11-15T00:18:12</dc:date>
        <dc:description>Simple Strawberry</dc:description>
        <dc:source>https://openclipart.org/detail/8534/simple-fruit-strawberry-by-gerald_g</dc:source>
        <dc:creator>
          <cc:Agent>
            <dc:title>Gerald_G</dc:title>
          </cc:Agent>
        </dc:creator>
        <dc:subject>
          <rdf:Bag>
            <rdf:li>food</rdf:li>
            <rdf:li>fruit</rdf:li>
            <rdf:li>strawberry</rdf:li>
          </rdf:Bag>
        </dc:subject>
      </cc:Work>
      <cc:License
         rdf:about="http://creativecommons.org/publicdomain/zero/1.0/">
        <cc:permits
           rdf:resource="http://creativecommons.org/ns#Reproduction" />
        <cc:permits
           rdf:resource="http://creativecommons.org/ns#Distribution" />
        <cc:permits
           rdf:resource="http://creativecommons.org/ns#DerivativeWorks" />
      </cc:License>
    </rdf:RDF>
  </metadata>
</svg>
