<?xml version="1.0" encoding="UTF-8" standalone="no"?>
<!-- Created with Inkscape (http://www.inkscape.org/) -->

<svg
   xmlns:dc="http://purl.org/dc/elements/1.1/"
   xmlns:cc="http://creativecommons.org/ns#"
   xmlns:rdf="http://www.w3.org/1999/02/22-rdf-syntax-ns#"
   xmlns:svg="http://www.w3.org/2000/svg"
   xmlns="http://www.w3.org/2000/svg"
   xmlns:sodipodi="http://sodipodi.sourceforge.net/DTD/sodipodi-0.dtd"
   xmlns:inkscape="http://www.inkscape.org/namespaces/inkscape"
   width="512mm"
   height="512mm"
   viewBox="0 0 1814.1732 1814.1732"
   id="svg7775"
   version="1.1"
   inkscape:version="0.92.1 r"
   sodipodi:docname="1424696929.svg">
  <title
     id="title8607">hazelnut - coloured</title>
  <defs
     id="defs7777" />
  <sodipodi:namedview
     id="base"
     pagecolor="#ffffff"
     bordercolor="#666666"
     borderopacity="1.0"
     inkscape:pageopacity="0.0"
     inkscape:pageshadow="2"
     inkscape:zoom="0.35"
     inkscape:cx="388.43776"
     inkscape:cy="1111.5958"
     inkscape:document-units="px"
     inkscape:current-layer="layer1"
     showgrid="false"
     fit-margin-top="1"
     fit-margin-right="1"
     fit-margin-bottom="1"
     fit-margin-left="1"
     inkscape:window-width="1841"
     inkscape:window-height="1027"
     inkscape:window-x="79"
     inkscape:window-y="29"
     inkscape:window-maximized="1" />
  <metadata
     id="metadata7780">
    <rdf:RDF>
      <cc:Work
         rdf:about="">
        <dc:format>image/svg+xml</dc:format>
        <dc:type
           rdf:resource="http://purl.org/dc/dcmitype/StillImage" />
        <dc:title>hazelnut - coloured</dc:title>
        <cc:license
           rdf:resource="http://creativecommons.org/publicdomain/zero/1.0/" />
        <dc:date>2015-02-16</dc:date>
        <dc:creator>
          <cc:Agent>
            <dc:title>Frank Tremmel</dc:title>
          </cc:Agent>
        </dc:creator>
        <dc:subject>
          <rdf:Bag>
            <rdf:li>hazelnut</rdf:li>
            <rdf:li>nut</rdf:li>
            <rdf:li>fruit</rdf:li>
            <rdf:li>food</rdf:li>
            <rdf:li>haselnuss</rdf:li>
            <rdf:li>früchte</rdf:li>
            <rdf:li>essen</rdf:li>
            <rdf:li>nuss</rdf:li>
            <rdf:li>outline</rdf:li>
            <rdf:li>lineart</rdf:li>
            <rdf:li>natur</rdf:li>
            <rdf:li>nature</rdf:li>
          </rdf:Bag>
        </dc:subject>
        <dc:description>coloured line art hazelnut</dc:description>
      </cc:Work>
      <cc:License
         rdf:about="http://creativecommons.org/publicdomain/zero/1.0/">
        <cc:permits
           rdf:resource="http://creativecommons.org/ns#Reproduction" />
        <cc:permits
           rdf:resource="http://creativecommons.org/ns#Distribution" />
        <cc:permits
           rdf:resource="http://creativecommons.org/ns#DerivativeWorks" />
      </cc:License>
    </rdf:RDF>
  </metadata>
  <g
     inkscape:label="Ebene 1"
     inkscape:groupmode="layer"
     id="layer1"
     transform="translate(-537.5928,1079.1421)">
    <g
       id="g1614"
       transform="matrix(15.782235,0,0,15.782235,-7934.4774,-11008.894)">
      <path
         sodipodi:nodetypes="cccscccccscccccccssccscc"
         inkscape:connector-curvature="0"
         id="path9689-5-3"
         d="m 541.7179,708.00929 c 0.33638,1.99176 0.43005,6.43301 3.72023,6.58225 2.49894,0.13723 5.71832,0.0954 8.24223,0.51929 12.60505,6.03513 24.81174,9.0901 36.07638,8.58038 4.27951,-0.19365 8.34742,-1.43121 12.3604,-2.43944 1.32509,-0.35199 5.83066,9.11128 7.1523,8.58124 1.4139,-0.56703 -0.003,-9.0196 1.40601,-9.81311 5.72703,-3.22554 9.43193,-10.72456 15.39594,-18.24688 2.04084,-4.09499 8.28884,-17.03319 -2.9568,-31.49104 1.02947,-3.46417 4.95742,-6.65727 8.56425,-8.69595 3.01793,-1.70582 5.35146,-3.62881 7.29654,-3.78185 0.49248,-0.43026 6.52106,3.16136 6.5202,2.65601 2.09276,0.69101 -0.82012,-7.45847 -2.25611,-8.66754 0.46633,-3.07846 -1.78795,-8.0857 -2.82085,-6.47875 -2.62786,0.0648 -3.97216,6.88123 -3.30575,6.04038 -6,2.72979 -14.97897,6.96156 -23.60666,5.38481 -3.23521,-7.56776 -4.62911,-7.30489 -12.9545,-10.92507 -7.90856,-0.61063 -18.0244,2.58363 -25.67406,2.26015 -4.50177,-0.19036 -8.23134,-1.78878 -12.01743,-2.01809 -5.64072,-0.34165 -10.22977,-0.0459 -13.00021,-1.76029 0.75966,5.15495 3.00371,8.46853 6.49431,14.04987 -4.73296,7.39943 -9.56515,12.12469 -11.22559,19.88755 -1.12766,5.27202 -0.81914,11.15641 -0.73762,20.46887 0.65098,3.83435 -1.55603,5.04038 -2.67321,9.30721 z"
         style="fill:#622300;fill-opacity:1;stroke:#ff5555;stroke-width:0.99999994px;stroke-linecap:butt;stroke-linejoin:miter;stroke-opacity:1" />
      <path
         sodipodi:nodetypes="cccccccccccccccccccccccccccccc"
         inkscape:connector-curvature="0"
         id="path4258"
         d="m 557.37923,658.44554 -10.96016,15.73312 c 1.46356,2.35703 4.83227,4.44888 2.74004,9.8995 l 4.5962,-1.5026 c 3.07854,-1.06087 5.17964,-3.83403 7.42461,-4.24264 0.49169,2.42513 -0.95924,6.79287 -2.03293,10.78338 4.89465,-1.12462 9.90385,-3.28012 14.58408,-2.47487 -3.94138,4.63817 -5.90828,7.39486 -6.8059,9.45755 -0.22254,0.78618 8.35052,-0.76425 12.55115,1.67937 -1.80014,1.90261 -0.53282,2.20806 -9.63434,6.80591 1.38213,3.6321 11.87594,2.8345 13.78859,2.91682 -0.70395,1.65383 -0.939,3.4671 -11.66727,6.45234 2.04968,2.16754 12.61335,7.28059 14.31892,7.51302 5.68591,1.05875 5.23158,0.45514 13.34663,1.06065 l 3.18198,-1.67938 c 3.62009,-4.11625 6.9736,-8.32135 9.19239,-12.9047 l -7.60139,0.26517 5.83363,-6.8059 -10.25305,-1.23744 c 3.9271,-3.1069 8.81804,-6.05316 11.49048,-9.36917 l -13.25825,2.82843 c 4.96407,-6.3135 6.36982,-12.06516 6.89429,-17.67767 -5.99312,1.47241 -8.70373,10.30407 -13.70019,11.22532 1.67938,-6.98268 4.69897,-12.3571 5.03813,-20.94804 -4.77297,4.68487 -9.54594,9.30828 -14.31891,10.07628 1.72452,-5.34298 4.06283,-10.62459 8.13173,-15.73313 -6.63012,1.05866 -13.30705,2.02372 -18.56155,5.83363 l 7.07106,-11.49048 -14.31891,3.18198 z"
         style="fill:#622300;fill-opacity:1;fill-rule:evenodd;stroke:none;stroke-width:0.35433072;stroke-linecap:butt;stroke-linejoin:miter;stroke-miterlimit:4;stroke-dasharray:none;stroke-opacity:1" />
      <path
         sodipodi:nodetypes="cccccc"
         inkscape:connector-curvature="0"
         id="path4260"
         d="m 544.6513,698.75063 -2.56326,9.36916 c 0.01,2.54682 -0.99013,5.51861 3.27037,6.27557 l 6.8059,0.35356 c 1.43645,-2.92043 2.60389,-5.97537 0.7955,-10.51822 -2.13412,-2.88566 -5.52863,-3.67067 -8.30851,-5.48007 z"
         style="fill:#622300;fill-opacity:1;fill-rule:evenodd;stroke:#ff00ff;stroke-width:0.35433072;stroke-linecap:butt;stroke-linejoin:miter;stroke-miterlimit:4;stroke-dasharray:none;stroke-opacity:1" />
      <path
         sodipodi:nodetypes="cccccccccsccccccccccccccccccccc"
         inkscape:connector-curvature="0"
         id="path4262"
         d="m 548.89394,643.86146 c 1.66923,8.36843 5.36122,10.13822 8.30851,14.67247 3.37596,-0.10256 4.85133,1.11066 10.96015,-0.88388 4.29563,-3.7475 7.1301,-1.65033 10.69499,-2.47488 l -7.24784,10.96016 11.57887,-4.41942 7.33623,-0.70711 c -3.161,3.94424 -6.55516,7.32224 -8.13172,15.11441 3.16559,0.48098 8.66815,-4.96168 14.05374,-9.81111 -0.62828,3.37032 -0.78948,8.06997 -2.45088,11.6053 -1.50914,3.21131 -2.24945,5.51578 -2.58725,9.25435 2.52408,-0.0282 4.7706,-3.38717 7.07107,-6.09879 1.29635,-2.09187 3.18794,-3.88611 6.36396,-5.03814 -0.7442,3.21196 2.16022,3.61521 -6.89429,17.76606 l 13.25825,-2.82843 c -2.329,4.11955 -7.25622,6.38323 -11.04854,9.45755 l 10.42982,0.70711 -7.07107,7.86656 8.3969,-1.14904 -10.07628,14.23052 6.62913,8.04334 c 1.04098,0.26512 2.23273,0.72408 1.67938,-1.06066 l 0.35355,-8.57367 c 5.86309,-5.80019 11.72619,-14.15081 17.58928,-22.98097 0.34791,-3.18023 6.2502,-7.33272 -4.59619,-27.40039 l -7.33623,-6.54074 -3.88909,-9.01561 c -4.65,-3.27165 -1.17248,-8.50687 -18.56155,-8.66206 -8.35093,1.45135 -16.87794,2.50652 -26.16296,1.85616 -4.21385,-0.98549 -8.08098,-2.75109 -13.16986,-1.76777 z"
         style="fill:#37ab13;fill-opacity:1;fill-rule:evenodd;stroke:#00ff00;stroke-width:0.35433072;stroke-linecap:butt;stroke-linejoin:miter;stroke-miterlimit:4;stroke-dasharray:none;stroke-opacity:1" />
      <path
         sodipodi:nodetypes="ccssssssssccccccccccccsscccccscccccccsccccccccccccccsscccccsccccccccc"
         inkscape:connector-curvature="0"
         id="path4262-1"
         d="m 548.6864,643.38353 c 0.16922,0.84838 0.36435,1.61343 0.57227,2.33594 0,0 11.29162,3.55401 16.79495,4.63487 11.3681,2.2327 19.68834,-1.50293 30.58273,-0.88373 2.36868,0.13463 6.03018,0.73437 7.9552,2.12113 4.49611,3.23895 6.55581,8.41762 9.54594,13.08292 4.56014,7.11485 10.32528,12.86825 11.66679,21.21189 0.76235,4.74152 -0.91437,9.38055 -3.18161,13.43647 -2.07844,3.71817 -6.48594,9.46889 -10.16448,13.07946 -3.41465,3.35156 -6.12782,4.55335 -7.60256,8.22212 -1.27297,3.16684 1.70772,6.96791 1.70772,6.96791 l 1.69727,2.0586 c 1.04098,0.26512 2.23304,0.72419 1.67969,-1.06055 l 0.35351,-8.57422 c 5.86309,-5.80019 11.7248,-14.15031 17.58789,-22.98047 0.34791,-3.18023 6.25069,-7.33272 -4.5957,-27.40039 l -7.33594,-6.54101 -3.88867,-9.01563 c -4.65,-3.27165 -1.17343,-8.50692 -18.5625,-8.66211 -8.35093,1.45135 -16.87709,2.50583 -26.16211,1.85547 -4.21385,-0.98549 -8.08104,-2.7509 -13.16992,-1.76758 z m 18.40931,9.52351 c -2.29909,0.22416 -3.13895,1.93165 -4.93014,2.57447 -1.8874,0.67735 -3.57838,-1.03116 -7.12175,-0.0179 0.66585,0.80246 1.32594,1.6299 1.95117,2.59179 3.37596,-0.10256 4.85212,1.11173 10.96094,-0.88281 2.90105,-2.53087 4.25178,-2.04561 6.49503,-1.94528 l 4.68396,-0.98238 c 0,0 -7.92743,-1.73879 -12.03921,-1.33789 z m 30.15368,-1.13825 c -5.69427,-1.92491 -17.65016,6.12104 -23.50635,10.34911 l -2.33984,4.10157 11.57812,-4.98047 7.93076,-0.28347 c 1.01201,-2.6554 1.99192,-4.6795 6.33731,-9.18674 z m 12.73342,9.56994 c -2.61891,-4.10372 -5.35054,-4.02439 -8.93645,-3.78836 -2.88603,0.18996 -5.53442,3.37515 -6.93809,4.29214 -3.28716,4.49975 -6.61432,9.86771 -11.05468,12.88477 -0.1074,0.43737 0.29003,0.8873 0.19531,1.35547 3.16559,0.48098 7.60464,-5.39862 12.99023,-10.24805 -0.27816,1.49217 0.61394,5.49143 0.34816,7.28833 1.85395,-3.68498 9.48369,-12.77405 13.39552,-11.7843 z m -9.53078,9.7323 c -2.9019,4.82292 -5.5751,10.77083 -8.92188,15.59375 2.39106,-0.29832 4.54234,-3.4773 6.74219,-6.07031 1.26868,-2.04722 3.11505,-3.80487 6.16992,-4.95899 2.75168,-0.26907 6.01426,-3.32768 9.07227,-5.58789 -2.49246,0.84172 -11.70675,-1.55938 -13.0625,1.02344 z m 4.97726,4.39959 c -0.72349,2.57217 -3.74578,11.96746 -5.905,17.18244 0,0 3.34106,-2.03901 4.32031,-3.71094 1.7589,-3.00307 4.89203,-8.17791 4.96706,-11.65736 0.0175,-0.81396 -3.38237,-1.81414 -3.38237,-1.81414 z m 5.78055,15.42853 -3.09845,3.25795 -7.21796,5.59557 6.26953,0.83984 c 0.74387,-0.46301 4.49793,-4.81977 7.75576,-8.91298 2.33229,-2.93034 5.09776,-10.16311 5.63487,-11.29796 -1.78419,0.39205 -8.87262,9.30487 -9.34375,10.51758 z m -2.82617,12.04492 -4.94727,6.20704 8.27148,-1.77344 -2.5039,3.53515 2.68945,-0.80859 c 5.17639,-5.27981 12.76451,-21.67685 11.85742,-22.22266 -4.9459,4.14268 -8.8785,9.25492 -15.36718,15.0625 z"
         style="fill:#008000;fill-opacity:1;fill-rule:evenodd;stroke:none;stroke-width:0.35433072;stroke-linecap:butt;stroke-linejoin:miter;stroke-miterlimit:4;stroke-dasharray:none;stroke-opacity:1" />
      <path
         sodipodi:nodetypes="ccccccccccc"
         inkscape:connector-curvature="0"
         id="path5931"
         d="m 614.21293,657.47327 5.74524,-0.44194 c 5.539,-1.23502 11.07801,-1.78393 16.61701,-5.30331 0.5755,-2.86025 1.34893,-5.60174 4.24264,-7.07106 1.95262,0.94199 1.90049,4.17512 2.29809,6.89429 0.84283,2.88048 4.52403,4.66928 2.47488,8.66206 -1.0493,-0.11557 -0.65234,0.89375 -5.65685,-2.2981 -3.92987,-0.3082 -6.48181,2.82843 -9.72272,4.24264 -2.58466,2.40487 -5.679,4.44568 -6.71751,7.95495 l -6.01041,-5.48008 c -2.97676,-2.46004 -2.38731,-4.49004 -3.27037,-7.15945 z"
         style="fill:#2e2500;fill-opacity:1;fill-rule:evenodd;stroke:none;stroke-width:0.35433072;stroke-linecap:butt;stroke-linejoin:miter;stroke-miterlimit:4;stroke-dasharray:none;stroke-opacity:1" />
      <path
         sodipodi:nodetypes="cccccccccccccccccccc"
         inkscape:connector-curvature="0"
         id="path6046"
         d="m 544.66387,698.96864 c -0.93283,-9.03519 -0.82118,-17.65258 1.76776,-25.27906 0.97233,1.64265 1.67629,2.81564 3.53554,6.0104 -0.0932,1.68207 -0.1782,3.82661 -0.70711,4.41942 3.79341,-0.70771 7.82103,-3.28913 11.84404,-5.83363 0.62707,2.42706 -0.95811,6.78983 -2.12132,10.78338 4.84811,-0.96493 9.8567,-2.7323 14.49569,-2.65165 -5.63142,6.70931 -5.73802,8.14492 -6.36396,10.07627 4.61225,-0.46602 8.98497,-0.57276 12.19759,1.06066 -2.42116,3.67936 -5.77975,5.67133 -9.36916,7.24784 2.6287,3.89405 8.88066,2.3532 14.14213,2.2981 -1.7632,3.69809 -6.8118,4.92533 -11.75564,6.80591 4.51415,2.89548 8.77786,6.11517 13.52341,7.15945 l 13.25825,1.23744 c -4.9111,1.80547 -10.58097,1.71399 -15.9099,2.47487 -15.19539,-2.43567 -19.24141,-5.95032 -27.93072,-9.01561 l -3.18198,-0.88388 c 2.38448,-3.86811 1.44208,-5.5183 1.94454,-8.13173 0.12234,-2.42155 -1.02369,-3.25765 -1.76776,-4.5962 -4.54601,-2.29894 -6.03927,-2.71927 -7.6014,-3.18198 z"
         style="fill:#ffe7dc;fill-opacity:1;fill-rule:evenodd;stroke:#ffc900;stroke-width:0.35433072;stroke-linecap:butt;stroke-linejoin:miter;stroke-miterlimit:4;stroke-dasharray:none;stroke-opacity:1" />
      <path
         sodipodi:nodetypes="csssscsscssscscsssscscscccccccsscsccscccccccccccccccsscccscsccsccccccccccccccccccssscccccccscccsccccscccccccccscsssscccccccsccscscccccccccc"
         inkscape:connector-curvature="0"
         id="path9687"
         d="m 548.58926,641.80825 c -1.4512,5.2397 0.986,8.4024 4.3865,12.2487 1.117,1.2633 0.493,1.4008 0.748,3.57879 0.188,1.6113 1.1111,2.0292 -0.05,3.2099 -7.6806,7.79129 -10.1532,14.96899 -10.6777,25.92468 -0.366,7.64099 0.806,5.75799 0.587,12.42899 -1.2525,1.9468 -2.41,5.9065 -2.4459,9.0409 -0.04,3.2148 1.0707,5.5867 1.5945,6.0787 1.6842,1.5819 6.8197,2.28809 9.5257,1.453 6.4932,2.69309 14.70839,7.46029 24.15948,8.83189 4.3528,0.632 8.2824,1.2527 14.56949,0.6757 1.98777,-0.18243 4.31891,-0.51879 6.51871,-0.92689 1.15078,-0.2135 1.17399,0.35089 3.37899,1.13249 1.5229,-0.07 2.3614,0.259 3.294,1.3036 2.3252,2.60309 4.663,5.92009 6.87919,4.24639 0.471,-3.50179 -0.05,-8.49839 1.2861,-10.16049 6.6157,-8.2307 12.54059,-14.0755 16.53019,-22.35999 4.0397,-8.38849 3.0736,-19.41358 -2.8841,-26.55708 -2.6426,-3.1686 1.4658,-6.38629 4.3384,-8.12129 3.1157,-1.8818 8.67969,-7.4691 11.70878,-2.8612 2.2672,1.2583 4.6131,1.6863 5.171,0.235 0.906,-2.358 -1.0995,-7.8696 -2.3645,-9.3769 -0.273,-3.7985 -1.2491,-8.43749 -3.0519,-8.75329 -2.06909,-0.362 -5.92999,5.01649 -5.68969,7.47909 -6.80189,2.9642 -13.70219,6.1867 -21.53228,5.5594 -3.3149,-8.7136 -13.57049,-13.51909 -22.17239,-12.00559 -9.28749,0.82099 -16.24759,3.28589 -25.48158,1.31669 -8.17319,-3.10929 -13.98829,0.748 -18.32339,-3.62139 z m 2.8996,4.5647 c 5.5972,2.5293 9.4562,-0.682 15.53119,2.7515 9.90939,1.5146 21.74558,-2.0079 31.63548,-1.5474 7.4915,0.349 14.12339,8.4327 16.51959,15.72969 1.702,5.18319 5.8859,4.85129 8.28709,9.04519 4.4334,7.344 6.1034,16.08979 3.4326,24.24648 -5.55689,8.5985 -10.05349,15.502 -17.44868,22.62849 -1.2056,1.1618 0.215,6.5871 -0.559,9.02679 -1.8331,-1.69519 -2.8949,-4.69969 -3.6125,-6.12429 -0.86,-4.1734 2.4728,-5.216 4.3489,-8.62559 1.22729,-2.2307 4.05309,-4.4376 4.59559,-7.7094 -1.9669,0.602 -6.11969,1.8571 -7.96359,1.3897 2.6037,-2.2076 6.28989,-5.8843 6.43649,-8.021 -2.1186,0.155 -8.02949,0.982 -9.95629,0.297 3.3769,-3.1209 10.99309,-6.9211 9.59389,-9.73269 -2.83759,0.468 -7.93349,-0.528 -11.86779,2.38549 5.8744,-7.72519 5.4364,-13.71098 5.2375,-16.62268 -3.6513,-2.2571 -9.4613,7.33639 -13.409,11.05389 1.6823,-6.58709 6.3233,-14.57819 5.1437,-20.99518 -2.6217,-2.8357 -9.5685,9.35499 -13.73419,9.80109 0.479,-4.962 5.76689,-10.70479 8.16709,-14.96089 -5.6291,-1.9915 -13.30589,1.9057 -17.93048,3.6379 2.19979,-2.5682 5.15509,-6.5862 7.43019,-9.42779 -3.3334,-2.3615 -12.62069,1.1607 -18.03339,2.72729 -2.56609,0.743 -3.97899,0.02 -5.68759,-1.0775 -4.8241,-3.10539 -4.1226,-6.29699 -6.1565,-9.87579 z m 88.40364,1.2141 c 2.23329,-0.137 1.97599,2.9148 2.07299,4.9551 1.5672,1.0195 4.5014,7.19389 0.911,5.60979 -3.19759,-5.03819 -7.12779,0.312 -11.08548,2.1594 -3.4531,1.6114 -6.3871,5.6337 -8.5393,7.8756 -0.81099,-0.453 -3.29579,-2.331 -4.23949,-3.4328 -1.66173,-1.80114 -3.54675,-4.62283 -2.93791,-5.9743 0.34274,-0.7608 1.4758,-1.05568 3.88391,-0.4403 6.02199,-1.0943 11.56769,-2.96539 17.03758,-5.48399 2.1259,-1.0163 1.498,-3.2881 2.8962,-5.2685 z m -63.59386,9.09409 c -3.69719,5.9685 -6.96569,9.2082 -5.84429,11.3214 2.2802,-0.976 14.47499,-5.6572 18.26148,-6.2268 -4.65699,4.4997 -6.64369,11.23249 -7.01499,15.10129 2.8559,0.824 4.61339,-0.665 6.44999,-1.9664 3.1526,-2.2334 5.5903,-5.4296 7.3678,-6.381 0.217,6.3834 -5.5194,13.25549 -4.7216,19.60929 4.8308,2.736 9.2723,-9.99099 13.4598,-11.12329 -1.0773,8.18139 -6.2996,14.05449 -7.4312,17.10008 4.3514,1.098 9.7169,-2.22099 12.5554,-1.9794 -1.5588,2.3684 -7.5541,3.0111 -10.5264,8.5228 0.88,1.1876 9.5904,1.5243 9.5904,1.5243 0,0 -6.2632,5.2051 -6.2207,8.6551 3.0031,-1.4813 4.9669,-1.4398 7.85719,-1.7698 -1.84729,3.5625 -3.78651,6.63953 -7.51227,9.97947 -0.66897,0.5997 -2.14928,1.91516 -4.25945,2.20276 -1.87166,0.25509 -4.10659,-0.034 -5.66056,-0.24863 -0.67174,-0.0928 -5.90082,-0.70203 -6.23372,-0.71708 -8.80814,-3.39865 -7.85055,-2.57534 -12.35924,-6.0858 3.9397,-1.7008 9.42601,-2.86362 10.70121,-7.23422 -3.07149,-1.275 -12.03232,1.11841 -13.64192,-1.93939 3.8428,-1.3425 8.96619,-6.18052 9.60786,-7.68776 -5.26743,-2.44168 -10.32869,-2.21738 -12.70178,-1.88528 1.45583,-2.60233 4.97814,-6.20967 6.63158,-8.88978 -3.46,-2.8869 -10.11553,0.81843 -14.76753,1.83743 0.667,-2.7462 2.7683,-9.08134 1.8137,-10.83504 -2.8556,0.667 -7.00986,4.78741 -11.3772,5.33202 0.94563,-6.11802 -2.10399,-6.44407 -2.61327,-8.78405 0.99989,-2.24051 6.13854,-10.0578 6.77486,-10.8768 0.65433,-0.8422 2.90211,-2.38752 3.74537,-3.25512 0.812,-0.835 4.56359,0.03 5.50679,-0.145 6.0358,-1.1233 7.3721,-3.5002 12.56259,-3.1554 z m -21.15743,25.96961 c 3.06132,-1.67902 3.47819,-2.16116 5.54739,-3.49186 0.296,1.1905 -1.46038,8.45477 -2.44908,10.57867 4.7369,0.06 9.71343,-2.28604 14.45,-2.47462 -2.65079,2.80942 -5.25698,6.00231 -6.76342,9.70922 4.67392,0.24523 9.56916,-0.59517 12.42646,0.96428 -2.5571,2.9284 -6.74899,5.32957 -9.52799,6.49717 1.946,2.9449 5.11675,3.65401 7.99435,3.70101 2.5599,0.04 5.48846,-0.40039 5.86906,-0.12148 -1.4553,2.9369 -7.45676,3.53069 -11.81517,5.99074 2.5686,1.88397 6.84932,4.99863 11.43724,6.72754 3.41676,1.28756 6.94522,1.39283 9.60929,2.00973 -1.92228,-0.0234 -5.02708,0.384 -8.00063,0.23622 -2.89458,-0.14384 -5.67406,-0.84158 -6.44688,-0.96366 -3.94439,-0.6231 -7.07272,-1.44669 -8.78548,-1.86935 -2.23121,-0.5506 -4.80094,-1.60247 -8.60412,-3.87282 -1.77645,-1.06047 -2.40503,-2.9012 -3.67413,-3.09827 -1.8135,2.12421 -2.53704,1.4095 -2.57964,0.1675 0.8886,-2.02463 1.2459,-6.0724 0.933,-8.0078 -0.889,-5.4958 -6.6495,-4.7337 -8.8631,-7.7278 0.119,-4.1472 -0.115,-7.57389 -0.07,-10.79989 0.07,-4.604 -0.145,-4.61871 1.37149,-10.24618 1.6003,1.67598 2.51097,4.59541 1.22384,8.30092 3.32494,-0.38723 4.99692,-1.26559 6.71752,-2.20927 z m -7.89115,18.74956 c -1.0547,1.3043 -2.2809,4.0925 -1.0193,4.8182 0.78,-2.209 1.6417,-2.8388 2.9995,-3.3706 0.688,-0.269 1.7801,0.999 1.9356,1.1372 -1.2723,1.0695 -2.8407,2.8705 -2.5245,3.2921 1.6087,-1.3045 3.8096,-0.79 3.9931,-0.108 0.183,0.682 0.02,0.634 0.02,1.3768 -7e-4,0.742 -1.8171,1.3177 -3.2732,1.3311 -0.163,1.5581 2.9522,0.628 3.0286,1.6402 0.05,0.684 -0.371,1.475 -0.432,1.6435 -2.0708,0.391 -5.5231,0.468 -7.1073,-0.692 -1.6115,-1.1797 -2.204,-3.8135 -1.0032,-6.0829 0.294,-1.5596 1.5845,-4.1069 1.754,-5.6846 0.782,0.07 1.1845,0.395 1.625,0.7 z"
         style="color:#000000;font-style:normal;font-variant:normal;font-weight:normal;font-stretch:normal;font-size:medium;line-height:normal;font-family:sans-serif;text-indent:0;text-align:start;text-decoration:none;text-decoration-line:none;text-decoration-style:solid;text-decoration-color:#000000;letter-spacing:normal;word-spacing:normal;text-transform:none;writing-mode:lr-tb;direction:ltr;baseline-shift:baseline;text-anchor:start;white-space:normal;clip-rule:nonzero;display:inline;overflow:visible;visibility:visible;opacity:1;isolation:auto;mix-blend-mode:normal;color-interpolation:sRGB;color-interpolation-filters:linearRGB;solid-color:#000000;solid-opacity:1;fill:#000000;fill-opacity:1;fill-rule:nonzero;stroke:none;stroke-width:1.77165353;stroke-linecap:butt;stroke-linejoin:miter;stroke-miterlimit:4;stroke-dasharray:none;stroke-dashoffset:0;stroke-opacity:1;color-rendering:auto;image-rendering:auto;shape-rendering:auto;text-rendering:auto;enable-background:accumulate" />
    </g>
  </g>
</svg>
