<?xml version="1.0" encoding="UTF-8" standalone="no"?>
<svg
   xmlns:dc="http://purl.org/dc/elements/1.1/"
   xmlns:cc="http://creativecommons.org/ns#"
   xmlns:rdf="http://www.w3.org/1999/02/22-rdf-syntax-ns#"
   xmlns:svg="http://www.w3.org/2000/svg"
   xmlns="http://www.w3.org/2000/svg"
   xmlns:sodipodi="http://sodipodi.sourceforge.net/DTD/sodipodi-0.dtd"
   xmlns:inkscape="http://www.inkscape.org/namespaces/inkscape"
   viewBox="0 0 802.93335 845.14667"
   height="845.14667"
   width="802.93335"
   xml:space="preserve"
   id="svg2"
   version="1.1"
   sodipodi:docname="bottle-of-milk-publicdomainvectors_org.svg"
   inkscape:version="0.92.1 r"><sodipodi:namedview
     pagecolor="#ffffff"
     bordercolor="#666666"
     borderopacity="1"
     objecttolerance="10"
     gridtolerance="10"
     guidetolerance="10"
     inkscape:pageopacity="0"
     inkscape:pageshadow="2"
     inkscape:window-width="1841"
     inkscape:window-height="1027"
     id="namedview218"
     showgrid="false"
     inkscape:zoom="0.55848294"
     inkscape:cx="1155.1177"
     inkscape:cy="392.27244"
     inkscape:window-x="79"
     inkscape:window-y="29"
     inkscape:window-maximized="1"
     inkscape:current-layer="g4710" /><metadata
     id="metadata8"><rdf:RDF><cc:Work
         rdf:about=""><dc:format>image/svg+xml</dc:format><dc:type
           rdf:resource="http://purl.org/dc/dcmitype/StillImage" /></cc:Work></rdf:RDF></metadata><g
     transform="matrix(1.3333333,0,0,-1.3333333,0,845.14667)"
     id="g10"><g
       transform="scale(0.1)"
       id="g12"><g
         id="g4710"
         transform="matrix(1.205392,0,0,1.205392,-629.19933,-562.59932)"><path
           d="m 2144.75,3805.51 c 0,349.76 452.17,597.11 452.17,946.88 v 595.79 h 840.5 v -595.79 c 0,-349.77 452.16,-597.12 452.16,-946.88 v -2659.8 c 0,-581.601 -1744.83,-581.601 -1744.83,0 v 2659.8"
           style="fill:#b3b3b2;fill-opacity:1;fill-rule:evenodd;stroke:none"
           id="path348"
           inkscape:connector-curvature="0" /><path
           d="m 2144.75,3805.51 c 0,151.75 85.13,284.22 181.5,414.15 h 1381.82 c 96.39,-129.93 181.51,-262.41 181.51,-414.15 v -2659.8 c 0,-581.601 -1744.83,-581.601 -1744.83,0 v 2659.8"
           style="fill:#d8d7d5;fill-opacity:1;fill-rule:evenodd;stroke:none"
           id="path350"
           inkscape:connector-curvature="0" /><path
           d="m 3371.31,5340.93 h -708.29 v -588.54 c 0,-373.63 -452.17,-625.97 -452.17,-946.88 v -2659.8 c 0,-491.28 1612.63,-491.28 1612.63,0 v 2659.8 c 0,336.07 -452.17,558.39 -452.17,946.88 v 588.54"
           style="fill:#7a7b7d;fill-opacity:1;fill-rule:evenodd;stroke:none"
           id="path352"
           inkscape:connector-curvature="0" /><path
           d="M 2407.11,4219.66 C 2304.84,4083.87 2210.85,3951.8 2210.85,3805.51 v -2659.8 c 0,-491.28 1612.63,-491.28 1612.63,0 v 2659.8 c 0,152.79 -93.47,282.08 -195.41,414.15 H 2407.11"
           style="fill:#bcbbb9;fill-opacity:1;fill-rule:evenodd;stroke:none"
           id="path354"
           inkscape:connector-curvature="0" /><path
           d="m 3338.2,5335.45 h -642.08 v -583.06 c 0,-380.54 -452.15,-644.97 -452.15,-946.88 v -2659.8 c 0,-446.058 1546.4,-445.151 1546.4,0 v 2659.8 c 0,324.21 -452.17,543.68 -452.17,946.88 v 583.06"
           style="fill:#d2d2d0;fill-opacity:1;fill-rule:evenodd;stroke:none"
           id="path356"
           inkscape:connector-curvature="0" /><path
           d="M 2447.74,4219.66 C 2342.6,4079.35 2243.97,3946.51 2243.97,3805.51 v -2659.8 c 0,-446.058 1546.4,-445.151 1546.4,0 v 2659.8 c 0,151.06 -98.17,279.38 -203.02,414.15 H 2447.74"
           style="fill:#f8f9f9;fill-opacity:1;fill-rule:evenodd;stroke:none"
           id="path358"
           inkscape:connector-curvature="0" /><path
           d="m 2586.01,5443.87 c 283.03,44.03 569.02,58.48 862.32,0 14.77,-2.95 27.38,-12.32 27.38,-27.38 0,-45.53 0,-91.06 0,-136.6 0,-15.05 -12.51,-29.75 -27.38,-27.38 -284.93,45.43 -572.29,46.81 -862.32,0 -14.86,-2.4 -27.39,12.33 -27.39,27.38 0,45.54 0,91.07 0,136.6 0,15.06 12.5,25.06 27.39,27.38"
           style="fill:#5fccf5;fill-opacity:1;fill-rule:evenodd;stroke:none"
           id="path364"
           inkscape:connector-curvature="0" /><path
           d="m 2244.2,1141.45 c 9.86,-440.38 1536.51,-439.399 1545.95,0.21 C 3581.72,835.121 2452.69,834.531 2244.2,1141.45"
           style="fill:#ededed;fill-opacity:1;fill-rule:evenodd;stroke:none"
           id="path366"
           inkscape:connector-curvature="0" /><path
           d="m 2760.65,4219.66 h -254.62 c -17.88,-28.72 -34.33,-58.05 -48.23,-88.38 -43.74,-95.5 -100.55,-185.11 -113.36,-303.61 h 407.37 l -3.84,284.4 c -0.49,36.45 4.4,72.23 12.68,107.59"
           style="fill:#ffffff;fill-opacity:1;fill-rule:evenodd;stroke:none"
           id="path370"
           inkscape:connector-curvature="0" /><path
           d="m 2956.06,4219.66 h -156.7 c -8.68,-35.73 -14.13,-72.47 -14.42,-110.85 -0.77,-100.85 -1.29,-152.96 -3.15,-281.14 13.37,-235.07 -32.82,-470.14 -75.18,-693.68 126.98,195.44 208.14,426.5 242.9,693.68 l -2.85,284.4 c -0.37,36.45 3.26,72.23 9.4,107.59"
           style="fill:#ffffff;fill-opacity:1;fill-rule:evenodd;stroke:none"
           id="path374"
           inkscape:connector-curvature="0" /><path
           d="m 2497.35,4205.48 c -97.33,-112.51 -153.44,-237.1 -152.91,-377.81 3.32,-886.17 7.68,-1772.32 11.53,-2658.49 21.77,886.17 380.81,1772.18 395.84,2658.49 2.38,141.55 -303.91,264.5 -254.46,377.81"
           style="fill:#ffffff;fill-opacity:1;fill-rule:evenodd;stroke:none"
           id="path376"
           inkscape:connector-curvature="0" /><path
           d="m 3889.58,3071.06 c 0,-366.38 0,-732.75 0,-1099.13 -212.67,-109.14 -1574.44,-111.21 -1744.83,0 0,366.38 0,732.75 0,1099.13 196.37,-93.06 1523.42,-82.29 1744.83,0"
           style="fill:#5fccf5;fill-opacity:1;fill-rule:evenodd;stroke:none"
           id="path382"
           inkscape:connector-curvature="0" /><path
           d="m 3895.11,2746.33 c 0,-165.27 0,-330.53 0,-495.78 -303.46,-65.79 -598.86,-75.37 -892.02,-69.34 -329.46,6.78 -329.54,496.06 0,495.77 297.34,-0.28 594.68,13.19 892.02,69.35"
           style="fill:#84d7f2;fill-opacity:1;fill-rule:evenodd;stroke:none"
           id="path384"
           inkscape:connector-curvature="0" /></g></g></g></svg>
