<svg xmlns="http://www.w3.org/2000/svg" viewBox="0 0 512 512"><path d="M219.9175 180.99824c-13.7-17.13-9.13-39.08-20.42-58.16-1.4-1.8-4.24-1.3-7.46-.32-3.18 8.12-4.35 18.9-5.32 28.08-3.28 30.58 11.9 57.33 33.93 59.68 12.9 1.34 25.3-5.92 34-18.3-11.6 2-23.6-.83-34.6-10.98z"  fill="#49b649"/><path d="M229.3175 125.59824c2.77.23 4.75 3.1 4.4 6.4-.34 3.24-2.9 5.62-5.64 5.3-2.7-.26-4.7-3.13-4.4-6.4.4-3.27 2.9-5.66 5.7-5.32z" fill="#49b649"/><path d="M230.7075 336.62824c3.45 1.66-.38 2.4-2.35 6.5-2 4.03-1.3 9.86-4.8 8.22-3.5-1.7-4.7-6.33-2.7-10.4 1.9-4.1 6.3-6.04 9.8-4.35z"  fill="#8d6425"/><path d="M201.5675 485.85824s23.18 8.8 39.2-.8c0 0-1.42-344.93.78-413.67 0 0-2.3-24.8-16-48.1 0 0-24 33.6-26.3 87.2 0 0 0 288.02 2.4 375.23z" fill="#3d8841"/><path d="M201.5075 109.66824s-.53 287.53 1.7 374.6c0 0 3.7 1.36 9.06 2.42-.84-100.5 4.16-403.6 4.16-403.6.4-7.3 1.2-14.1 2.3-20.6-1.2-4.1-3-8-4.9-11.9-5.7 14.7-11.2 34.8-12.3 59z"  fill="#205f30"/><path d="M216.9675 485.92824l1.78-394.54s.1-12.2 3.6-15.7c0 0 2.9 9.3 3.6 22.1l-.3 390.2s-7.1 0-8.5-2.1z" fill="#fff"/><path d="M205.6375 132.24824s8.6 5.53 20.63-.52c0 0-11.04-62.36-20.63.52zm17.6-34.7s8.56 5.5 20.6-.52c0 0-11.03-62.36-20.6.53z" fill="#96c941"/><path d="M201.3675 78.92824s6.68 6.06 18.25 2.45c0 0-.2-56.5-18.27-2.45zm24.9 103.54s9.1-.04 16.5-3.55c0-.1-4.54-55.2-16.5 3.5zm-.96-124.18s9 2 13.53.5c0 0-9.08-60.4-13.53-.6z" fill="#49b649"/><path d="M219.7375 52.72824s-11.04-.98-9.57-4.5c0 .02 16.6-44.77 9.58 4.5zm-23.17 155.97s10.07 7.03 21.15 1.02c0 0-12.6-59.9-21.16-1.1z" fill="#96c941"/><path d="M203.6675 120.12824s-7.58.54-8.08-3c0 0 6-56.3 8.07 3.02zm24.1 23.17s11.06.98 14.08-2.03c0 0 0-60.32-14 2.03z" fill="#49b649"/><path d="M227.2675 260.49824s10.07 1 13.1-3c0 0 3.5-65.9-13.1 3zm-26.05-11.4s10.08 1 13.1-3c0 0 3.52-65.9-13.1 3z" fill="#96c941"/><path d="M291.0675 180.07824c-13.7-17.12-9.13-39.07-20.43-58.16-1.4-1.78-4.24-1.3-7.45-.3-3.18 8.1-4.36 18.88-5.33 28.06-3.28 30.6 11.9 57.34 33.94 59.7 12.88 1.33 25.22-5.93 33.93-18.32-11.7 2-23.7-.82-34.7-10.97z" fill="#49b649"/><path d="M300.4675 124.67824c2.77.24 4.75 3.1 4.4 6.4-.34 3.25-2.9 5.63-5.64 5.32-2.7-.27-4.7-3.14-4.4-6.4.4-3.28 2.9-5.67 5.7-5.33z" fill="#49b649"/><path d="M301.8575 335.71824c3.45 1.66-.38 2.4-2.35 6.5-2 4.03-1.3 9.86-4.8 8.22-3.5-1.7-4.7-6.33-2.7-10.4 1.9-4.1 6.3-6.04 9.8-4.35z" fill="#8d6425"/><path d="M272.7175 484.94824s23.18 8.8 39.2-.8c0 0-1.42-344.93.78-413.67 0 0-2.36-24.8-16-48.02 0 0-24 33.62-26.37 87.22 0 0 0 288.06 2.4 375.27z" fill="#3d8841"/><path d="M272.6575 108.75824s-.53 287.53 1.7 374.6c0 0 3.7 1.36 9.06 2.42-.84-100.5 4.16-403.57 4.16-403.57.43-7.3 1.26-14.1 2.3-20.6-1.2-4.1-3-8-4.9-11.9-5.7 14.7-11.2 34.8-12.3 59z" fill="#205f30"/><path d="M288.1175 485.01824l1.78-394.54s.03-12.13 3.55-15.65c0 0 2.9 9.3 3.6 22.1l-.3 390.2s-7.1 0-8.5-2.1z" fill="#fff"/><path d="M276.7775 131.33824s8.6 5.53 20.64-.52c0 0-11.04-62.36-20.63.52zm17.62-34.7s8.55 5.5 20.6-.52c0 0-11.04-62.36-20.6.53z" fill="#96c941"/><path d="M272.5175 78.01824s6.68 6.06 18.25 2.45c0 0-.2-56.5-18.27-2.45zm24.9 103.54s9.1-.04 16.5-3.55c0-.1-4.54-55.2-16.5 3.5zm-.96-124.18s9 2.04 13.53.53c0 0-9.08-60.4-13.53-.6z" fill="#49b649"/><path d="M290.8975 51.81824s-11.05-.98-9.58-4.5c0 .02 16.6-44.77 9.58 4.5zm-23.18 155.97s10.07 7 21.15 1c0 0-12.6-59.9-21.16-1.1z" fill="#96c941"/><path d="M274.8175 119.21824s-7.58.54-8.08-3c0 0 6-56.3 8.07 3.02zm24.1 23.17s11.06.9 14.08-2.1c0 0 0-60.3-14.07 2z" fill="#49b649"/><path d="M298.4175 259.57824s10.07 1 13.1-3c0 0 3.5-65.9-13.1 3zm-26.05-11.38s10.08 1 13.1-3.02c0 0 3.52-65.9-13.1 3z" fill="#96c941"/></svg>
