<svg xmlns="http://www.w3.org/2000/svg" viewBox="0 0 479.99999 480" width="512" height="512"><title>Cartoon Carrot</title><path d="M128.354 33.947c-7.07-.1-7.287 9.08-7.84 29.15-.684 24.7 4.15 28.156 10.465 38.218 6.312 10.063-26.1-10.58-27.385-23.8-1.282-13.22-2.87-14.967-20.985-15.467-10.082-.278-9.312 14.55-6.68 27.754-2.28-2.102-3.566-3.286-5.468-5.046-12.856-11.89-11.605 3.014-11.97 16.188-.19 6.943.065 13.863.567 20.102-3.075-1.27-5.81-2.415-9.277-3.825-26.075-10.606-4.935 1.47-5.572 24.524-.636 23.054 9.184 23.292 26.198 3.986 17.012-19.306 92.925 35.603 92.925 35.603s46.67-16.846 35.46-28.692c-11.21-11.843-33.507-38.896-31.133-65.197 2.375-26.302 5.297-14.594 5.98-39.296.608-22.02-5.128-4.968-25.33 8.987.707-1.528 1.395-3.115 2.17-4.732 6.995-14.638-3.014-11.657-16.05-16.96-2.445-.996-4.446-1.47-6.077-1.494z" fill="#51bd0a" stroke="#004d00" stroke-width="12.306"/><path d="M85.757 64.41c-10.083-.278-9.313 14.55-6.68 27.754-2.28-2.102-3.567-3.286-5.47-5.046-12.854-11.89-11.604 3.014-11.968 16.188-.194 6.943.062 13.863.564 20.102-3.073-1.27-5.81-2.415-9.275-3.825-26.076-10.608-4.936 1.467-5.573 24.522-.637 23.054 9.183 23.292 26.197 3.986 17.013-19.303 92.926 35.606 92.926 35.606s46.67-16.846 35.46-28.692c-4.103-4.337-9.77-10.73-15.092-18.362-1.894.483-4.317.697-7.46.61-27.995-.773-38.024 3.877-49.46.265-11.435-3.612-27.39-20.534-34.213-71.81-.03-.21-.06-.404-.086-.615-2.607-.365-5.74-.566-9.873-.68z" opacity=".164" fill="#054e0a"/><path d="M149.006 150.302c26.373-22.857 59.132-76.78 116.04-24.615 21.098 19.34 47.863 58.882 76.41 108.323 28.553 49.44 58.878 108.78 87.105 167.712 14.61 30.498 14.45 86.644-100.216 15.82-119.554-73.843-146.55-109.67-207.465-182.85-18.97-22.79 1.757-61.535 28.13-84.39z" fill="#d13c0a"/><path d="M188.218 238.915s7.033 35.164 59.778-14.066m10.546 91.422s24.614 7.033 63.296-38.68m0 84.396s24.615 14.065 35.164-10.55" fill="none" stroke="#861600" stroke-width="9.231"/></svg>