<svg xmlns="http://www.w3.org/2000/svg" xmlns:xlink="http://www.w3.org/1999/xlink" width="438.514" height="219.779" viewBox="0 0 116.02343 58.149869"><title>Icone verdure</title><defs><filter id="b" x="-.235" width="1.47" y="-.128" height="1.256" color-interpolation-filters="sRGB"><feGaussianBlur stdDeviation="1.204"/></filter><filter id="c" x="-.035" width="1.071" y="-.113" height="1.226" color-interpolation-filters="sRGB"><feGaussianBlur stdDeviation=".726"/></filter></defs><path d="M107.11 8.066l-.028.02 2.425 2.714c-.056.016-.116.033-.16.056-.992-.59-1.832-1.27-3.193-1.627l-.014.032 3.14 1.635c-.985.598 1.086 2.425 1.632 3.638l.57-.16c-.235-1.285-1.11-2.523-1.253-3.722l-.117.047c-.006 0-.01.003-.016.003l1.31-3.446-.035-.014c-.81 1.217-.96 2.32-1.34 3.465-.042.006-.08.01-.12.013l.006-3.714h-.034c-.426 1.47-.12 2.536-.035 3.723-.1.008-.19.026-.27.046-.707-.93-1.196-1.91-2.472-2.712z" fill="#c0cb7d" stroke="#c0cb7d" stroke-width=".65582811"/><path d="M103.84 3.187a.974.974 0 0 0-.083 1.373.974.974 0 0 0 .163.148.974.974 0 0 0-.02.013.974.974 0 0 0-.082 1.378.974.974 0 0 0 1.374.08.974.974 0 0 0 .083-1.373.974.974 0 0 0-.164-.148.974.974 0 0 0 .02-.013.974.974 0 0 0 .27-.394.974.974 0 0 0 .126.187.974.974 0 0 0 1.377.083.974.974 0 0 0 .082-1.377.974.974 0 0 0-1.375-.08.974.974 0 0 0-.268.39.974.974 0 0 0-.128-.185.974.974 0 0 0-1.375-.08z" fill="#a6ba47" stroke="#a6ba47" stroke-width="1.03483359"/><path d="M106.405 2.02a.974.974 0 0 0-.563 1.254.974.974 0 0 0 .1.196.974.974 0 0 0-.023.006.974.974 0 0 0-.565 1.258.974.974 0 0 0 1.257.562.974.974 0 0 0 .563-1.255.974.974 0 0 0-.1-.195.974.974 0 0 0 .023-.006.974.974 0 0 0 .39-.275.974.974 0 0 0 .052.22.974.974 0 0 0 1.26.565.974.974 0 0 0 .563-1.258.974.974 0 0 0-1.257-.562.974.974 0 0 0-.39.27.974.974 0 0 0-.054-.22.974.974 0 0 0-1.257-.56z" fill="#d5e171" stroke="#d5e172" stroke-width="1.03483359"/><path d="M105.093 4.196a1.677 1.677 0 0 0-1.06 1.824 1.098 1.098 0 0 0-.306.068 1.098 1.098 0 0 0-.635 1.42 1.098 1.098 0 0 0 1.417.635 1.098 1.098 0 0 0 .68-.78 1.677 1.677 0 0 0 1.097-.03 1.677 1.677 0 0 0 .97-2.165 1.677 1.677 0 0 0-2.164-.972z" fill="#6d8339" stroke="#6d8339" stroke-width="1.03483359"/><path d="M109.52 4.423a.974.974 0 0 0-.563 1.255.974.974 0 0 0 .1.196.974.974 0 0 0-.023.006.974.974 0 0 0-.564 1.258.974.974 0 0 0 1.257.562.974.974 0 0 0 .563-1.255.974.974 0 0 0-.1-.196.974.974 0 0 0 .023-.007.974.974 0 0 0 .39-.274.974.974 0 0 0 .053.22.974.974 0 0 0 1.258.564.974.974 0 0 0 .564-1.26.974.974 0 0 0-1.257-.56.974.974 0 0 0-.388.27.974.974 0 0 0-.055-.22.974.974 0 0 0-1.257-.56z" fill="#869d41" stroke="#869d41" stroke-width="1.03483359"/><path d="M109.355 1.465a.974.974 0 0 0-1.13.782.974.974 0 0 0-.017.22.974.974 0 0 0-.023-.008.974.974 0 0 0-1.135.783.974.974 0 0 0 .784 1.132.974.974 0 0 0 1.132-.782.974.974 0 0 0 .015-.22.974.974 0 0 0 .025.008.974.974 0 0 0 .475-.034.974.974 0 0 0-.07.215.974.974 0 0 0 .784 1.136.974.974 0 0 0 1.135-.784.974.974 0 0 0-.785-1.132.974.974 0 0 0-.473.03.974.974 0 0 0 .067-.217.974.974 0 0 0-.785-1.132zM105.792 6.19a.974.974 0 0 0-.563 1.255.974.974 0 0 0 .1.196.974.974 0 0 0-.024.006.974.974 0 0 0-.564 1.26.974.974 0 0 0 1.257.56.974.974 0 0 0 .562-1.254.974.974 0 0 0-.1-.197.974.974 0 0 0 .023-.005.974.974 0 0 0 .39-.274.974.974 0 0 0 .053.22.974.974 0 0 0 1.258.564.974.974 0 0 0 .564-1.258.974.974 0 0 0-1.257-.562.974.974 0 0 0-.388.27.974.974 0 0 0-.055-.218.974.974 0 0 0-1.258-.562z" fill="#a6ba47" stroke="#a6ba47" stroke-width="1.03483359"/><path d="M107.153 3.53a.974.974 0 0 0-.563 1.254.974.974 0 0 0 .1.196.974.974 0 0 0-.023.006.974.974 0 0 0-.564 1.258.974.974 0 0 0 1.257.562.974.974 0 0 0 .563-1.255.974.974 0 0 0-.1-.195.974.974 0 0 0 .023-.006.974.974 0 0 0 .39-.275.974.974 0 0 0 .053.22.974.974 0 0 0 1.257.565.974.974 0 0 0 .564-1.26.974.974 0 0 0-1.256-.56.974.974 0 0 0-.39.27.974.974 0 0 0-.053-.22.974.974 0 0 0-1.257-.56z" fill="#d5e171" stroke="#d5e172" stroke-width="1.03483359"/><path d="M112.493 10.335l-.014-.003-.63 1.602c-.02-.02-.04-.043-.058-.057.037-.544.146-1.044.006-1.694h-.016l-.022 1.675c-.462-.288-.792.976-1.188 1.465l.19.206c.492-.374.828-1.007 1.304-1.323l-.045-.037c0-.003-.002-.005-.003-.005l1.734-.182v-.016c-.687-.083-1.185.09-1.75.174-.01-.013-.02-.033-.03-.048l1.57-.79-.008-.014c-.71.133-1.095.49-1.58.778-.024-.04-.05-.073-.075-.103.24-.497.55-.912.617-1.622z" fill="#c0cb7d" stroke="#c0cb7d" stroke-width=".3101988"/><path d="M113.856 7.915a.46.46 0 0 0-.597.258.46.46 0 0 0-.03.1.46.46 0 0 0-.01-.004.46.46 0 0 0-.597.258.46.46 0 0 0 .26.598.46.46 0 0 0 .596-.258.46.46 0 0 0 .027-.1.46.46 0 0 0 .01.004.46.46 0 0 0 .223.03.46.46 0 0 0-.052.092.46.46 0 0 0 .258.6.46.46 0 0 0 .6-.26.46.46 0 0 0-.26-.597.46.46 0 0 0-.222-.03.46.46 0 0 0 .05-.094.46.46 0 0 0-.258-.598z" fill="#869d41" stroke="#869d41" stroke-width=".4911481"/><path d="M114.896 8.75a.46.46 0 0 0-.65.03.46.46 0 0 0-.06.084.46.46 0 0 0-.01-.01.46.46 0 0 0-.65.03.46.46 0 0 0 .03.65.46.46 0 0 0 .65-.03.46.46 0 0 0 .06-.083.46.46 0 0 0 .01.01.46.46 0 0 0 .198.107.46.46 0 0 0-.082.07.46.46 0 0 0 .03.65.46.46 0 0 0 .652-.03.46.46 0 0 0-.03-.65.46.46 0 0 0-.198-.106.46.46 0 0 0 .08-.07.46.46 0 0 0-.03-.65z" fill="#d5e171" stroke="#d5e172" stroke-width=".4911481"/><path d="M113.698 8.66a.793.793 0 0 0-.997-.06.52.52 0 0 0-.092-.115.52.52 0 0 0-.735.034.52.52 0 0 0 .034.733.52.52 0 0 0 .474.12.793.793 0 0 0 .248.458.793.793 0 0 0 1.12-.052.793.793 0 0 0-.05-1.12z" fill="#a6ba47" stroke="#a6ba47" stroke-width=".4911481"/><path d="M114.545 10.577a.46.46 0 0 0-.65.03.46.46 0 0 0-.06.085.46.46 0 0 0-.01-.01.46.46 0 0 0-.65.03.46.46 0 0 0 .03.65.46.46 0 0 0 .65-.03.46.46 0 0 0 .062-.083.46.46 0 0 0 .007.008.46.46 0 0 0 .2.107.46.46 0 0 0-.083.07.46.46 0 0 0 .03.65.46.46 0 0 0 .653-.03.46.46 0 0 0-.03-.65.46.46 0 0 0-.198-.107.46.46 0 0 0 .08-.07.46.46 0 0 0-.03-.65z" fill="#d5e172" stroke="#d5e172" stroke-width=".4911481"/><path d="M115.76 9.877a.46.46 0 0 0-.572-.31.46.46 0 0 0-.097.04.46.46 0 0 0 0-.01.46.46 0 0 0-.573-.312.46.46 0 0 0-.31.572.46.46 0 0 0 .57.31.46.46 0 0 0 .097-.04.46.46 0 0 0 0 .01.46.46 0 0 0 .117.194.46.46 0 0 0-.105.016.46.46 0 0 0-.312.573.46.46 0 0 0 .573.31.46.46 0 0 0 .31-.57.46.46 0 0 0-.112-.195.46.46 0 0 0 .105-.016.46.46 0 0 0 .31-.573zM113.005 9.38a.46.46 0 0 0-.65.03.46.46 0 0 0-.062.084.46.46 0 0 0-.007-.01.46.46 0 0 0-.652.03.46.46 0 0 0 .03.65.46.46 0 0 0 .65-.03.46.46 0 0 0 .062-.083.46.46 0 0 0 .008.01.46.46 0 0 0 .2.107.46.46 0 0 0-.083.07.46.46 0 0 0 .03.65.46.46 0 0 0 .652-.03.46.46 0 0 0-.03-.65.46.46 0 0 0-.198-.107.46.46 0 0 0 .08-.07.46.46 0 0 0-.03-.65z" fill="#a6ba47" stroke="#a6ba47" stroke-width=".4911481"/><path d="M114.418 9.387a.46.46 0 0 0-.65.03.46.46 0 0 0-.06.085.46.46 0 0 0-.01-.01.46.46 0 0 0-.65.03.46.46 0 0 0 .03.65.46.46 0 0 0 .65-.03.46.46 0 0 0 .062-.083.46.46 0 0 0 .007.008.46.46 0 0 0 .2.107.46.46 0 0 0-.083.07.46.46 0 0 0 .03.65.46.46 0 0 0 .652-.03.46.46 0 0 0-.03-.65.46.46 0 0 0-.198-.107.46.46 0 0 0 .08-.07.46.46 0 0 0-.03-.65z" fill="#869d41" stroke="#869d41" stroke-width=".4911481"/><path d="M16.817 361.63c-.385.235 1.754 3.996 4.288 8.13-.137-.158-.273-.315-.413-.474-3.15-3.572-5.864-6.056-6.063-5.547-.2.51 2.6 3.91 5.75 7.482 2.22 2.52 4.02 4.444 4.958 5.186.137.237.264.385.378.433.054.023.104.005.153-.032.193.186.335.267.412.22.108-.067.047-.393-.143-.908.202-1.225.005-3.825-1.244-6.495-2.07-4.426-2.416-7.876-3.024-8.128-.61-.252.166 3.516 1.228 7.753.16.645.32 1.25.474 1.837-.406-.703-.844-1.44-1.31-2.198-2.614-4.254-5.053-7.504-5.447-7.262z" fill="#009100" stroke="#009100" stroke-width=".338" transform="matrix(.26534 .06632 -.15798 .26684 98.423 -97.553)"/><path d="M37.03 362.505c-.85.09-3.434 3.156-6.068 6.61-.64.84-1.22 1.622-1.736 2.345.58-2.8 1.95-4.593 1.584-4.908-.378-.327-1.663 1.884-2.95 4.43-.195.387-.375.753-.546 1.108.022-.497.034-1.02.034-1.564 0-3.05-.367-5.524-.82-5.524-.443 0-.586 2.643-.593 5.606l-.1-.38c-.797-2.867-1.787-5.028-2.213-4.827-.426.203.164 2.87.96 5.737.56 2.022 1.073 3.6 1.476 4.288-.007.167.022.285.093.346.035.03.086.036.146.033.066.16.142.246.232.246.045 0 .09-.035.134-.084-.008.074.002.138.04.186.115.154.46.12.966-.06 1.134-3.48 14.06-2.115 14.844-3.566.05-.776-3.902-.29-8.27.51-3.07.722-1.28-.03.083-1.064 3.784-2.87 6.506-5.653 6.08-6.215-.417-.55-3.83 1.76-7.512 4.54.124-.16.25-.32.374-.483 2.81-3.685 4.56-6.948 3.908-7.287-.04-.02-.09-.028-.146-.022z" fill="#009100" stroke="#009100" stroke-width=".261" transform="matrix(.26534 .06632 -.15798 .26684 98.423 -97.553)"/><path d="M27.506 417.684c.02-.44-.578-7.637-.254-7.934 2.53-11.11-3.008-4.237.254 7.934z" fill="#f90" stroke="#f90" stroke-width=".204" transform="matrix(.26534 .06632 -.15798 .26684 98.423 -97.553)"/><path d="M27.904 404.03c0 .047-.113.246-.252.246-.138 0-.25-.2-.25-.246 0-.046.112-.083.25-.083.14 0 .252.037.252.083z" fill="#2d2d2d" stroke="#2d2d2d" stroke-width=".2" transform="matrix(.26534 .06632 -.15798 .26684 98.423 -97.553)"/><path d="M44.53 4.857c.463-.872 3.166-.517 2.722.68.283.27-4.932 6.76-5.377 6.648-.47-.117 2.266-7.224 2.656-7.328z" fill="#f60"/><path d="M32.665 382.725c-.28-.012-4.857.367-5.046.16-7.066-1.608-2.696 1.915 5.045-.16z" fill="#f90" stroke="#f90" stroke-width=".13" transform="matrix(.26534 .06632 -.15798 .26684 98.423 -97.553)"/><path d="M31.958 387.037c-.222-.01-3.864.292-4.015.128-5.62-1.28-2.144 1.522 4.015-.128z" fill="#f90" stroke="#f90" stroke-width=".103" transform="matrix(.26534 .06632 -.15798 .26684 98.423 -97.553)"/><path d="M31.133 392.533c-.165-.007-2.872.217-2.984.095-4.178-.95-1.594 1.13 2.983-.095z" fill="#f90" stroke="#f90" stroke-width=".077" transform="matrix(.26534 .06632 -.15798 .26684 98.423 -97.553)"/><g transform="matrix(3.172 0 0 3.09567 24.66 -841.51)"><path d="M-3.92 281.506c0 .98-.796 1.776-1.777 1.776-.98 0-1.777-.795-1.777-1.776 0-.982.82-1.46 1.8-1.46.983 0 1.754.478 1.754 1.46z" fill="#d22d27" stroke="#d22d27" stroke-width=".106"/><path d="M6.154 307.132c-.047.047-1.27-.28-1.287-.345-.018-.065.878-.96.942-.943.064.017.39 1.24.344 1.288z" transform="matrix(-.4567 -.0688 -.25365 .19226 74.826 221.93)" fill="#211f05" stroke="#2a2904" stroke-width=".2"/><path d="M-5.99 279.54l.086.564c-.222-.008-1.237-.088-1.268-.077-.036.014.734.313.724.33-.01.016-.768.072-.747.085.02.012 1.077.134 1.12.138.044.004.67-.236.718-.242.05-.006.124.145.16.13.037-.013.786-.418.795-.435.01-.016-.604.156-.625.143-.02-.012.092-.32.048-.323-.032-.003-.47.145-.69.216-.092-.128-.312-.32-.106-.563z" fill="#395516" stroke="#395516" stroke-width=".072"/><circle cx="-5.092" cy="281.547" r=".662" opacity=".745" fill="#fff" stroke="#fff" stroke-width=".179"/></g><g><path d="M27.768.015l-1.866.227c.316 1.268-.184 2.227-.677 3.29a5.85 5.767 0 0 0-4.465 5.595 5.85 5.767 0 0 0 4.628 5.637v.97h2.508v-.987h-.008a5.85 5.767 0 0 0 4.573-5.62 5.85 5.767 0 0 0-4.515-5.607c-.437-1.194-.377-2.288-.177-3.506z" fill="#a4033f"/><path d="M31.31 8.597c0 2.22-1.157 4.02-2.586 4.02-1.43 0-1.553-1.8-1.553-4.02 0-2.22.125-4.02 1.554-4.02 1.43 0 2.587 1.8 2.587 4.02z" fill="#c15e85"/><g opacity=".628" stroke="#fff" stroke-width=".064" fill="none"><path d="M7.69 323.403c-1.532 3.377-.8 6.495-.023 8.63M7.843 323.403c1.532 3.377.8 6.495.023 8.63M8.258 323.504c2.986 3.37 1.56 6.483.045 8.614M9.034 323.626c3.884 3.367 2.027 6.476.06 8.604M9.807 323.698c4.315 3.366 2.253 6.473.066 8.6M7.115 323.457c-2.84 3.37-1.482 6.484-.043 8.615M6.455 323.602c-3.774 3.368-1.97 6.477-.058 8.605M6.122 323.68c-5.46 3.362-2.85 6.465-.083 8.59" transform="matrix(1.04198 0 0 1.17263 18.903 -375.495)"/></g></g><g transform="rotate(-13.944 -2004.832 400.832) scale(1.93886)"><path d="M18.89 279.625c-1.814 2.382-4.778 2.67-5.992 2.176.034.094.136.187.178.27 1.253.455 4.075.13 5.856-2.208l.352.97.03-.04z" fill="#009100" stroke="#6d8339" stroke-width=".131"/><path d="M13 281.92c1.214.495 4.178.207 5.992-2.176l.424 1.166c-1.335 1.96-5.474 3.604-6.416 1.01z" fill="#a3bd39" stroke="#a3bd39" stroke-width=".131"/><circle cx="17.076" cy="282.302" r=".33" transform="rotate(.652)" fill="#d4e171" stroke="#d5e173" stroke-width=".133"/><circle r=".428" cy="282.405" cx="17.95" transform="rotate(.652)" fill="#c3d773" stroke="#c3d773" stroke-width=".173"/><circle cx="18.986" cy="282.272" r=".465" transform="rotate(.652)" fill="#e5eba3" stroke="#e5eba3" stroke-width=".188"/><circle r=".477" cy="281.947" cx="20.022" transform="rotate(.652)" fill="#c1d86d" stroke="#c1d66e" stroke-width=".193"/><circle cx="20.984" cy="281.428" r=".477" transform="rotate(.652)" fill="#e5eba3" stroke="#e5eba3" stroke-width=".193"/><circle r=".391" cy="280.777" cx="21.754" transform="rotate(.652)" fill="#d4e171" stroke="#d4e171" stroke-width=".158"/><path d="M19.047 279.45c-.01.017-.022.03-.033.047l.338 1.062c-.71 2.69-5.098 3.702-6.442 1.278 1.245 2.725 5.34 1.25 6.56-1.06z" fill="#6d8339" stroke="#6d8339" stroke-width=".139"/><path d="M20.372 278.807c-.013-.008-.028-.014-.046-.02-.17.25-.406.465-.64.68-.252-.203-.522-.27-.733-.02-.216.257-.184.64.073.857.257.217.64.185.858-.072.217-.257.08-.532-.177-.75l-.02-.014.146.044c.293-.253.724-.593.54-.705zm-1.614.873c-.402.102-.804.203-1.25.136.07.635.776.347 1.285.192zm.833.827l-.33-.012c-.118.52-.355 1.243.284 1.267-.098-.44-.026-.847.047-1.255zm-.438-.104l-.29-.157c-.337.412-.87.955-.31 1.26.108-.437.354-.77.6-1.103z" fill="#6d8339" stroke="#6e8439" stroke-width=".128"/><circle transform="rotate(.652)" r=".477" cy="280.514" cx="18.102" fill="#e5eba3" stroke="#e5eba3" stroke-width=".193"/><circle transform="rotate(.652)" cx="17.024" cy="283.816" r=".477" fill="#c1d86d" stroke="#c1d66e" stroke-width=".193"/></g><g><path d="M7.045 5.407c.362 3.21.64 3.784-.768 4.04-1.34.243-1.214-.74-2.392-2.882-1.347-2.452-.355-3.35.832-3.667 1.1-.296 2.03-.145 2.328 2.51z" fill="#eea01a"/><path d="M10.34 4.83c.437 3.2.728 3.77-.673 4.058-1.333.274-1.232-.712-2.46-2.825-1.404-2.42-.434-3.34.745-3.685 1.094-.322 2.026-.193 2.388 2.453z" fill="#ffc022"/><path d="M11.96 7.16c.58 4.254.968 5.01-.895 5.393-1.77.365-1.636-.946-3.267-3.754-1.868-3.216-.578-4.44.99-4.9 1.453-.426 2.692-.255 3.172 3.26z" fill="#eea01a"/><path d="M5.825 8.41c.58 4.253.967 5.008-.895 5.392-1.77.365-1.636-.946-3.268-3.754-1.867-3.215-.577-4.438.99-4.898 1.454-.427 2.692-.256 3.173 3.26z" fill="#ffc022"/><path d="M7.048 6.287c1.88-.535-.758-3.946-1.85-5.146C4.51.383.643-.615 1.09.546c.34.877 1.046 1.073.75 2.052-.203.667 2.156-1.76 2.898-.738 1.01 1.39-.433 5.207 1.012 4.796z" fill="#797451"/><path d="M10.6 9.13c.58 4.252.968 5.004-.894 5.39-1.76.368-2.557-.153-3.268-3.753-.67-3.4-.453-4.474.99-4.898 1.454-.428 2.692-.257 3.173 3.26z" fill="#ffc022"/><path d="M7.42 10.244c1.584 3.99.968 5.004-.894 5.39-1.76.368-2.557-.153-3.268-3.753-.67-3.4-.453-4.474.99-4.897 1.443-.422 1.903.064 3.173 3.26z" fill="#eea01a"/></g><g transform="matrix(2.24606 0 0 2.0295 57.16 -586.028)"><path d="M4.892 292.687l-.694 1.847-.327 1.892-.137.01.386-1.925.673-1.864z" fill="#2e6515" stroke="#183d11" stroke-width=".047"/><use height="100%" width="100%" transform="scale(.0765) rotate(-93.73 1982.607 1759.99)" xlink:href="#a"/><use xlink:href="#a" transform="matrix(.04876 -.05894 .05894 .04876 -14.82 282.067)" width="100%" height="100%"/><g transform="matrix(.2762 0 0 .2762 -4.906 208.627)"><path d="M31.353 296.008l.86 11.046-1.19 10.716.727.264.926-10.98-.728-11.112z" fill="#2e6515" stroke="#183d11" stroke-width=".265"/><g transform="rotate(90 31.716 296.33)"><g id="a" stroke-width=".265"><path d="M30.725 296.636l-4.73 2.018s-.397.165-.033.363c.364.2.397.2.397.2s-1.026.56-.828.76c.2.198.76.33.992.33.232 0 .794-.198.794-.198s-1.62 1.85-1.19 2.15c.43.296.893-.134.893-.134s.2 1.522.563 1.555c.364.034.76-.264.76-.264l.298.33s.133-.628.398-.76.66.232.66.232 1.093-1.456 1.192-2.15c.1-.695-.298 1.918-.033 2.183l.496.497.2-.232s-.167.397.032.728c.198.33.53.198.53.198s.032.3.263.3c.232 0 .86-.762.96-1.092.1-.33.66 1.09 1.058 1.29.397.198.893.23.893.23v-.727s.76 1.126 1.256.96c.496-.165.86.034.86.034s.694-1.026.595-1.158c-.098-.132.298-.265.298-.265l-1.09-1.355.694-.1s-.067-1.222-.298-1.222c-.232 0 0-.232 0-.232l-2.68-1.983s1.59.827 1.952.727c.364-.1.33-.397.33-.397l1.06-.1-.63-1.156.2-.23s-1.125-.695-1.257-.53c-.134.165.56-.595.56-.595l-.892-.496-.2-.43z" fill="#347125"/><path d="M35.75 296.456l-4.89.666-4.128 1.76a.5.5 0 0 1-.133.773l-.204.127c.04.006.12.025.13.025-.03 0 .186-.034.34-.08.155-.045.284-.09.284-.09a.5.5 0 0 1 .545.8s-.392.452-.723.923c-.086.123-.13.217-.197.33a.5.5 0 0 1 .742.37s.048.36.135.71c.035.14.077.258.115.356l.275-.11a.5.5 0 0 1 .372-.096c.076-.138.185-.273.4-.38.302-.15.545-.076.736.01.102-.142.14-.185.285-.415.274-.43.54-.995.56-1.136.005-.044.01-.074.013-.09 0-.008 0-.012.002-.015v-.004-.007s.99.147.992.145l-.016.115c-.018.147-.05.41-.076.7-.026.292-.046.612-.045.855 0 .116.008.213.016.27l.085.083a.5.5 0 0 1 .648.66s-.02.153.002.24a.5.5 0 0 1 .434.12c.027-.03.048-.046.077-.08.17-.198.336-.5.332-.488.022-.075.058-.183.19-.29.133-.104.363-.13.49-.093.25.075.28.173.338.246.118.145.205.302.307.472.102.17.208.347.3.48.094.13.208.21.136.173.065.033.094.02.17.044v-.092a.5.5 0 0 1 .913-.28s.174.252.388.473c.11.11.226.21.302.254.076.043.07.012-.004.036.3-.1.557-.077.776-.045.058-.09.077-.112.146-.23.076-.127.147-.26.184-.34.013-.03.015-.038.017-.044 0-.03-.024-.052-.022-.08.01-.117.057-.192.1-.258l-.772-.96a.5.5 0 0 1 .32-.81l.22-.03c-.005-.053-.003-.057-.01-.11-.02-.12-.043-.224-.063-.293-.084-.05-.175-.105-.225-.205-.048-.097.004-.124.004-.197l-2.435-1.805a.5.5 0 0 1 .53-.846s.386.2.81.387c.21.092.432.18.603.235.14.045.192.036.144.055a.5.5 0 0 1 .446-.4l.304-.03-.267-.492a.5.5 0 0 1-.06-.287s.002 0 0 0c-.05-.03-.053-.033-.108-.062-.138-.07-.28-.135-.36-.162-.038-.013-.065-.014-.036-.01.03 0 .19.018.336-.163-.004.005-.01.018.018-.028.007-.01.04-.074.04-.074l.034-.142-.02-.187s-.164-.23-.18-.25l.036.212-.51-.283-.072.028-.06.04c-.08.063-.024.022-.004 0l.09-.095-.337-.187a.5.5 0 0 1-.212-.23z" opacity=".954" fill="#286315"/></g><path d="M31.548 296.147c.032-.23.158-.413.158-.413l3.62-1.802-.248-.368.57-.99s-.954-.098-.803.022c.15.12.822-1.355.822-1.355s-.357-.315-.365-.016c-.008.3-.028-1.005-.028-1.005s-1.265.692-1.286 1.09c-.022.397-.254-.336-.254-.336l.856-1.117.053-1.83s-1.028.426-.863.683c.165.256.288-1.597.288-1.597l-.48.335-.78-.876-.475.535-.548-.143-.168 1.212-.512-.404s-.817 1.322-.62 1.583c.198.26-.83-.515-.83-.515l-.254.632-.318-.11.275.905-.492-.3s.107 2.117.4 2.424c.29.31.517.84.517.84s-2.212-2.108-2.24-1.912c-.027.197-.062.693-.062.693l-.717-.366-.204.506-.674.04.336.95-.163.21.633.488-.692.172 1.76 1.278s-1.62-.358-1.77.256c-.153.613.77 1.175.77 1.175l-.212.337s.814.146 1.267.008c.453-.137 1.916-.335 1.916-.335l1.095-.183z" fill="#3b7125"/><path d="M32.808 287.317l-.105.117a.495.495 0 0 1-.496.152l-.01-.003-.09.662a.495.495 0 0 1-.798.32l-.057-.044c-.04.078-.048.08-.09.164-.082.168-.156.342-.19.457-.01.032-.01.038-.014.056.003.01.005.007.01.02.01.023.02.052.026.093.004.02.007.044.008.07 0 .03-.005.095-.005.095l-.1.235-.205.155s-.065.023-.093.03c-.028.004-.053.007-.074.008-.043.002-.076 0-.102-.004-.053-.01-.084-.02-.11-.028-.05-.018-.08-.033-.11-.05-.11-.058-.213-.13-.328-.21l-.018.045a.495.495 0 0 1-.12.173l.09.294a.495.495 0 0 1-.402.632c.01.12.005.122.02.252.03.275.07.558.116.773.045.216.17.39.06.27.398.423.612.987.612.987a.495.495 0 0 1-.797.553s-.55-.525-1.1-1.022c-.15-.136-.27-.237-.41-.357a.495.495 0 0 1-.677.24l-.232-.118-.002.004a.495.495 0 0 1-.43.307l-.015.002.116.327a.495.495 0 0 1-.075.47l.14-.18.24.184a.495.495 0 0 1 .065.72l.99.72a.495.495 0 0 1-.396.886s-.374-.082-.738-.092c-.172-.006-.328.013-.417.036.006.063.035.16.172.3.16.166.346.28.346.28a.495.495 0 0 1 .226.316c.167 0 .357.002.427-.02.306-.092.768-.166 1.197-.234.42-.066.768-.114.783-.116l.016-.002.993-.166.51-.283c.058-.125.13-.336.13-.336a.495.495 0 0 1 .185-.16l3.13-1.56a.495.495 0 0 1 .034-.416l.57-.99.085.166c0-.008.008-.012.007-.02-.04-.184-.125-.234-.16-.262-.12-.098-.33-.112-.423-.082-.095.03-.122.06-.136.072-.026.023.004-.003.034-.047.062-.088.157-.253.246-.42.036-.068.035-.074.07-.14l-.067-.066-.054-.125-.012-.045c-.014-.082-.007-.07-.008-.088 0-.018-.003-.037-.004-.06v-.09c-.093.07-.193.142-.25.2-.09.087-.075.168-.066.014-.005.078.003.143-.063.284-.034.07-.098.184-.256.256-.157.072-.354.038-.45-.01-.19-.1-.2-.17-.235-.225-.034-.052-.057-.098-.077-.143-.083-.18-.142-.373-.142-.373a.495.495 0 0 1 .08-.45l.76-.992.036-1.274c-.046-.06-.11-.158-.3-.168-.23-.012-.357.13-.394.182-.075.102-.04.07-.027.026.022-.09.056-.293.08-.5 0-.006.002-.006.002-.013a.495.495 0 0 1-.28-.157z" fill="#286315"/><use height="100%" width="100%" xlink:href="#a"/></g><use height="100%" width="100%" transform="rotate(-70.13 147.874 201.66) scale(.42957)" xlink:href="#a"/><use xlink:href="#a" transform="matrix(-.171 -.39407 -.39407 .171 154.27 269.493)" width="100%" height="100%"/></g><g transform="matrix(-.0495 .17105 .17105 .0495 -44.304 272.63)"><path d="M30.725 296.636l-4.73 2.018s-.397.165-.033.363c.364.2.397.2.397.2s-1.026.56-.828.76c.2.198.76.33.992.33.232 0 .794-.198.794-.198s-1.62 1.85-1.19 2.15c.43.296.893-.134.893-.134s.2 1.522.563 1.555c.364.034.76-.264.76-.264l.298.33s.133-.628.398-.76.66.232.66.232 1.093-1.456 1.192-2.15c.1-.695-.298 1.918-.033 2.183l.496.497.2-.232s-.167.397.032.728c.198.33.53.198.53.198s.032.3.263.3c.232 0 .86-.762.96-1.092.1-.33.66 1.09 1.058 1.29.397.198.893.23.893.23v-.727s.76 1.126 1.256.96c.496-.165.86.034.86.034s.694-1.026.595-1.158c-.098-.132.298-.265.298-.265l-1.09-1.355.694-.1s-.067-1.222-.298-1.222c-.232 0 0-.232 0-.232l-2.68-1.983s1.59.827 1.952.727c.364-.1.33-.397.33-.397l1.06-.1-.63-1.156.2-.23s-1.125-.695-1.257-.53c-.134.165.56-.595.56-.595l-.892-.496-.2-.43z" fill="#347125"/><path d="M35.75 296.456l-4.89.666-4.128 1.76a.5.5 0 0 1-.133.773l-.204.127c.04.006.12.025.13.025-.03 0 .186-.034.34-.08.155-.045.284-.09.284-.09a.5.5 0 0 1 .545.8s-.392.452-.723.923c-.086.123-.13.217-.197.33a.5.5 0 0 1 .742.37s.048.36.135.71c.035.14.077.258.115.356l.275-.11a.5.5 0 0 1 .372-.096c.076-.138.185-.273.4-.38.302-.15.545-.076.736.01.102-.142.14-.185.285-.415.274-.43.54-.995.56-1.136.005-.044.01-.074.013-.09 0-.008 0-.012.002-.015v-.004-.007s.99.147.992.145l-.016.115c-.018.147-.05.41-.076.7-.026.292-.046.612-.045.855 0 .116.008.213.016.27l.085.083a.5.5 0 0 1 .648.66s-.02.153.002.24a.5.5 0 0 1 .434.12c.027-.03.048-.046.077-.08.17-.198.336-.5.332-.488.022-.075.058-.183.19-.29.133-.104.363-.13.49-.093.25.075.28.173.338.246.118.145.205.302.307.472.102.17.208.347.3.48.094.13.208.21.136.173.065.033.094.02.17.044v-.092a.5.5 0 0 1 .913-.28s.174.252.388.473c.11.11.226.21.302.254.076.043.07.012-.004.036.3-.1.557-.077.776-.045.058-.09.077-.112.146-.23.076-.127.147-.26.184-.34.013-.03.015-.038.017-.044 0-.03-.024-.052-.022-.08.01-.117.057-.192.1-.258l-.772-.96a.5.5 0 0 1 .32-.81l.22-.03c-.005-.053-.003-.057-.01-.11-.02-.12-.043-.224-.063-.293-.084-.05-.175-.105-.225-.205-.048-.097.004-.124.004-.197l-2.435-1.805a.5.5 0 0 1 .53-.846s.386.2.81.387c.21.092.432.18.603.235.14.045.192.036.144.055a.5.5 0 0 1 .446-.4l.304-.03-.267-.492a.5.5 0 0 1-.06-.287s.002 0 0 0c-.05-.03-.053-.033-.108-.062-.138-.07-.28-.135-.36-.162-.038-.013-.065-.014-.036-.01.03 0 .19.018.336-.163-.004.005-.01.018.018-.028.007-.01.04-.074.04-.074l.034-.142-.02-.187s-.164-.23-.18-.25l.036.212-.51-.283-.072.028-.06.04c-.08.063-.024.022-.004 0l.09-.095-.337-.187a.5.5 0 0 1-.212-.23z" opacity=".954" fill="#286315"/><path d="M31.548 296.147c.032-.23.158-.413.158-.413l3.62-1.802-.248-.368.57-.99s-.954-.098-.803.022c.15.12.822-1.355.822-1.355s-.357-.315-.365-.016c-.008.3-.028-1.005-.028-1.005s-1.265.692-1.286 1.09c-.022.397-.254-.336-.254-.336l.856-1.117.053-1.83s-1.028.426-.863.683c.165.256.288-1.597.288-1.597l-.48.335-.78-.876-.475.535-.548-.143-.168 1.212-.512-.404s-.817 1.322-.62 1.583c.198.26-.83-.515-.83-.515l-.254.632-.318-.11.275.905-.492-.3s.107 2.117.4 2.424c.29.31.517.84.517.84s-2.212-2.108-2.24-1.912c-.027.197-.062.693-.062.693l-.717-.366-.204.506-.674.04.336.95-.163.21.633.488-.692.172 1.76 1.278s-1.62-.358-1.77.256c-.153.613.77 1.175.77 1.175l-.212.337s.814.146 1.267.008c.453-.137 1.916-.335 1.916-.335l1.095-.183z" fill="#3b7125"/><path d="M32.808 287.317l-.105.117a.495.495 0 0 1-.496.152l-.01-.003-.09.662a.495.495 0 0 1-.798.32l-.057-.044c-.04.078-.048.08-.09.164-.082.168-.156.342-.19.457-.01.032-.01.038-.014.056.003.01.005.007.01.02.01.023.02.052.026.093.004.02.007.044.008.07 0 .03-.005.095-.005.095l-.1.235-.205.155s-.065.023-.093.03c-.028.004-.053.007-.074.008-.043.002-.076 0-.102-.004-.053-.01-.084-.02-.11-.028-.05-.018-.08-.033-.11-.05-.11-.058-.213-.13-.328-.21l-.018.045a.495.495 0 0 1-.12.173l.09.294a.495.495 0 0 1-.402.632c.01.12.005.122.02.252.03.275.07.558.116.773.045.216.17.39.06.27.398.423.612.987.612.987a.495.495 0 0 1-.797.553s-.55-.525-1.1-1.022c-.15-.136-.27-.237-.41-.357a.495.495 0 0 1-.677.24l-.232-.118-.002.004a.495.495 0 0 1-.43.307l-.015.002.116.327a.495.495 0 0 1-.075.47l.14-.18.24.184a.495.495 0 0 1 .065.72l.99.72a.495.495 0 0 1-.396.886s-.374-.082-.738-.092c-.172-.006-.328.013-.417.036.006.063.035.16.172.3.16.166.346.28.346.28a.495.495 0 0 1 .226.316c.167 0 .357.002.427-.02.306-.092.768-.166 1.197-.234.42-.066.768-.114.783-.116l.016-.002.993-.166.51-.283c.058-.125.13-.336.13-.336a.495.495 0 0 1 .185-.16l3.13-1.56a.495.495 0 0 1 .034-.416l.57-.99.085.166c0-.008.008-.012.007-.02-.04-.184-.125-.234-.16-.262-.12-.098-.33-.112-.423-.082-.095.03-.122.06-.136.072-.026.023.004-.003.034-.047.062-.088.157-.253.246-.42.036-.068.035-.074.07-.14l-.067-.066-.054-.125-.012-.045c-.014-.082-.007-.07-.008-.088 0-.018-.003-.037-.004-.06v-.09c-.093.07-.193.142-.25.2-.09.087-.075.168-.066.014-.005.078.003.143-.063.284-.034.07-.098.184-.256.256-.157.072-.354.038-.45-.01-.19-.1-.2-.17-.235-.225-.034-.052-.057-.098-.077-.143-.083-.18-.142-.373-.142-.373a.495.495 0 0 1 .08-.45l.76-.992.036-1.274c-.046-.06-.11-.158-.3-.168-.23-.012-.357.13-.394.182-.075.102-.04.07-.027.026.022-.09.056-.293.08-.5 0-.006.002-.006.002-.013a.495.495 0 0 1-.28-.157z" fill="#286315"/><use height="100%" width="100%" xlink:href="#a"/></g></g><g><g stroke="#b88100"><path d="M48.46 23.772c-.273.493-.223 1.075.418 1.35.64.273 1.267.113 1.54-.38.275-.492.095-1.13-.546-1.405-.642-.274-1.137-.058-1.41.435z" opacity=".954" fill="#ffc022" stroke-width=".182404"/><path d="M48.11 24.996c-.275.492-.225 1.075.416 1.35.642.273 1.267.113 1.54-.38.275-.493.095-1.13-.546-1.405-.642-.273-1.136-.057-1.41.436z" opacity=".954" fill="#ffff3e" stroke-width=".182404"/><path d="M47.5 26.287c-.274.493-.224 1.075.417 1.35.642.273 1.267.113 1.54-.38.275-.493.095-1.13-.546-1.405-.64-.274-1.135-.058-1.41.435z" opacity=".954" fill="#e8b91f" stroke-width=".182404"/><path d="M46.713 27.767c-.275.493-.225 1.076.417 1.35.64.274 1.266.114 1.54-.38.275-.492.094-1.13-.547-1.404-.64-.274-1.136-.058-1.41.434z" opacity=".954" fill="#ffff3e" stroke-width=".182404"/><path d="M45.88 29.423c-.273.493-.223 1.076.418 1.35.642.274 1.267.113 1.54-.38.275-.492.095-1.13-.546-1.405-.642-.274-1.136-.058-1.41.435z" opacity=".954" fill="#e8b91f" stroke-width=".182404"/><path d="M45.223 31.1c-.274.493-.224 1.076.417 1.35.64.274 1.266.114 1.54-.38.275-.492.095-1.13-.547-1.404-.64-.274-1.136-.058-1.41.435z" opacity=".954" fill="#ffff3e" stroke-width=".182404"/><path d="M44.387 32.6c-.274.494-.224 1.077.417 1.35.642.275 1.267.114 1.54-.378.275-.493.095-1.13-.546-1.405-.642-.274-1.136-.058-1.41.434z" opacity=".954" fill="#e8b91f" stroke-width=".182404"/><path d="M44.683 32.83c-.233.554-.746.895-1.38.536-.634-.36-.9-.99-.667-1.546.233-.555.876-.822 1.51-.463.634.36.77.918.537 1.473z" opacity=".954" fill="#ffc022" stroke-width=".20976460000000002"/><path d="M48.748 23.702c-.274.493-.83.817-1.47.543-.64-.274-.882-.804-.608-1.297.275-.492.96-.76 1.6-.487.643.275.753.75.478 1.242z" opacity=".954" fill="#ffc022" stroke-width=".182404"/><path d="M49.563 23.513c-.182.327-.555.54-.99.353-.437-.186-.604-.54-.422-.867.182-.328.644-.502 1.08-.316.436.187.515.503.333.83zM47.864 24.7c-.274.49-.83.816-1.47.542-.642-.274-.882-.805-.608-1.297.274-.493.96-.762 1.6-.488.642.274.753.75.478 1.242z" opacity=".954" fill="#ffff3e" stroke-width=".182404"/><path d="M47.078 25.914c-.275.493-.83.817-1.47.543-.642-.274-.883-.804-.608-1.297.274-.493.96-.76 1.6-.487.642.274.752.748.478 1.24z" opacity=".954" fill="#e8b91f" stroke-width=".182404"/><path d="M48.287 25.53c-.232.42-.72.687-1.3.44-.58-.248-.807-.708-.575-1.126.233-.418.84-.636 1.418-.388.58.248.69.657.457 1.075z" opacity=".954" fill="#e8c307" stroke-width=".182404"/><path d="M45.935 27.243c-.274.493-.83.817-1.47.543-.642-.274-.882-.804-.608-1.297.274-.494.96-.762 1.6-.488.642.274.752.748.478 1.24z" opacity=".954" fill="#ffff3e" stroke-width=".182404"/><path d="M45.042 28.952c-.274.493-.83.817-1.47.543-.642-.274-.882-.804-.608-1.297.274-.492.96-.76 1.6-.487.642.275.752.75.478 1.242z" opacity=".954" fill="#e8b91f" stroke-width=".182404"/><path d="M44.15 30.45c-.275.492-.83.817-1.47.543-.642-.274-.883-.805-.61-1.297.276-.493.96-.762 1.602-.488.642.274.752.75.478 1.242z" opacity=".954" fill="#ffff3e" stroke-width=".182404"/><path d="M43.314 31.95c-.274.493-.83.817-1.47.543-.642-.274-.883-.804-.608-1.297.274-.492.96-.76 1.6-.487.642.273.752.748.478 1.24z" opacity=".954" fill="#e8b91f" stroke-width=".182404"/><path d="M45.645 31.43c-.252.413-.815.664-1.52.388-.702-.275-1-.75-.748-1.165.252-.414.958-.61 1.66-.334.705.274.86.695.608 1.11z" opacity=".954" fill="#e8b91f" stroke-width=".18970016"/><path d="M49.113 24.257c-.18.323-.62.502-1.203.253-.583-.25-.85-.643-.67-.966.18-.323.738-.452 1.32-.202.584.25.733.592.553.915z" opacity=".954" fill="#e8b91f" stroke-width=".182404"/><path d="M47.645 27.074c-.232.417-.75.67-1.393.395-.644-.276-.916-.754-.684-1.17.232-.416.88-.614 1.524-.34.644.276.785.698.553 1.114z" opacity=".954" fill="#e8ba1e" stroke-width=".182404"/><path d="M46.772 28.464c-.23.416-.748.67-1.392.394-.644-.275-.917-.752-.685-1.17.232-.415.88-.613 1.524-.337.643.276.784.697.552 1.114z" opacity=".954" fill="#e6ba15" stroke-width=".182404"/><path d="M46.067 30.032c-.232.416-.75.67-1.393.395-.644-.275-.916-.753-.685-1.17.23-.416.88-.613 1.523-.338.644.274.785.696.554 1.112z" opacity=".954" fill="#ffff3e" fill-opacity=".957" stroke-width=".182404"/></g><path d="M41.942 36.745c-.22.29-.763.25-1.214-.092-.45-.34-.64-.852-.42-1.142.22-.29.52.256.97.597.452.34.883.348.664.638z" opacity=".944" fill="#e9bc21" fill-opacity=".997"/><path d="M42.63 26.467c1.402-2.496 2.933-5.323 2.73-3.717-1.94 3.155-3.446 8.58-4.977 12.986.036-1.896.015-3.862 2.247-9.27z" fill="#5ba61e"/><path d="M49.244 31.055c1.693-2.31 3.633-4.873 2.255-4.023-2.954 2.278-6.66 6.444-9.766 9.902 1.71-.817 3.51-1.61 7.51-5.88z" fill="#43900f"/><path d="M41.613 31.98c-.84 1.804-1.61 4.7-.66 4.06 1.314 2.692 2.71-5.853 5.508-8.547-1.238.602-2.556 1.182-4.847 4.487z" fill="#43900f"/><path d="M44.864 34.665c-1.506 1.302-4.08 2.83-3.725 1.744-2.95-.53 4.89-4.207 6.717-7.634-.24 1.356-.44 2.783-2.993 5.89z" fill="#5ba61e"/></g><g><path d="M66.952 33.376l2.693-2.575c.76 1.143.8 2.593 2.987 3.125-.173 1.118-.853 2.055-2.693 2.575-2.22-.865-2.358-2.03-2.988-3.124zM64.89 24.83c.968 1.013.573 2.864-.078 3.487-.652.622-2.72 1.125-3.686.113-.968-1.012-1.6-4.218-.95-4.84.652-.623 3.747.23 4.714 1.24z" opacity=".99" fill="#91af51"/><path d="M64.914 26.957c.826.864 2.42.6 2.976.067.557-.532 1.065-2.276.24-3.14-.827-.864-3.538-1.527-4.094-.995-.556.53.052 3.203.878 4.067zM63.306 28.29c.826.865.49 2.445-.066 2.977-.557.532-2.322.96-3.148.097-.826-.864-1.367-3.602-.81-4.134.556-.53 3.198.196 4.024 1.06z" opacity=".99" fill="#029202"/><path d="M66.233 24.032c.826.864.49 2.445-.067 2.976-.556.532-2.322.962-3.148.097-.826-.864-1.366-3.6-.81-4.133.556-.532 3.2.196 4.025 1.06z" opacity=".99" fill="#42900f"/><path d="M63.71 26.546c.826.864.49 2.444-.067 2.976-.556.532-2.32.96-3.147.097-.826-.865-1.367-3.603-.81-4.134.556-.532 3.198.196 4.024 1.06z" opacity=".99" fill="#42900f"/><path d="M66.64 26.555c.967 1.012.573 2.862-.078 3.485-.652.623-2.72 1.126-3.686.114-.968-1.012-1.6-4.218-.95-4.84.652-.624 3.747.23 4.714 1.24z" opacity=".99" fill="#91af51"/><path d="M64.51 28.91c.666.696.394 1.97-.054 2.4-.45.43-1.873.776-2.54.08-.666-.698-1.102-2.907-.654-3.336.45-.43 2.58.158 3.248.855z" opacity=".99" fill="#9d0"/><path d="M64.047 34.98c1.37.285 2.733-1.028 2.917-1.91.184-.883-.483-2.903-1.853-3.19-1.37-.285-5.205.803-5.39 1.685-.183.883 2.957 3.128 4.327 3.414z" opacity=".99" fill="#90ae50"/><path d="M67.914 25.79c.666.698.394 1.973-.054 2.402-.45.43-1.873.775-2.54.078-.666-.697-1.102-2.906-.653-3.335.448-.43 2.58.16 3.247.855z" opacity=".99" fill="#9ade00"/><path d="M71.47 27.95c.223 1.383-1.15 2.685-2.04 2.83-.89.143-2.878-.613-3.102-1.995-.224-1.382 1.035-5.165 1.925-5.31.89-.143 2.992 3.094 3.216 4.476z" opacity=".99" fill="#91af51"/><path d="M69.186 29.182c.967 1.012.573 2.863-.078 3.485-.652.623-2.72 1.126-3.687.114-.966-1.01-1.6-4.217-.948-4.84.652-.622 3.747.23 4.714 1.242z" opacity=".99" fill="#43900f"/><g fill="#e0b16b"><path d="M60.923 23.737c.094.098-.013.344-.117.443-.103.1-.386.226-.48.128-.093-.098-.077-.484.027-.583.103-.1.477-.086.57.012zM60.536 25.504c.094.098-.014.344-.117.443-.105.1-.387.226-.48.128-.095-.1-.08-.485.025-.583.103-.1.477-.086.57.012zM62.827 23.217c.094.1-.014.345-.118.443-.104.1-.386.226-.48.128-.094-.098-.078-.484.026-.583.103-.1.477-.086.57.012zM60.245 27.034c.094.098-.014.344-.117.443-.104.1-.386.226-.48.128-.094-.1-.078-.485.026-.583.103-.1.477-.086.57.012zM64.537 23.123c.093.098-.014.344-.118.443-.104.1-.387.226-.48.128-.094-.098-.078-.484.026-.583.103-.098.477-.085.57.013zM61.977 27.832c.094.1-.013.345-.117.444-.103.098-.386.226-.48.127-.093-.098-.077-.484.027-.583.103-.1.477-.086.57.012zM64.943 25.045c.094.098-.014.344-.117.443-.103.1-.386.226-.48.128-.094-.098-.077-.484.026-.583.104-.1.477-.086.57.012zM64.89 27.79c.095.1-.012.345-.116.444-.103.1-.386.226-.48.127-.094-.097-.077-.483.026-.582.104-.098.477-.086.57.013zM62.583 25.328c.094.098-.014.344-.117.443-.104.1-.386.227-.48.13-.094-.1-.077-.486.026-.584.103-.1.477-.086.57.012z" opacity=".99"/></g><path d="M67.723 33.726c.748-.074 1.08.176 1.495-.893.42.63.705 1.81 1.915 2.106-.096.617-.21 1.023-1.227 1.31-1.228-.478-1.834-1.918-2.183-2.524z" opacity=".99" fill="#43900f" fill-opacity=".992"/></g><g><path d="M48.282 45.31c.004.276-.88 1.226-1.886 2.208-.245.238-.473.455-.685.65 1.912-1.07 1.46-.42.208.42l-.334.22c.158-.028.326-.052.5-.074.98-.12 1.79-.098 1.807.047.02.143-.824.293-1.776.41l.125.02c.952.142 1.685.376 1.637.52-.047.145-.928.06-1.88-.083-.672-.1-1.2-.204-1.436-.306-.052.01-.09.005-.113-.016-.01-.01-.017-.025-.016-.045-.053-.017-.084-.037-.088-.066 0-.014.008-.03.023-.046-.023.005-.044.005-.062-.005-.053-.032-.056-.143-.02-.313 1.075-.5.13-4.6.565-4.91.247-.045.246 1.243.16 2.678-.177.574.203.68.04.967.047-.046.414-.41 1.034-.78 1.074-1.048 2.053-1.738 2.187-1.542.01.013.01.035.012.046z" fill="#d5dc92" stroke="#d5dc92" stroke-width=".08368898999999999"/><path d="M40.31 57.343c.107-.094 1.64-1.86 1.78-1.852 3.146-1.925.303-1.654-1.78 1.853z" fill="#e60627" stroke="#e60627" stroke-width=".06593677999999999"/><path d="M44.572 48.776c-4.277-1.625-4.98 5.862-1.855 6.226 2.565 2.04 7.758-4.33 2.47-5.935-.21-.114-.418-.216-.615-.29zm-.733 8.617c-.01.01-.033.082 0 .114.03.03.102.012.112.002v-.002c.01-.01-.005-.045-.037-.077-.03-.03-.066-.047-.076-.037z" fill="#de0015"/><g><path d="M52.985 49.7c.105.257-.367 1.465-.943 2.748-.14.312-.272.598-.398.856 1.385-1.696 1.202-.927.347.315-.08.114-.155.222-.23.325.14-.083.286-.167.44-.25.868-.472 1.628-.75 1.698-.62.068.124-.66.574-1.503 1.034.04-.012.082-.022.124-.03.937-.218 1.705-.27 1.713-.12.01.154-.84.398-1.78.615-.66.153-1.19.252-1.447.243-.046.028-.084.038-.113.027-.013-.005-.024-.018-.03-.037-.056.006-.093-.002-.107-.027-.006-.012-.004-.03.004-.05-.02.012-.04.02-.06.017-.06-.01-.104-.112-.132-.284.815-.86-1.57-4.325-1.28-4.772.213-.133.686 1.066 1.133 2.432.047.6.44.558.394.884.026-.06.234-.534.674-1.106.614-1.368 1.27-2.37 1.468-2.237.016.007.023.028.03.038z" fill="#d5dc92" stroke="#d5dc92" stroke-width=".08368898999999999"/><path d="M45.507 55.084c.054 4.1 6.526 2.22 5.8-.504.856-2.81-6.163-5.04-5.76-.104-.026.214-.042.42-.04.608zm7.423-2.226c.012.004.08 0 .095-.038.017-.037-.024-.09-.035-.095h-.002c-.012-.004-.035.02-.05.056-.017.038-.02.072-.008.078z" fill="#ec0924"/><path d="M47.366 57.25c4.153-4.433-1.84-8.78-1.844-2.107.203 1.407.78 2.136 1.844 2.107zm4.958-4.357c.01.004.073 0 .087-.035.016-.033-.02-.082-.03-.087h-.002c-.01-.003-.033.02-.047.053-.014.034-.016.065-.006.07z" fill="#faded4"/></g></g><g><path d="M32.527 46.955c2.304 2.373 1.174 5.768-.877 6.646-2.05.88-4.984-.673-6.55-3.465-1.568-2.792-1.175-5.767.876-6.645 2.05-.878 4.176 1.02 6.55 3.465z" fill="#c78f55"/><path d="M28.274 46.19c-.197.283.2.716.483.915.17.12.442.197.62.09.25-.153.445-.582.29-.83-.246-.4-1.127-.562-1.393-.176zM29.37 51.623c-.195.284.203.717.485.916.17.12.44.197.62.088.25-.152.445-.58.29-.83-.246-.398-1.127-.56-1.394-.175z" fill="#8e5125"/><path d="M27.708 46.23c.033 1.496.772 3.62-.15 3.64-.925.02-1.458-.796-2.286-2.04-1.186-1.783-.286-3.54.876-3.5.923.03 1.528.406 1.56 1.9z" fill="#dca467"/><g><path d="M23.492 57.98c1.98.393 5.533.185 5.836-1.49.304-1.674-2.414-4.605-4.395-4.998-1.98-.394-4.532 1.556-4.836 3.23-.303 1.676 1.414 2.864 3.395 3.258z" fill="#c98c53"/><path d="M24.69 56.523c.983 1.272 2.977 1.72 4.074.874 1.097-.847.367-2.358-.615-3.63-.982-1.273-2.307-1.824-3.404-.978-1.097.846-1.036 2.46-.055 3.733z" fill="#f5e49d"/><path d="M24.027 57.232c-.048.24-.635.273-.977.24-.207-.018-.458-.107-.516-.248-.08-.197.068-.51.35-.564.453-.087 1.21.248 1.143.572z" fill="#8e5125"/></g></g><g><path d="M111.646 23.71c.662 1.29-.537 3.225-2.677 4.322s-4.465.968-5.072-.348c-.782-1.69.922-6.455 4.15-5.312 2.268.803 2.937.05 3.598 1.34z" fill="#eae6db"/><path d="M111.073 25.874a.952 2.88 62.853 0 1-2.13 2.162.952 2.88 62.853 0 1-2.997.467.952 2.88 62.853 0 1 2.13-2.16.952 2.88 62.853 0 1 2.997-.47z" fill="#ccc"/><path d="M108.952 28.024a.952 2.88 62.853 0 0 2.13-2.16.952 2.88 62.853 0 0-.097-.112.952 2.88 62.853 0 1-2.162 2.02.952 2.88 62.853 0 1-2.9.58.952 2.88 62.853 0 0 .032.14.952 2.88 62.853 0 0 2.997-.468z" fill="#b0a398"/><path d="M109.28 25.75l2.286 2.79c-1.047.636-1.876 1.453-3.546 1.567l-.998-3.198z" fill="#e5e0d6"/><path d="M108.017 30.008c1.053-.574 2.148-.822 3.29-1.816l.24.43c-1.438 1.085-2.638 1.604-3.53 1.386z" fill="#aaa097"/><path d="M106.035 32.776c-.952 1.146-3.23.823-5.086-.72-1.86-1.543-2.595-3.725-1.642-4.868.954-1.144 3.396-.684 5.086.72 1.858 1.544 2.592 3.723 1.64 4.868z" fill="#9a6038"/><path d="M105.96 32.808c-.926 1.115-3.176.773-5.026-.764-1.85-1.537-2.598-3.686-1.672-4.8.926-1.115 3.814.24 5.663 1.775 1.85 1.536 1.96 2.674 1.035 3.788z" fill="#b0794a"/><path d="M104 32.94a2.88.952 39.72 0 1-2.825-1.11 2.88.952 39.72 0 1-1.608-2.57 2.88.952 39.72 0 1 2.824 1.108A2.88.952 39.72 0 1 104 32.94z" fill="#ccc"/><path d="M103.387 31.113l-1.667 3.2c-.996-.715-2.073-1.157-2.833-2.647l2.55-2.175z" fill="#f6e5c6"/><path d="M102.464 30.18a2.88.952 39.72 0 0-2.824-1.108 2.88.952 39.72 0 0-.065.132 2.88.952 39.72 0 1 2.708 1.195 2.88.952 39.72 0 1 1.672 2.44 2.88.952 39.72 0 0 .117-.087 2.88.952 39.72 0 0-1.608-2.572z" fill="#7e5733"/><path d="M98.99 31.683c.907.753 1.544 1.67 2.854 2.343l-.285.385c-1.505-.908-2.42-1.817-2.57-2.727z" fill="#ebceaf"/><g><path d="M109.95 34.39c-.218-1.033-1.755-1.584-3.432-1.23-1.677.356-2.86 1.483-2.64 2.517.22 1.033 1.907 1.552 3.433 1.23 1.678-.356 2.86-1.482 2.64-2.516z" fill="#9a6038"/><path d="M109.915 34.346c-.213-1.006-1.74-1.535-3.41-1.182-1.67.354-2.85 1.456-2.638 2.462.213 1.007 2.475 1.11 4.145.758 1.67-.354 2.116-1.032 1.903-2.038z" fill="#b0794a"/><path d="M108.727 33.614a.675 2.045 78.047 0 0-2.14-.237.675 2.045 78.047 0 0-1.862 1.084.675 2.045 78.047 0 0 2.14.24.675 2.045 78.047 0 0 1.862-1.086z" fill="#dec3b0"/><path d="M106.85 34.84a.675 2.045 78.047 0 1-2.14-.237.675 2.045 78.047 0 1 .003-.105.675 2.045 78.047 0 0 2.095.145.675 2.045 78.047 0 0 1.857-.98.675 2.045 78.047 0 1 .045.093.675 2.045 78.047 0 1-1.86 1.084z" fill="#7e5733"/><path d="M106.928 33.99l.575-2.446c-.243-.098-.432-.376-.828.04l-.273 2.328z" fill="#f6e5c6"/><path d="M106.687 31.623c.244.037.502-.14.762.128l.062-.333c-.33-.236-.61-.195-.825.206z" fill="#ebceaf"/><path d="M106.773 34.034a.29.38 76.47 0 1-.43-.202.29.38 76.47 0 1-.003-.043.29.38 76.47 0 0 .415.16.29.38 76.47 0 0 .316-.322.29.38 76.47 0 1 .014.04.29.38 76.47 0 1-.31.366z" fill="#7e5733"/></g><path d="M107.972 26.23a.952 2.88 62.853 0 0-2.13 2.16.952 2.88 62.853 0 0 .098.112.952 2.88 62.853 0 1 2.162-2.02.952 2.88 62.853 0 1 2.9-.58.952 2.88 62.853 0 0-.032-.14.952 2.88 62.853 0 0-2.998.468z" fill="#b0a398"/></g><g><path d="M70.025 51.346C68.72 54.51 66.89 57.78 65.4 57.78c-1.49 0-2.727-2.856-1.867-6.167.725-2.79 3.16-5.66 3.794-6.462 1.597-2.02 4.638 1.498 2.698 6.196z" fill="#211030"/><path d="M18.633 328.987c.16 1.432.24 3.626 1.543 4 .975.283 1.91-1.028 2.408-1.97.57-1.08.304-2.463.38-3.7.133-2.17-.553-4.475.13-6.523 1.088-3.256 3.596-5.83 5.98-8.162.533-.52 1.924-.497 1.817-1.26-.14-1.002-1.812-1.09-2.727-.832-3.047.86-5.02 4.31-6.638 7.207-1.475 2.64-1.9 5.818-2.544 8.814-.17.8-.438 1.615-.347 2.427z" transform="matrix(.20694 0 0 .26327 60.28 -32.994)" fill="#b8abc5" filter="url(#b)"/><path d="M70.31 43.68c-.047-.035-.113-.047-.203-.028l-.644.135c-.054.012-.1.03-.14.05l-.356-.057c-.027-.004-.05 0-.075 0-.32-.493-1.3 1.087-2.11 1.12-.465-.02-2.223 2.004-.135.393.328.023.88.03 1.39-.03.098.203.187.43.137.684-.09.463-.914.6-.8.697.166.14.006.4.003.706-.004.408.877-.987.98-1.372.037-.14.084-.34.128-.546.068.39.163.765.238 1.006.148.478 1.654 1.718 1.695 1.112.03-.426-.198-.658.036-.987 1.402 1.028 1.427.076 1.537-.214.122-.32-1.228.197-1.554-.327-.39-.624.2-2.087-.127-2.342zm-.922 1.427c.24.483.582.976.798 1.25.037.03.07.052.105.08-.387.05-1.134.2-1.215-.22-.062-.322.116-.727.313-1.11z" fill="#92ae47"/></g><g><path d="M104.598 50.45c.85 2.81.825 3.39 2.092 3.097 1.205-.277.748-1.054.962-3.264.244-2.53-.906-2.924-2.012-2.763-1.025.15-1.746.61-1.042 2.93z" fill="#dc0000"/><path d="M104.142 52.99c1.13 3.733 1.098 4.503 2.78 4.115 1.603-.37.995-1.4 1.28-4.34.324-3.363-1.205-3.884-2.674-3.67-1.363.198-2.32.808-1.386 3.895z" fill="#ff4141"/><path d="M108.744 50.915c1.13 3.732 1.097 4.503 2.78 4.114 1.602-.37.995-1.4 1.28-4.34.323-3.363-1.206-3.884-2.674-3.67-1.363.197-2.322.808-1.386 3.895z" fill="#dc0000"/><path d="M107.868 50.407c-1.755.27-.868-3.547-.422-4.95.283-.89.437-2.63.506-1.502.053.853.326.5.942 1.196.42.475-.57-.402-.795.724-.308 1.533 2.33 4.14.98 4.346z" fill="#797451"/><path d="M105.54 53.63c1.132 3.734 1.097 4.5 2.782 4.116 1.593-.364 2.054-1.096 1.278-4.34-.734-3.062-1.32-3.866-2.673-3.67-1.363.198-2.322.81-1.386 3.895z" fill="#dc0000"/><path d="M108.433 52.955c.203 3.896 1.097 4.5 2.78 4.115 1.594-.364 2.055-1.096 1.28-4.34-.735-3.062-1.322-3.868-2.674-3.67-1.354.198-1.55.774-1.387 3.895z" fill="#ff4141"/></g><g><path d="M23.972 32.99c-.06.01-.08.172-.048.435-.08.492.085 1.937 1.068 3.623-.028-.125-.745-2.1-.677-2.207 0-.032-.004-.055-.005-.087.237.565.59 1.217 1.108 1.898-.043-.12-1-1.99-.944-2.106-.188-1.123-.398-1.57-.502-1.554z" fill="#d5dc92" stroke="#d5dc92" stroke-width=".059313000000000005"/><path d="M22.305 29.76c.855 3.258.844 3.937 2.02 3.56 1.116-.358.673-1.252.823-3.84.173-2.965-.91-3.392-1.936-3.174-.953.203-1.615.76-.907 3.454z" fill="#f6d9ba"/><path d="M23.617 22.16c.148.172.093 1.23-.024 2.374-.028.278-.058.533-.088.766.637-1.672.693-1.028.35.155l-.095.313c.085-.1.178-.203.276-.308.55-.59 1.07-1 1.157-.918.085.08-.365.616-.9 1.19.03-.02.06-.038.09-.056.67-.41 1.253-.648 1.3-.532.045.116-.55.524-1.224.934-.474.29-.86.5-1.06.56-.03.034-.057.052-.082.05-.01 0-.023-.006-.033-.02-.042.02-.072.023-.09.006-.007-.01-.01-.023-.01-.04-.01.013-.025.025-.04.028-.05.007-.11-.06-.177-.186.41-.878-2.332-2.95-2.22-3.373.13-.158.805.65 1.504 1.594.19.453.483.32.532.585.005-.053.044-.474.238-1.03.124-1.22.376-2.166.563-2.114.014 0 .025.016.032.022z" fill="#b8b87c"/><g fill="#799c64" stroke="#799c64" stroke-width=".265"><path d="M23.356 23.875l-.24.68s-.018.057-.05.008c-.03-.05-.03-.054-.03-.054s-.07.147-.1.122c-.03-.026-.053-.104-.055-.136 0-.032.022-.113.022-.113s-.244.243-.29.186c-.045-.058.01-.127.01-.127s-.214-.014-.222-.064c-.008-.052.03-.11.03-.11l-.05-.04s.088-.023.104-.06c.016-.04-.04-.09-.04-.09s.195-.167.29-.187c.097-.02-.264.06-.304.024l-.074-.065.03-.03s-.053.027-.1.002c-.05-.024-.034-.072-.034-.072s-.04-.002-.044-.034c-.002-.032.1-.127.144-.144.046-.017-.158-.082-.19-.136-.03-.054-.04-.123-.04-.123l.102-.006s-.165-.097-.146-.168c.02-.07-.012-.12-.012-.12s.137-.107.156-.094c.02.013.034-.044.034-.044l.2.14.007-.098s.172-.002.174.03c.002.033.032 0 .032 0l.3.355s-.13-.213-.118-.265c.01-.052.052-.05.052-.05l.004-.15.168.078.03-.03s.108.15.086.17c-.022.02.078-.083.078-.083l.077.12.062.025z" stroke-width=".0371159"/><path d="M23.335 23.17l-.048.69-.21.594a.07.07 0 0 1-.105.026l-.016.03c0-.007-.005-.018-.005-.02 0 .005.004-.025.01-.047.004-.022.01-.04.01-.04a.07.07 0 0 1-.118-.07s-.06.06-.122.11c-.016.013-.03.02-.044.03a.07.07 0 0 1-.06-.1s-.05-.003-.1-.012c-.02-.003-.036-.008-.05-.012l.013-.04a.07.07 0 0 1 .01-.052c.017-.012.035-.03.048-.06.02-.043.006-.077-.008-.103l.056-.043c.057-.042.134-.085.153-.09h.012c0-.002 0-.002.002-.002l-.028-.137c.006 0-.006.002-.016.004l-.097.017c-.04.007-.085.013-.12.015h-.037l-.012-.01a.07.07 0 0 1-.098-.085s-.022.004-.034.002a.07.07 0 0 1-.02-.06l.01-.012c.026-.025.067-.05.065-.05.01-.004.025-.01.04-.03.012-.02.014-.052.007-.07-.013-.033-.027-.037-.037-.044-.022-.015-.044-.026-.07-.04-.024-.01-.05-.025-.07-.036-.018-.012-.03-.027-.024-.018-.005-.008-.004-.012-.008-.023l.013-.002a.07.07 0 0 1 .03-.13s-.036-.022-.07-.05c-.015-.014-.03-.03-.037-.04-.006-.01 0-.01-.004 0 .01-.04.006-.077 0-.107l.03-.022.046-.03c.004 0 .005 0 .006-.002.004 0 .007.003.01.003.017-.004.028-.01.036-.017l.14.1a.07.07 0 0 1 .112-.053l.002-.032h.016l.04.007c.01.01.017.024.032.03.014.006.017-.002.027-.003l.275.324a.07.07 0 0 1 .113-.08l-.06-.11-.04-.083c-.006-.02-.006-.027-.008-.02a.07.07 0 0 1 .052-.066v-.043l.073.033a.07.07 0 0 1 .04.006l.01.014.026.05c.002.004.002.008.002.004 0-.003-.004-.026.02-.047 0 0-.003 0 .003-.003.002 0 .01-.006.01-.006l.02-.007.026.002s.034.02.037.02l-.03-.002.045.07c0 .004-.003.01-.003.01l-.005.008c-.008.012-.003.004 0 0l.012-.013.028.046a.07.07 0 0 1 .034.026z" opacity=".954" stroke-width=".0371159"/></g><g fill="#82a668" stroke="#82a668" stroke-width=".265"><path d="M23.724 24.075l-.15.508s-.013.042.027.026c.04-.016.042-.02.042-.02s-.022.12.006.116c.03-.002.077-.038.092-.057.015-.02.036-.077.036-.077s.04.25.093.236c.05-.016.047-.08.047-.08s.133.084.16.057c.026-.027.03-.078.03-.078l.044-.003s-.04-.05-.033-.08c.007-.03.062-.038.062-.038s-.045-.183-.093-.237c-.05-.053.132.15.17.146l.072-.008-.006-.03s.02.038.06.044c.04.006.05-.03.05-.03s.026.018.04 0c.017-.018-.003-.118-.022-.148-.02-.03.13.02.17 0 .043-.018.078-.055.078-.055l-.057-.047s.14.013.158-.037c.02-.05.06-.067.06-.067S24.824 24 24.807 24s0-.04 0-.04l-.18-.004.038-.06s-.102-.076-.117-.058c-.015.018-.018-.015-.018-.015l-.334.082s.17-.072.186-.107c.016-.035-.01-.052-.01-.052l.062-.09-.133-.027-.004-.032s-.13.044-.125.065c.006.022-.01-.083-.01-.083l-.097.038-.047-.013z" stroke-width=".02727645"/><path d="M24.04 23.665l-.27.432-.13.443a.052.052 0 0 1 .053.06l-.003.025.01-.008c-.002.002.01-.018.016-.033l.012-.028a.052.052 0 0 1 .1.01s.01.06.025.117c.004.015.008.025.013.037a.052.052 0 0 1 .078-.034s.032.02.065.036l.035.014.01-.03a.052.052 0 0 1 .016-.035c-.005-.014-.01-.032-.003-.056.008-.034.03-.048.05-.057-.005-.018-.006-.024-.015-.05-.016-.05-.044-.108-.054-.12l-.006-.006h-.002l.077-.07.008.01.05.05c.022.022.046.045.065.06l.023.017h.012a.052.052 0 0 1 .095-.01s.01.012.02.016a.052.052 0 0 1 .037-.027v-.01c-.006-.028-.02-.06-.018-.06-.006-.006-.012-.016-.012-.033 0-.018.014-.038.025-.045.023-.015.032-.01.042-.01.02 0 .037.002.057.006l.058.007c.017.002.03-.002.023.002.006-.003.007-.006.014-.01l-.007-.007a.052.052 0 0 1 .038-.09s.03.002.063 0c.017-.002.032-.004.04-.008.01-.003.006-.004.003.003.012-.03.03-.05.048-.064-.003-.01-.003-.014-.008-.027-.005-.015-.01-.03-.015-.038l-.002-.004-.008-.004c-.01-.008-.012-.017-.014-.024l-.127-.002a.052.052 0 0 1-.043-.08l.012-.018-.01-.007-.027-.014c-.01.003-.02.006-.03.004-.012-.003-.01-.01-.016-.014l-.303.075a.052.052 0 0 1-.034-.097s.042-.018.084-.04c.022-.01.043-.022.06-.032.01-.008.014-.013.012-.008a.052.052 0 0 1-.002-.06l.018-.027-.057-.01a.052.052 0 0 1-.026-.014l-.012.004c-.014.006-.03.013-.036.018l-.003.002c.002-.002.014-.014.01-.037 0 0 0 .002-.002-.003l-.003-.008-.01-.013-.015-.01-.032-.004.02.012-.056.02c0 .005-.003.01-.003.01v.007c0 .01 0 .003 0 0v-.014l-.038.016a.052.052 0 0 1-.032.002z" opacity=".954" stroke-width=".02727645"/></g><path d="M24.495 28.775c-.88.21-1.018-.14-1.394-.31M24.6 28c-.883.21-1.02-.14-1.396-.31M23.98 29.91c-.882.21-1.02-.14-1.395-.31M24.867 31.573c-.82.384-1.026.07-1.43-.02" fill="#b0752b" stroke="#b0752b" stroke-width=".1133925"/><g><path d="M29.3 32.747c-.05.028-.013.188.105.424.094.49.743 1.792 2.243 3.04-.07-.107-1.418-1.717-1.39-1.842-.013-.03-.024-.05-.036-.08.416.45.97.942 1.69 1.404-.08-.098-1.62-1.53-1.607-1.657-.56-.99-.912-1.34-1.004-1.288z" fill="#d5dc92" stroke="#d5dc92" stroke-width=".059313000000000005"/><path d="M26.63 30.282c1.918 2.77 2.14 3.41 3.115 2.654.928-.718.205-1.407-.54-3.892-.852-2.844-2.014-2.875-2.904-2.318-.825.516-1.257 1.266.33 3.556z" fill="#f6d9ba"/><path d="M25.263 22.692c.197.11.507 1.124.79 2.24.068.27.128.52.178.75.028-1.79.3-1.205.383.024l.018.327c.047-.123.1-.252.155-.384.317-.743.663-1.307.773-1.26.108.046-.132.704-.438 1.425.02-.027.042-.054.064-.08.492-.616.957-1.04 1.04-.946.083.092-.338.68-.83 1.295-.346.433-.635.764-.804.89-.016.04-.035.066-.06.074-.01.002-.023 0-.037-.008-.033.03-.06.045-.082.035-.01-.005-.018-.018-.023-.035-.006.018-.015.033-.03.042-.044.023-.123-.02-.228-.115.085-.966-3.2-1.976-3.24-2.41.067-.194.978.335 1.958.983.333.36.564.135.7.367-.014-.05-.12-.46-.13-1.05-.3-1.188-.387-2.163-.193-2.178.014-.004.03.006.038.01z" fill="#b8b87c"/><g fill="#799c64" stroke="#799c64" stroke-width=".265"><path d="M25.604 24.393l.008.72s0 .06-.045.025c-.046-.036-.048-.04-.048-.04s-.015.163-.05.15c-.038-.015-.087-.08-.1-.11-.013-.03-.02-.113-.02-.113s-.145.312-.208.274c-.062-.04-.033-.123-.033-.123s-.207.06-.232.016c-.025-.045-.01-.113-.01-.113l-.058-.02s.073-.052.075-.093c.002-.04-.067-.072-.067-.072s.125-.222.21-.274c.082-.05-.23.148-.28.13l-.09-.037.017-.038s-.04.043-.095.036c-.053-.005-.055-.055-.055-.055s-.04.012-.053-.017c-.013-.03.05-.154.086-.185.037-.03-.177-.023-.225-.063-.048-.04-.08-.1-.08-.1l.093-.042s-.187-.034-.194-.107c-.007-.072-.053-.108-.053-.108s.092-.147.114-.14c.023.004.017-.054.017-.054l.237.063-.027-.094s.16-.06.174-.03c.013.03.03-.014.03-.014l.405.232s-.196-.157-.204-.21c-.008-.05.032-.064.032-.064l-.047-.14.185.014.02-.038s.15.105.137.13c-.014.027.045-.105.045-.105l.114.088h.067z" stroke-width=".0371159"/><path d="M25.344 23.738l.19.665.007.628a.07.07 0 0 1-.09.062l-.005.033-.01-.015c0 .004-.007-.026-.01-.048l-.004-.042a.07.07 0 0 1-.133-.024s-.035.075-.077.144c-.01.018-.02.03-.03.044a.07.07 0 0 1-.09-.074s-.05.014-.1.023l-.05.005-.003-.042a.07.07 0 0 1-.008-.053c.012-.017.023-.04.025-.072.002-.047-.02-.074-.043-.093.012-.02.016-.03.037-.06.04-.06.096-.125.113-.136.006-.002.01-.004.01-.006h.003l-.073-.12-.014.008c-.02.01-.05.03-.087.05-.035.02-.075.04-.107.053-.015.007-.027.01-.035.013l-.015-.006a.07.07 0 0 1-.12-.046s-.02.012-.032.014a.07.07 0 0 1-.04-.05l.007-.014c.015-.033.045-.07.043-.07.01-.007.02-.018.027-.04.006-.024-.004-.054-.016-.068-.024-.03-.038-.027-.05-.03-.026-.007-.05-.01-.078-.013l-.08-.01c-.02-.006-.037-.016-.03-.01-.006-.005-.007-.01-.014-.018l.012-.005a.07.07 0 0 1-.015-.133s-.044-.01-.084-.024c-.02-.008-.04-.017-.05-.025-.01-.006-.005-.007-.004.004-.004-.044-.022-.076-.038-.102l.02-.032.035-.043.003-.004c.004-.002.008 0 .012-.002.014-.007.02-.017.027-.026l.167.045a.07.07 0 0 1 .085-.088l-.01-.03.016-.005.042-.008c.01.007.023.015.04.016.014 0 .014-.007.024-.012l.37.21a.07.07 0 0 1 .077-.115l-.095-.083c-.024-.022-.048-.045-.064-.064-.014-.015-.016-.022-.016-.015a.07.07 0 0 1 .027-.08l-.014-.04.08.006a.07.07 0 0 1 .04-.01l.014.012c.016.013.033.028.04.036l.004.005c-.002-.004-.013-.024.002-.053l.003-.003.007-.01.016-.01.025-.01.044.01-.03.007.066.05v.01l-.002.01c-.004.014 0 .005 0 0l.007-.016.043.034a.07.07 0 0 1 .042.014z" opacity=".954" stroke-width=".0371159"/></g><g fill="#82a668" stroke="#82a668" stroke-width=".265"><path d="M26.018 24.455l.033.528s.003.044.035.016c.032-.03.033-.033.033-.033s.02.12.045.107c.026-.013.06-.063.067-.085.008-.024.008-.085.008-.085s.123.22.167.19c.044-.032.018-.092.018-.092s.154.034.17 0c.016-.035 0-.083 0-.083l.043-.018s-.056-.034-.06-.065c-.004-.03.045-.056.045-.056s-.102-.155-.166-.188c-.064-.034.176.095.21.078l.066-.03-.016-.028s.033.03.072.022c.04-.008.037-.045.037-.045s.03.007.038-.016c.01-.022-.043-.11-.07-.13-.03-.022.127-.027.16-.06.033-.03.053-.077.053-.077l-.07-.025s.135-.035.136-.09c0-.053.032-.08.032-.08s-.075-.104-.092-.1c-.016.006-.015-.037-.015-.037l-.17.06.015-.072s-.12-.036-.13-.013c-.007.022-.02-.008-.02-.008l-.286.19s.135-.124.138-.163c.003-.04-.027-.047-.027-.047l.027-.106-.134.02-.016-.026s-.106.086-.095.105c.012.018-.038-.076-.038-.076l-.08.07-.048.003z" stroke-width=".02727645"/><path d="M26.174 23.96l-.104.5.03.46a.052.052 0 0 1 .07.04l.004.023c.002-.004.007-.01.007-.012 0 .004.004-.018.005-.034v-.03a.052.052 0 0 1 .098-.026s.03.053.064.102l.025.03a.052.052 0 0 1 .062-.06s.036.01.073.012c.015.002.028.002.04.002-.002-.014-.002-.03-.002-.03a.052.052 0 0 1 .003-.04c-.01-.012-.02-.028-.023-.052-.004-.035.01-.056.027-.07l-.03-.043c-.033-.04-.08-.086-.092-.093l-.008-.004h-.002l.048-.092c-.004 0 .004.003.01.006.014.007.038.02.066.032l.08.034.028.007.01-.006a.052.052 0 0 1 .087-.04s.013.007.022.008a.052.052 0 0 1 .027-.038l-.006-.01c-.014-.024-.037-.05-.036-.05-.007-.004-.016-.01-.02-.028-.007-.016-.002-.04.006-.05.016-.022.027-.022.036-.025.018-.005.036-.008.056-.012.02-.004.04-.008.057-.013.016-.004.028-.013.022-.007.005-.005.005-.008.01-.015l-.01-.003a.052.052 0 0 1 .005-.098s.03-.008.06-.022c.014-.006.027-.014.034-.02.007-.006.004-.006.004.002 0-.033.01-.057.022-.077l-.017-.022-.027-.03-.003-.003h-.01c-.01-.005-.016-.013-.02-.02l-.12.043a.052.052 0 0 1-.068-.06l.005-.022h-.01c-.014-.004-.024-.005-.032-.006-.008.007-.016.014-.027.015-.01 0-.01-.005-.018-.008l-.26.174a.052.052 0 0 1-.063-.08s.032-.03.064-.066c.017-.017.033-.036.044-.05.01-.012.01-.018.01-.012a.052.052 0 0 1-.023-.057l.008-.03-.057.01a.052.052 0 0 1-.03-.005l-.01.008c-.012.01-.023.023-.028.03l-.003.003c.002-.003.01-.018-.004-.04.002.002.003.003 0 0l-.007-.008-.012-.008-.018-.005s-.028.008-.03.01l.02.003-.044.04v.008l.002.007c.004.01.002.003 0 0l-.006-.012-.03.028a.052.052 0 0 1-.03.012z" opacity=".954" stroke-width=".02727645"/></g><path d="M28.35 28.606c-.755.498-1.004.218-1.415.186M28.183 27.843c-.756.498-1.005.218-1.416.186M28.255 29.85c-.757.5-1.006.218-1.417.187M29.657 31.11c-.64.64-.94.416-1.348.47" fill="#b0752b" stroke="#b0752b" stroke-width=".1133925"/></g></g><g transform="matrix(.91812 0 0 .91812 84.13 -213.98)"><path d="M5.093 286.88c2.76 2.02 7.27 2.13 7.27 3.62 0 1.49-3.106 2.978-6.417 2.118-2.79-.726-5.667-3.15-6.463-3.795-8.044-6.51-.438-6.37 5.61-1.944z" fill="#657751"/><path transform="matrix(0 -.42082 .49895 0 -155.782 299.366)" d="M18.633 328.987c.16 1.432.24 3.626 1.543 4 .975.283 1.91-1.028 2.408-1.97.57-1.08.304-2.463.38-3.7.133-2.17-.553-4.475.13-6.523 1.088-3.256 3.596-5.83 5.98-8.162.533-.52 1.924-.497 1.817-1.26-.14-1.002-1.812-1.09-2.727-.832-3.047.86-5.02 4.31-6.638 7.207-1.475 2.64-1.9 5.818-2.544 8.814-.17.8-.438 1.615-.347 2.427z" fill="#203b06" filter="url(#b)"/><ellipse cx="11.471" cy="290.747" rx=".167" ry=".271" fill="#fff"/></g><g><path d="M92.65 23.965l-.61-.395c-.085.716-1.735 2.21-2.206 2.655-1.75-.433-4.098.606-4.562 2.028-.54 1.397.856 2.802 2.166 3.643l-.327.414 1.564.41.342-.19-.005-.003c1.526.242 2.865.882 3.402-.502.53-1.375.498-4.225-.774-5.077-.334-.834.857-2.226 1.213-2.808z" fill="#ebe6c6"/><path d="M91.225 27.367c.117 3.106-.78 4.574-2.37 4.918 1.507-.8 2.092-2.58 2.37-4.918z" fill="#d8ac91"/><path d="M87.053 30.896c.49-.25 1.895.433 2.017 1.027.066.32-.66.228-.993.18-.403-.056-.89-.195-1.086-.543-.11-.195-.14-.56.063-.664z" fill="#b88100"/><path d="M91.865 27.287c1.203 2.895.885 4.585-.478 5.45 1.124-1.27 1.042-3.147.478-5.45zM89.254 26.335c-2.984.696-4.082 1.865-3.887 3.358.266-1.537 1.76-2.51 3.887-3.358zM89.99 26.628c-2.84 1.332-3.74 2.797-3.313 4.352.022-1.693 1.345-3.028 3.312-4.352z" fill="#d8ac91"/><g><path d="M78.694 28.462l-.355.634c.72.04 2.317 1.59 2.79 2.03-.317 1.773.872 4.05 2.322 4.42 1.428.45 2.74-1.036 3.494-2.397l.435.298.307-1.586-.212-.328v.004c.14-1.537.693-2.915-.723-3.36-1.406-.44-4.248-.224-5.016 1.1-.81.388-2.277-.71-2.88-1.027z" fill="#ebe6c6"/><path d="M81.523 30.945c1.514 2.745 3.034 3.55 4.56 3.023-1.693.088-3.11-1.146-4.56-3.023zM82.06 29.03c2.81-1.388 4.518-1.18 5.468.124-1.338-1.04-3.207-.836-5.468-.123zM82.18 29.664c3.093-.318 4.616.48 5.062 2.046-.897-1.452-2.71-1.92-5.06-2.046zM81.28 31.698c.887 2.932 2.125 3.952 3.602 3.66-1.55-.165-2.62-1.594-3.603-3.66z" fill="#d8ac91"/></g></g><g><path d="M92.91 14.282c-1.144-1.945-9.228-2.952-5.76-10.37.394-.84-1.276-1.49-2.71-.657-3.14 5.502 1.668 9.81 6.45 10.81.516.108.92.608 1.43.625.238.008.713-.202.59-.408z" fill="#b60001" stroke="#bb0104" stroke-width=".22314293"/><path transform="matrix(-.14558 -.19098 -.2112 .13164 151.37 -39.02)" d="M-5.525 316.945c-.783-.003-1.466.342-1.915 1.11-16.377 27.955-37.81 3.877-46.718 4.515-.21.015-.352.13-.444.303.08-.062.174-.102.29-.11 9.095-.68 30.98 24.937 47.703-4.806.282-.5.655-.83 1.085-1.012z" opacity=".559" fill="#fff" stroke="#fff" stroke-width=".883" filter="url(#c)"/><path d="M88.356.054c.006.013-.026.066-.11.175-.292.374-.048.327-.046.844 0 .352-.09-.377-.598.01-.45.345-.546 1.34-.735 1.876.23.058.086.482.007.65-.057.12-.083.352-.102.202-.014-.112-.07-.064-.204-.152-.09-.06.122.05.166-.102.02-.074-.04-.165-.113-.252-.045.014-.096.008-.155-.02-.104.106-.28.194-.38.234-.122.05-.3.202-.21.08.065-.093-.01-.096-.046-.252-.026-.106.054.12.19.04.077-.048.087-.19.09-.323l-.158-.1c-.137.02-.287.046-.325.134-.063.143.17.193.063.182-.16-.017-.172-.09-.255-.012-.11.103.018-.093.05-.22.026-.097.083-.262.163-.378-.228-.604 1.217-1.63 1.835-2.002.347-.21.852-.664.873-.616z" fill="#81a343" stroke="#81a343" stroke-width=".04953116"/><g><path d="M80.548 7.54c2.246-.22 7.816 5.725 11.773-1.443.45-.814 1.956.156 2.128 1.805-2.6 5.776-8.915 4.423-12.536 1.144-.39-.354-1.034-.387-1.346-.788-.148-.19-.257-.696-.018-.72z" fill="#b60001" stroke="#bb0104" stroke-width=".22314293"/><path d="M-5.525 316.945c-.783-.003-1.466.342-1.915 1.11-16.377 27.955-37.81 3.877-46.718 4.515-.21.015-.352.13-.444.303.08-.062.174-.102.29-.11 9.095-.68 30.98 24.937 47.703-4.806.282-.5.655-.83 1.085-1.012z" opacity=".559" fill="#fff" stroke="#fff" stroke-width=".883" filter="url(#c)" transform="matrix(.25263 -.00644 .00644 .25263 92.59 -73.677)"/><path d="M94.73 2.852c-.014.003-.038.06-.076.192-.132.456-.237.232-.656.534-.286.207.358-.15.343.49-.012.567-.76 1.23-1.083 1.697-.183-.152-.44.214-.53.377-.063.117-.236.274-.104.202.1-.055.094.02.244.075.102.036-.112-.07-.016-.195.05-.06.16-.065.272-.057.016.045.05.083.107.114-.025.147.007.34.033.444.033.13.014.362.06.218.037-.108.083-.05.23-.11.1-.043-.13.025-.143-.132-.008-.09.1-.18.207-.263l.175.068c.064.123.13.26.082.342-.08.135-.258-.024-.185.057.106.12.173.085.16.198-.02.15.063-.07.147-.17.064-.077.163-.22.21-.354.622-.17.602-1.942.54-2.66-.036-.403.034-1.08-.016-1.068z" fill="#81a343" stroke="#81a343" stroke-width=".04953116"/></g></g></svg>