<?xml version="1.0" encoding="UTF-8" standalone="no"?>
<!-- Created with Inkscape (http://www.inkscape.org/) -->

<svg
   xmlns:dc="http://purl.org/dc/elements/1.1/"
   xmlns:cc="http://creativecommons.org/ns#"
   xmlns:rdf="http://www.w3.org/1999/02/22-rdf-syntax-ns#"
   xmlns:svg="http://www.w3.org/2000/svg"
   xmlns="http://www.w3.org/2000/svg"
   xmlns:sodipodi="http://sodipodi.sourceforge.net/DTD/sodipodi-0.dtd"
   xmlns:inkscape="http://www.inkscape.org/namespaces/inkscape"
   width="2267.7163"
   height="2267.7163"
   viewBox="0 0 2125.9841 2125.9841"
   id="svg2"
   version="1.1"
   inkscape:version="0.92.1 r"
   sodipodi:docname="cherry (Kopie).svg">
  <defs
     id="defs4" />
  <sodipodi:namedview
     id="base"
     pagecolor="#ffffff"
     bordercolor="#666666"
     borderopacity="1.0"
     inkscape:pageopacity="0.0"
     inkscape:pageshadow="2"
     inkscape:zoom="0.1438672"
     inkscape:cx="-1252.1338"
     inkscape:cy="-271.53527"
     inkscape:document-units="mm"
     inkscape:current-layer="layer1"
     showgrid="false"
     inkscape:window-width="1841"
     inkscape:window-height="1027"
     inkscape:window-x="79"
     inkscape:window-y="29"
     inkscape:window-maximized="1"
     inkscape:snap-global="false"
     fit-margin-top="1"
     fit-margin-right="1"
     fit-margin-bottom="1"
     fit-margin-left="1"
     units="mm"
     showborder="true"
     inkscape:showpageshadow="true"
     borderlayer="true" />
  <metadata
     id="metadata7">
    <rdf:RDF>
      <cc:Work
         rdf:about="">
        <dc:format>image/svg+xml</dc:format>
        <dc:type
           rdf:resource="http://purl.org/dc/dcmitype/StillImage" />
        <dc:title />
        <cc:license
           rdf:resource="http://creativecommons.org/publicdomain/zero/1.0/" />
        <dc:date>2015-02-21</dc:date>
        <dc:creator>
          <cc:Agent>
            <dc:title>Frank Tremmel</dc:title>
          </cc:Agent>
        </dc:creator>
        <dc:subject>
          <rdf:Bag>
            <rdf:li>cherries</rdf:li>
            <rdf:li>cherry</rdf:li>
            <rdf:li>fruit</rdf:li>
            <rdf:li>fruits</rdf:li>
            <rdf:li>food</rdf:li>
            <rdf:li>kirschen</rdf:li>
            <rdf:li>kirsche</rdf:li>
            <rdf:li>frucht</rdf:li>
            <rdf:li>früchte</rdf:li>
            <rdf:li>Nahrung</rdf:li>
            <rdf:li>line art</rdf:li>
            <rdf:li>outline</rdf:li>
            <rdf:li />
          </rdf:Bag>
        </dc:subject>
        <dc:description>line art cherries</dc:description>
      </cc:Work>
      <cc:License
         rdf:about="http://creativecommons.org/publicdomain/zero/1.0/">
        <cc:permits
           rdf:resource="http://creativecommons.org/ns#Reproduction" />
        <cc:permits
           rdf:resource="http://creativecommons.org/ns#Distribution" />
        <cc:permits
           rdf:resource="http://creativecommons.org/ns#DerivativeWorks" />
      </cc:License>
    </rdf:RDF>
  </metadata>
  <g
     inkscape:label="Ebene 1"
     inkscape:groupmode="layer"
     id="layer1"
     transform="translate(0.25840763,1072.4824)">
    <g
       id="g3002"
       transform="matrix(0.9473179,0,0,0.94122747,-173.40332,957.89369)">
      <g
         id="g3838"
         transform="translate(141.35502,78.56649)">
        <path
           style="color:#000000;display:inline;overflow:visible;visibility:visible;fill:#ff5555;fill-opacity:1;fill-rule:evenodd;stroke:#ff0000;stroke-width:0.43731302;stroke-linecap:round;stroke-linejoin:round;stroke-miterlimit:4;stroke-dasharray:none;stroke-dashoffset:0;stroke-opacity:1;marker:none;enable-background:accumulate"
           d="m 1484.5762,-2046.5916 c -38.5442,7.3496 -48.2754,65.9344 -54.0269,85.4972 3.6271,7.0476 -8.2529,48.3525 -98.6911,55.2303 -45.8026,30.2833 -176.0862,103.1759 -166.1334,189.8002 -310.69825,286.925 -402.77924,470.7385 -544.17621,802.29572 -76.14726,14.23577 -93.97149,-18.18973 -135.31368,-32.74644 -164.14294,-46.24346 -315.60818,104.33169 -315.6088,276.2624 -6.2e-4,206.02552 79.94071,427.43958 257.52915,481.56626 235.2846,71.71439 531.75743,-58.49465 609.57464,-284.86729 50.3545,-146.48446 39.3924,-434.36945 -286.85867,-400.42656 -40.8814,1.10148 -17.42696,-32.59262 -30.65055,-42.66363 69.80382,-175.87426 93.96891,-234.12786 196.89126,-402.27556 68.24484,-111.4938 171.32456,-201.6355 267.90466,-290.0602 36.8517,185.8873 182.6318,374.4617 270.2152,440.6912 31.8999,24.1224 54.8862,45.3946 81.8305,62.1294 -17.8811,-4.6473 -37.3049,-6.3537 -60.1064,-1.5953 -169.6851,35.4172 -248.4026,166.47134 -232.9273,343.25049 20.9219,238.99606 193.9836,605.91083 679.7631,491.49293 32.3759,-7.62494 305.1364,-137.40099 239.26,-537.56167 -35.2311,-214.00755 -94.7102,-345.23965 -322.337,-321.18025 -51.4728,5.4404 -35.0627,33.8213 -115.3896,49.7777 -84.5432,-36.825 -200.8479,-99.9098 -254.1244,-167.471 -91.7301,-116.325 -178.2629,-225.7838 -191.9107,-362.5751 -4.4037,-44.1393 3.3513,-82.2619 32.1,-130.9723 30.3806,-51.4756 81.8654,-67.3541 142.1395,-96.1427 40.2901,27.351 99.4546,57.5054 143.9227,36.2391 36.004,-17.2174 60.8411,-48.5393 50.2981,-84.125 l 62.6192,-28.6722 c 22.7901,-14.3611 55.1713,-47.1412 28.4522,-98.1457 -18.5539,-35.4185 -79.2902,-39.3622 -124.1846,-16.2462 l -39.8818,12.7966 c -41.7718,-23.6728 -45.8586,-42.98 -90.1791,-29.3024 z"
           id="path4157-4-2"
           inkscape:connector-curvature="0"
           sodipodi:nodetypes="ccccccscsccscsccsssscsssccccsccc" />
        <path
           style="color:#000000;display:inline;overflow:visible;visibility:visible;fill:#5c3f2a;fill-opacity:1;fill-rule:evenodd;stroke:#ff0000;stroke-width:0.43731302;stroke-linecap:round;stroke-linejoin:round;stroke-miterlimit:4;stroke-dasharray:none;stroke-dashoffset:0;stroke-opacity:1;marker:none;enable-background:accumulate"
           d="m 1474.1617,-2046.4425 c -20.2023,34.207 -35.436,64.2567 -41.1875,83.8195 -9.2124,12.0833 -6.4189,46.6729 -96.8569,53.5515 -45.8027,30.2833 -137.5684,79.6747 -186.3096,211.6212 -310.69828,286.926 -380.76901,450.5963 -522.16598,782.15143 4.54324,12.65951 -36.34688,12.97856 -42.30307,28.73552 -8.29785,21.95187 18.4176,59.64931 39.29261,76.28936 12.45618,9.92857 50.90628,2.23716 82.81002,-13.19885 21.48099,-8.97142 22.92519,-71.20163 9.7016,-81.27264 69.80382,-175.87332 84.79797,-219.01932 187.72031,-387.16692 68.24484,-111.4933 182.32971,-210.0277 278.90981,-298.4524 26.7583,85.6366 84.3875,200.8889 150.6359,291.6237 56.7768,77.7625 121.3454,135.2884 161.7657,165.8538 31.8999,24.1223 84.2332,70.5741 111.1776,87.3091 -17.8812,-4.649 36.0625,45.68134 90.2969,60.51153 55.2283,13.79898 70.8008,1.96559 72.4764,-31.59173 0.7761,-15.5424 -18.7175,-43.6569 -7.5259,-61.8087 -18.5492,-8.0788 -50.1822,-11.256 -74.51,-19.8681 -86.553,-30.6388 -176.5451,-99.902 -218.1325,-152.6399 -91.73,-116.3246 -172.7603,-212.3553 -186.4081,-349.1466 -4.4037,-44.1393 -13.1563,-67.1547 15.5923,-115.8651 30.3806,-51.4755 87.368,-97.5687 147.6421,-126.3574 40.2901,27.351 97.6204,69.2554 142.0885,47.9891 36.0041,-17.2174 57.1727,-30.0731 46.6297,-65.6587 l 60.7851,-45.4587 c 22.7901,-14.3611 73.8826,-56.5517 44.9598,-106.5394 -35.0616,-60.5974 -86.6269,-36.0038 -131.5213,-12.8878 -15.7395,11.5394 -7.1529,1.4338 -50.887,2.7247 -41.7718,-23.6725 -40.3561,-37.9449 -84.6765,-24.2675 z"
           id="path4157-4-2-4"
           inkscape:connector-curvature="0"
           sodipodi:nodetypes="cccccssccscssccscssssccccsccc" />
        <g
           id="g4344"
           style="fill:#ff0047;fill-opacity:1;stroke:none"
           transform="matrix(20.751477,0,0,18.991153,63.259732,-20082.403)">
          <path
             sodipodi:nodetypes="cssscssc"
             inkscape:connector-curvature="0"
             id="path4186"
             d="m 22.466797,1012.8086 c -1.244992,0.2479 -0.596431,2.5381 0.694305,4.9039 0.502506,0.921 1.893424,2.1994 3.403313,2.8811 2.148044,0.9698 4.591307,1.0578 6.425819,-0.8202 1.497724,-1.5332 1.202016,-3.6561 -0.281246,-4.3261 -0.156309,1.5323 -0.630446,2.2144 -2.018181,2.6244 -1.645332,0.4861 -3.438114,-0.078 -4.891572,-0.9784 -1.551578,-0.9613 -2.450232,-2.712 -3.332438,-4.2847 z"
             style="color:#000000;font-style:normal;font-variant:normal;font-weight:normal;font-stretch:normal;font-size:medium;line-height:normal;font-family:sans-serif;text-indent:0;text-align:start;text-decoration:none;text-decoration-line:none;letter-spacing:normal;word-spacing:normal;text-transform:none;writing-mode:lr-tb;direction:ltr;baseline-shift:baseline;text-anchor:start;display:inline;overflow:visible;visibility:visible;fill:#ff0047;fill-opacity:1;fill-rule:evenodd;stroke:none;enable-background:accumulate" />
          <path
             sodipodi:nodetypes="cssscssc"
             inkscape:connector-curvature="0"
             id="path4186-9"
             d="m 74.650179,1005.3363 c -1.255318,0.2723 0.270216,3.7173 2.298285,5.053 1.00266,0.6604 2.2748,0.7098 3.462032,0.6826 2.460595,-0.057 5.144744,-0.7337 6.74913,-2.6808 2.056376,-2.4956 0.885664,-6.036 -1.913505,-5.3014 1.200591,1.2714 0.835733,3.2844 -0.292426,4.0739 -1.433656,1.0031 -4.04857,1.8747 -5.744955,1.4783 -1.92413,-0.4495 -3.225373,-2.2118 -4.558561,-3.3056 z"
             style="color:#000000;font-style:normal;font-variant:normal;font-weight:normal;font-stretch:normal;font-size:medium;line-height:normal;font-family:sans-serif;text-indent:0;text-align:start;text-decoration:none;text-decoration-line:none;letter-spacing:normal;word-spacing:normal;text-transform:none;writing-mode:lr-tb;direction:ltr;baseline-shift:baseline;text-anchor:start;display:inline;overflow:visible;visibility:visible;fill:#ff0047;fill-opacity:1;fill-rule:evenodd;stroke:none;enable-background:accumulate" />
          <path
             sodipodi:nodetypes="ccsssc"
             inkscape:connector-curvature="0"
             id="path4308"
             d="m 24.507806,1009.8067 c -16.7732807,5.1637 -16.0306337,28.5719 -2.179379,38.8384 -7.293531,-0.3939 -13.0401327,-7.0067 -14.578427,-11.2829 -2.6684626,-7.4178 -2.3232233,-16.6993 -2.3232233,-16.6993 -0.4919733,-4.0342 3.8455721,-11.2608 9.4128163,-13.216 3.116452,-1.0944 7.103769,1.3444 9.668213,2.3598 z"
             style="fill:#ff0047;fill-opacity:1;fill-rule:evenodd;stroke:none" />
          <path
             sodipodi:nodetypes="cccccscscccc"
             inkscape:connector-curvature="0"
             id="path4312"
             d="m 25.455844,1010.5545 c -0.879545,-0.2157 -2.931258,0.8801 -3.093592,2.2981 -0.472417,2.8498 4.119718,6.5885 4.154253,6.364 3.156455,1.0383 3.726275,0.5867 5.126524,0.088 1.621521,-0.9603 1.883254,-2.1926 1.149048,-3.624 -0.117081,-0.1707 2.088972,-0.9698 4.500646,-0.8142 1.172552,0.076 6.792343,1.8186 7.008105,0.4727 0.793042,-0.631 -5.321376,-4.3388 -7.538145,-3.9623 -0.896179,0.1522 -3.570881,0.5017 -4.942877,1.5638 -1.046344,1.4089 -1.192412,2.8896 -4.242641,2.74 -1.514831,-1.2682 -3.127238,-2.4833 -2.121321,-5.1265 z"
             style="fill:#ff0047;fill-opacity:1;fill-rule:evenodd;stroke:none" />
          <path
             sodipodi:nodetypes="ccsssc"
             inkscape:connector-curvature="0"
             id="path4308-6"
             d="m 72.990711,1001.4972 c -14.140612,10.3947 -5.649527,33.4928 10.808328,38.6306 -7.017084,2.0276 -15.494402,-2.0764 -18.353944,-5.6084 -4.960393,-6.1269 -7.563024,-14.7553 -7.563024,-14.7553 -1.791854,-3.6477 -0.38402,-14.1669 4.230015,-17.8448 2.582892,-2.05877 7.238993,-4.51481 10.878625,-0.4221 z"
             style="fill:#ff0047;fill-opacity:1;fill-rule:evenodd;stroke:none" />
          <path
             sodipodi:nodetypes="cccccscscccc"
             inkscape:connector-curvature="0"
             id="path4312-2"
             d="m 75.220354,1003.7861 c -0.694516,0.5812 0.03658,4.0084 1.08332,4.9787 2.017147,2.0678 8.311311,0.8299 8.150818,0.6692 2.705375,-1.9293 2.366228,-2.3434 2.793216,-3.7671 -0.355143,-0.9922 -0.925636,-1.628 -1.354847,-2.2544 -0.279005,-0.5093 2.452826,-1.2054 5.228434,-0.7466 3.112187,0.5143 6.523182,2.0589 6.729598,1.867 -0.389757,-2.7028 -6.271585,-6.90345 -10.235139,-6.05451 -2.341773,0.50158 -5.409731,2.24211 -5.392488,2.96611 -0.07768,1.8471 0.36269,2.7728 -0.240738,4.3539 -1.622444,0.3714 -2.375424,0.9955 -4.137499,-0.2001 z"
             style="fill:#ff0047;fill-opacity:1;fill-rule:evenodd;stroke:none" />
        </g>
        <path
           style="fill:#ffffff;fill-opacity:1;stroke:#000000;stroke-width:1.311939;stroke-linecap:butt;stroke-linejoin:miter;stroke-miterlimit:4;stroke-dasharray:none;stroke-opacity:1"
           d="m 1972.3956,-908.70324 c 13.7402,-16.5318 45.9293,-30.46371 64.8484,-18.99115 39.8053,24.13965 30.6632,89.97438 12.9697,130.56417 -14.0749,32.28876 -51.308,83.79657 -85.5999,68.84293 -59.3697,-25.88684 -32.0321,-132.51266 7.7818,-180.41595 z"
           id="path4352"
           inkscape:connector-curvature="0"
           sodipodi:nodetypes="sssss" />
        <path
           style="fill:#ffffff;fill-opacity:1;stroke:#000000;stroke-width:1.2341944px;stroke-linecap:butt;stroke-linejoin:miter;stroke-opacity:1"
           d="m 825.87651,-685.55719 c 22.91001,-39.01543 123.69343,22.7457 106.35132,64.09514 -51.1222,121.89472 -344.9933,21.36505 -344.9933,21.36505 2.59393,-31.36579 177.29323,19.01394 238.64198,-85.46019 z"
           id="path4354"
           inkscape:connector-curvature="0"
           sodipodi:nodetypes="sscs" />
        <path
           style="color:#000000;font-style:normal;font-variant:normal;font-weight:normal;font-stretch:normal;font-size:medium;line-height:normal;font-family:sans-serif;text-indent:0;text-align:start;text-decoration:none;text-decoration-line:none;letter-spacing:normal;word-spacing:normal;text-transform:none;writing-mode:lr-tb;direction:ltr;baseline-shift:baseline;text-anchor:start;display:inline;overflow:visible;visibility:visible;fill:#580000;fill-opacity:1;fill-rule:evenodd;stroke:none;stroke-width:0.35433072;marker:none;enable-background:accumulate"
           d="m 1498.192,-2065.7613 c -30.8385,-3.6427 -52.8995,20.1971 -62.3222,43.4203 -18.5155,45.6334 -27.6603,102.1139 -99.7232,97.1266 -91.6044,46.0784 -168.3384,123.1238 -198.085,210.3597 -103.79,96.6082 -199.12179,195.9708 -278.7567,309.4986 -97.85185,139.4978 -173.94886,295.9018 -234.60277,452.26294 -15.86065,40.88795 -31.96367,34.35689 -68.62356,13.57108 -48.19763,-27.32637 -131.2589,-59.61133 -195.15965,-39.0686 -375.097041,158.86859 -217.24574,700.89319 36.50014,805.98263 C 1027.3167,2.6385137 1403.6317,-757.30577 752.18478,-953.06847 836.34584,-1143.6272 916.472,-1320.782 1086.3708,-1483.8486 c 29.6287,-28.4372 66.439,-71.8656 97.7545,-75.3427 7.2832,10.4254 10.2241,25.6487 19.7011,46.0912 106.0251,228.7021 167.4085,330.5051 276.1675,380.7242 -388.4419,132.49424 -245.0128,706.5873 -82.2532,797.47326 924.9635,619.64524 1008.8843,-1049.48666 409.316,-801.63996 -26.391,18.7737 -98.9277,29.3754 -128.7058,18.7458 -71.4792,-25.5171 -157.6817,-103.7844 -178.9994,-126.4664 -78.4131,-83.4316 -119.6164,-146.954 -156.2448,-238.8349 -29.6772,-74.4441 -66.0627,-128.6303 -40.9549,-204.9565 27.213,-82.7262 142.4528,-175.9498 219.583,-89.9837 64.1753,18.2617 98.4639,-8.2972 123.6039,-44.5633 15.263,-22.0178 21.3634,-53.443 45.3884,-63.8211 48.0349,-20.7495 75.736,-55.085 75.6192,-94.0869 -0.1391,-46.4628 -35.7815,-90.0993 -105.3721,-82.0613 -76.0215,33.8487 -113.7472,2.6017 -162.7822,-3.1904 z m 101.8666,68.3716 c 8.0885,-2.8424 16.679,-8.4862 26.1063,-17.9708 44.5369,-44.8079 103.6812,0.942 104.6685,40.7856 0.5186,20.9296 -16.7855,34.7081 -48.391,52.397 -10.0985,5.652 -22.9248,10.9908 -34.7675,17.1315 -4.6877,2.4309 -36.7434,-12.6775 -44.498,-34.9915 -11.7563,-33.829 -3.893,-40.7249 -3.1183,-57.3518 z m 12.8046,112.5503 c -9.3561,9.5328 -2.9185,17.8327 4.5884,33.8331 -41.7182,85.5045 -128.9944,13.4684 -164.4663,-10.9582 -97.8182,40.6353 -197.3652,113.0735 -197.5207,220.4962 -0.066,46.3955 52.5049,206.2629 123.1953,298.1651 60.4423,78.5791 127.798,162.2689 215.3455,212.7449 41.9863,24.2075 92.7855,44.5461 135.7302,61.9363 30.5359,12.3651 36.4229,42.3863 19.3601,69.33096 -10.402,16.42545 -37.436,15.2442 -69.6656,-6.94126 -44.3961,-30.5625 -95.1076,-74.2402 -137.921,-114.352 -19.0379,-17.8365 -47.1553,-31.0697 -65.8312,-47.2813 -43.1927,-37.4937 -75.0964,-76.8105 -113.8499,-120.4911 -62.7635,-70.7432 -105.1286,-165.5786 -138.3578,-250.413 -16.0326,-40.9314 -29.1604,-63.8575 -38.1835,-106.84 -6.6888,-31.863 -9.1664,-55.4219 -5.0567,-74.542 18.6704,-86.861 101.0396,-128.9775 175.6328,-176.7887 54.5957,-2.4411 80.7952,-25.119 97.7865,-64.4067 21.5173,-25.2334 -0.3206,-83.4876 47.7445,-71.0684 28.7671,7.433 49.7105,28.2192 71.6031,35.1029 -3.9239,6.4103 3.7174,59.3183 5.4313,62.7768 7.2507,14.631 20.3509,31.9385 34.435,49.6964 z m -462.5869,286.1298 c -124.9364,111.8148 -239.46634,228.4885 -314.7455,379.0741 -27.37381,54.7576 -62.55101,127.9316 -85.17138,185.3495 -21.39482,54.30896 -32.26872,77.78963 -49.57109,131.15287 -3.67998,11.35101 15.13331,13.55778 11.87503,28.89883 -5.45446,33.46431 -18.27462,55.69536 -58.47291,55.10093 -20.61734,-0.43679 -40.35668,-11.06424 -47.6794,-28.37848 -4.16615,-9.85071 -2.1203,-25.07781 0.58353,-33.78526 4.62075,-14.88526 35.01243,-15.46259 38.01646,-26.51544 18.44825,-67.87249 38.47502,-101.64445 67.36483,-167.89885 47.43522,-108.7865 108.0926,-219.552 180.11432,-316.1572 74.78187,-100.3074 146.04161,-182.8158 239.87021,-269.8604 1.0886,16.8335 7.5666,47.2655 17.8159,63.0194 z m 746.8142,491.7047 c 112.1794,-7.3516 215.2173,141.45734 240.2115,233.6423 156.6388,851.088519 -969.5544,815.440226 -815.6833,-74.82515 40.0433,-64.00775 133.5331,-147.69215 205.5118,-130.36665 77.2342,18.5904 161.4043,158.42988 241.4386,104.70961 51.1467,-34.33031 -34.1571,-80.86241 45.8802,-109.38331 29.0298,-10.3449 52.8697,-21.8256 82.6412,-23.7768 z M 440.19085,-927.92419 c 139.34303,-11.33771 111.66334,104.29752 176.9308,147.03141 22.13098,13.59957 67.32516,0.66469 80.49278,-11.36431 18.55492,-16.9572 29.51554,-36.77256 45.9328,-47.24239 84.69412,-54.01084 192.83847,-9.29617 245.37513,77.61874 92.21874,152.56353 48.88984,354.89148 -102.07948,462.57701 C 220.20282,161.12158 -21.980662,-866.76698 440.19085,-927.92419 Z"
           id="path4157"
           inkscape:connector-curvature="0"
           sodipodi:nodetypes="ssccssscccscscccsssscssscscssscscccsssssssssssssccscsccsssccsssscccsccssssccssscc" />
        <path
           style="fill:#ffffff;fill-opacity:1;fill-rule:evenodd;stroke:#00ff00;stroke-width:0.43731302;stroke-linecap:butt;stroke-linejoin:miter;stroke-miterlimit:4;stroke-dasharray:none;stroke-opacity:1"
           d="m 1285.7879,-1895.2727 c -139.3692,49.377 -210.1455,-14.4886 -372.89717,112.6961 34.24969,-88.4038 -39.53442,-114.6207 -95.47667,-155.2371 -189.06422,-102.0151 -357.42655,-37.3814 -393.64867,13.1407 -222.31513,230.6077 -162.85329,353.8738 -240.16147,544.2677 -23.32383,83.337 -44.60274,178.2956 -9.48564,225.9767 39.20224,65.8639 89.58997,107.1032 133.6798,96.924 16.2924,-109.0223 103.48135,-205.3223 179.21055,-230.5369 184.48872,31.5425 339.51263,-50.8843 408.27763,-136.5743 59.09585,-73.642 110.35494,-163.0827 5.7631,-272.2135 176.96884,-89.5755 171.97104,-61.3866 244.14464,-79.0332 z"
           id="path5951-1"
           inkscape:connector-curvature="0"
           sodipodi:nodetypes="ccccccccsccc" />
        <path
           style="color:#000000;font-style:normal;font-variant:normal;font-weight:normal;font-stretch:normal;font-size:medium;line-height:normal;font-family:sans-serif;text-indent:0;text-align:start;text-decoration:none;text-decoration-line:none;letter-spacing:normal;word-spacing:normal;text-transform:none;writing-mode:lr-tb;direction:ltr;baseline-shift:baseline;text-anchor:start;display:inline;overflow:visible;visibility:visible;fill:#580000;fill-opacity:1;fill-rule:evenodd;stroke:none;enable-background:accumulate"
           d="m 564.1323,-2005.7557 c -192.17945,23.3432 -296.20733,229.5911 -337.08996,374.7414 -23.95643,92.745 -45.54262,180.0455 -66.87487,276.8561 -16.62406,75.4439 -28.77114,156.2894 7.05225,212.499 20.01317,33.4121 40.73341,59.8459 64.11882,77.4469 23.68354,17.8251 64.94762,29.7364 93.08918,23.2395 -2.48736,-50.6475 33.58676,-114.1315 68.86967,-154.9521 32.99891,-37.4879 72.95102,-64.707 105.78389,-76.3355 188.52746,29.6327 346.95647,-48.4141 419.48787,-138.7985 30.14861,-37.5697 59.78268,-80.5142 67.64494,-130.3789 7.05473,-44.7429 -6.66214,-94.3125 -48.87944,-145.401 71.29745,-34.3745 113.01135,-66.1594 136.84035,-67.8806 13.1615,-0.9515 45.7319,-4.9218 59.0954,-4.5533 13.3635,0.3608 14.4136,-8.6894 34.2871,-13.5489 l 26.7626,-33.1441 c 44.5797,-3.4536 90.8155,-63.2462 138.2248,-109.2856 l -63.3893,12.5371 c -74.9289,10.2736 -108.25,6.2651 -170.0648,15.0594 -51.0078,7.2569 -105.35513,26.4735 -165.48495,75.4083 0.18677,-24.9196 -4.56266,-47.566 -17.10374,-65.4676 -20.53626,-29.3142 -51.58653,-49.6501 -79.19608,-69.696 -28.6913,-20.8314 -0.66135,-0.4881 -1.01329,-0.7046 -0.35174,-0.2165 -1.09423,-0.5925 -1.09423,-0.5925 -86.72827,-46.9634 -178.17266,-68.3319 -271.06621,-57.0485 z m 4.17462,33.4201 c 67.35292,-2.3122 132.6302,16.0359 190.85158,35.1002 49.84069,16.32 95.24181,34.197 126.37851,77.6598 15.60295,21.7798 19.49981,61.3038 3.79951,101.8288 26.49928,-17.5604 38.95256,-22.2662 51.10064,-26.6926 88.35834,-55.5148 107.84714,-61.9138 164.28734,-69.9433 40.6782,-5.7874 92.8199,-16.3542 141.1294,-25.3726 -39.4053,30.146 -71.6592,39.4042 -78.7908,67.5143 -2.0915,16.208 -27.4798,17.5864 -40.0756,14.2907 -11.5286,-0.3096 -38.9988,3.4556 -55.7307,4.6654 -33.4636,2.417 -81.08215,40.0098 -170.64256,85.3422 l -19.98139,10.0891 15.07724,15.6901 c 49.6727,51.828 60.50122,95.3941 54.10786,135.9424 -6.39335,40.5484 -31.92912,79.1726 -60.87641,115.2452 -136.45327,104.7419 -265.85575,143.7978 -399.74963,125.6679 -42.4532,14.1349 -87.15913,45.8482 -124.50886,88.279 -34.17065,38.8193 -60.01697,87.467 -71.17109,139.9844 -12.45423,0.6077 -24.54315,-2.4157 -38.82797,-13.1666 -17.74784,-13.3584 -37.02025,-36.8535 -55.97223,-68.6944 l -0.4053,-0.6685 -0.48635,-0.6666 c -29.65081,-40.2599 -29.19226,-105.4377 -6.30286,-187.2226 35.9647,-84.6057 51.48069,-197.0406 71.31334,-275.8354 23.05267,-89.2461 53.53833,-189.7765 172.17239,-295.0306 35.88426,-31.8372 88.75413,-52.477 133.30394,-54.0063 z"
           id="path5951"
           inkscape:connector-curvature="0"
           sodipodi:nodetypes="scscscccsscccccccscssssssssccscccccccsccscccccccss" />
        <path
           style="fill:#aeff0f;fill-opacity:1;stroke:#000000;stroke-width:0;stroke-linecap:butt;stroke-linejoin:miter;stroke-miterlimit:4;stroke-dasharray:none;stroke-opacity:1"
           d="m 1274.0391,-1878.6684 c -267.1727,-28.3431 -378.9579,114.7223 -385.35166,118.0694 70.64737,-82.2844 -16.06112,-127.9896 -79.39291,-158.2908 -384.71675,-242.2719 -562.83331,234.6777 -600.912,456.6053 -66.56742,240.3515 -31.58864,375.1386 70.24587,384.716 36.66954,3.4487 8.5454,-112.8891 210.86367,-218.1478 104.30437,16.0778 404.43408,7.3974 445.98047,-206.6869 80.04016,-96.0059 -1.25069,-138.5118 -51.0383,-199.8098 109.61901,-43.6711 151.53366,-72.8088 185.42356,-75.4914 75.8028,-6.0005 116.3857,-28.4569 107.0399,-20.4502 0,0 21.5089,-15.1805 97.1414,-80.5138 z"
           id="path3817"
           inkscape:connector-curvature="0"
           sodipodi:nodetypes="ccccscccscc" />
        <path
           style="color:#000000;font-style:normal;font-variant:normal;font-weight:normal;font-stretch:normal;font-size:medium;line-height:normal;font-family:sans-serif;text-indent:0;text-align:start;text-decoration:none;text-decoration-line:none;letter-spacing:normal;word-spacing:normal;text-transform:none;writing-mode:lr-tb;direction:ltr;baseline-shift:baseline;text-anchor:start;display:inline;overflow:visible;visibility:visible;fill:#5b8c4b;fill-opacity:1;fill-rule:evenodd;stroke:#d1f48f;stroke-width:1.23322272;stroke-miterlimit:4;stroke-dasharray:none;stroke-opacity:1;enable-background:accumulate"
           d="m 687.41932,-1781.6067 c 60.25,52.3799 22.45928,33.6347 87.41485,79.2677 19.15722,13.5848 -36.6545,8.5159 -50.25776,13.51 -52.59854,7.4183 -107.32948,6.7576 -157.80965,23.5511 -31.44699,-15.2833 -77.46258,-18.2103 -112.27649,-19.3385 -27.34953,3.2706 -85.76695,18.441 -103.97185,27.5449 32.82986,3.2147 73.33792,-6.6913 108.26639,-12.9641 42.13096,1.3579 37.64397,12.1963 79.65133,16.7289 -80.92285,42.3813 -133.91125,117.4685 -169.37584,194.3998 -37.55332,-2.4205 -57.70234,20.7744 -82.24293,51.4941 -11.43814,17.3915 -4.81665,19.3791 -30.7188,23.5671 27.91506,24.4108 47.21149,-36.5909 73.04747,-47.1915 11.46455,-8.652 43.86404,-20.2799 25.81376,6.2855 -28.29628,85.2034 -63.34559,160.8772 -76.76826,257.7597 7.2162,10.7917 33.49836,-81.0091 40.90072,-99.4014 20.78273,-70.4741 29.96034,-97.7207 55.72334,-149.1528 12.58619,14.5906 8.36814,31.2509 6.39486,106.7911 -3.8333,7.2939 1.8612,3.2655 2.19216,1.2173 6.25647,-44.3215 21.80707,-91.3503 5.97303,-135.247 2.08021,-24.0194 21.72808,-48.1593 33.74005,-70.7705 32.54122,-51.0118 75.92422,-98.712 134.41016,-125.8046 21.91005,60.826 0.6435,125.378 -11.59366,186.0157 -6.72634,36.1891 -19.91864,73.7122 -10.2116,110.4244 8.27706,-23.4055 10.39226,-39.3026 16.20902,-58.2709 10.2171,-78.7765 48.01639,-140.2231 32.61321,-220.3445 -11.23977,-37.5102 38.8792,-32.4559 62.52385,-38.6054 51.05444,-5.7811 102.31561,-10.184 153.1542,-17.4612 25.24741,61.4052 -6.71644,125.5524 -25.28096,184.5702 -13.96469,42.2181 -27.27222,88.3991 -11.68261,131.8624 6.65778,-26.6468 6.169,-43.8967 7.57776,-62.0931 2.41819,-88.8518 74.61054,-148.8148 56.74379,-239.1377 -18.25354,-36.7475 69.05527,-24.4429 86.53401,-51.3751 -18.21845,-7.0907 -37.68466,-6.2606 -48.88151,2.7532 -40.71542,20.9717 -74.99109,3.1267 -103.70119,-25.1466 -43.10975,-54.6121 -137.86053,-92.8464 -209.5927,-120.5909 -12.63192,18.3572 111.71497,55.51 135.48185,75.1527 z"
           id="path5953"
           inkscape:connector-curvature="0"
           sodipodi:nodetypes="cccccccccccccccccccccccccccccccccccc" />
      </g>
    </g>
  </g>
</svg>
