<?xml version="1.0" encoding="UTF-8" standalone="no"?>
<!-- Created with Inkscape (http://www.inkscape.org/) -->

<svg
   xmlns:dc="http://purl.org/dc/elements/1.1/"
   xmlns:cc="http://creativecommons.org/ns#"
   xmlns:rdf="http://www.w3.org/1999/02/22-rdf-syntax-ns#"
   xmlns:svg="http://www.w3.org/2000/svg"
   xmlns="http://www.w3.org/2000/svg"
   xmlns:sodipodi="http://sodipodi.sourceforge.net/DTD/sodipodi-0.dtd"
   xmlns:inkscape="http://www.inkscape.org/namespaces/inkscape"
   width="64mm"
   height="64mm"
   viewBox="0 0 63.999994 63.999994"
   version="1.1"
   id="svg840"
   inkscape:version="0.92.1 r"
   sodipodi:docname="certification_type__demeter.svg">
  <defs
     id="defs834" />
  <sodipodi:namedview
     id="base"
     pagecolor="#ffffff"
     bordercolor="#666666"
     borderopacity="1.0"
     inkscape:pageopacity="0.0"
     inkscape:pageshadow="2"
     inkscape:zoom="1.4"
     inkscape:cx="99.71771"
     inkscape:cy="272.37575"
     inkscape:document-units="mm"
     inkscape:current-layer="layer1"
     showgrid="false"
     inkscape:measure-start="0,0"
     inkscape:measure-end="0,0"
     inkscape:window-width="1841"
     inkscape:window-height="1027"
     inkscape:window-x="79"
     inkscape:window-y="29"
     inkscape:window-maximized="1"
     units="mm" />
  <metadata
     id="metadata837">
    <rdf:RDF>
      <cc:Work
         rdf:about="">
        <dc:format>image/svg+xml</dc:format>
        <dc:type
           rdf:resource="http://purl.org/dc/dcmitype/StillImage" />
        <dc:title></dc:title>
      </cc:Work>
    </rdf:RDF>
  </metadata>
  <g
     inkscape:label="Ebene 1"
     inkscape:groupmode="layer"
     id="layer1"
     transform="translate(0,-233.00002)">
    <circle
       style="fill:#f47920;fill-opacity:1;fill-rule:nonzero;stroke:#ffffff;stroke-width:0.23218696;stroke-opacity:1"
       id="path1395"
       cx="32"
       cy="265.00003"
       r="30.101383" />
    <g
       aria-label="d"
       style="font-style:normal;font-weight:normal;font-size:10.58333302px;line-height:1.25;font-family:sans-serif;letter-spacing:0px;word-spacing:0px;fill:#000000;fill-opacity:1;stroke:none;stroke-width:0.26458332"
       id="text1401"
       transform="matrix(1.1365486,0,0,1.1365486,-3.235626,-36.818927)">
      <path
         id="path4485"
         style="font-style:normal;font-variant:normal;font-weight:normal;font-stretch:normal;font-size:40.56944275px;line-height:1;font-family:'Comic Jens';-inkscape-font-specification:'Comic Jens';text-align:center;text-anchor:middle;fill:#ffffff;fill-opacity:1;stroke-width:0.26458332"
         d="m 40.073319,276.70428 c -0.405695,0 -0.892528,-0.0811 -1.176514,-0.36513 -0.811389,-0.73025 -1.095375,-2.88043 -1.095375,-4.30036 0,-4.9089 0.770819,-9.41211 1.582208,-14.28044 0.324556,-2.3936 0.73025,-4.46264 0.73025,-6.69396 0,-1.01424 -0.892527,-1.70392 -1.785055,-1.70392 -1.703917,0 -2.028472,1.13595 -2.150181,1.66335 -0.527402,2.3936 -0.770819,5.11175 -1.176513,7.54592 -0.162278,0.97366 -0.446264,2.5153 -0.973667,4.74662 -0.973667,-1.86619 -3.367264,-2.67758 -5.639153,-2.67758 -6.044847,0 -9.45268,5.842 -9.45268,11.11603 0,5.76086 2.353028,8.72243 6.653389,8.72243 3.488972,0 6.896805,-2.31246 8.479013,-5.43631 0.73025,3.89467 3.204986,5.59858 5.842,5.59858 1.622778,0 5.152319,-0.93309 5.152319,-3.24555 0,-1.01424 -0.68968,-1.8662 -1.906764,-1.8662 -1.095374,0 -1.906763,1.17652 -3.083277,1.17652 z m -8.235597,-6.57225 c -1.054806,2.71815 -2.555875,6.32883 -6.166555,6.32883 -2.150181,0 -2.799292,-2.10961 -2.799292,-4.50321 0,-3.61068 1.582208,-7.14022 5.558014,-7.14022 0.608541,0 1.541639,0.0406 2.028472,0.36513 0.527403,0.64911 1.176514,0.93309 1.744486,0.93309 0.365125,0 0.73025,-0.1217 1.054805,-0.32455 -0.405694,1.4605 -1.054805,3.40783 -1.41993,4.34093 z"
         inkscape:connector-curvature="0" />
    </g>
  </g>
</svg>
