<?xml version="1.0" encoding="UTF-8" standalone="no"?>
<!-- Created with Inkscape (http://www.inkscape.org/) -->

<svg
   xmlns:dc="http://purl.org/dc/elements/1.1/"
   xmlns:cc="http://creativecommons.org/ns#"
   xmlns:rdf="http://www.w3.org/1999/02/22-rdf-syntax-ns#"
   xmlns:svg="http://www.w3.org/2000/svg"
   xmlns="http://www.w3.org/2000/svg"
   xmlns:sodipodi="http://sodipodi.sourceforge.net/DTD/sodipodi-0.dtd"
   xmlns:inkscape="http://www.inkscape.org/namespaces/inkscape"
   id="svg548"
   inkscape:version="0.92.1 r"
   viewBox="0 0 483.75 446.68"
   sodipodi:version="0.32"
   version="1.1"
   sodipodi:docname="entry_type__mushroom.svg"
   width="516"
   height="476.45865">
  <defs
     id="defs19" />
  <sodipodi:namedview
     id="base"
     inkscape:window-x="79"
     inkscape:window-y="29"
     inkscape:window-height="1027"
     inkscape:window-maximized="1"
     inkscape:zoom="1"
     showgrid="true"
     inkscape:current-layer="g837"
     inkscape:cx="150.62742"
     inkscape:cy="224.31954"
     inkscape:window-width="1841" />
  <g
     id="g837"
     transform="translate(-15,-27.127)">
    <path
       id="path785"
       inkscape:connector-curvature="0"
       sodipodi:nodetypes="ccccccc"
       style="fill:#a9a989;fill-rule:evenodd;stroke:none;stroke-width:0.93750002;stroke-linejoin:round;stroke-miterlimit:4;stroke-dasharray:none;fill-opacity:1"
       d="m 215,202.5 c 0,0 11.25,126.25 5,175 -6.25,48.75 -10,66.25 3.75,83.75 28.75,7.5 121.25,17.5 142.5,-15 C 365,403.75 315,345 306.25,297.5 297.5,250 335.66,203.9 278.16,192.65 220.66,181.4 213.75,205 215,202.5 Z" />
    <path
       id="path786"
       inkscape:connector-curvature="0"
       sodipodi:nodetypes="ccccc"
       style="fill:#8f8f80;fill-rule:evenodd;stroke:none;stroke-width:0.93750002;stroke-linejoin:round;stroke-miterlimit:4;stroke-dasharray:none;fill-opacity:1"
       d="m 215,211.25 c 0,0 3.75,51.25 -11.25,90 26.25,18.75 105,-3.75 123.75,-3.75 -25,-38.75 -15,-73.75 -15,-81.25 0,-7.5 -100,-7.5 -97.5,-5 z" />
    <path
       id="path784"
       inkscape:connector-curvature="0"
       sodipodi:nodetypes="ccccc"
       style="fill:#fa0000;fill-rule:evenodd;stroke:#000000;stroke-width:0;stroke-linejoin:round;stroke-miterlimit:4;stroke-dasharray:none"
       d="M 20,271.25 C 31.25,182.5 161.25,37.5 262.5,33.75 378.75,16.25 481.25,145 493.75,191.25 462.5,210 311.25,221.25 273.75,237.5 236.25,261.25 41.25,273.75 20,271.25 Z" />
    <path
       id="path787"
       inkscape:connector-curvature="0"
       sodipodi:nodetypes="ccc"
       style="fill:#faffff;fill-rule:evenodd"
       d="m 255,118.75 c -55,22.5 -42.5,107.5 13.75,98.75 91.25,-16.25 25,-108.75 -13.75,-98.75 z" />
    <path
       id="path788"
       inkscape:connector-curvature="0"
       sodipodi:nodetypes="ccc"
       style="fill:#faffff;fill-rule:evenodd"
       d="m 32.272,254.45 c -6.25,-10 26.25,-92.5 61.25,-77.5 43.748,21.25 -21.25,108.75 -61.25,77.5 z" />
    <path
       id="path789"
       inkscape:connector-curvature="0"
       sodipodi:nodetypes="ccc"
       style="fill:#faffff;fill-rule:evenodd"
       d="m 248.36,38.522 c 80,-11.25 26.25,27.5 -1.25,35 -23.75,5 -105,-7.5 1.25,-35 z" />
    <path
       id="path790"
       inkscape:connector-curvature="0"
       sodipodi:nodetypes="ccc"
       style="fill:#faffff;fill-rule:evenodd"
       d="m 142.5,102.5 c 31.25,-11.25 87.5,51.25 20,76.25 -68.75,8.75 -55,-61.25 -20,-76.25 z" />
    <path
       id="path791"
       inkscape:connector-curvature="0"
       sodipodi:nodetypes="ccc"
       style="fill:#faffff;fill-rule:evenodd"
       d="m 430.93,107.66 c -32.5,-26.251 -78.75,-18.751 -67.5,38.75 26.25,53.75 96.25,7.5 67.5,-38.75 z" />
    <path
       id="path792"
       inkscape:connector-curvature="0"
       sodipodi:nodetypes="ccc"
       style="fill:#faffff;fill-rule:evenodd"
       d="m 327.18,42.817 c -30,16.25 5,75.003 56.25,27.5 -10,-11.25 -47.5,-25 -56.25,-27.5 z" />
    <path
       id="path793"
       inkscape:connector-curvature="0"
       sodipodi:nodetypes="ccc"
       style="fill:#faffff;fill-rule:evenodd"
       d="m 488.27,187.89 c -5,-12.5 -17.65,-56.8 -45.15,-20.55 -29.62,56.32 45.15,20.55 45.15,20.55 z" />
    <path
       id="path1194"
       inkscape:connector-curvature="0"
       sodipodi:nodetypes="cccc"
       style="fill:#ffffff;fill-opacity:0.43333004;fill-rule:evenodd"
       d="m 289.64,37.217 c -80.9,-6.473 -216.82,79.283 -260.51,223.3 12.941,4.85 4.851,12.94 45.304,0 53.396,-190.94 174.76,-197.41 215.21,-223.3 z" />
  </g>
  <metadata
     id="metadata17">
    <rdf:RDF>
      <cc:Work>
        <dc:format>image/svg+xml</dc:format>
        <dc:type
           rdf:resource="http://purl.org/dc/dcmitype/StillImage" />
        <cc:license
           rdf:resource="http://creativecommons.org/licenses/publicdomain/" />
        <dc:publisher>
          <cc:Agent
             rdf:about="http://openclipart.org/">
            <dc:title>Openclipart</dc:title>
          </cc:Agent>
        </dc:publisher>
      </cc:Work>
      <cc:License
         rdf:about="http://creativecommons.org/licenses/publicdomain/">
        <cc:permits
           rdf:resource="http://creativecommons.org/ns#Reproduction" />
        <cc:permits
           rdf:resource="http://creativecommons.org/ns#Distribution" />
        <cc:permits
           rdf:resource="http://creativecommons.org/ns#DerivativeWorks" />
      </cc:License>
    </rdf:RDF>
  </metadata>
  <metadata
     id="metadata21">
    <rdf:RDF>
      <cc:Work
         rdf:about="">
        <dc:title>Clipart by Nicu Buculei - bee</dc:title>
        <dc:rights>
          <cc:Agent>
            <dc:title>Nicu Buculei</dc:title>
          </cc:Agent>
        </dc:rights>
        <dc:type
           rdf:resource="http://purl.org/dc/dcmitype/StillImage" />
        <cc:license
           rdf:resource="http://web.resource.org/cc/PublicDomain" />
      </cc:Work>
      <cc:License
         rdf:about="http://web.resource.org/cc/PublicDomain">
        <cc:permits
           rdf:resource="http://web.resource.org/cc/Reproduction" />
        <cc:permits
           rdf:resource="http://web.resource.org/cc/Distribution" />
        <cc:permits
           rdf:resource="http://web.resource.org/cc/DerivativeWorks" />
      </cc:License>
    </rdf:RDF>
  </metadata>
</svg>
